<?xml version="1.0" encoding="UTF-8" standalone="no"?>
<!DOCTYPE svg PUBLIC "-//W3C//DTD SVG 1.1//EN"
 "http://www.w3.org/Graphics/SVG/1.1/DTD/svg11.dtd">
<!-- Generated by graphviz version 2.38.0 (20140413.2041)
 -->
<!-- Title: xmm::ClassParameters&lt; GMM &gt; Pages: 1 -->
<svg width="535pt" height="168pt"
 viewBox="0.00 0.00 535.28 168.00" xmlns="http://www.w3.org/2000/svg" xmlns:xlink="http://www.w3.org/1999/xlink">
<g id="graph0" class="graph" transform="scale(1 1) rotate(0) translate(4 164)">
<title>xmm::ClassParameters&lt; GMM &gt;</title>
<polygon fill="white" stroke="none" points="-4,4 -4,-164 531.284,-164 531.284,4 -4,4"/>
<!-- Node1 -->
<g id="node1" class="node"><title>Node1</title>
<polygon fill="#bfbfbf" stroke="black" points="407.378,-73.5 407.378,-101.5 527.284,-101.5 527.284,-73.5 407.378,-73.5"/>
<text text-anchor="start" x="415.378" y="-89.5" font-family="Helvetica,sans-Serif" font-size="10.00">xmm::ClassParameters</text>
<text text-anchor="middle" x="467.331" y="-79.5" font-family="Helvetica,sans-Serif" font-size="10.00">&lt; GMM &gt;</text>
</g>
<!-- Node2 -->
<g id="node2" class="node"><title>Node2</title>
<g id="a_node2"><a xlink:href="classxmm_1_1_writable.html" target="_top" xlink:title="Abstract class for handling JSON + File I/O. ">
<polygon fill="white" stroke="black" points="164.255,-141.5 164.255,-159.5 243.971,-159.5 243.971,-141.5 164.255,-141.5"/>
<text text-anchor="middle" x="204.113" y="-147.5" font-family="Helvetica,sans-Serif" font-size="10.00">xmm::Writable</text>
</a>
</g>
</g>
<!-- Node2&#45;&gt;Node1 -->
<g id="edge1" class="edge"><title>Node2&#45;&gt;Node1</title>
<path fill="none" stroke="midnightblue" d="M254.313,-149.548C292.035,-147.65 344.985,-142.436 389.378,-128.5 409.309,-122.243 430.114,-110.818 445.058,-101.614"/>
<polygon fill="midnightblue" stroke="midnightblue" points="253.932,-146.061 244.096,-149.999 254.241,-153.054 253.932,-146.061"/>
</g>
<!-- Node3 -->
<g id="node3" class="node"><title>Node3</title>
<g id="a_node3"><a xlink:href="classxmm_1_1_attribute.html" target="_top" xlink:title="xmm::Attribute\&lt; double \&gt;">
<polygon fill="white" stroke="black" points="140.251,-104.5 140.251,-122.5 267.975,-122.5 267.975,-104.5 140.251,-104.5"/>
<text text-anchor="middle" x="204.113" y="-110.5" font-family="Helvetica,sans-Serif" font-size="10.00">xmm::Attribute&lt; double &gt;</text>
</a>
</g>
</g>
<!-- Node3&#45;&gt;Node1 -->
<g id="edge2" class="edge"><title>Node3&#45;&gt;Node1</title>
<path fill="none" stroke="#9a32cd" stroke-dasharray="5,2" d="M278.147,-106.231C318.847,-102.18 368.873,-97.2004 407.113,-93.3942"/>
<polygon fill="#9a32cd" stroke="#9a32cd" points="277.618,-102.766 268.013,-107.239 278.311,-109.732 277.618,-102.766"/>
<text text-anchor="middle" x="337.676" y="-116.5" font-family="Helvetica,sans-Serif" font-size="10.00"> relative_regularization</text>
<text text-anchor="middle" x="337.676" y="-106.5" font-family="Helvetica,sans-Serif" font-size="10.00">absolute_regularization</text>
</g>
<!-- Node4 -->
<g id="node4" class="node"><title>Node4</title>
<g id="a_node4"><a xlink:href="classxmm_1_1_attribute_base.html" target="_top" xlink:title="Base Class for Generic Attributes. ">
<polygon fill="white" stroke="black" points="0,-57.5 0,-75.5 103.251,-75.5 103.251,-57.5 0,-57.5"/>
<text text-anchor="middle" x="51.6255" y="-63.5" font-family="Helvetica,sans-Serif" font-size="10.00">xmm::AttributeBase</text>
</a>
</g>
</g>
<!-- Node4&#45;&gt;Node3 -->
<g id="edge3" class="edge"><title>Node4&#45;&gt;Node3</title>
<path fill="none" stroke="midnightblue" d="M88.8669,-78.8619C104.61,-84.1365 123.294,-90.2686 140.251,-95.5 150.014,-98.5119 160.682,-101.631 170.411,-104.409"/>
<polygon fill="midnightblue" stroke="midnightblue" points="89.5877,-75.4115 78.9936,-75.5376 87.354,-82.0456 89.5877,-75.4115"/>
</g>
<!-- Node5 -->
<g id="node5" class="node"><title>Node5</title>
<g id="a_node5"><a xlink:href="classxmm_1_1_attribute.html" target="_top" xlink:title="xmm::Attribute\&lt; xmm\l::GaussianDistribution\l::CovarianceMode \&gt;">
<polygon fill="white" stroke="black" points="147.202,-47.5 147.202,-85.5 261.024,-85.5 261.024,-47.5 147.202,-47.5"/>
<text text-anchor="start" x="155.202" y="-73.5" font-family="Helvetica,sans-Serif" font-size="10.00">xmm::Attribute&lt; xmm</text>
<text text-anchor="start" x="155.202" y="-63.5" font-family="Helvetica,sans-Serif" font-size="10.00">::GaussianDistribution</text>
<text text-anchor="middle" x="204.113" y="-53.5" font-family="Helvetica,sans-Serif" font-size="10.00">::CovarianceMode &gt;</text>
</a>
</g>
</g>
<!-- Node4&#45;&gt;Node5 -->
<g id="edge5" class="edge"><title>Node4&#45;&gt;Node5</title>
<path fill="none" stroke="midnightblue" d="M113.584,-66.5C124.647,-66.5 136.137,-66.5 147.05,-66.5"/>
<polygon fill="midnightblue" stroke="midnightblue" points="113.574,-63.0001 103.574,-66.5 113.574,-70.0001 113.574,-63.0001"/>
</g>
<!-- Node6 -->
<g id="node6" class="node"><title>Node6</title>
<g id="a_node6"><a xlink:href="classxmm_1_1_attribute.html" target="_top" xlink:title="xmm::Attribute\&lt; std\l::size_t \&gt;">
<polygon fill="white" stroke="black" points="152.905,-0.5 152.905,-28.5 255.321,-28.5 255.321,-0.5 152.905,-0.5"/>
<text text-anchor="start" x="160.905" y="-16.5" font-family="Helvetica,sans-Serif" font-size="10.00">xmm::Attribute&lt; std</text>
<text text-anchor="middle" x="204.113" y="-6.5" font-family="Helvetica,sans-Serif" font-size="10.00">::size_t &gt;</text>
</a>
</g>
</g>
<!-- Node4&#45;&gt;Node6 -->
<g id="edge7" class="edge"><title>Node4&#45;&gt;Node6</title>
<path fill="none" stroke="midnightblue" d="M88.5655,-54.0811C110.805,-46.3965 139.413,-36.5111 162.476,-28.542"/>
<polygon fill="midnightblue" stroke="midnightblue" points="87.1469,-50.8682 78.8384,-57.4423 89.4331,-57.4843 87.1469,-50.8682"/>
</g>
<!-- Node5&#45;&gt;Node1 -->
<g id="edge4" class="edge"><title>Node5&#45;&gt;Node1</title>
<path fill="none" stroke="#9a32cd" stroke-dasharray="5,2" d="M271.428,-67.3939C306.562,-68.3681 350.397,-70.3773 389.378,-74.5 395.172,-75.1128 401.19,-75.8865 407.195,-76.7497"/>
<polygon fill="#9a32cd" stroke="#9a32cd" points="271.378,-63.8915 261.291,-67.1346 271.199,-70.8892 271.378,-63.8915"/>
<text text-anchor="middle" x="337.676" y="-76.5" font-family="Helvetica,sans-Serif" font-size="10.00"> covariance_mode</text>
</g>
<!-- Node6&#45;&gt;Node1 -->
<g id="edge6" class="edge"><title>Node6&#45;&gt;Node1</title>
<path fill="none" stroke="#9a32cd" stroke-dasharray="5,2" d="M265.475,-24.0127C301.857,-30.5475 348.846,-40.4135 389.378,-53.5 406.057,-58.8852 424.008,-66.6925 438.374,-73.4679"/>
<polygon fill="#9a32cd" stroke="#9a32cd" points="265.964,-20.5451 255.508,-22.258 264.75,-27.4391 265.964,-20.5451"/>
<text text-anchor="middle" x="337.676" y="-55.5" font-family="Helvetica,sans-Serif" font-size="10.00"> gaussians</text>
</g>
</g>
</svg>
