<?xml version="1.0" encoding="UTF-8" standalone="no"?>
<!DOCTYPE svg PUBLIC "-//W3C//DTD SVG 1.1//EN"
 "http://www.w3.org/Graphics/SVG/1.1/DTD/svg11.dtd">
<!-- Generated by graphviz version 2.38.0 (20140413.2041)
 -->
<!-- Title: xmm::AttributeBase Pages: 1 -->
<svg width="300pt" height="571pt"
 viewBox="0.00 0.00 299.68 571.00" xmlns="http://www.w3.org/2000/svg" xmlns:xlink="http://www.w3.org/1999/xlink">
<g id="graph0" class="graph" transform="scale(1 1) rotate(0) translate(4 567)">
<title>xmm::AttributeBase</title>
<polygon fill="white" stroke="none" points="-4,4 -4,-567 295.677,-567 295.677,4 -4,4"/>
<!-- Node1 -->
<g id="node1" class="node"><title>Node1</title>
<polygon fill="#bfbfbf" stroke="black" points="0,-287.5 0,-305.5 103.251,-305.5 103.251,-287.5 0,-287.5"/>
<text text-anchor="middle" x="51.6255" y="-293.5" font-family="Helvetica,sans-Serif" font-size="10.00">xmm::AttributeBase</text>
</g>
<!-- Node2 -->
<g id="node2" class="node"><title>Node2</title>
<g id="a_node2"><a xlink:href="classxmm_1_1_attribute.html" target="_top" xlink:title="xmm::Attribute\&lt; bool \&gt;">
<polygon fill="white" stroke="black" points="157.164,-544.5 157.164,-562.5 273.764,-562.5 273.764,-544.5 157.164,-544.5"/>
<text text-anchor="middle" x="215.464" y="-550.5" font-family="Helvetica,sans-Serif" font-size="10.00">xmm::Attribute&lt; bool &gt;</text>
</a>
</g>
</g>
<!-- Node1&#45;&gt;Node2 -->
<g id="edge1" class="edge"><title>Node1&#45;&gt;Node2</title>
<path fill="none" stroke="midnightblue" d="M53.6665,-315.731C57.2057,-361.207 72.6314,-476.002 139.251,-535.5 144.358,-540.061 150.416,-543.52 156.842,-546.133"/>
<polygon fill="midnightblue" stroke="midnightblue" points="57.1429,-315.258 52.9865,-305.513 50.1583,-315.723 57.1429,-315.258"/>
</g>
<!-- Node3 -->
<g id="node3" class="node"><title>Node3</title>
<g id="a_node3"><a xlink:href="classxmm_1_1_attribute.html" target="_top" xlink:title="xmm::Attribute\&lt; Covariance\lMode \&gt;">
<polygon fill="white" stroke="black" points="145.635,-497.5 145.635,-525.5 285.292,-525.5 285.292,-497.5 145.635,-497.5"/>
<text text-anchor="start" x="153.635" y="-513.5" font-family="Helvetica,sans-Serif" font-size="10.00">xmm::Attribute&lt; Covariance</text>
<text text-anchor="middle" x="215.464" y="-503.5" font-family="Helvetica,sans-Serif" font-size="10.00">Mode &gt;</text>
</a>
</g>
</g>
<!-- Node1&#45;&gt;Node3 -->
<g id="edge2" class="edge"><title>Node1&#45;&gt;Node3</title>
<path fill="none" stroke="midnightblue" d="M55.841,-315.578C63.3269,-354.034 85.5404,-441.214 139.251,-488.5 143.146,-491.929 147.541,-494.846 152.203,-497.329"/>
<polygon fill="midnightblue" stroke="midnightblue" points="59.2768,-314.908 54.0386,-305.699 52.3905,-316.165 59.2768,-314.908"/>
</g>
<!-- Node4 -->
<g id="node4" class="node"><title>Node4</title>
<g id="a_node4"><a xlink:href="classxmm_1_1_attribute.html" target="_top" xlink:title="xmm::Attribute\&lt; double \&gt;">
<polygon fill="white" stroke="black" points="151.602,-460.5 151.602,-478.5 279.326,-478.5 279.326,-460.5 151.602,-460.5"/>
<text text-anchor="middle" x="215.464" y="-466.5" font-family="Helvetica,sans-Serif" font-size="10.00">xmm::Attribute&lt; double &gt;</text>
</a>
</g>
</g>
<!-- Node1&#45;&gt;Node4 -->
<g id="edge3" class="edge"><title>Node1&#45;&gt;Node4</title>
<path fill="none" stroke="midnightblue" d="M57.6854,-315.269C67.5693,-348.198 92.6592,-416.225 139.251,-451.5 144.068,-455.147 149.516,-458.068 155.223,-460.406"/>
<polygon fill="midnightblue" stroke="midnightblue" points="61.0198,-314.199 54.9073,-305.545 54.2891,-316.122 61.0198,-314.199"/>
</g>
<!-- Node5 -->
<g id="node5" class="node"><title>Node5</title>
<g id="a_node5"><a xlink:href="classxmm_1_1_attribute.html" target="_top" xlink:title="xmm::Attribute\&lt; float \&gt;">
<polygon fill="white" stroke="black" points="157.166,-423.5 157.166,-441.5 273.762,-441.5 273.762,-423.5 157.166,-423.5"/>
<text text-anchor="middle" x="215.464" y="-429.5" font-family="Helvetica,sans-Serif" font-size="10.00">xmm::Attribute&lt; float &gt;</text>
</a>
</g>
</g>
<!-- Node1&#45;&gt;Node5 -->
<g id="edge4" class="edge"><title>Node1&#45;&gt;Node5</title>
<path fill="none" stroke="midnightblue" d="M60.9008,-314.792C73.7701,-341.087 101.124,-389.18 139.251,-414.5 144.732,-418.14 150.87,-421.045 157.213,-423.365"/>
<polygon fill="midnightblue" stroke="midnightblue" points="63.9847,-313.126 56.5502,-305.578 57.6547,-316.115 63.9847,-313.126"/>
</g>
<!-- Node6 -->
<g id="node6" class="node"><title>Node6</title>
<g id="a_node6"><a xlink:href="classxmm_1_1_attribute.html" target="_top" xlink:title="xmm::Attribute\&lt; std\l::size_t \&gt;">
<polygon fill="white" stroke="black" points="164.256,-376.5 164.256,-404.5 266.672,-404.5 266.672,-376.5 164.256,-376.5"/>
<text text-anchor="start" x="172.256" y="-392.5" font-family="Helvetica,sans-Serif" font-size="10.00">xmm::Attribute&lt; std</text>
<text text-anchor="middle" x="215.464" y="-382.5" font-family="Helvetica,sans-Serif" font-size="10.00">::size_t &gt;</text>
</a>
</g>
</g>
<!-- Node1&#45;&gt;Node6 -->
<g id="edge5" class="edge"><title>Node1&#45;&gt;Node6</title>
<path fill="none" stroke="midnightblue" d="M68.5117,-312.815C84.8955,-328.796 111.851,-352.826 139.251,-367.5 146.955,-371.626 155.507,-375.126 164.003,-378.056"/>
<polygon fill="midnightblue" stroke="midnightblue" points="70.9169,-310.271 61.3623,-305.692 65.9764,-315.23 70.9169,-310.271"/>
</g>
<!-- Node7 -->
<g id="node7" class="node"><title>Node7</title>
<g id="a_node7"><a xlink:href="classxmm_1_1_attribute.html" target="_top" xlink:title="xmm::Attribute\&lt; std\l::string \&gt;">
<polygon fill="white" stroke="black" points="164.256,-329.5 164.256,-357.5 266.672,-357.5 266.672,-329.5 164.256,-329.5"/>
<text text-anchor="start" x="172.256" y="-345.5" font-family="Helvetica,sans-Serif" font-size="10.00">xmm::Attribute&lt; std</text>
<text text-anchor="middle" x="215.464" y="-335.5" font-family="Helvetica,sans-Serif" font-size="10.00">::string &gt;</text>
</a>
</g>
</g>
<!-- Node1&#45;&gt;Node7 -->
<g id="edge6" class="edge"><title>Node1&#45;&gt;Node7</title>
<path fill="none" stroke="midnightblue" d="M93.5673,-308.39C115.648,-314.803 143.033,-322.756 166.154,-329.47"/>
<polygon fill="midnightblue" stroke="midnightblue" points="94.4089,-304.99 83.8296,-305.562 92.4566,-311.712 94.4089,-304.99"/>
</g>
<!-- Node8 -->
<g id="node8" class="node"><title>Node8</title>
<g id="a_node8"><a xlink:href="classxmm_1_1_attribute.html" target="_top" xlink:title="xmm::Attribute\&lt; unsigned\l int \&gt;">
<polygon fill="white" stroke="black" points="150.63,-282.5 150.63,-310.5 280.297,-310.5 280.297,-282.5 150.63,-282.5"/>
<text text-anchor="start" x="158.63" y="-298.5" font-family="Helvetica,sans-Serif" font-size="10.00">xmm::Attribute&lt; unsigned</text>
<text text-anchor="middle" x="215.464" y="-288.5" font-family="Helvetica,sans-Serif" font-size="10.00"> int &gt;</text>
</a>
</g>
</g>
<!-- Node1&#45;&gt;Node8 -->
<g id="edge7" class="edge"><title>Node1&#45;&gt;Node8</title>
<path fill="none" stroke="midnightblue" d="M113.749,-296.5C125.754,-296.5 138.377,-296.5 150.473,-296.5"/>
<polygon fill="midnightblue" stroke="midnightblue" points="113.388,-293 103.388,-296.5 113.388,-300 113.388,-293"/>
</g>
<!-- Node9 -->
<g id="node9" class="node"><title>Node9</title>
<g id="a_node9"><a xlink:href="classxmm_1_1_attribute.html" target="_top" xlink:title="xmm::Attribute\&lt; xmm\l::GaussianDistribution\l::CovarianceMode \&gt;">
<polygon fill="white" stroke="black" points="158.553,-225.5 158.553,-263.5 272.375,-263.5 272.375,-225.5 158.553,-225.5"/>
<text text-anchor="start" x="166.553" y="-251.5" font-family="Helvetica,sans-Serif" font-size="10.00">xmm::Attribute&lt; xmm</text>
<text text-anchor="start" x="166.553" y="-241.5" font-family="Helvetica,sans-Serif" font-size="10.00">::GaussianDistribution</text>
<text text-anchor="middle" x="215.464" y="-231.5" font-family="Helvetica,sans-Serif" font-size="10.00">::CovarianceMode &gt;</text>
</a>
</g>
</g>
<!-- Node1&#45;&gt;Node9 -->
<g id="edge8" class="edge"><title>Node1&#45;&gt;Node9</title>
<path fill="none" stroke="midnightblue" d="M90.5895,-284.302C110.798,-277.809 136.041,-269.698 158.457,-262.496"/>
<polygon fill="midnightblue" stroke="midnightblue" points="89.2655,-281.051 80.8156,-287.442 91.4069,-287.715 89.2655,-281.051"/>
</g>
<!-- Node10 -->
<g id="node10" class="node"><title>Node10</title>
<g id="a_node10"><a xlink:href="classxmm_1_1_attribute.html" target="_top" xlink:title="xmm::Attribute\&lt; xmm\l::HMM::RegressionEstimator \&gt;">
<polygon fill="white" stroke="black" points="139.251,-178.5 139.251,-206.5 291.677,-206.5 291.677,-178.5 139.251,-178.5"/>
<text text-anchor="start" x="147.251" y="-194.5" font-family="Helvetica,sans-Serif" font-size="10.00">xmm::Attribute&lt; xmm</text>
<text text-anchor="middle" x="215.464" y="-184.5" font-family="Helvetica,sans-Serif" font-size="10.00">::HMM::RegressionEstimator &gt;</text>
</a>
</g>
</g>
<!-- Node1&#45;&gt;Node10 -->
<g id="edge9" class="edge"><title>Node1&#45;&gt;Node10</title>
<path fill="none" stroke="midnightblue" d="M66.8652,-279.522C82.7995,-261.522 110.213,-233.408 139.251,-216.5 145.766,-212.707 152.953,-209.436 160.223,-206.637"/>
<polygon fill="midnightblue" stroke="midnightblue" points="63.9015,-277.598 60.0082,-287.452 69.1965,-282.177 63.9015,-277.598"/>
</g>
<!-- Node11 -->
<g id="node11" class="node"><title>Node11</title>
<g id="a_node11"><a xlink:href="classxmm_1_1_attribute.html" target="_top" xlink:title="xmm::Attribute\&lt; xmm\l::HMM::TransitionMode \&gt;">
<polygon fill="white" stroke="black" points="151.38,-131.5 151.38,-159.5 279.548,-159.5 279.548,-131.5 151.38,-131.5"/>
<text text-anchor="start" x="159.38" y="-147.5" font-family="Helvetica,sans-Serif" font-size="10.00">xmm::Attribute&lt; xmm</text>
<text text-anchor="middle" x="215.464" y="-137.5" font-family="Helvetica,sans-Serif" font-size="10.00">::HMM::TransitionMode &gt;</text>
</a>
</g>
</g>
<!-- Node1&#45;&gt;Node11 -->
<g id="edge10" class="edge"><title>Node1&#45;&gt;Node11</title>
<path fill="none" stroke="midnightblue" d="M60.439,-277.975C73.0191,-250.345 100.353,-198.494 139.251,-169.5 144.416,-165.65 150.22,-162.405 156.253,-159.672"/>
<polygon fill="midnightblue" stroke="midnightblue" points="57.1687,-276.717 56.3466,-287.28 63.5763,-279.535 57.1687,-276.717"/>
</g>
<!-- Node12 -->
<g id="node12" class="node"><title>Node12</title>
<g id="a_node12"><a xlink:href="classxmm_1_1_attribute.html" target="_top" xlink:title="Generic Attribute. ">
<polygon fill="white" stroke="black" points="163.738,-94.5 163.738,-112.5 267.189,-112.5 267.189,-94.5 163.738,-94.5"/>
<text text-anchor="middle" x="215.464" y="-100.5" font-family="Helvetica,sans-Serif" font-size="10.00">xmm::Attribute&lt; T &gt;</text>
</a>
</g>
</g>
<!-- Node1&#45;&gt;Node12 -->
<g id="edge11" class="edge"><title>Node1&#45;&gt;Node12</title>
<path fill="none" stroke="midnightblue" d="M56.6739,-277.046C65.2483,-240.859 88.7445,-163.189 139.251,-122.5 146.278,-116.839 154.779,-112.84 163.5,-110.02"/>
<polygon fill="midnightblue" stroke="midnightblue" points="53.1615,-276.716 54.3989,-287.238 59.9934,-278.241 53.1615,-276.716"/>
</g>
<!-- Node13 -->
<g id="node13" class="node"><title>Node13</title>
<g id="a_node13"><a xlink:href="classxmm_1_1_attribute_3_01std_1_1vector_3_01std_1_1string_01_4_01_4.html" target="_top" xlink:title="Generic Attribute (Vector Specialization) ">
<polygon fill="white" stroke="black" points="156.468,-47.5 156.468,-75.5 274.46,-75.5 274.46,-47.5 156.468,-47.5"/>
<text text-anchor="start" x="164.468" y="-63.5" font-family="Helvetica,sans-Serif" font-size="10.00">xmm::Attribute&lt; std</text>
<text text-anchor="middle" x="215.464" y="-53.5" font-family="Helvetica,sans-Serif" font-size="10.00">::vector&lt; std::string &gt; &gt;</text>
</a>
</g>
</g>
<!-- Node1&#45;&gt;Node13 -->
<g id="edge12" class="edge"><title>Node1&#45;&gt;Node13</title>
<path fill="none" stroke="midnightblue" d="M55.0423,-277.321C61.2445,-236.155 81.5164,-138.755 139.251,-85.5 144.188,-80.9464 149.99,-77.2566 156.146,-74.2669"/>
<polygon fill="midnightblue" stroke="midnightblue" points="51.5574,-276.971 53.6465,-287.358 58.4907,-277.935 51.5574,-276.971"/>
</g>
<!-- Node14 -->
<g id="node14" class="node"><title>Node14</title>
<g id="a_node14"><a xlink:href="classxmm_1_1_attribute_3_01std_1_1vector_3_01_t_01_4_01_4.html" target="_top" xlink:title="Generic Attribute (Vector Specialization) ">
<polygon fill="white" stroke="black" points="164.256,-0.5 164.256,-28.5 266.672,-28.5 266.672,-0.5 164.256,-0.5"/>
<text text-anchor="start" x="172.256" y="-16.5" font-family="Helvetica,sans-Serif" font-size="10.00">xmm::Attribute&lt; std</text>
<text text-anchor="middle" x="215.464" y="-6.5" font-family="Helvetica,sans-Serif" font-size="10.00">::vector&lt; T &gt; &gt;</text>
</a>
</g>
</g>
<!-- Node1&#45;&gt;Node14 -->
<g id="edge13" class="edge"><title>Node1&#45;&gt;Node14</title>
<path fill="none" stroke="midnightblue" d="M53.3891,-277.378C56.3236,-230.013 70.5276,-106.197 139.251,-38.5 146.086,-31.7669 154.807,-26.9215 163.871,-23.4349"/>
<polygon fill="midnightblue" stroke="midnightblue" points="49.8889,-277.293 52.8689,-287.46 56.8796,-277.654 49.8889,-277.293"/>
</g>
</g>
</svg>
