<?xml version="1.0" encoding="UTF-8" standalone="no"?>
<!DOCTYPE svg PUBLIC "-//W3C//DTD SVG 1.1//EN"
 "http://www.w3.org/Graphics/SVG/1.1/DTD/svg11.dtd">
<!-- Generated by graphviz version 2.38.0 (20140413.2041)
 -->
<!-- Title: xmm::GaussianDistribution Pages: 1 -->
<svg width="366pt" height="168pt"
 viewBox="0.00 0.00 366.07 168.00" xmlns="http://www.w3.org/2000/svg" xmlns:xlink="http://www.w3.org/1999/xlink">
<g id="graph0" class="graph" transform="scale(1 1) rotate(0) translate(4 164)">
<title>xmm::GaussianDistribution</title>
<polygon fill="white" stroke="none" points="-4,4 -4,-164 362.066,-164 362.066,4 -4,4"/>
<!-- Node1 -->
<g id="node1" class="node"><title>Node1</title>
<polygon fill="#bfbfbf" stroke="black" points="100.117,-0.5 100.117,-18.5 235.599,-18.5 235.599,-0.5 100.117,-0.5"/>
<text text-anchor="middle" x="167.858" y="-6.5" font-family="Helvetica,sans-Serif" font-size="10.00">xmm::GaussianDistribution</text>
</g>
<!-- Node2 -->
<g id="node2" class="node"><title>Node2</title>
<g id="a_node2"><a xlink:href="classxmm_1_1_writable.html" target="_top" xlink:title="Abstract class for handling JSON + File I/O. ">
<polygon fill="white" stroke="black" points="0,-80.5 0,-98.5 79.7158,-98.5 79.7158,-80.5 0,-80.5"/>
<text text-anchor="middle" x="39.8579" y="-86.5" font-family="Helvetica,sans-Serif" font-size="10.00">xmm::Writable</text>
</a>
</g>
</g>
<!-- Node2&#45;&gt;Node1 -->
<g id="edge1" class="edge"><title>Node2&#45;&gt;Node1</title>
<path fill="none" stroke="midnightblue" d="M61.6966,-75.192C88.3264,-58.9645 132.5,-32.046 154.522,-18.6266"/>
<polygon fill="midnightblue" stroke="midnightblue" points="59.7922,-72.2539 53.0741,-80.4464 63.4348,-78.2315 59.7922,-72.2539"/>
</g>
<!-- Node3 -->
<g id="node3" class="node"><title>Node3</title>
<g id="a_node3"><a xlink:href="classxmm_1_1_attribute.html" target="_top" xlink:title="xmm::Attribute\&lt; Covariance\lMode \&gt;">
<polygon fill="white" stroke="black" points="98.0293,-75.5 98.0293,-103.5 237.687,-103.5 237.687,-75.5 98.0293,-75.5"/>
<text text-anchor="start" x="106.029" y="-91.5" font-family="Helvetica,sans-Serif" font-size="10.00">xmm::Attribute&lt; Covariance</text>
<text text-anchor="middle" x="167.858" y="-81.5" font-family="Helvetica,sans-Serif" font-size="10.00">Mode &gt;</text>
</a>
</g>
</g>
<!-- Node3&#45;&gt;Node1 -->
<g id="edge2" class="edge"><title>Node3&#45;&gt;Node1</title>
<path fill="none" stroke="#9a32cd" stroke-dasharray="5,2" d="M167.858,-65.2041C167.858,-49.496 167.858,-29.7073 167.858,-18.7528"/>
<polygon fill="#9a32cd" stroke="#9a32cd" points="164.358,-65.2683 167.858,-75.2684 171.358,-65.2684 164.358,-65.2683"/>
<text text-anchor="middle" x="208.715" y="-44" font-family="Helvetica,sans-Serif" font-size="10.00"> covariance_mode</text>
</g>
<!-- Node4 -->
<g id="node4" class="node"><title>Node4</title>
<g id="a_node4"><a xlink:href="classxmm_1_1_attribute_base.html" target="_top" xlink:title="Base Class for Generic Attributes. ">
<polygon fill="white" stroke="black" points="199.232,-141.5 199.232,-159.5 302.483,-159.5 302.483,-141.5 199.232,-141.5"/>
<text text-anchor="middle" x="250.858" y="-147.5" font-family="Helvetica,sans-Serif" font-size="10.00">xmm::AttributeBase</text>
</a>
</g>
</g>
<!-- Node4&#45;&gt;Node3 -->
<g id="edge3" class="edge"><title>Node4&#45;&gt;Node3</title>
<path fill="none" stroke="midnightblue" d="M231.11,-135.462C217.528,-125.807 199.613,-113.073 186.317,-103.621"/>
<polygon fill="midnightblue" stroke="midnightblue" points="229.139,-138.355 239.317,-141.296 233.194,-132.65 229.139,-138.355"/>
</g>
<!-- Node5 -->
<g id="node5" class="node"><title>Node5</title>
<g id="a_node5"><a xlink:href="classxmm_1_1_attribute.html" target="_top" xlink:title="xmm::Attribute\&lt; std\l::size_t \&gt;">
<polygon fill="white" stroke="black" points="255.65,-75.5 255.65,-103.5 358.066,-103.5 358.066,-75.5 255.65,-75.5"/>
<text text-anchor="start" x="263.65" y="-91.5" font-family="Helvetica,sans-Serif" font-size="10.00">xmm::Attribute&lt; std</text>
<text text-anchor="middle" x="306.858" y="-81.5" font-family="Helvetica,sans-Serif" font-size="10.00">::size_t &gt;</text>
</a>
</g>
</g>
<!-- Node4&#45;&gt;Node5 -->
<g id="edge5" class="edge"><title>Node4&#45;&gt;Node5</title>
<path fill="none" stroke="midnightblue" d="M265.78,-133.778C274.717,-124.363 285.946,-112.533 294.404,-103.621"/>
<polygon fill="midnightblue" stroke="midnightblue" points="262.99,-131.634 258.644,-141.296 268.067,-136.453 262.99,-131.634"/>
</g>
<!-- Node5&#45;&gt;Node1 -->
<g id="edge4" class="edge"><title>Node5&#45;&gt;Node1</title>
<path fill="none" stroke="#9a32cd" stroke-dasharray="5,2" d="M289.733,-67.6845C280.141,-57.1926 267.403,-45.027 253.858,-37 239.745,-28.6367 222.742,-22.6758 207.593,-18.5536"/>
<polygon fill="#9a32cd" stroke="#9a32cd" points="287.184,-70.0866 296.416,-75.2852 292.441,-65.4642 287.184,-70.0866"/>
<text text-anchor="middle" x="317.661" y="-49" font-family="Helvetica,sans-Serif" font-size="10.00"> dimension_input</text>
<text text-anchor="middle" x="317.661" y="-39" font-family="Helvetica,sans-Serif" font-size="10.00">dimension</text>
</g>
</g>
</svg>
