<?xml version="1.0" encoding="UTF-8" standalone="no"?>
<!DOCTYPE svg PUBLIC "-//W3C//DTD SVG 1.1//EN"
 "http://www.w3.org/Graphics/SVG/1.1/DTD/svg11.dtd">
<!-- Generated by graphviz version 2.38.0 (20140413.2041)
 -->
<!-- Title: xmm::ClassParameters&lt; HMM &gt; Pages: 1 -->
<svg width="560pt" height="225pt"
 viewBox="0.00 0.00 559.99 225.00" xmlns="http://www.w3.org/2000/svg" xmlns:xlink="http://www.w3.org/1999/xlink">
<g id="graph0" class="graph" transform="scale(1 1) rotate(0) translate(4 221)">
<title>xmm::ClassParameters&lt; HMM &gt;</title>
<polygon fill="white" stroke="none" points="-4,4 -4,-221 555.986,-221 555.986,4 -4,4"/>
<!-- Node1 -->
<g id="node1" class="node"><title>Node1</title>
<polygon fill="#bfbfbf" stroke="black" points="432.08,-99.5 432.08,-127.5 551.986,-127.5 551.986,-99.5 432.08,-99.5"/>
<text text-anchor="start" x="440.08" y="-115.5" font-family="Helvetica,sans-Serif" font-size="10.00">xmm::ClassParameters</text>
<text text-anchor="middle" x="492.033" y="-105.5" font-family="Helvetica,sans-Serif" font-size="10.00">&lt; HMM &gt;</text>
</g>
<!-- Node2 -->
<g id="node2" class="node"><title>Node2</title>
<g id="a_node2"><a xlink:href="classxmm_1_1_attribute.html" target="_top" xlink:title="xmm::Attribute\&lt; double \&gt;">
<polygon fill="white" stroke="black" points="152.602,-198.5 152.602,-216.5 280.326,-216.5 280.326,-198.5 152.602,-198.5"/>
<text text-anchor="middle" x="216.464" y="-204.5" font-family="Helvetica,sans-Serif" font-size="10.00">xmm::Attribute&lt; double &gt;</text>
</a>
</g>
</g>
<!-- Node2&#45;&gt;Node1 -->
<g id="edge1" class="edge"><title>Node2&#45;&gt;Node1</title>
<path fill="none" stroke="#9a32cd" stroke-dasharray="5,2" d="M286.251,-196.541C324.766,-189.063 373.132,-177.402 414.08,-160.5 434.917,-151.899 456.661,-138.103 471.699,-127.678"/>
<polygon fill="#9a32cd" stroke="#9a32cd" points="285.35,-193.15 276.174,-198.447 286.65,-200.028 285.35,-193.15"/>
<text text-anchor="middle" x="362.378" y="-202.5" font-family="Helvetica,sans-Serif" font-size="10.00"> relative_regularization</text>
<text text-anchor="middle" x="362.378" y="-192.5" font-family="Helvetica,sans-Serif" font-size="10.00">absolute_regularization</text>
</g>
<!-- Node3 -->
<g id="node3" class="node"><title>Node3</title>
<g id="a_node3"><a xlink:href="classxmm_1_1_attribute_base.html" target="_top" xlink:title="Base Class for Generic Attributes. ">
<polygon fill="white" stroke="black" points="0,-104.5 0,-122.5 103.251,-122.5 103.251,-104.5 0,-104.5"/>
<text text-anchor="middle" x="51.6255" y="-110.5" font-family="Helvetica,sans-Serif" font-size="10.00">xmm::AttributeBase</text>
</a>
</g>
</g>
<!-- Node3&#45;&gt;Node2 -->
<g id="edge2" class="edge"><title>Node3&#45;&gt;Node2</title>
<path fill="none" stroke="midnightblue" d="M67.2736,-130.273C83.4196,-147.696 111.006,-174.472 140.251,-189.5 147.416,-193.182 155.354,-196.127 163.309,-198.478"/>
<polygon fill="midnightblue" stroke="midnightblue" points="69.6097,-127.637 60.3092,-122.563 64.4152,-132.33 69.6097,-127.637"/>
</g>
<!-- Node4 -->
<g id="node4" class="node"><title>Node4</title>
<g id="a_node4"><a xlink:href="classxmm_1_1_attribute.html" target="_top" xlink:title="xmm::Attribute\&lt; xmm\l::HMM::TransitionMode \&gt;">
<polygon fill="white" stroke="black" points="152.38,-151.5 152.38,-179.5 280.548,-179.5 280.548,-151.5 152.38,-151.5"/>
<text text-anchor="start" x="160.38" y="-167.5" font-family="Helvetica,sans-Serif" font-size="10.00">xmm::Attribute&lt; xmm</text>
<text text-anchor="middle" x="216.464" y="-157.5" font-family="Helvetica,sans-Serif" font-size="10.00">::HMM::TransitionMode &gt;</text>
</a>
</g>
</g>
<!-- Node3&#45;&gt;Node4 -->
<g id="edge4" class="edge"><title>Node3&#45;&gt;Node4</title>
<path fill="none" stroke="midnightblue" d="M89.2633,-125.832C104.941,-131.056 123.467,-137.157 140.251,-142.5 149.489,-145.441 159.388,-148.519 168.871,-151.433"/>
<polygon fill="midnightblue" stroke="midnightblue" points="90.013,-122.393 79.4192,-122.543 87.7948,-129.032 90.013,-122.393"/>
</g>
<!-- Node5 -->
<g id="node5" class="node"><title>Node5</title>
<g id="a_node5"><a xlink:href="classxmm_1_1_attribute.html" target="_top" xlink:title="xmm::Attribute\&lt; xmm\l::GaussianDistribution\l::CovarianceMode \&gt;">
<polygon fill="white" stroke="black" points="159.553,-94.5 159.553,-132.5 273.375,-132.5 273.375,-94.5 159.553,-94.5"/>
<text text-anchor="start" x="167.553" y="-120.5" font-family="Helvetica,sans-Serif" font-size="10.00">xmm::Attribute&lt; xmm</text>
<text text-anchor="start" x="167.553" y="-110.5" font-family="Helvetica,sans-Serif" font-size="10.00">::GaussianDistribution</text>
<text text-anchor="middle" x="216.464" y="-100.5" font-family="Helvetica,sans-Serif" font-size="10.00">::CovarianceMode &gt;</text>
</a>
</g>
</g>
<!-- Node3&#45;&gt;Node5 -->
<g id="edge6" class="edge"><title>Node3&#45;&gt;Node5</title>
<path fill="none" stroke="midnightblue" d="M113.503,-113.5C128.575,-113.5 144.653,-113.5 159.479,-113.5"/>
<polygon fill="midnightblue" stroke="midnightblue" points="113.256,-110 103.256,-113.5 113.256,-117 113.256,-110"/>
</g>
<!-- Node6 -->
<g id="node6" class="node"><title>Node6</title>
<g id="a_node6"><a xlink:href="classxmm_1_1_attribute.html" target="_top" xlink:title="xmm::Attribute\&lt; xmm\l::HMM::RegressionEstimator \&gt;">
<polygon fill="white" stroke="black" points="140.251,-47.5 140.251,-75.5 292.677,-75.5 292.677,-47.5 140.251,-47.5"/>
<text text-anchor="start" x="148.251" y="-63.5" font-family="Helvetica,sans-Serif" font-size="10.00">xmm::Attribute&lt; xmm</text>
<text text-anchor="middle" x="216.464" y="-53.5" font-family="Helvetica,sans-Serif" font-size="10.00">::HMM::RegressionEstimator &gt;</text>
</a>
</g>
</g>
<!-- Node3&#45;&gt;Node6 -->
<g id="edge8" class="edge"><title>Node3&#45;&gt;Node6</title>
<path fill="none" stroke="midnightblue" d="M90.7352,-101.319C106.114,-96.4039 124.027,-90.6806 140.251,-85.5 150.305,-82.2896 161.115,-78.8392 171.317,-75.5836"/>
<polygon fill="midnightblue" stroke="midnightblue" points="89.4978,-98.0396 81.038,-104.418 91.6289,-104.707 89.4978,-98.0396"/>
</g>
<!-- Node7 -->
<g id="node7" class="node"><title>Node7</title>
<g id="a_node7"><a xlink:href="classxmm_1_1_attribute.html" target="_top" xlink:title="xmm::Attribute\&lt; std\l::size_t \&gt;">
<polygon fill="white" stroke="black" points="165.256,-0.5 165.256,-28.5 267.672,-28.5 267.672,-0.5 165.256,-0.5"/>
<text text-anchor="start" x="173.256" y="-16.5" font-family="Helvetica,sans-Serif" font-size="10.00">xmm::Attribute&lt; std</text>
<text text-anchor="middle" x="216.464" y="-6.5" font-family="Helvetica,sans-Serif" font-size="10.00">::size_t &gt;</text>
</a>
</g>
</g>
<!-- Node3&#45;&gt;Node7 -->
<g id="edge10" class="edge"><title>Node3&#45;&gt;Node7</title>
<path fill="none" stroke="midnightblue" d="M68.0639,-96.8404C84.5005,-79.9907 111.991,-54.2481 140.251,-38.5 147.914,-34.2299 156.446,-30.5949 164.934,-27.5442"/>
<polygon fill="midnightblue" stroke="midnightblue" points="65.3018,-94.6649 60.9281,-104.315 70.365,-99.4987 65.3018,-94.6649"/>
</g>
<!-- Node4&#45;&gt;Node1 -->
<g id="edge3" class="edge"><title>Node4&#45;&gt;Node1</title>
<path fill="none" stroke="#9a32cd" stroke-dasharray="5,2" d="M290.409,-151.635C334.694,-143.217 390.488,-132.612 431.989,-124.723"/>
<polygon fill="#9a32cd" stroke="#9a32cd" points="289.74,-148.199 280.57,-153.505 291.047,-155.076 289.74,-148.199"/>
<text text-anchor="middle" x="362.378" y="-148.5" font-family="Helvetica,sans-Serif" font-size="10.00"> transition_mode</text>
</g>
<!-- Node5&#45;&gt;Node1 -->
<g id="edge5" class="edge"><title>Node5&#45;&gt;Node1</title>
<path fill="none" stroke="#9a32cd" stroke-dasharray="5,2" d="M283.767,-113.5C328.927,-113.5 388.19,-113.5 431.774,-113.5"/>
<polygon fill="#9a32cd" stroke="#9a32cd" points="283.485,-110 273.485,-113.5 283.485,-117 283.485,-110"/>
<text text-anchor="middle" x="362.378" y="-115.5" font-family="Helvetica,sans-Serif" font-size="10.00"> covariance_mode</text>
</g>
<!-- Node6&#45;&gt;Node1 -->
<g id="edge7" class="edge"><title>Node6&#45;&gt;Node1</title>
<path fill="none" stroke="#9a32cd" stroke-dasharray="5,2" d="M301.142,-77.4055C343.433,-85.4442 393.743,-95.007 431.95,-102.269"/>
<polygon fill="#9a32cd" stroke="#9a32cd" points="301.613,-73.9325 291.135,-75.5034 300.306,-80.8093 301.613,-73.9325"/>
<text text-anchor="middle" x="362.378" y="-99.5" font-family="Helvetica,sans-Serif" font-size="10.00"> regression_estimator</text>
</g>
<!-- Node7&#45;&gt;Node1 -->
<g id="edge9" class="edge"><title>Node7&#45;&gt;Node1</title>
<path fill="none" stroke="#9a32cd" stroke-dasharray="5,2" d="M277.967,-20.1534C317.985,-25.5458 370.844,-35.8943 414.08,-55.5 438.154,-66.4163 461.824,-85.9512 476.419,-99.3078"/>
<polygon fill="#9a32cd" stroke="#9a32cd" points="278.187,-16.653 267.824,-18.855 277.298,-23.5964 278.187,-16.653"/>
<text text-anchor="middle" x="362.378" y="-67.5" font-family="Helvetica,sans-Serif" font-size="10.00"> states</text>
<text text-anchor="middle" x="362.378" y="-57.5" font-family="Helvetica,sans-Serif" font-size="10.00">gaussians</text>
</g>
</g>
</svg>
