<?xml version="1.0" encoding="UTF-8" standalone="no"?>
<!DOCTYPE svg PUBLIC "-//W3C//DTD SVG 1.1//EN"
 "http://www.w3.org/Graphics/SVG/1.1/DTD/svg11.dtd">
<!-- Generated by graphviz version 2.38.0 (20140413.2041)
 -->
<!-- Title: xmm::PhraseEvent Pages: 1 -->
<svg width="622pt" height="168pt"
 viewBox="0.00 0.00 622.29 168.00" xmlns="http://www.w3.org/2000/svg" xmlns:xlink="http://www.w3.org/1999/xlink">
<g id="graph0" class="graph" transform="scale(1 1) rotate(0) translate(4 164)">
<title>xmm::PhraseEvent</title>
<polygon fill="white" stroke="none" points="-4,4 -4,-164 618.294,-164 618.294,4 -4,4"/>
<!-- Node1 -->
<g id="node1" class="node"><title>Node1</title>
<polygon fill="#bfbfbf" stroke="black" points="513.821,-73.5 513.821,-91.5 614.294,-91.5 614.294,-73.5 513.821,-73.5"/>
<text text-anchor="middle" x="564.058" y="-79.5" font-family="Helvetica,sans-Serif" font-size="10.00">xmm::PhraseEvent</text>
</g>
<!-- Node2 -->
<g id="node2" class="node"><title>Node2</title>
<g id="a_node2"><a xlink:href="classxmm_1_1_phrase.html" target="_top" xlink:title="Data phrase. ">
<polygon fill="white" stroke="black" points="369.565,-73.5 369.565,-91.5 444.467,-91.5 444.467,-73.5 369.565,-73.5"/>
<text text-anchor="middle" x="407.016" y="-79.5" font-family="Helvetica,sans-Serif" font-size="10.00">xmm::Phrase</text>
</a>
</g>
</g>
<!-- Node2&#45;&gt;Node1 -->
<g id="edge1" class="edge"><title>Node2&#45;&gt;Node1</title>
<path fill="none" stroke="#9a32cd" stroke-dasharray="5,2" d="M454.772,-82.5C473.38,-82.5 494.811,-82.5 513.672,-82.5"/>
<polygon fill="#9a32cd" stroke="#9a32cd" points="454.759,-79.0001 444.759,-82.5 454.759,-86.0001 454.759,-79.0001"/>
<text text-anchor="middle" x="479.144" y="-84.5" font-family="Helvetica,sans-Serif" font-size="10.00"> phrase</text>
</g>
<!-- Node3 -->
<g id="node3" class="node"><title>Node3</title>
<g id="a_node3"><a xlink:href="classxmm_1_1_writable.html" target="_top" xlink:title="Abstract class for handling JSON + File I/O. ">
<polygon fill="white" stroke="black" points="159.248,-141.5 159.248,-159.5 238.963,-159.5 238.963,-141.5 159.248,-141.5"/>
<text text-anchor="middle" x="199.105" y="-147.5" font-family="Helvetica,sans-Serif" font-size="10.00">xmm::Writable</text>
</a>
</g>
</g>
<!-- Node3&#45;&gt;Node2 -->
<g id="edge2" class="edge"><title>Node3&#45;&gt;Node2</title>
<path fill="none" stroke="midnightblue" d="M249.125,-147.059C279.603,-143.573 319.04,-136.567 351.565,-122.5 369.007,-114.957 386.179,-100.943 396.438,-91.6677"/>
<polygon fill="midnightblue" stroke="midnightblue" points="248.732,-143.581 239.155,-148.112 249.467,-150.542 248.732,-143.581"/>
</g>
<!-- Node4 -->
<g id="node4" class="node"><title>Node4</title>
<g id="a_node4"><a xlink:href="classxmm_1_1_attribute.html" target="_top" xlink:title="xmm::Attribute\&lt; std\l::size_t \&gt;">
<polygon fill="white" stroke="black" points="147.897,-94.5 147.897,-122.5 250.313,-122.5 250.313,-94.5 147.897,-94.5"/>
<text text-anchor="start" x="155.897" y="-110.5" font-family="Helvetica,sans-Serif" font-size="10.00">xmm::Attribute&lt; std</text>
<text text-anchor="middle" x="199.105" y="-100.5" font-family="Helvetica,sans-Serif" font-size="10.00">::size_t &gt;</text>
</a>
</g>
</g>
<!-- Node4&#45;&gt;Node2 -->
<g id="edge3" class="edge"><title>Node4&#45;&gt;Node2</title>
<path fill="none" stroke="#9a32cd" stroke-dasharray="5,2" d="M260.669,-100.853C295.949,-96.3979 339.276,-90.9271 369.403,-87.1231"/>
<polygon fill="#9a32cd" stroke="#9a32cd" points="259.96,-97.4144 250.477,-102.14 260.837,-104.359 259.96,-97.4144"/>
<text text-anchor="middle" x="313.763" y="-110.5" font-family="Helvetica,sans-Serif" font-size="10.00"> dimension_input</text>
<text text-anchor="middle" x="313.763" y="-100.5" font-family="Helvetica,sans-Serif" font-size="10.00">dimension</text>
</g>
<!-- Node5 -->
<g id="node5" class="node"><title>Node5</title>
<g id="a_node5"><a xlink:href="classxmm_1_1_attribute_base.html" target="_top" xlink:title="Base Class for Generic Attributes. ">
<polygon fill="white" stroke="black" points="0,-78.5 0,-96.5 103.251,-96.5 103.251,-78.5 0,-78.5"/>
<text text-anchor="middle" x="51.6255" y="-84.5" font-family="Helvetica,sans-Serif" font-size="10.00">xmm::AttributeBase</text>
</a>
</g>
</g>
<!-- Node5&#45;&gt;Node4 -->
<g id="edge4" class="edge"><title>Node5&#45;&gt;Node4</title>
<path fill="none" stroke="midnightblue" d="M113.703,-96.3166C124.958,-97.9412 136.595,-99.6209 147.498,-101.195"/>
<polygon fill="midnightblue" stroke="midnightblue" points="113.905,-92.8095 103.507,-94.8448 112.905,-99.7376 113.905,-92.8095"/>
</g>
<!-- Node7 -->
<g id="node7" class="node"><title>Node7</title>
<g id="a_node7"><a xlink:href="classxmm_1_1_attribute.html" target="_top" xlink:title="xmm::Attribute\&lt; std\l::string \&gt;">
<polygon fill="white" stroke="black" points="147.897,-47.5 147.897,-75.5 250.313,-75.5 250.313,-47.5 147.897,-47.5"/>
<text text-anchor="start" x="155.897" y="-63.5" font-family="Helvetica,sans-Serif" font-size="10.00">xmm::Attribute&lt; std</text>
<text text-anchor="middle" x="199.105" y="-53.5" font-family="Helvetica,sans-Serif" font-size="10.00">::string &gt;</text>
</a>
</g>
</g>
<!-- Node5&#45;&gt;Node7 -->
<g id="edge7" class="edge"><title>Node5&#45;&gt;Node7</title>
<path fill="none" stroke="midnightblue" d="M113.086,-76.6946C124.608,-74.6354 136.554,-72.5004 147.721,-70.5046"/>
<polygon fill="midnightblue" stroke="midnightblue" points="112.327,-73.2746 103.099,-78.4794 113.559,-80.1654 112.327,-73.2746"/>
</g>
<!-- Node6 -->
<g id="node6" class="node"><title>Node6</title>
<g id="a_node6"><a xlink:href="classxmm_1_1_event_generator.html" target="_top" xlink:title="xmm::EventGenerator\l\&lt; xmm::PhraseEvent \&gt;">
<polygon fill="white" stroke="black" points="140.251,-0.5 140.251,-28.5 257.96,-28.5 257.96,-0.5 140.251,-0.5"/>
<text text-anchor="start" x="148.251" y="-16.5" font-family="Helvetica,sans-Serif" font-size="10.00">xmm::EventGenerator</text>
<text text-anchor="middle" x="199.105" y="-6.5" font-family="Helvetica,sans-Serif" font-size="10.00">&lt; xmm::PhraseEvent &gt;</text>
</a>
</g>
</g>
<!-- Node6&#45;&gt;Node2 -->
<g id="edge5" class="edge"><title>Node6&#45;&gt;Node2</title>
<path fill="none" stroke="#9a32cd" stroke-dasharray="5,2" d="M268.312,-24.7392C294.906,-30.0287 325.258,-37.7017 351.565,-48.5 367.237,-54.9326 383.494,-65.7128 394.117,-73.4101"/>
<polygon fill="#9a32cd" stroke="#9a32cd" points="268.799,-21.2691 258.32,-22.8271 267.483,-28.1443 268.799,-21.2691"/>
<text text-anchor="middle" x="313.763" y="-50.5" font-family="Helvetica,sans-Serif" font-size="10.00"> events</text>
</g>
<!-- Node7&#45;&gt;Node2 -->
<g id="edge6" class="edge"><title>Node7&#45;&gt;Node2</title>
<path fill="none" stroke="#9a32cd" stroke-dasharray="5,2" d="M260.829,-62.1908C288.605,-63.1511 321.871,-65.2073 351.565,-69.5 358.395,-70.4873 365.624,-71.9269 372.507,-73.4919"/>
<polygon fill="#9a32cd" stroke="#9a32cd" points="260.574,-58.6815 250.471,-61.8741 260.36,-65.6782 260.574,-58.6815"/>
<text text-anchor="middle" x="313.763" y="-71.5" font-family="Helvetica,sans-Serif" font-size="10.00"> label</text>
</g>
</g>
</svg>
