<?xml version="1.0" encoding="UTF-8" standalone="no"?>
<!DOCTYPE svg PUBLIC "-//W3C//DTD SVG 1.1//EN"
 "http://www.w3.org/Graphics/SVG/1.1/DTD/svg11.dtd">
<!-- Generated by graphviz version 2.38.0 (20140413.2041)
 -->
<!-- Title: xmm::SharedParameters Pages: 1 -->
<svg width="575pt" height="242pt"
 viewBox="0.00 0.00 575.02 242.00" xmlns="http://www.w3.org/2000/svg" xmlns:xlink="http://www.w3.org/1999/xlink">
<g id="graph0" class="graph" transform="scale(1 1) rotate(0) translate(4 238)">
<title>xmm::SharedParameters</title>
<polygon fill="white" stroke="none" points="-4,4 -4,-238 571.016,-238 571.016,4 -4,4"/>
<!-- Node1 -->
<g id="node1" class="node"><title>Node1</title>
<polygon fill="#bfbfbf" stroke="black" points="439.868,-120.5 439.868,-138.5 567.016,-138.5 567.016,-120.5 439.868,-120.5"/>
<text text-anchor="middle" x="503.442" y="-126.5" font-family="Helvetica,sans-Serif" font-size="10.00">xmm::SharedParameters</text>
</g>
<!-- Node2 -->
<g id="node2" class="node"><title>Node2</title>
<g id="a_node2"><a xlink:href="classxmm_1_1_writable.html" target="_top" xlink:title="Abstract class for handling JSON + File I/O. ">
<polygon fill="white" stroke="black" points="165.227,-215.5 165.227,-233.5 244.942,-233.5 244.942,-215.5 165.227,-215.5"/>
<text text-anchor="middle" x="205.084" y="-221.5" font-family="Helvetica,sans-Serif" font-size="10.00">xmm::Writable</text>
</a>
</g>
</g>
<!-- Node2&#45;&gt;Node1 -->
<g id="edge1" class="edge"><title>Node2&#45;&gt;Node1</title>
<path fill="none" stroke="midnightblue" d="M255.18,-223.918C300.2,-221.803 367.875,-214.571 421.868,-191.5 451.408,-178.878 479.671,-152.866 493.541,-138.883"/>
<polygon fill="midnightblue" stroke="midnightblue" points="254.941,-220.425 245.089,-224.325 255.222,-227.419 254.941,-220.425"/>
</g>
<!-- Node3 -->
<g id="node3" class="node"><title>Node3</title>
<g id="a_node3"><a xlink:href="classxmm_1_1_attribute.html" target="_top" xlink:title="xmm::Attribute\&lt; double \&gt;">
<polygon fill="white" stroke="black" points="141.223,-178.5 141.223,-196.5 268.946,-196.5 268.946,-178.5 141.223,-178.5"/>
<text text-anchor="middle" x="205.084" y="-184.5" font-family="Helvetica,sans-Serif" font-size="10.00">xmm::Attribute&lt; double &gt;</text>
</a>
</g>
</g>
<!-- Node3&#45;&gt;Node1 -->
<g id="edge2" class="edge"><title>Node3&#45;&gt;Node1</title>
<path fill="none" stroke="#9a32cd" stroke-dasharray="5,2" d="M279.485,-179.037C321.47,-173.509 374.955,-165.302 421.868,-154.5 440.423,-150.228 460.911,-143.848 476.584,-138.602"/>
<polygon fill="#9a32cd" stroke="#9a32cd" points="278.813,-175.595 269.345,-180.349 279.711,-182.537 278.813,-175.595"/>
<text text-anchor="middle" x="354.893" y="-179.5" font-family="Helvetica,sans-Serif" font-size="10.00"> em_algorithm_percent_chg</text>
</g>
<!-- Node4 -->
<g id="node4" class="node"><title>Node4</title>
<g id="a_node4"><a xlink:href="classxmm_1_1_attribute_base.html" target="_top" xlink:title="Base Class for Generic Attributes. ">
<polygon fill="white" stroke="black" points="0,-94.5 0,-112.5 103.251,-112.5 103.251,-94.5 0,-94.5"/>
<text text-anchor="middle" x="51.6255" y="-100.5" font-family="Helvetica,sans-Serif" font-size="10.00">xmm::AttributeBase</text>
</a>
</g>
</g>
<!-- Node4&#45;&gt;Node3 -->
<g id="edge3" class="edge"><title>Node4&#45;&gt;Node3</title>
<path fill="none" stroke="midnightblue" d="M69.8843,-119.608C86.6803,-134.492 113.514,-156.247 140.251,-169.5 147.473,-173.08 155.517,-176.048 163.396,-178.471"/>
<polygon fill="midnightblue" stroke="midnightblue" points="71.8318,-116.65 62.0698,-112.532 67.1333,-121.839 71.8318,-116.65"/>
</g>
<!-- Node5 -->
<g id="node5" class="node"><title>Node5</title>
<g id="a_node5"><a xlink:href="classxmm_1_1_attribute_3_01std_1_1vector_3_01std_1_1string_01_4_01_4.html" target="_top" xlink:title="Generic Attribute (Vector Specialization) ">
<polygon fill="white" stroke="black" points="146.088,-131.5 146.088,-159.5 264.081,-159.5 264.081,-131.5 146.088,-131.5"/>
<text text-anchor="start" x="154.088" y="-147.5" font-family="Helvetica,sans-Serif" font-size="10.00">xmm::Attribute&lt; std</text>
<text text-anchor="middle" x="205.084" y="-137.5" font-family="Helvetica,sans-Serif" font-size="10.00">::vector&lt; std::string &gt; &gt;</text>
</a>
</g>
</g>
<!-- Node4&#45;&gt;Node5 -->
<g id="edge5" class="edge"><title>Node4&#45;&gt;Node5</title>
<path fill="none" stroke="midnightblue" d="M94.851,-115.209C113.034,-120.251 134.444,-126.188 153.469,-131.464"/>
<polygon fill="midnightblue" stroke="midnightblue" points="95.6889,-111.81 85.1172,-112.51 93.8183,-118.555 95.6889,-111.81"/>
</g>
<!-- Node6 -->
<g id="node6" class="node"><title>Node6</title>
<g id="a_node6"><a xlink:href="classxmm_1_1_attribute.html" target="_top" xlink:title="xmm::Attribute\&lt; bool \&gt;">
<polygon fill="white" stroke="black" points="146.784,-94.5 146.784,-112.5 263.385,-112.5 263.385,-94.5 146.784,-94.5"/>
<text text-anchor="middle" x="205.084" y="-100.5" font-family="Helvetica,sans-Serif" font-size="10.00">xmm::Attribute&lt; bool &gt;</text>
</a>
</g>
</g>
<!-- Node4&#45;&gt;Node6 -->
<g id="edge7" class="edge"><title>Node4&#45;&gt;Node6</title>
<path fill="none" stroke="midnightblue" d="M113.722,-103.5C124.569,-103.5 135.832,-103.5 146.575,-103.5"/>
<polygon fill="midnightblue" stroke="midnightblue" points="113.481,-100 103.48,-103.5 113.48,-107 113.481,-100"/>
</g>
<!-- Node7 -->
<g id="node7" class="node"><title>Node7</title>
<g id="a_node7"><a xlink:href="classxmm_1_1_attribute.html" target="_top" xlink:title="xmm::Attribute\&lt; std\l::size_t \&gt;">
<polygon fill="white" stroke="black" points="153.876,-47.5 153.876,-75.5 256.292,-75.5 256.292,-47.5 153.876,-47.5"/>
<text text-anchor="start" x="161.876" y="-63.5" font-family="Helvetica,sans-Serif" font-size="10.00">xmm::Attribute&lt; std</text>
<text text-anchor="middle" x="205.084" y="-53.5" font-family="Helvetica,sans-Serif" font-size="10.00">::size_t &gt;</text>
</a>
</g>
</g>
<!-- Node4&#45;&gt;Node7 -->
<g id="edge9" class="edge"><title>Node4&#45;&gt;Node7</title>
<path fill="none" stroke="midnightblue" d="M94.8951,-91.7785C113.162,-86.7129 134.681,-80.7458 153.764,-75.4539"/>
<polygon fill="midnightblue" stroke="midnightblue" points="93.8183,-88.445 85.1172,-94.4899 95.6889,-95.1904 93.8183,-88.445"/>
</g>
<!-- Node8 -->
<g id="node8" class="node"><title>Node8</title>
<g id="a_node8"><a xlink:href="classxmm_1_1_attribute.html" target="_top" xlink:title="xmm::Attribute\&lt; unsigned\l int \&gt;">
<polygon fill="white" stroke="black" points="140.251,-0.5 140.251,-28.5 269.918,-28.5 269.918,-0.5 140.251,-0.5"/>
<text text-anchor="start" x="148.251" y="-16.5" font-family="Helvetica,sans-Serif" font-size="10.00">xmm::Attribute&lt; unsigned</text>
<text text-anchor="middle" x="205.084" y="-6.5" font-family="Helvetica,sans-Serif" font-size="10.00"> int &gt;</text>
</a>
</g>
</g>
<!-- Node4&#45;&gt;Node8 -->
<g id="edge11" class="edge"><title>Node4&#45;&gt;Node8</title>
<path fill="none" stroke="midnightblue" d="M70.748,-87.6862C87.7915,-73.4089 114.474,-52.5464 140.251,-38.5 146.905,-34.8744 154.221,-31.5615 161.453,-28.6317"/>
<polygon fill="midnightblue" stroke="midnightblue" points="68.1135,-85.3326 62.7698,-94.4811 72.6523,-90.6617 68.1135,-85.3326"/>
</g>
<!-- Node5&#45;&gt;Node1 -->
<g id="edge4" class="edge"><title>Node5&#45;&gt;Node1</title>
<path fill="none" stroke="#9a32cd" stroke-dasharray="5,2" d="M274.329,-141.816C324.184,-139.124 391.268,-135.502 439.77,-132.884"/>
<polygon fill="#9a32cd" stroke="#9a32cd" points="274.078,-138.324 264.282,-142.358 274.456,-145.314 274.078,-138.324"/>
<text text-anchor="middle" x="354.893" y="-142.5" font-family="Helvetica,sans-Serif" font-size="10.00"> column_names</text>
</g>
<!-- Node6&#45;&gt;Node1 -->
<g id="edge6" class="edge"><title>Node6&#45;&gt;Node1</title>
<path fill="none" stroke="#9a32cd" stroke-dasharray="5,2" d="M273.64,-107.648C316.214,-110.475 372.311,-114.59 421.868,-119.5 427.619,-120.07 433.595,-120.714 439.576,-121.393"/>
<polygon fill="#9a32cd" stroke="#9a32cd" points="273.604,-104.138 263.396,-106.975 273.145,-111.123 273.604,-104.138"/>
<text text-anchor="middle" x="354.893" y="-121.5" font-family="Helvetica,sans-Serif" font-size="10.00"> bimodal</text>
</g>
<!-- Node7&#45;&gt;Node1 -->
<g id="edge8" class="edge"><title>Node7&#45;&gt;Node1</title>
<path fill="none" stroke="#9a32cd" stroke-dasharray="5,2" d="M266.4,-56.6754C310.615,-55.141 371.463,-57.2596 421.868,-74.5 450.714,-84.3663 478.83,-107.549 492.981,-120.445"/>
<polygon fill="#9a32cd" stroke="#9a32cd" points="266.229,-53.1795 256.384,-57.0951 266.522,-60.1733 266.229,-53.1795"/>
<text text-anchor="middle" x="354.893" y="-96.5" font-family="Helvetica,sans-Serif" font-size="10.00"> likelihood_window</text>
<text text-anchor="middle" x="354.893" y="-86.5" font-family="Helvetica,sans-Serif" font-size="10.00">dimension_input</text>
<text text-anchor="middle" x="354.893" y="-76.5" font-family="Helvetica,sans-Serif" font-size="10.00">dimension</text>
</g>
<!-- Node8&#45;&gt;Node1 -->
<g id="edge10" class="edge"><title>Node8&#45;&gt;Node1</title>
<path fill="none" stroke="#9a32cd" stroke-dasharray="5,2" d="M280.361,-6.37242C323.913,-4.90651 378.681,-8.98092 421.868,-31.5 460.929,-51.8677 488.136,-100.225 498.169,-120.407"/>
<polygon fill="#9a32cd" stroke="#9a32cd" points="279.95,-2.88707 270.114,-6.82516 280.259,-9.88025 279.95,-2.88707"/>
<text text-anchor="middle" x="354.893" y="-43.5" font-family="Helvetica,sans-Serif" font-size="10.00"> em_algorithm_max_iterations</text>
<text text-anchor="middle" x="354.893" y="-33.5" font-family="Helvetica,sans-Serif" font-size="10.00">em_algorithm_min_iterations</text>
</g>
</g>
</svg>
