<?xml version="1.0" encoding="UTF-8" standalone="no"?>
<!DOCTYPE svg PUBLIC "-//W3C//DTD SVG 1.1//EN"
 "http://www.w3.org/Graphics/SVG/1.1/DTD/svg11.dtd">
<!-- Generated by graphviz version 2.38.0 (20140413.2041)
 -->
<!-- Title: xmm::GMM Pages: 1 -->
<svg width="1096pt" height="172pt"
 viewBox="0.00 0.00 1095.65 172.00" xmlns="http://www.w3.org/2000/svg" xmlns:xlink="http://www.w3.org/1999/xlink">
<g id="graph0" class="graph" transform="scale(1 1) rotate(0) translate(4 168)">
<title>xmm::GMM</title>
<polygon fill="white" stroke="none" points="-4,4 -4,-168 1091.65,-168 1091.65,4 -4,4"/>
<!-- Node1 -->
<g id="node1" class="node"><title>Node1</title>
<polygon fill="#bfbfbf" stroke="black" points="1019.99,-73.5 1019.99,-91.5 1087.65,-91.5 1087.65,-73.5 1019.99,-73.5"/>
<text text-anchor="middle" x="1053.82" y="-79.5" font-family="Helvetica,sans-Serif" font-size="10.00">xmm::GMM</text>
</g>
<!-- Node2 -->
<g id="node2" class="node"><title>Node2</title>
<g id="a_node2"><a xlink:href="classxmm_1_1_model.html" target="_top" xlink:title="xmm::Model\&lt; SingleClassGMM,\l GMM \&gt;">
<polygon fill="white" stroke="black" points="792.671,-97.5 792.671,-125.5 951.762,-125.5 951.762,-97.5 792.671,-97.5"/>
<text text-anchor="start" x="800.671" y="-113.5" font-family="Helvetica,sans-Serif" font-size="10.00">xmm::Model&lt; SingleClassGMM,</text>
<text text-anchor="middle" x="872.216" y="-103.5" font-family="Helvetica,sans-Serif" font-size="10.00"> GMM &gt;</text>
</a>
</g>
</g>
<!-- Node2&#45;&gt;Node1 -->
<g id="edge1" class="edge"><title>Node2&#45;&gt;Node1</title>
<path fill="none" stroke="midnightblue" d="M962.057,-97.1553C982.606,-93.8373 1003.22,-90.5086 1019.6,-87.8639"/>
<polygon fill="midnightblue" stroke="midnightblue" points="961.308,-93.7308 951.993,-98.7802 962.424,-100.641 961.308,-93.7308"/>
</g>
<!-- Node3 -->
<g id="node3" class="node"><title>Node3</title>
<g id="a_node3"><a xlink:href="classxmm_1_1_writable.html" target="_top" xlink:title="Abstract class for handling JSON + File I/O. ">
<polygon fill="white" stroke="black" points="164.255,-145.5 164.255,-163.5 243.971,-163.5 243.971,-145.5 164.255,-145.5"/>
<text text-anchor="middle" x="204.113" y="-151.5" font-family="Helvetica,sans-Serif" font-size="10.00">xmm::Writable</text>
</a>
</g>
</g>
<!-- Node3&#45;&gt;Node2 -->
<g id="edge2" class="edge"><title>Node3&#45;&gt;Node2</title>
<path fill="none" stroke="midnightblue" d="M254.237,-153.425C341.326,-151.303 528.468,-145.771 686.07,-134.5 725.55,-131.676 735.387,-130.341 774.671,-125.5 780.47,-124.785 786.46,-124.009 792.483,-123.201"/>
<polygon fill="midnightblue" stroke="midnightblue" points="254.034,-149.929 244.121,-153.667 254.202,-156.927 254.034,-149.929"/>
</g>
<!-- Node5 -->
<g id="node5" class="node"><title>Node5</title>
<g id="a_node5"><a xlink:href="classxmm_1_1_class_parameters_3_01_g_m_m_01_4.html" target="_top" xlink:title="Parameters specific to each class of a Gaussian Mixture Model. ">
<polygon fill="white" stroke="black" points="407.378,-85.5 407.378,-113.5 527.284,-113.5 527.284,-85.5 407.378,-85.5"/>
<text text-anchor="start" x="415.378" y="-101.5" font-family="Helvetica,sans-Serif" font-size="10.00">xmm::ClassParameters</text>
<text text-anchor="middle" x="467.331" y="-91.5" font-family="Helvetica,sans-Serif" font-size="10.00">&lt; GMM &gt;</text>
</a>
</g>
</g>
<!-- Node3&#45;&gt;Node5 -->
<g id="edge5" class="edge"><title>Node3&#45;&gt;Node5</title>
<path fill="none" stroke="midnightblue" d="M254.219,-146.593C291.474,-140.315 343.865,-130.89 389.378,-120.5 398.424,-118.435 408.006,-116.013 417.223,-113.561"/>
<polygon fill="midnightblue" stroke="midnightblue" points="253.418,-143.178 244.131,-148.278 254.571,-150.083 253.418,-143.178"/>
</g>
<!-- Node4 -->
<g id="node4" class="node"><title>Node4</title>
<g id="a_node4"><a xlink:href="classxmm_1_1_configuration.html" target="_top" xlink:title="xmm::Configuration\l\&lt; GMM \&gt;">
<polygon fill="white" stroke="black" points="573.828,-97.5 573.828,-125.5 676.527,-125.5 676.527,-97.5 573.828,-97.5"/>
<text text-anchor="start" x="581.828" y="-113.5" font-family="Helvetica,sans-Serif" font-size="10.00">xmm::Configuration</text>
<text text-anchor="middle" x="625.177" y="-103.5" font-family="Helvetica,sans-Serif" font-size="10.00">&lt; GMM &gt;</text>
</a>
</g>
</g>
<!-- Node4&#45;&gt;Node2 -->
<g id="edge3" class="edge"><title>Node4&#45;&gt;Node2</title>
<path fill="none" stroke="#9a32cd" stroke-dasharray="5,2" d="M686.721,-111.5C718.604,-111.5 758.089,-111.5 792.34,-111.5"/>
<polygon fill="#9a32cd" stroke="#9a32cd" points="686.652,-108 676.652,-111.5 686.652,-115 686.652,-108"/>
<text text-anchor="middle" x="739.371" y="-113.5" font-family="Helvetica,sans-Serif" font-size="10.00"> configuration</text>
</g>
<!-- Node5&#45;&gt;Node4 -->
<g id="edge4" class="edge"><title>Node5&#45;&gt;Node4</title>
<path fill="none" stroke="midnightblue" d="M537.746,-104.845C549.821,-105.775 562.171,-106.726 573.619,-107.607"/>
<polygon fill="midnightblue" stroke="midnightblue" points="537.934,-101.349 527.694,-104.071 537.396,-108.328 537.934,-101.349"/>
</g>
<!-- Node6 -->
<g id="node6" class="node"><title>Node6</title>
<g id="a_node6"><a xlink:href="classxmm_1_1_attribute.html" target="_top" xlink:title="xmm::Attribute\&lt; double \&gt;">
<polygon fill="white" stroke="black" points="140.251,-104.5 140.251,-122.5 267.975,-122.5 267.975,-104.5 140.251,-104.5"/>
<text text-anchor="middle" x="204.113" y="-110.5" font-family="Helvetica,sans-Serif" font-size="10.00">xmm::Attribute&lt; double &gt;</text>
</a>
</g>
</g>
<!-- Node6&#45;&gt;Node5 -->
<g id="edge6" class="edge"><title>Node6&#45;&gt;Node5</title>
<path fill="none" stroke="#9a32cd" stroke-dasharray="5,2" d="M263.778,-102.984C271.228,-101.968 278.765,-101.096 285.975,-100.5 326.386,-97.1595 372.065,-96.9428 407.34,-97.5442"/>
<polygon fill="#9a32cd" stroke="#9a32cd" points="263.104,-99.5449 253.711,-104.445 264.11,-106.472 263.104,-99.5449"/>
<text text-anchor="middle" x="337.676" y="-112.5" font-family="Helvetica,sans-Serif" font-size="10.00"> relative_regularization</text>
<text text-anchor="middle" x="337.676" y="-102.5" font-family="Helvetica,sans-Serif" font-size="10.00">absolute_regularization</text>
</g>
<!-- Node7 -->
<g id="node7" class="node"><title>Node7</title>
<g id="a_node7"><a xlink:href="classxmm_1_1_attribute_base.html" target="_top" xlink:title="Base Class for Generic Attributes. ">
<polygon fill="white" stroke="black" points="0,-57.5 0,-75.5 103.251,-75.5 103.251,-57.5 0,-57.5"/>
<text text-anchor="middle" x="51.6255" y="-63.5" font-family="Helvetica,sans-Serif" font-size="10.00">xmm::AttributeBase</text>
</a>
</g>
</g>
<!-- Node7&#45;&gt;Node6 -->
<g id="edge7" class="edge"><title>Node7&#45;&gt;Node6</title>
<path fill="none" stroke="midnightblue" d="M90.3407,-78.6951C105.793,-83.654 123.863,-89.4052 140.251,-94.5 150.812,-97.783 162.394,-101.306 172.708,-104.416"/>
<polygon fill="midnightblue" stroke="midnightblue" points="91.2,-75.2949 80.6086,-75.5656 89.0571,-81.9589 91.2,-75.2949"/>
</g>
<!-- Node8 -->
<g id="node8" class="node"><title>Node8</title>
<g id="a_node8"><a xlink:href="classxmm_1_1_attribute.html" target="_top" xlink:title="xmm::Attribute\&lt; xmm\l::GaussianDistribution\l::CovarianceMode \&gt;">
<polygon fill="white" stroke="black" points="147.202,-47.5 147.202,-85.5 261.024,-85.5 261.024,-47.5 147.202,-47.5"/>
<text text-anchor="start" x="155.202" y="-73.5" font-family="Helvetica,sans-Serif" font-size="10.00">xmm::Attribute&lt; xmm</text>
<text text-anchor="start" x="155.202" y="-63.5" font-family="Helvetica,sans-Serif" font-size="10.00">::GaussianDistribution</text>
<text text-anchor="middle" x="204.113" y="-53.5" font-family="Helvetica,sans-Serif" font-size="10.00">::CovarianceMode &gt;</text>
</a>
</g>
</g>
<!-- Node7&#45;&gt;Node8 -->
<g id="edge9" class="edge"><title>Node7&#45;&gt;Node8</title>
<path fill="none" stroke="midnightblue" d="M113.584,-66.5C124.647,-66.5 136.137,-66.5 147.05,-66.5"/>
<polygon fill="midnightblue" stroke="midnightblue" points="113.574,-63.0001 103.574,-66.5 113.574,-70.0001 113.574,-63.0001"/>
</g>
<!-- Node9 -->
<g id="node9" class="node"><title>Node9</title>
<g id="a_node9"><a xlink:href="classxmm_1_1_attribute.html" target="_top" xlink:title="xmm::Attribute\&lt; std\l::size_t \&gt;">
<polygon fill="white" stroke="black" points="152.905,-0.5 152.905,-28.5 255.321,-28.5 255.321,-0.5 152.905,-0.5"/>
<text text-anchor="start" x="160.905" y="-16.5" font-family="Helvetica,sans-Serif" font-size="10.00">xmm::Attribute&lt; std</text>
<text text-anchor="middle" x="204.113" y="-6.5" font-family="Helvetica,sans-Serif" font-size="10.00">::size_t &gt;</text>
</a>
</g>
</g>
<!-- Node7&#45;&gt;Node9 -->
<g id="edge11" class="edge"><title>Node7&#45;&gt;Node9</title>
<path fill="none" stroke="midnightblue" d="M88.5655,-54.0811C110.805,-46.3965 139.413,-36.5111 162.476,-28.542"/>
<polygon fill="midnightblue" stroke="midnightblue" points="87.1469,-50.8682 78.8384,-57.4423 89.4331,-57.4843 87.1469,-50.8682"/>
</g>
<!-- Node8&#45;&gt;Node5 -->
<g id="edge8" class="edge"><title>Node8&#45;&gt;Node5</title>
<path fill="none" stroke="#9a32cd" stroke-dasharray="5,2" d="M271.499,-70.8028C306.652,-73.5402 350.483,-77.6813 389.378,-83.5 395.181,-84.3681 401.206,-85.396 407.214,-86.5056"/>
<polygon fill="#9a32cd" stroke="#9a32cd" points="271.591,-67.2999 261.355,-70.0329 271.062,-74.2798 271.591,-67.2999"/>
<text text-anchor="middle" x="337.676" y="-85.5" font-family="Helvetica,sans-Serif" font-size="10.00"> covariance_mode</text>
</g>
<!-- Node9&#45;&gt;Node5 -->
<g id="edge10" class="edge"><title>Node9&#45;&gt;Node5</title>
<path fill="none" stroke="#9a32cd" stroke-dasharray="5,2" d="M265.429,-24.862C301.986,-32.128 349.173,-43.2764 389.378,-58.5 408.348,-65.6831 428.543,-76.5798 443.483,-85.3344"/>
<polygon fill="#9a32cd" stroke="#9a32cd" points="265.898,-21.3879 255.414,-22.9154 264.563,-28.2593 265.898,-21.3879"/>
<text text-anchor="middle" x="337.676" y="-60.5" font-family="Helvetica,sans-Serif" font-size="10.00"> gaussians</text>
</g>
<!-- Node10 -->
<g id="node10" class="node"><title>Node10</title>
<g id="a_node10"><a xlink:href="classxmm_1_1_event_generator.html" target="_top" xlink:title="xmm::EventGenerator\l\&lt; xmm::TrainingEvent \&gt;">
<polygon fill="white" stroke="black" points="564.284,-50.5 564.284,-78.5 686.07,-78.5 686.07,-50.5 564.284,-50.5"/>
<text text-anchor="start" x="572.284" y="-66.5" font-family="Helvetica,sans-Serif" font-size="10.00">xmm::EventGenerator</text>
<text text-anchor="middle" x="625.177" y="-56.5" font-family="Helvetica,sans-Serif" font-size="10.00">&lt; xmm::TrainingEvent &gt;</text>
</a>
</g>
</g>
<!-- Node10&#45;&gt;Node2 -->
<g id="edge12" class="edge"><title>Node10&#45;&gt;Node2</title>
<path fill="none" stroke="#9a32cd" stroke-dasharray="5,2" d="M696.233,-77.9371C728.053,-84.0404 765.694,-91.2601 797.896,-97.4368"/>
<polygon fill="#9a32cd" stroke="#9a32cd" points="696.601,-74.444 686.121,-75.9975 695.282,-81.3186 696.601,-74.444"/>
<text text-anchor="middle" x="739.371" y="-94.5" font-family="Helvetica,sans-Serif" font-size="10.00"> training_events</text>
</g>
<!-- Node11 -->
<g id="node11" class="node"><title>Node11</title>
<g id="a_node11"><a xlink:href="structxmm_1_1_results.html" target="_top" xlink:title="xmm::Results\&lt; xmm::\lGMM \&gt;">
<polygon fill="white" stroke="black" points="816.018,-50.5 816.018,-78.5 928.415,-78.5 928.415,-50.5 816.018,-50.5"/>
<text text-anchor="start" x="824.018" y="-66.5" font-family="Helvetica,sans-Serif" font-size="10.00">xmm::Results&lt; xmm::</text>
<text text-anchor="middle" x="872.216" y="-56.5" font-family="Helvetica,sans-Serif" font-size="10.00">GMM &gt;</text>
</a>
</g>
</g>
<!-- Node11&#45;&gt;Node1 -->
<g id="edge13" class="edge"><title>Node11&#45;&gt;Node1</title>
<path fill="none" stroke="#9a32cd" stroke-dasharray="5,2" d="M938.784,-70.2959C959.058,-72.1724 981.458,-74.3315 1001.99,-76.5 1007.74,-77.1065 1013.84,-77.7919 1019.75,-78.4769"/>
<polygon fill="#9a32cd" stroke="#9a32cd" points="938.987,-66.7999 928.709,-69.3702 938.347,-73.7705 938.987,-66.7999"/>
<text text-anchor="middle" x="985.877" y="-78.5" font-family="Helvetica,sans-Serif" font-size="10.00"> results</text>
</g>
</g>
</svg>
