<?xml version="1.0" encoding="UTF-8" standalone="no"?>
<!DOCTYPE svg PUBLIC "-//W3C//DTD SVG 1.1//EN"
 "http://www.w3.org/Graphics/SVG/1.1/DTD/svg11.dtd">
<!-- Generated by graphviz version 2.38.0 (20140413.2041)
 -->
<!-- Title: xmm::HierarchicalHMM Pages: 1 -->
<svg width="1172pt" height="225pt"
 viewBox="0.00 0.00 1172.03 225.00" xmlns="http://www.w3.org/2000/svg" xmlns:xlink="http://www.w3.org/1999/xlink">
<g id="graph0" class="graph" transform="scale(1 1) rotate(0) translate(4 221)">
<title>xmm::HierarchicalHMM</title>
<polygon fill="white" stroke="none" points="-4,4 -4,-221 1168.03,-221 1168.03,4 -4,4"/>
<!-- Node1 -->
<g id="node1" class="node"><title>Node1</title>
<polygon fill="#bfbfbf" stroke="black" points="1044.14,-75.5 1044.14,-93.5 1164.03,-93.5 1164.03,-75.5 1044.14,-75.5"/>
<text text-anchor="middle" x="1104.08" y="-81.5" font-family="Helvetica,sans-Serif" font-size="10.00">xmm::HierarchicalHMM</text>
</g>
<!-- Node2 -->
<g id="node2" class="node"><title>Node2</title>
<g id="a_node2"><a xlink:href="classxmm_1_1_model.html" target="_top" xlink:title="xmm::Model\&lt; SingleClassHMM,\l HMM \&gt;">
<polygon fill="white" stroke="black" points="817.373,-99.5 817.373,-127.5 975.907,-127.5 975.907,-99.5 817.373,-99.5"/>
<text text-anchor="start" x="825.373" y="-115.5" font-family="Helvetica,sans-Serif" font-size="10.00">xmm::Model&lt; SingleClassHMM,</text>
<text text-anchor="middle" x="896.64" y="-105.5" font-family="Helvetica,sans-Serif" font-size="10.00"> HMM &gt;</text>
</a>
</g>
</g>
<!-- Node2&#45;&gt;Node1 -->
<g id="edge1" class="edge"><title>Node2&#45;&gt;Node1</title>
<path fill="none" stroke="midnightblue" d="M986.321,-100.982C1005.85,-98.226 1026.06,-95.3727 1044.07,-92.8303"/>
<polygon fill="midnightblue" stroke="midnightblue" points="985.602,-97.5488 976.189,-102.412 986.58,-104.48 985.602,-97.5488"/>
</g>
<!-- Node3 -->
<g id="node3" class="node"><title>Node3</title>
<g id="a_node3"><a xlink:href="classxmm_1_1_writable.html" target="_top" xlink:title="Abstract class for handling JSON + File I/O. ">
<polygon fill="white" stroke="black" points="610.021,-146.5 610.021,-164.5 689.737,-164.5 689.737,-146.5 610.021,-146.5"/>
<text text-anchor="middle" x="649.879" y="-152.5" font-family="Helvetica,sans-Serif" font-size="10.00">xmm::Writable</text>
</a>
</g>
</g>
<!-- Node3&#45;&gt;Node2 -->
<g id="edge2" class="edge"><title>Node3&#45;&gt;Node2</title>
<path fill="none" stroke="midnightblue" d="M699.951,-147.079C733.501,-141.322 778.691,-133.568 817.192,-126.961"/>
<polygon fill="midnightblue" stroke="midnightblue" points="699.197,-143.658 689.933,-148.799 700.381,-150.557 699.197,-143.658"/>
</g>
<!-- Node4 -->
<g id="node4" class="node"><title>Node4</title>
<g id="a_node4"><a xlink:href="classxmm_1_1_configuration.html" target="_top" xlink:title="xmm::Configuration\l\&lt; HMM \&gt;">
<polygon fill="white" stroke="black" points="598.53,-99.5 598.53,-127.5 701.229,-127.5 701.229,-99.5 598.53,-99.5"/>
<text text-anchor="start" x="606.53" y="-115.5" font-family="Helvetica,sans-Serif" font-size="10.00">xmm::Configuration</text>
<text text-anchor="middle" x="649.879" y="-105.5" font-family="Helvetica,sans-Serif" font-size="10.00">&lt; HMM &gt;</text>
</a>
</g>
</g>
<!-- Node4&#45;&gt;Node2 -->
<g id="edge3" class="edge"><title>Node4&#45;&gt;Node2</title>
<path fill="none" stroke="#9a32cd" stroke-dasharray="5,2" d="M711.398,-113.5C743.386,-113.5 783.024,-113.5 817.331,-113.5"/>
<polygon fill="#9a32cd" stroke="#9a32cd" points="711.297,-110 701.297,-113.5 711.297,-117 711.297,-110"/>
<text text-anchor="middle" x="764.073" y="-115.5" font-family="Helvetica,sans-Serif" font-size="10.00"> configuration</text>
</g>
<!-- Node5 -->
<g id="node5" class="node"><title>Node5</title>
<g id="a_node5"><a xlink:href="classxmm_1_1_class_parameters_3_01_h_m_m_01_4.html" target="_top" xlink:title="Parameters specific to each class of a Hidden Markov Model. ">
<polygon fill="white" stroke="black" points="432.08,-99.5 432.08,-127.5 551.986,-127.5 551.986,-99.5 432.08,-99.5"/>
<text text-anchor="start" x="440.08" y="-115.5" font-family="Helvetica,sans-Serif" font-size="10.00">xmm::ClassParameters</text>
<text text-anchor="middle" x="492.033" y="-105.5" font-family="Helvetica,sans-Serif" font-size="10.00">&lt; HMM &gt;</text>
</a>
</g>
</g>
<!-- Node5&#45;&gt;Node4 -->
<g id="edge4" class="edge"><title>Node5&#45;&gt;Node4</title>
<path fill="none" stroke="midnightblue" d="M562.448,-113.5C574.523,-113.5 586.873,-113.5 598.321,-113.5"/>
<polygon fill="midnightblue" stroke="midnightblue" points="562.397,-110 552.397,-113.5 562.397,-117 562.397,-110"/>
</g>
<!-- Node6 -->
<g id="node6" class="node"><title>Node6</title>
<g id="a_node6"><a xlink:href="classxmm_1_1_attribute.html" target="_top" xlink:title="xmm::Attribute\&lt; double \&gt;">
<polygon fill="white" stroke="black" points="152.602,-198.5 152.602,-216.5 280.326,-216.5 280.326,-198.5 152.602,-198.5"/>
<text text-anchor="middle" x="216.464" y="-204.5" font-family="Helvetica,sans-Serif" font-size="10.00">xmm::Attribute&lt; double &gt;</text>
</a>
</g>
</g>
<!-- Node6&#45;&gt;Node5 -->
<g id="edge5" class="edge"><title>Node6&#45;&gt;Node5</title>
<path fill="none" stroke="#9a32cd" stroke-dasharray="5,2" d="M286.251,-196.541C324.766,-189.063 373.132,-177.402 414.08,-160.5 434.917,-151.899 456.661,-138.103 471.699,-127.678"/>
<polygon fill="#9a32cd" stroke="#9a32cd" points="285.35,-193.15 276.174,-198.447 286.65,-200.028 285.35,-193.15"/>
<text text-anchor="middle" x="362.378" y="-202.5" font-family="Helvetica,sans-Serif" font-size="10.00"> relative_regularization</text>
<text text-anchor="middle" x="362.378" y="-192.5" font-family="Helvetica,sans-Serif" font-size="10.00">absolute_regularization</text>
</g>
<!-- Node7 -->
<g id="node7" class="node"><title>Node7</title>
<g id="a_node7"><a xlink:href="classxmm_1_1_attribute_base.html" target="_top" xlink:title="Base Class for Generic Attributes. ">
<polygon fill="white" stroke="black" points="0,-104.5 0,-122.5 103.251,-122.5 103.251,-104.5 0,-104.5"/>
<text text-anchor="middle" x="51.6255" y="-110.5" font-family="Helvetica,sans-Serif" font-size="10.00">xmm::AttributeBase</text>
</a>
</g>
</g>
<!-- Node7&#45;&gt;Node6 -->
<g id="edge6" class="edge"><title>Node7&#45;&gt;Node6</title>
<path fill="none" stroke="midnightblue" d="M67.2736,-130.273C83.4196,-147.696 111.006,-174.472 140.251,-189.5 147.416,-193.182 155.354,-196.127 163.309,-198.478"/>
<polygon fill="midnightblue" stroke="midnightblue" points="69.6097,-127.637 60.3092,-122.563 64.4152,-132.33 69.6097,-127.637"/>
</g>
<!-- Node8 -->
<g id="node8" class="node"><title>Node8</title>
<g id="a_node8"><a xlink:href="classxmm_1_1_attribute.html" target="_top" xlink:title="xmm::Attribute\&lt; xmm\l::HMM::TransitionMode \&gt;">
<polygon fill="white" stroke="black" points="152.38,-151.5 152.38,-179.5 280.548,-179.5 280.548,-151.5 152.38,-151.5"/>
<text text-anchor="start" x="160.38" y="-167.5" font-family="Helvetica,sans-Serif" font-size="10.00">xmm::Attribute&lt; xmm</text>
<text text-anchor="middle" x="216.464" y="-157.5" font-family="Helvetica,sans-Serif" font-size="10.00">::HMM::TransitionMode &gt;</text>
</a>
</g>
</g>
<!-- Node7&#45;&gt;Node8 -->
<g id="edge8" class="edge"><title>Node7&#45;&gt;Node8</title>
<path fill="none" stroke="midnightblue" d="M89.2633,-125.832C104.941,-131.056 123.467,-137.157 140.251,-142.5 149.489,-145.441 159.388,-148.519 168.871,-151.433"/>
<polygon fill="midnightblue" stroke="midnightblue" points="90.013,-122.393 79.4192,-122.543 87.7948,-129.032 90.013,-122.393"/>
</g>
<!-- Node9 -->
<g id="node9" class="node"><title>Node9</title>
<g id="a_node9"><a xlink:href="classxmm_1_1_attribute.html" target="_top" xlink:title="xmm::Attribute\&lt; xmm\l::GaussianDistribution\l::CovarianceMode \&gt;">
<polygon fill="white" stroke="black" points="159.553,-94.5 159.553,-132.5 273.375,-132.5 273.375,-94.5 159.553,-94.5"/>
<text text-anchor="start" x="167.553" y="-120.5" font-family="Helvetica,sans-Serif" font-size="10.00">xmm::Attribute&lt; xmm</text>
<text text-anchor="start" x="167.553" y="-110.5" font-family="Helvetica,sans-Serif" font-size="10.00">::GaussianDistribution</text>
<text text-anchor="middle" x="216.464" y="-100.5" font-family="Helvetica,sans-Serif" font-size="10.00">::CovarianceMode &gt;</text>
</a>
</g>
</g>
<!-- Node7&#45;&gt;Node9 -->
<g id="edge10" class="edge"><title>Node7&#45;&gt;Node9</title>
<path fill="none" stroke="midnightblue" d="M113.503,-113.5C128.575,-113.5 144.653,-113.5 159.479,-113.5"/>
<polygon fill="midnightblue" stroke="midnightblue" points="113.256,-110 103.256,-113.5 113.256,-117 113.256,-110"/>
</g>
<!-- Node10 -->
<g id="node10" class="node"><title>Node10</title>
<g id="a_node10"><a xlink:href="classxmm_1_1_attribute.html" target="_top" xlink:title="xmm::Attribute\&lt; xmm\l::HMM::RegressionEstimator \&gt;">
<polygon fill="white" stroke="black" points="140.251,-47.5 140.251,-75.5 292.677,-75.5 292.677,-47.5 140.251,-47.5"/>
<text text-anchor="start" x="148.251" y="-63.5" font-family="Helvetica,sans-Serif" font-size="10.00">xmm::Attribute&lt; xmm</text>
<text text-anchor="middle" x="216.464" y="-53.5" font-family="Helvetica,sans-Serif" font-size="10.00">::HMM::RegressionEstimator &gt;</text>
</a>
</g>
</g>
<!-- Node7&#45;&gt;Node10 -->
<g id="edge12" class="edge"><title>Node7&#45;&gt;Node10</title>
<path fill="none" stroke="midnightblue" d="M89.2633,-101.168C104.941,-95.9443 123.467,-89.8429 140.251,-84.5 149.489,-81.5592 159.388,-78.4805 168.871,-75.5666"/>
<polygon fill="midnightblue" stroke="midnightblue" points="87.7948,-97.968 79.4192,-104.457 90.013,-104.607 87.7948,-97.968"/>
</g>
<!-- Node11 -->
<g id="node11" class="node"><title>Node11</title>
<g id="a_node11"><a xlink:href="classxmm_1_1_attribute.html" target="_top" xlink:title="xmm::Attribute\&lt; std\l::size_t \&gt;">
<polygon fill="white" stroke="black" points="165.256,-0.5 165.256,-28.5 267.672,-28.5 267.672,-0.5 165.256,-0.5"/>
<text text-anchor="start" x="173.256" y="-16.5" font-family="Helvetica,sans-Serif" font-size="10.00">xmm::Attribute&lt; std</text>
<text text-anchor="middle" x="216.464" y="-6.5" font-family="Helvetica,sans-Serif" font-size="10.00">::size_t &gt;</text>
</a>
</g>
</g>
<!-- Node7&#45;&gt;Node11 -->
<g id="edge14" class="edge"><title>Node7&#45;&gt;Node11</title>
<path fill="none" stroke="midnightblue" d="M67.7204,-96.8094C84.0582,-79.6748 111.636,-53.342 140.251,-37.5 147.897,-33.2673 156.42,-29.7134 164.905,-26.7635"/>
<polygon fill="midnightblue" stroke="midnightblue" points="64.9068,-94.6947 60.6476,-104.396 70.0268,-99.4681 64.9068,-94.6947"/>
</g>
<!-- Node8&#45;&gt;Node5 -->
<g id="edge7" class="edge"><title>Node8&#45;&gt;Node5</title>
<path fill="none" stroke="#9a32cd" stroke-dasharray="5,2" d="M290.409,-151.635C334.694,-143.217 390.488,-132.612 431.989,-124.723"/>
<polygon fill="#9a32cd" stroke="#9a32cd" points="289.74,-148.199 280.57,-153.505 291.047,-155.076 289.74,-148.199"/>
<text text-anchor="middle" x="362.378" y="-148.5" font-family="Helvetica,sans-Serif" font-size="10.00"> transition_mode</text>
</g>
<!-- Node9&#45;&gt;Node5 -->
<g id="edge9" class="edge"><title>Node9&#45;&gt;Node5</title>
<path fill="none" stroke="#9a32cd" stroke-dasharray="5,2" d="M283.767,-113.5C328.927,-113.5 388.19,-113.5 431.774,-113.5"/>
<polygon fill="#9a32cd" stroke="#9a32cd" points="283.485,-110 273.485,-113.5 283.485,-117 283.485,-110"/>
<text text-anchor="middle" x="362.378" y="-115.5" font-family="Helvetica,sans-Serif" font-size="10.00"> covariance_mode</text>
</g>
<!-- Node10&#45;&gt;Node5 -->
<g id="edge11" class="edge"><title>Node10&#45;&gt;Node5</title>
<path fill="none" stroke="#9a32cd" stroke-dasharray="5,2" d="M301.142,-77.4055C343.433,-85.4442 393.743,-95.007 431.95,-102.269"/>
<polygon fill="#9a32cd" stroke="#9a32cd" points="301.613,-73.9325 291.135,-75.5034 300.306,-80.8093 301.613,-73.9325"/>
<text text-anchor="middle" x="362.378" y="-100.5" font-family="Helvetica,sans-Serif" font-size="10.00"> regression_estimator</text>
</g>
<!-- Node11&#45;&gt;Node5 -->
<g id="edge13" class="edge"><title>Node11&#45;&gt;Node5</title>
<path fill="none" stroke="#9a32cd" stroke-dasharray="5,2" d="M277.916,-20.6418C317.911,-26.3144 370.766,-36.9492 414.08,-56.5 437.871,-67.2385 461.424,-86.2441 476.083,-99.3377"/>
<polygon fill="#9a32cd" stroke="#9a32cd" points="278.157,-17.1427 267.778,-19.2706 277.219,-24.0795 278.157,-17.1427"/>
<text text-anchor="middle" x="362.378" y="-68.5" font-family="Helvetica,sans-Serif" font-size="10.00"> states</text>
<text text-anchor="middle" x="362.378" y="-58.5" font-family="Helvetica,sans-Serif" font-size="10.00">gaussians</text>
</g>
<!-- Node12 -->
<g id="node12" class="node"><title>Node12</title>
<g id="a_node12"><a xlink:href="classxmm_1_1_event_generator.html" target="_top" xlink:title="xmm::EventGenerator\l\&lt; xmm::TrainingEvent \&gt;">
<polygon fill="white" stroke="black" points="588.986,-52.5 588.986,-80.5 710.772,-80.5 710.772,-52.5 588.986,-52.5"/>
<text text-anchor="start" x="596.986" y="-68.5" font-family="Helvetica,sans-Serif" font-size="10.00">xmm::EventGenerator</text>
<text text-anchor="middle" x="649.879" y="-58.5" font-family="Helvetica,sans-Serif" font-size="10.00">&lt; xmm::TrainingEvent &gt;</text>
</a>
</g>
</g>
<!-- Node12&#45;&gt;Node2 -->
<g id="edge15" class="edge"><title>Node12&#45;&gt;Node2</title>
<path fill="none" stroke="#9a32cd" stroke-dasharray="5,2" d="M721.168,-79.9972C752.944,-86.099 790.481,-93.3069 822.581,-99.4708"/>
<polygon fill="#9a32cd" stroke="#9a32cd" points="721.549,-76.5064 711.068,-78.0577 720.229,-83.3808 721.549,-76.5064"/>
<text text-anchor="middle" x="764.073" y="-96.5" font-family="Helvetica,sans-Serif" font-size="10.00"> training_events</text>
</g>
<!-- Node13 -->
<g id="node13" class="node"><title>Node13</title>
<g id="a_node13"><a xlink:href="structxmm_1_1_results.html" target="_top" xlink:title="xmm::Results\&lt; xmm::\lHMM \&gt;">
<polygon fill="white" stroke="black" points="840.442,-52.5 840.442,-80.5 952.838,-80.5 952.838,-52.5 840.442,-52.5"/>
<text text-anchor="start" x="848.442" y="-68.5" font-family="Helvetica,sans-Serif" font-size="10.00">xmm::Results&lt; xmm::</text>
<text text-anchor="middle" x="896.64" y="-58.5" font-family="Helvetica,sans-Serif" font-size="10.00">HMM &gt;</text>
</a>
</g>
</g>
<!-- Node13&#45;&gt;Node1 -->
<g id="edge16" class="edge"><title>Node13&#45;&gt;Node1</title>
<path fill="none" stroke="#9a32cd" stroke-dasharray="5,2" d="M963.1,-72.2353C989.084,-74.5119 1018.75,-77.1109 1044.06,-79.3287"/>
<polygon fill="#9a32cd" stroke="#9a32cd" points="963.233,-68.7336 952.966,-71.3473 962.622,-75.7069 963.233,-68.7336"/>
<text text-anchor="middle" x="1010.02" y="-80.5" font-family="Helvetica,sans-Serif" font-size="10.00"> results</text>
</g>
</g>
</svg>
