<?xml version="1.0" encoding="UTF-8" standalone="no"?>
<!DOCTYPE svg PUBLIC "-//W3C//DTD SVG 1.1//EN"
 "http://www.w3.org/Graphics/SVG/1.1/DTD/svg11.dtd">
<!-- Generated by graphviz version 2.38.0 (20140413.2041)
 -->
<!-- Title: xmm::TrainingSet Pages: 1 -->
<svg width="472pt" height="121pt"
 viewBox="0.00 0.00 471.84 121.00" xmlns="http://www.w3.org/2000/svg" xmlns:xlink="http://www.w3.org/1999/xlink">
<g id="graph0" class="graph" transform="scale(1 1) rotate(0) translate(4 117)">
<title>xmm::TrainingSet</title>
<polygon fill="white" stroke="none" points="-4,4 -4,-117 467.837,-117 467.837,4 -4,4"/>
<!-- Node1 -->
<g id="node1" class="node"><title>Node1</title>
<polygon fill="#bfbfbf" stroke="black" points="369.849,-52.5 369.849,-70.5 463.837,-70.5 463.837,-52.5 369.849,-52.5"/>
<text text-anchor="middle" x="416.843" y="-58.5" font-family="Helvetica,sans-Serif" font-size="10.00">xmm::TrainingSet</text>
</g>
<!-- Node2 -->
<g id="node2" class="node"><title>Node2</title>
<g id="a_node2"><a xlink:href="classxmm_1_1_writable.html" target="_top" xlink:title="Abstract class for handling JSON + File I/O. ">
<polygon fill="white" stroke="black" points="159.389,-94.5 159.389,-112.5 239.105,-112.5 239.105,-94.5 159.389,-94.5"/>
<text text-anchor="middle" x="199.247" y="-100.5" font-family="Helvetica,sans-Serif" font-size="10.00">xmm::Writable</text>
</a>
</g>
</g>
<!-- Node2&#45;&gt;Node1 -->
<g id="edge1" class="edge"><title>Node2&#45;&gt;Node1</title>
<path fill="none" stroke="midnightblue" d="M249.378,-94.8461C279.088,-89.5086 317.701,-82.3869 351.849,-75.5 359.541,-73.9486 367.736,-72.2165 375.603,-70.5137"/>
<polygon fill="midnightblue" stroke="midnightblue" points="248.49,-91.4495 239.262,-96.6564 249.723,-98.34 248.49,-91.4495"/>
</g>
<!-- Node3 -->
<g id="node3" class="node"><title>Node3</title>
<g id="a_node3"><a xlink:href="classxmm_1_1_attribute_3_01std_1_1vector_3_01std_1_1string_01_4_01_4.html" target="_top" xlink:title="Generic Attribute (Vector Specialization) ">
<polygon fill="white" stroke="black" points="140.251,-47.5 140.251,-75.5 258.243,-75.5 258.243,-47.5 140.251,-47.5"/>
<text text-anchor="start" x="148.251" y="-63.5" font-family="Helvetica,sans-Serif" font-size="10.00">xmm::Attribute&lt; std</text>
<text text-anchor="middle" x="199.247" y="-53.5" font-family="Helvetica,sans-Serif" font-size="10.00">::vector&lt; std::string &gt; &gt;</text>
</a>
</g>
</g>
<!-- Node3&#45;&gt;Node1 -->
<g id="edge2" class="edge"><title>Node3&#45;&gt;Node1</title>
<path fill="none" stroke="#9a32cd" stroke-dasharray="5,2" d="M268.347,-61.5C301.349,-61.5 340.121,-61.5 369.629,-61.5"/>
<polygon fill="#9a32cd" stroke="#9a32cd" points="268.306,-58.0001 258.306,-61.5 268.306,-65.0001 268.306,-58.0001"/>
<text text-anchor="middle" x="314.046" y="-63.5" font-family="Helvetica,sans-Serif" font-size="10.00"> column_names</text>
</g>
<!-- Node4 -->
<g id="node4" class="node"><title>Node4</title>
<g id="a_node4"><a xlink:href="classxmm_1_1_attribute_base.html" target="_top" xlink:title="Base Class for Generic Attributes. ">
<polygon fill="white" stroke="black" points="0,-31.5 0,-49.5 103.251,-49.5 103.251,-31.5 0,-31.5"/>
<text text-anchor="middle" x="51.6255" y="-37.5" font-family="Helvetica,sans-Serif" font-size="10.00">xmm::AttributeBase</text>
</a>
</g>
</g>
<!-- Node4&#45;&gt;Node3 -->
<g id="edge3" class="edge"><title>Node4&#45;&gt;Node3</title>
<path fill="none" stroke="midnightblue" d="M113.692,-49.3063C122.443,-50.5683 131.426,-51.8638 140.118,-53.1173"/>
<polygon fill="midnightblue" stroke="midnightblue" points="113.954,-45.808 103.557,-47.8448 112.955,-52.7364 113.954,-45.808"/>
</g>
<!-- Node5 -->
<g id="node5" class="node"><title>Node5</title>
<g id="a_node5"><a xlink:href="classxmm_1_1_attribute.html" target="_top" xlink:title="xmm::Attribute\&lt; std\l::size_t \&gt;">
<polygon fill="white" stroke="black" points="148.039,-0.5 148.039,-28.5 250.455,-28.5 250.455,-0.5 148.039,-0.5"/>
<text text-anchor="start" x="156.039" y="-16.5" font-family="Helvetica,sans-Serif" font-size="10.00">xmm::Attribute&lt; std</text>
<text text-anchor="middle" x="199.247" y="-6.5" font-family="Helvetica,sans-Serif" font-size="10.00">::size_t &gt;</text>
</a>
</g>
</g>
<!-- Node4&#45;&gt;Node5 -->
<g id="edge5" class="edge"><title>Node4&#45;&gt;Node5</title>
<path fill="none" stroke="midnightblue" d="M113.145,-29.6946C124.678,-27.6354 136.636,-25.5004 147.814,-23.5046"/>
<polygon fill="midnightblue" stroke="midnightblue" points="112.377,-26.2762 103.148,-31.4794 113.608,-33.1672 112.377,-26.2762"/>
</g>
<!-- Node5&#45;&gt;Node1 -->
<g id="edge4" class="edge"><title>Node5&#45;&gt;Node1</title>
<path fill="none" stroke="#9a32cd" stroke-dasharray="5,2" d="M260.673,-20.737C288.684,-24.3728 322.25,-29.7945 351.849,-37.5 366.662,-41.3564 382.795,-47.4204 395.158,-52.4879"/>
<polygon fill="#9a32cd" stroke="#9a32cd" points="260.98,-17.2481 250.623,-19.4774 260.11,-24.1938 260.98,-17.2481"/>
<text text-anchor="middle" x="314.046" y="-49.5" font-family="Helvetica,sans-Serif" font-size="10.00"> dimension_input</text>
<text text-anchor="middle" x="314.046" y="-39.5" font-family="Helvetica,sans-Serif" font-size="10.00">dimension</text>
</g>
</g>
</svg>
