<?xml version="1.0" encoding="UTF-8" standalone="no"?>
<!DOCTYPE svg PUBLIC "-//W3C//DTD SVG 1.1//EN"
 "http://www.w3.org/Graphics/SVG/1.1/DTD/svg11.dtd">
<!-- Generated by graphviz version 2.38.0 (20140413.2041)
 -->
<!-- Title: xmm::ClassParameters&lt; KMeans &gt; Pages: 1 -->
<svg width="349pt" height="178pt"
 viewBox="0.00 0.00 348.89 178.00" xmlns="http://www.w3.org/2000/svg" xmlns:xlink="http://www.w3.org/1999/xlink">
<g id="graph0" class="graph" transform="scale(1 1) rotate(0) translate(4 174)">
<title>xmm::ClassParameters&lt; KMeans &gt;</title>
<polygon fill="white" stroke="none" points="-4,4 -4,-174 344.887,-174 344.887,4 -4,4"/>
<!-- Node1 -->
<g id="node1" class="node"><title>Node1</title>
<polygon fill="#bfbfbf" stroke="black" points="75.9048,-0.5 75.9048,-28.5 195.811,-28.5 195.811,-0.5 75.9048,-0.5"/>
<text text-anchor="start" x="83.9048" y="-16.5" font-family="Helvetica,sans-Serif" font-size="10.00">xmm::ClassParameters</text>
<text text-anchor="middle" x="135.858" y="-6.5" font-family="Helvetica,sans-Serif" font-size="10.00">&lt; KMeans &gt;</text>
</g>
<!-- Node2 -->
<g id="node2" class="node"><title>Node2</title>
<g id="a_node2"><a xlink:href="classxmm_1_1_writable.html" target="_top" xlink:title="Abstract class for handling JSON + File I/O. ">
<polygon fill="white" stroke="black" points="0,-90.5 0,-108.5 79.7158,-108.5 79.7158,-90.5 0,-90.5"/>
<text text-anchor="middle" x="39.8579" y="-96.5" font-family="Helvetica,sans-Serif" font-size="10.00">xmm::Writable</text>
</a>
</g>
</g>
<!-- Node2&#45;&gt;Node1 -->
<g id="edge1" class="edge"><title>Node2&#45;&gt;Node1</title>
<path fill="none" stroke="midnightblue" d="M57.4283,-83.309C75.5496,-67.6416 103.517,-43.4611 120.699,-28.6058"/>
<polygon fill="midnightblue" stroke="midnightblue" points="54.6893,-81.0502 49.4137,-90.2382 59.2676,-86.3455 54.6893,-81.0502"/>
</g>
<!-- Node3 -->
<g id="node3" class="node"><title>Node3</title>
<g id="a_node3"><a xlink:href="classxmm_1_1_attribute.html" target="_top" xlink:title="xmm::Attribute\&lt; float \&gt;">
<polygon fill="white" stroke="black" points="97.5601,-90.5 97.5601,-108.5 214.156,-108.5 214.156,-90.5 97.5601,-90.5"/>
<text text-anchor="middle" x="155.858" y="-96.5" font-family="Helvetica,sans-Serif" font-size="10.00">xmm::Attribute&lt; float &gt;</text>
</a>
</g>
</g>
<!-- Node3&#45;&gt;Node1 -->
<g id="edge2" class="edge"><title>Node3&#45;&gt;Node1</title>
<path fill="none" stroke="#9a32cd" stroke-dasharray="5,2" d="M144.035,-81.9357C141.329,-77.3115 138.815,-72.1403 137.336,-67 133.726,-54.4498 133.753,-39.464 134.442,-28.9027"/>
<polygon fill="#9a32cd" stroke="#9a32cd" points="141.204,-84.0017 149.592,-90.4741 147.071,-80.1835 141.204,-84.0017"/>
<text text-anchor="middle" x="200.119" y="-54" font-family="Helvetica,sans-Serif" font-size="10.00"> relative_distance_threshold</text>
</g>
<!-- Node4 -->
<g id="node4" class="node"><title>Node4</title>
<g id="a_node4"><a xlink:href="classxmm_1_1_attribute_base.html" target="_top" xlink:title="Base Class for Generic Attributes. ">
<polygon fill="white" stroke="black" points="180.232,-151.5 180.232,-169.5 283.483,-169.5 283.483,-151.5 180.232,-151.5"/>
<text text-anchor="middle" x="231.858" y="-157.5" font-family="Helvetica,sans-Serif" font-size="10.00">xmm::AttributeBase</text>
</a>
</g>
</g>
<!-- Node4&#45;&gt;Node3 -->
<g id="edge3" class="edge"><title>Node4&#45;&gt;Node3</title>
<path fill="none" stroke="midnightblue" d="M213.321,-145.11C198.561,-133.651 178.434,-118.026 166.336,-108.634"/>
<polygon fill="midnightblue" stroke="midnightblue" points="211.245,-147.929 221.29,-151.296 215.538,-142.399 211.245,-147.929"/>
</g>
<!-- Node5 -->
<g id="node5" class="node"><title>Node5</title>
<g id="a_node5"><a xlink:href="classxmm_1_1_attribute.html" target="_top" xlink:title="xmm::Attribute\&lt; std\l::size_t \&gt;">
<polygon fill="white" stroke="black" points="232.65,-85.5 232.65,-113.5 335.066,-113.5 335.066,-85.5 232.65,-85.5"/>
<text text-anchor="start" x="240.65" y="-101.5" font-family="Helvetica,sans-Serif" font-size="10.00">xmm::Attribute&lt; std</text>
<text text-anchor="middle" x="283.858" y="-91.5" font-family="Helvetica,sans-Serif" font-size="10.00">::size_t &gt;</text>
</a>
</g>
</g>
<!-- Node4&#45;&gt;Node5 -->
<g id="edge5" class="edge"><title>Node4&#45;&gt;Node5</title>
<path fill="none" stroke="midnightblue" d="M245.715,-143.778C254.013,-134.363 264.439,-122.533 272.293,-113.621"/>
<polygon fill="midnightblue" stroke="midnightblue" points="243.075,-141.48 239.088,-151.296 248.326,-146.108 243.075,-141.48"/>
</g>
<!-- Node5&#45;&gt;Node1 -->
<g id="edge4" class="edge"><title>Node5&#45;&gt;Node1</title>
<path fill="none" stroke="#9a32cd" stroke-dasharray="5,2" d="M278.871,-75.2581C275.605,-65.2478 270.314,-54.2101 261.858,-47 243.585,-31.4194 218.709,-23.3507 195.886,-19.2402"/>
<polygon fill="#9a32cd" stroke="#9a32cd" points="275.557,-76.4051 281.59,-85.1145 282.305,-74.5438 275.557,-76.4051"/>
<text text-anchor="middle" x="308.373" y="-59" font-family="Helvetica,sans-Serif" font-size="10.00"> clusters</text>
<text text-anchor="middle" x="308.373" y="-49" font-family="Helvetica,sans-Serif" font-size="10.00">max_iterations</text>
</g>
</g>
</svg>
