<?xml version="1.0" encoding="UTF-8" standalone="no"?>
<!DOCTYPE svg PUBLIC "-//W3C//DTD SVG 1.1//EN"
 "http://www.w3.org/Graphics/SVG/1.1/DTD/svg11.dtd">
<!-- Generated by graphviz version 2.38.0 (20140413.2041)
 -->
<!-- Title: xmmTrainingSet.hpp Pages: 1 -->
<svg width="735pt" height="202pt"
 viewBox="0.00 0.00 735.31 202.00" xmlns="http://www.w3.org/2000/svg" xmlns:xlink="http://www.w3.org/1999/xlink">
<g id="graph0" class="graph" transform="scale(1 1) rotate(0) translate(4 198)">
<title>xmmTrainingSet.hpp</title>
<polygon fill="white" stroke="none" points="-4,4 -4,-198 731.315,-198 731.315,4 -4,4"/>
<!-- Node1 -->
<g id="node1" class="node"><title>Node1</title>
<polygon fill="#bfbfbf" stroke="black" points="609.641,-175.5 609.641,-193.5 717.536,-193.5 717.536,-175.5 609.641,-175.5"/>
<text text-anchor="middle" x="663.588" y="-181.5" font-family="Helvetica,sans-Serif" font-size="10.00">xmmTrainingSet.hpp</text>
</g>
<!-- Node2 -->
<g id="node2" class="node"><title>Node2</title>
<g id="a_node2"><a xlink:href="xmm_phrase_8hpp.html" target="_top" xlink:title="xmmPhrase.hpp">
<polygon fill="white" stroke="black" points="461.185,-120.5 461.185,-138.5 549.992,-138.5 549.992,-120.5 461.185,-120.5"/>
<text text-anchor="middle" x="505.588" y="-126.5" font-family="Helvetica,sans-Serif" font-size="10.00">xmmPhrase.hpp</text>
</a>
</g>
</g>
<!-- Node1&#45;&gt;Node2 -->
<g id="edge1" class="edge"><title>Node1&#45;&gt;Node2</title>
<path fill="none" stroke="midnightblue" d="M639.592,-175.45C612.833,-166.475 569.361,-151.892 539.219,-141.781"/>
<polygon fill="midnightblue" stroke="midnightblue" points="540.146,-138.4 529.552,-138.538 537.919,-145.037 540.146,-138.4"/>
</g>
<!-- Node13 -->
<g id="node13" class="node"><title>Node13</title>
<polygon fill="white" stroke="#bfbfbf" points="584.918,-5.5 584.918,-23.5 614.258,-23.5 614.258,-5.5 584.918,-5.5"/>
<text text-anchor="middle" x="599.588" y="-11.5" font-family="Helvetica,sans-Serif" font-size="10.00">set</text>
</g>
<!-- Node1&#45;&gt;Node13 -->
<g id="edge16" class="edge"><title>Node1&#45;&gt;Node13</title>
<path fill="none" stroke="midnightblue" d="M663.84,-175.267C664.128,-155.295 662.925,-103.115 644.588,-65 638.216,-51.754 627.146,-39.5066 617.58,-30.508"/>
<polygon fill="midnightblue" stroke="midnightblue" points="619.823,-27.8184 610.035,-23.7627 615.158,-33.037 619.823,-27.8184"/>
</g>
<!-- Node15 -->
<g id="node15" class="node"><title>Node15</title>
<polygon fill="white" stroke="#bfbfbf" points="691.862,-120.5 691.862,-138.5 727.315,-138.5 727.315,-120.5 691.862,-120.5"/>
<text text-anchor="middle" x="709.588" y="-126.5" font-family="Helvetica,sans-Serif" font-size="10.00">map</text>
</g>
<!-- Node1&#45;&gt;Node15 -->
<g id="edge15" class="edge"><title>Node1&#45;&gt;Node15</title>
<path fill="none" stroke="midnightblue" d="M670.776,-175.219C677.499,-167.473 687.716,-155.701 695.979,-146.18"/>
<polygon fill="midnightblue" stroke="midnightblue" points="698.69,-148.396 702.602,-138.55 693.404,-143.808 698.69,-148.396"/>
</g>
<!-- Node3 -->
<g id="node3" class="node"><title>Node3</title>
<g id="a_node3"><a xlink:href="xmm_json_8hpp.html" target="_top" xlink:title="../common/xmmJson.hpp">
<polygon fill="white" stroke="black" points="106.736,-65.5 106.736,-83.5 234.44,-83.5 234.44,-65.5 106.736,-65.5"/>
<text text-anchor="middle" x="170.588" y="-71.5" font-family="Helvetica,sans-Serif" font-size="10.00">../common/xmmJson.hpp</text>
</a>
</g>
</g>
<!-- Node2&#45;&gt;Node3 -->
<g id="edge2" class="edge"><title>Node2&#45;&gt;Node3</title>
<path fill="none" stroke="midnightblue" d="M461.103,-121.462C402.02,-112.115 297.428,-95.5672 231.176,-85.0855"/>
<polygon fill="midnightblue" stroke="midnightblue" points="231.711,-81.6267 221.287,-83.521 230.617,-88.5407 231.711,-81.6267"/>
</g>
<!-- Node7 -->
<g id="node7" class="node"><title>Node7</title>
<g id="a_node7"><a xlink:href="xmm_attribute_8hpp.html" target="_top" xlink:title="../common/xmmAttribute.hpp">
<polygon fill="white" stroke="black" points="275.677,-65.5 275.677,-83.5 419.5,-83.5 419.5,-65.5 275.677,-65.5"/>
<text text-anchor="middle" x="347.588" y="-71.5" font-family="Helvetica,sans-Serif" font-size="10.00">../common/xmmAttribute.hpp</text>
</a>
</g>
</g>
<!-- Node2&#45;&gt;Node7 -->
<g id="edge6" class="edge"><title>Node2&#45;&gt;Node7</title>
<path fill="none" stroke="midnightblue" d="M481.592,-120.45C454.833,-111.475 411.361,-96.8922 381.219,-86.7813"/>
<polygon fill="midnightblue" stroke="midnightblue" points="382.146,-83.4004 371.552,-83.5383 379.919,-90.0369 382.146,-83.4004"/>
</g>
<!-- Node12 -->
<g id="node12" class="node"><title>Node12</title>
<g id="a_node12"><a xlink:href="xmm_events_8hpp.html" target="_top" xlink:title="../common/xmmEvents.hpp">
<polygon fill="white" stroke="black" points="437.012,-65.5 437.012,-83.5 574.165,-83.5 574.165,-65.5 437.012,-65.5"/>
<text text-anchor="middle" x="505.588" y="-71.5" font-family="Helvetica,sans-Serif" font-size="10.00">../common/xmmEvents.hpp</text>
</a>
</g>
</g>
<!-- Node2&#45;&gt;Node12 -->
<g id="edge12" class="edge"><title>Node2&#45;&gt;Node12</title>
<path fill="none" stroke="midnightblue" d="M505.588,-120.219C505.588,-113.177 505.588,-102.808 505.588,-93.8277"/>
<polygon fill="midnightblue" stroke="midnightblue" points="509.088,-93.5495 505.588,-83.5496 502.088,-93.5496 509.088,-93.5495"/>
</g>
<!-- Node14 -->
<g id="node14" class="node"><title>Node14</title>
<polygon fill="white" stroke="#bfbfbf" points="591.973,-65.5 591.973,-83.5 635.204,-83.5 635.204,-65.5 591.973,-65.5"/>
<text text-anchor="middle" x="613.588" y="-71.5" font-family="Helvetica,sans-Serif" font-size="10.00">cmath</text>
</g>
<!-- Node2&#45;&gt;Node14 -->
<g id="edge14" class="edge"><title>Node2&#45;&gt;Node14</title>
<path fill="none" stroke="midnightblue" d="M521.991,-120.45C539.515,-111.851 567.526,-98.1048 587.963,-88.0755"/>
<polygon fill="midnightblue" stroke="midnightblue" points="589.596,-91.1729 597.031,-83.6253 586.512,-84.8888 589.596,-91.1729"/>
</g>
<!-- Node4 -->
<g id="node4" class="node"><title>Node4</title>
<polygon fill="white" stroke="#bfbfbf" points="0,-0.5 0,-28.5 117.177,-28.5 117.177,-0.5 0,-0.5"/>
<text text-anchor="start" x="8" y="-16.5" font-family="Helvetica,sans-Serif" font-size="10.00">../../../dependencies</text>
<text text-anchor="middle" x="58.5884" y="-6.5" font-family="Helvetica,sans-Serif" font-size="10.00">/jsoncpp/include/json.h</text>
</g>
<!-- Node3&#45;&gt;Node4 -->
<g id="edge3" class="edge"><title>Node3&#45;&gt;Node4</title>
<path fill="none" stroke="midnightblue" d="M155.015,-65.4353C139.065,-57.1756 113.747,-44.0642 93.0553,-33.3489"/>
<polygon fill="midnightblue" stroke="midnightblue" points="94.4137,-30.1109 83.9242,-28.6203 91.1946,-36.3269 94.4137,-30.1109"/>
</g>
<!-- Node5 -->
<g id="node5" class="node"><title>Node5</title>
<polygon fill="white" stroke="#bfbfbf" points="134.918,-5.5 134.918,-23.5 184.258,-23.5 184.258,-5.5 134.918,-5.5"/>
<text text-anchor="middle" x="159.588" y="-11.5" font-family="Helvetica,sans-Serif" font-size="10.00">fstream</text>
</g>
<!-- Node3&#45;&gt;Node5 -->
<g id="edge4" class="edge"><title>Node3&#45;&gt;Node5</title>
<path fill="none" stroke="midnightblue" d="M169.059,-65.4353C167.517,-57.3035 165.083,-44.4692 163.068,-33.8485"/>
<polygon fill="midnightblue" stroke="midnightblue" points="166.478,-33.0444 161.176,-23.8718 159.601,-34.3488 166.478,-33.0444"/>
</g>
<!-- Node6 -->
<g id="node6" class="node"><title>Node6</title>
<polygon fill="white" stroke="#bfbfbf" points="201.973,-5.5 201.973,-23.5 245.204,-23.5 245.204,-5.5 201.973,-5.5"/>
<text text-anchor="middle" x="223.588" y="-11.5" font-family="Helvetica,sans-Serif" font-size="10.00">vector</text>
</g>
<!-- Node3&#45;&gt;Node6 -->
<g id="edge5" class="edge"><title>Node3&#45;&gt;Node6</title>
<path fill="none" stroke="midnightblue" d="M177.958,-65.4353C185.936,-56.7043 198.868,-42.5523 208.932,-31.5395"/>
<polygon fill="midnightblue" stroke="midnightblue" points="211.776,-33.6149 215.938,-23.8718 206.609,-28.8929 211.776,-33.6149"/>
</g>
<!-- Node7&#45;&gt;Node6 -->
<g id="edge9" class="edge"><title>Node7&#45;&gt;Node6</title>
<path fill="none" stroke="midnightblue" d="M330.347,-65.4353C309.642,-55.7508 274.678,-39.3966 250.43,-28.055"/>
<polygon fill="midnightblue" stroke="midnightblue" points="251.624,-24.7497 241.083,-23.6831 248.659,-31.0904 251.624,-24.7497"/>
</g>
<!-- Node8 -->
<g id="node8" class="node"><title>Node8</title>
<polygon fill="white" stroke="#bfbfbf" points="263.187,-5.5 263.187,-23.5 321.99,-23.5 321.99,-5.5 263.187,-5.5"/>
<text text-anchor="middle" x="292.588" y="-11.5" font-family="Helvetica,sans-Serif" font-size="10.00">stdexcept</text>
</g>
<!-- Node7&#45;&gt;Node8 -->
<g id="edge7" class="edge"><title>Node7&#45;&gt;Node8</title>
<path fill="none" stroke="midnightblue" d="M339.941,-65.4353C331.58,-56.6187 317.978,-42.2743 307.492,-31.2165"/>
<polygon fill="midnightblue" stroke="midnightblue" points="309.948,-28.7197 300.527,-23.8718 304.868,-33.5364 309.948,-28.7197"/>
</g>
<!-- Node9 -->
<g id="node9" class="node"><title>Node9</title>
<polygon fill="white" stroke="#bfbfbf" points="340.202,-5.5 340.202,-23.5 378.975,-23.5 378.975,-5.5 340.202,-5.5"/>
<text text-anchor="middle" x="359.588" y="-11.5" font-family="Helvetica,sans-Serif" font-size="10.00">limits</text>
</g>
<!-- Node7&#45;&gt;Node9 -->
<g id="edge8" class="edge"><title>Node7&#45;&gt;Node9</title>
<path fill="none" stroke="midnightblue" d="M349.257,-65.4353C350.939,-57.3035 353.595,-44.4692 355.792,-33.8485"/>
<polygon fill="midnightblue" stroke="midnightblue" points="359.258,-34.3735 357.856,-23.8718 352.403,-32.9552 359.258,-34.3735"/>
</g>
<!-- Node10 -->
<g id="node10" class="node"><title>Node10</title>
<polygon fill="white" stroke="#bfbfbf" points="397.362,-5.5 397.362,-23.5 437.815,-23.5 437.815,-5.5 397.362,-5.5"/>
<text text-anchor="middle" x="417.588" y="-11.5" font-family="Helvetica,sans-Serif" font-size="10.00">string</text>
</g>
<!-- Node7&#45;&gt;Node10 -->
<g id="edge10" class="edge"><title>Node7&#45;&gt;Node10</title>
<path fill="none" stroke="midnightblue" d="M357.322,-65.4353C368.272,-56.3619 386.289,-41.434 399.776,-30.2589"/>
<polygon fill="midnightblue" stroke="midnightblue" points="402.017,-32.9471 407.485,-23.8718 397.551,-27.5569 402.017,-32.9471"/>
</g>
<!-- Node11 -->
<g id="node11" class="node"><title>Node11</title>
<polygon fill="white" stroke="#bfbfbf" points="456.185,-5.5 456.185,-23.5 514.992,-23.5 514.992,-5.5 456.185,-5.5"/>
<text text-anchor="middle" x="485.588" y="-11.5" font-family="Helvetica,sans-Serif" font-size="10.00">functional</text>
</g>
<!-- Node7&#45;&gt;Node11 -->
<g id="edge11" class="edge"><title>Node7&#45;&gt;Node11</title>
<path fill="none" stroke="midnightblue" d="M366.777,-65.4353C390.126,-55.6217 429.771,-38.9593 456.789,-27.604"/>
<polygon fill="midnightblue" stroke="midnightblue" points="458.255,-30.7844 466.118,-23.6831 455.543,-24.3312 458.255,-30.7844"/>
</g>
<!-- Node12&#45;&gt;Node13 -->
<g id="edge13" class="edge"><title>Node12&#45;&gt;Node13</title>
<path fill="none" stroke="midnightblue" d="M518.659,-65.4353C533.936,-56.0091 559.454,-40.2641 577.753,-28.9728"/>
<polygon fill="midnightblue" stroke="midnightblue" points="579.654,-31.9129 586.326,-23.6831 575.978,-25.9556 579.654,-31.9129"/>
</g>
</g>
</svg>
