<?xml version="1.0" encoding="UTF-8" standalone="no"?>
<!DOCTYPE svg PUBLIC "-//W3C//DTD SVG 1.1//EN"
 "http://www.w3.org/Graphics/SVG/1.1/DTD/svg11.dtd">
<!-- Generated by graphviz version 2.38.0 (20140413.2041)
 -->
<!-- Title: xmmHmmSingleClass.hpp Pages: 1 -->
<svg width="826pt" height="452pt"
 viewBox="0.00 0.00 825.98 452.00" xmlns="http://www.w3.org/2000/svg" xmlns:xlink="http://www.w3.org/1999/xlink">
<g id="graph0" class="graph" transform="scale(1 1) rotate(0) translate(4 448)">
<title>xmmHmmSingleClass.hpp</title>
<polygon fill="white" stroke="none" points="-4,4 -4,-448 821.98,-448 821.98,4 -4,4"/>
<!-- Node1 -->
<g id="node1" class="node"><title>Node1</title>
<polygon fill="#bfbfbf" stroke="black" points="241.672,-425.5 241.672,-443.5 375.48,-443.5 375.48,-425.5 241.672,-425.5"/>
<text text-anchor="middle" x="308.576" y="-431.5" font-family="Helvetica,sans-Serif" font-size="10.00">xmmHmmSingleClass.hpp</text>
</g>
<!-- Node2 -->
<g id="node2" class="node"><title>Node2</title>
<g id="a_node2"><a xlink:href="xmm_gmm_single_class_8hpp.html" target="_top" xlink:title="../gmm/xmmGmmSingleClass.hpp">
<polygon fill="white" stroke="black" points="224.727,-370.5 224.727,-388.5 392.426,-388.5 392.426,-370.5 224.727,-370.5"/>
<text text-anchor="middle" x="308.576" y="-376.5" font-family="Helvetica,sans-Serif" font-size="10.00">../gmm/xmmGmmSingleClass.hpp</text>
</a>
</g>
</g>
<!-- Node1&#45;&gt;Node2 -->
<g id="edge1" class="edge"><title>Node1&#45;&gt;Node2</title>
<path fill="none" stroke="midnightblue" d="M308.576,-425.219C308.576,-418.177 308.576,-407.808 308.576,-398.828"/>
<polygon fill="midnightblue" stroke="midnightblue" points="312.076,-398.55 308.576,-388.55 305.076,-398.55 312.076,-398.55"/>
</g>
<!-- Node27 -->
<g id="node27" class="node"><title>Node27</title>
<g id="a_node27"><a xlink:href="xmm_hmm_parameters_8hpp.html" target="_top" xlink:title="xmmHmmParameters.hpp">
<polygon fill="white" stroke="black" points="499.231,-190.5 499.231,-208.5 631.921,-208.5 631.921,-190.5 499.231,-190.5"/>
<text text-anchor="middle" x="565.576" y="-196.5" font-family="Helvetica,sans-Serif" font-size="10.00">xmmHmmParameters.hpp</text>
</a>
</g>
</g>
<!-- Node1&#45;&gt;Node27 -->
<g id="edge38" class="edge"><title>Node1&#45;&gt;Node27</title>
<path fill="none" stroke="midnightblue" d="M331.823,-425.443C351.577,-417.909 380.069,-405.368 401.576,-389 469.728,-337.132 530.306,-253.148 554.455,-217.437"/>
<polygon fill="midnightblue" stroke="midnightblue" points="557.638,-218.973 560.277,-208.712 551.815,-215.088 557.638,-218.973"/>
</g>
<!-- Node28 -->
<g id="node28" class="node"><title>Node28</title>
<g id="a_node28"><a xlink:href="xmm_hmm_results_8hpp.html" target="_top" xlink:title="xmmHmmResults.hpp">
<polygon fill="white" stroke="black" points="92.4014,-370.5 92.4014,-388.5 206.751,-388.5 206.751,-370.5 92.4014,-370.5"/>
<text text-anchor="middle" x="149.576" y="-376.5" font-family="Helvetica,sans-Serif" font-size="10.00">xmmHmmResults.hpp</text>
</a>
</g>
</g>
<!-- Node1&#45;&gt;Node28 -->
<g id="edge41" class="edge"><title>Node1&#45;&gt;Node28</title>
<path fill="none" stroke="midnightblue" d="M284.427,-425.45C257.5,-416.475 213.753,-401.892 183.42,-391.781"/>
<polygon fill="midnightblue" stroke="midnightblue" points="184.285,-388.38 173.691,-388.538 182.071,-395.021 184.285,-388.38"/>
</g>
<!-- Node3 -->
<g id="node3" class="node"><title>Node3</title>
<g id="a_node3"><a xlink:href="xmm_model_single_class_8hpp.html" target="_top" xlink:title="../../core/model/xmmModel\lSingleClass.hpp">
<polygon fill="white" stroke="black" points="234.67,-305.5 234.67,-333.5 368.482,-333.5 368.482,-305.5 234.67,-305.5"/>
<text text-anchor="start" x="242.67" y="-321.5" font-family="Helvetica,sans-Serif" font-size="10.00">../../core/model/xmmModel</text>
<text text-anchor="middle" x="301.576" y="-311.5" font-family="Helvetica,sans-Serif" font-size="10.00">SingleClass.hpp</text>
</a>
</g>
</g>
<!-- Node2&#45;&gt;Node3 -->
<g id="edge2" class="edge"><title>Node2&#45;&gt;Node3</title>
<path fill="none" stroke="midnightblue" d="M307.603,-370.435C306.773,-363.56 305.538,-353.324 304.401,-343.906"/>
<polygon fill="midnightblue" stroke="midnightblue" points="307.86,-343.351 303.187,-333.843 300.91,-344.19 307.86,-343.351"/>
</g>
<!-- Node23 -->
<g id="node23" class="node"><title>Node23</title>
<g id="a_node23"><a xlink:href="xmm_model_results_8hpp.html" target="_top" xlink:title="../../core/model/xmmModel\lResults.hpp">
<polygon fill="white" stroke="black" points="82.6699,-305.5 82.6699,-333.5 216.482,-333.5 216.482,-305.5 82.6699,-305.5"/>
<text text-anchor="start" x="90.6699" y="-321.5" font-family="Helvetica,sans-Serif" font-size="10.00">../../core/model/xmmModel</text>
<text text-anchor="middle" x="149.576" y="-311.5" font-family="Helvetica,sans-Serif" font-size="10.00">Results.hpp</text>
</a>
</g>
</g>
<!-- Node2&#45;&gt;Node23 -->
<g id="edge30" class="edge"><title>Node2&#45;&gt;Node23</title>
<path fill="none" stroke="midnightblue" d="M286.468,-370.435C262.83,-361.813 224.697,-347.903 194.674,-336.951"/>
<polygon fill="midnightblue" stroke="midnightblue" points="195.834,-333.648 185.24,-333.51 193.435,-340.225 195.834,-333.648"/>
</g>
<!-- Node24 -->
<g id="node24" class="node"><title>Node24</title>
<g id="a_node24"><a xlink:href="xmm_gmm_parameters_8hpp.html" target="_top" xlink:title="xmmGmmParameters.hpp">
<polygon fill="white" stroke="black" points="347.953,-190.5 347.953,-208.5 481.199,-208.5 481.199,-190.5 347.953,-190.5"/>
<text text-anchor="middle" x="414.576" y="-196.5" font-family="Helvetica,sans-Serif" font-size="10.00">xmmGmmParameters.hpp</text>
</a>
</g>
</g>
<!-- Node2&#45;&gt;Node24 -->
<g id="edge31" class="edge"><title>Node2&#45;&gt;Node24</title>
<path fill="none" stroke="midnightblue" d="M328.382,-370.496C343.968,-363.212 365.076,-350.994 377.576,-334 403.512,-298.739 411.271,-246.139 413.59,-218.677"/>
<polygon fill="midnightblue" stroke="midnightblue" points="417.091,-218.787 414.288,-208.57 410.107,-218.305 417.091,-218.787"/>
</g>
<!-- Node4 -->
<g id="node4" class="node"><title>Node4</title>
<g id="a_node4"><a xlink:href="xmm_circularbuffer_8hpp.html" target="_top" xlink:title="../common/xmmCircularbuffer.hpp">
<polygon fill="white" stroke="black" points="629.637,-65.5 629.637,-83.5 795.515,-83.5 795.515,-65.5 629.637,-65.5"/>
<text text-anchor="middle" x="712.576" y="-71.5" font-family="Helvetica,sans-Serif" font-size="10.00">../common/xmmCircularbuffer.hpp</text>
</a>
</g>
</g>
<!-- Node3&#45;&gt;Node4 -->
<g id="edge3" class="edge"><title>Node3&#45;&gt;Node4</title>
<path fill="none" stroke="midnightblue" d="M368.703,-313.115C442.835,-303.984 562.068,-279.485 640.576,-214 679.328,-181.676 699.799,-123.097 708.081,-93.5604"/>
<polygon fill="midnightblue" stroke="midnightblue" points="711.495,-94.3402 710.671,-83.7774 704.728,-92.5487 711.495,-94.3402"/>
</g>
<!-- Node8 -->
<g id="node8" class="node"><title>Node8</title>
<g id="a_node8"><a xlink:href="xmm_training_set_8hpp.html" target="_top" xlink:title="../trainingset/xmmTraining\lSet.hpp">
<polygon fill="white" stroke="black" points="155.24,-185.5 155.24,-213.5 285.913,-213.5 285.913,-185.5 155.24,-185.5"/>
<text text-anchor="start" x="163.24" y="-201.5" font-family="Helvetica,sans-Serif" font-size="10.00">../trainingset/xmmTraining</text>
<text text-anchor="middle" x="220.576" y="-191.5" font-family="Helvetica,sans-Serif" font-size="10.00">Set.hpp</text>
</a>
</g>
</g>
<!-- Node3&#45;&gt;Node8 -->
<g id="edge7" class="edge"><title>Node3&#45;&gt;Node8</title>
<path fill="none" stroke="midnightblue" d="M300.369,-305.392C298.505,-290.821 293.868,-267.093 282.576,-250 274.651,-238.003 262.879,-227.559 251.717,-219.397"/>
<polygon fill="midnightblue" stroke="midnightblue" points="253.585,-216.433 243.373,-213.612 249.597,-222.186 253.585,-216.433"/>
</g>
<!-- Node17 -->
<g id="node17" class="node"><title>Node17</title>
<g id="a_node17"><a xlink:href="xmm_events_8hpp.html" target="_top" xlink:title="../common/xmmEvents.hpp">
<polygon fill="white" stroke="black" points="0,-65.5 0,-83.5 137.152,-83.5 137.152,-65.5 0,-65.5"/>
<text text-anchor="middle" x="68.5762" y="-71.5" font-family="Helvetica,sans-Serif" font-size="10.00">../common/xmmEvents.hpp</text>
</a>
</g>
</g>
<!-- Node3&#45;&gt;Node17 -->
<g id="edge24" class="edge"><title>Node3&#45;&gt;Node17</title>
<path fill="none" stroke="midnightblue" d="M234.531,-306.092C174.554,-294.558 94.1873,-277.865 81.5762,-269 57.8722,-252.338 54.677,-241.819 46.5762,-214 34.2518,-171.677 50.3644,-119.943 60.8548,-93.2786"/>
<polygon fill="midnightblue" stroke="midnightblue" points="64.1973,-94.3542 64.7816,-83.7755 57.7279,-91.6809 64.1973,-94.3542"/>
</g>
<!-- Node21 -->
<g id="node21" class="node"><title>Node21</title>
<g id="a_node21"><a xlink:href="xmm_model_shared_parameters_8hpp.html" target="_top" xlink:title="xmmModelSharedParameters.hpp">
<polygon fill="white" stroke="black" points="105.431,-250.5 105.431,-268.5 273.721,-268.5 273.721,-250.5 105.431,-250.5"/>
<text text-anchor="middle" x="189.576" y="-256.5" font-family="Helvetica,sans-Serif" font-size="10.00">xmmModelSharedParameters.hpp</text>
</a>
</g>
</g>
<!-- Node3&#45;&gt;Node21 -->
<g id="edge25" class="edge"><title>Node3&#45;&gt;Node21</title>
<path fill="none" stroke="midnightblue" d="M276.441,-305.484C257.878,-295.87 232.734,-282.85 214.275,-273.29"/>
<polygon fill="midnightblue" stroke="midnightblue" points="215.791,-270.134 205.301,-268.643 212.572,-276.35 215.791,-270.134"/>
</g>
<!-- Node22 -->
<g id="node22" class="node"><title>Node22</title>
<polygon fill="white" stroke="#bfbfbf" points="55.9604,-190.5 55.9604,-208.5 99.1919,-208.5 99.1919,-190.5 55.9604,-190.5"/>
<text text-anchor="middle" x="77.5762" y="-196.5" font-family="Helvetica,sans-Serif" font-size="10.00">mutex</text>
</g>
<!-- Node3&#45;&gt;Node22 -->
<g id="edge29" class="edge"><title>Node3&#45;&gt;Node22</title>
<path fill="none" stroke="midnightblue" d="M234.431,-305.8C178.602,-294.669 106.693,-278.782 96.5762,-269 83.1431,-256.011 78.9535,-234.426 77.7723,-218.956"/>
<polygon fill="midnightblue" stroke="midnightblue" points="81.2533,-218.412 77.3523,-208.561 74.259,-218.694 81.2533,-218.412"/>
</g>
<!-- Node5 -->
<g id="node5" class="node"><title>Node5</title>
<polygon fill="white" stroke="#bfbfbf" points="543.96,-5.5 543.96,-23.5 587.192,-23.5 587.192,-5.5 543.96,-5.5"/>
<text text-anchor="middle" x="565.576" y="-11.5" font-family="Helvetica,sans-Serif" font-size="10.00">vector</text>
</g>
<!-- Node4&#45;&gt;Node5 -->
<g id="edge4" class="edge"><title>Node4&#45;&gt;Node5</title>
<path fill="none" stroke="midnightblue" d="M690.655,-65.4216C667.245,-56.7176 629.115,-42.3186 596.576,-29 595.544,-28.5775 594.494,-28.1434 593.435,-27.7016"/>
<polygon fill="midnightblue" stroke="midnightblue" points="594.45,-24.3296 583.878,-23.6305 591.707,-30.7696 594.45,-24.3296"/>
</g>
<!-- Node6 -->
<g id="node6" class="node"><title>Node6</title>
<polygon fill="white" stroke="#bfbfbf" points="759.172,-5.5 759.172,-23.5 817.98,-23.5 817.98,-5.5 759.172,-5.5"/>
<text text-anchor="middle" x="788.576" y="-11.5" font-family="Helvetica,sans-Serif" font-size="10.00">exception</text>
</g>
<!-- Node4&#45;&gt;Node6 -->
<g id="edge5" class="edge"><title>Node4&#45;&gt;Node6</title>
<path fill="none" stroke="midnightblue" d="M723.144,-65.4353C735.145,-56.2763 754.963,-41.1518 769.65,-29.9437"/>
<polygon fill="midnightblue" stroke="midnightblue" points="771.78,-32.7209 777.606,-23.8718 767.533,-27.1562 771.78,-32.7209"/>
</g>
<!-- Node7 -->
<g id="node7" class="node"><title>Node7</title>
<polygon fill="white" stroke="#bfbfbf" points="682.175,-5.5 682.175,-23.5 740.978,-23.5 740.978,-5.5 682.175,-5.5"/>
<text text-anchor="middle" x="711.576" y="-11.5" font-family="Helvetica,sans-Serif" font-size="10.00">stdexcept</text>
</g>
<!-- Node4&#45;&gt;Node7 -->
<g id="edge6" class="edge"><title>Node4&#45;&gt;Node7</title>
<path fill="none" stroke="midnightblue" d="M712.437,-65.4353C712.298,-57.3891 712.08,-44.7388 711.898,-34.1846"/>
<polygon fill="midnightblue" stroke="midnightblue" points="715.392,-33.8099 711.721,-23.8718 708.394,-33.9306 715.392,-33.8099"/>
</g>
<!-- Node9 -->
<g id="node9" class="node"><title>Node9</title>
<g id="a_node9"><a xlink:href="xmm_phrase_8hpp.html" target="_top" xlink:title="xmmPhrase.hpp">
<polygon fill="white" stroke="black" points="247.172,-125.5 247.172,-143.5 335.98,-143.5 335.98,-125.5 247.172,-125.5"/>
<text text-anchor="middle" x="291.576" y="-131.5" font-family="Helvetica,sans-Serif" font-size="10.00">xmmPhrase.hpp</text>
</a>
</g>
</g>
<!-- Node8&#45;&gt;Node9 -->
<g id="edge8" class="edge"><title>Node8&#45;&gt;Node9</title>
<path fill="none" stroke="midnightblue" d="M235.287,-185.446C246.772,-175.256 262.739,-161.088 274.735,-150.444"/>
<polygon fill="midnightblue" stroke="midnightblue" points="277.144,-152.985 282.301,-143.73 272.498,-147.749 277.144,-152.985"/>
</g>
<!-- Node18 -->
<g id="node18" class="node"><title>Node18</title>
<polygon fill="white" stroke="#bfbfbf" points="102.906,-5.5 102.906,-23.5 132.246,-23.5 132.246,-5.5 102.906,-5.5"/>
<text text-anchor="middle" x="117.576" y="-11.5" font-family="Helvetica,sans-Serif" font-size="10.00">set</text>
</g>
<!-- Node8&#45;&gt;Node18 -->
<g id="edge23" class="edge"><title>Node8&#45;&gt;Node18</title>
<path fill="none" stroke="midnightblue" d="M209.707,-185.141C202.121,-175.458 192.056,-161.86 184.576,-149 163.974,-113.58 165.403,-101.394 146.576,-65 140.87,-53.9697 133.843,-41.9414 128.135,-32.5041"/>
<polygon fill="midnightblue" stroke="midnightblue" points="130.984,-30.4553 122.775,-23.7576 125.016,-34.1128 130.984,-30.4553"/>
</g>
<!-- Node20 -->
<g id="node20" class="node"><title>Node20</title>
<polygon fill="white" stroke="#bfbfbf" points="193.85,-125.5 193.85,-143.5 229.303,-143.5 229.303,-125.5 193.85,-125.5"/>
<text text-anchor="middle" x="211.576" y="-131.5" font-family="Helvetica,sans-Serif" font-size="10.00">map</text>
</g>
<!-- Node8&#45;&gt;Node20 -->
<g id="edge22" class="edge"><title>Node8&#45;&gt;Node20</title>
<path fill="none" stroke="midnightblue" d="M218.711,-185.446C217.41,-176.334 215.653,-164.041 214.209,-153.931"/>
<polygon fill="midnightblue" stroke="midnightblue" points="217.631,-153.135 212.752,-143.73 210.701,-154.125 217.631,-153.135"/>
</g>
<!-- Node10 -->
<g id="node10" class="node"><title>Node10</title>
<g id="a_node10"><a xlink:href="xmm_json_8hpp.html" target="_top" xlink:title="../common/xmmJson.hpp">
<polygon fill="white" stroke="black" points="321.724,-65.5 321.724,-83.5 449.428,-83.5 449.428,-65.5 321.724,-65.5"/>
<text text-anchor="middle" x="385.576" y="-71.5" font-family="Helvetica,sans-Serif" font-size="10.00">../common/xmmJson.hpp</text>
</a>
</g>
</g>
<!-- Node9&#45;&gt;Node10 -->
<g id="edge9" class="edge"><title>Node9&#45;&gt;Node10</title>
<path fill="none" stroke="midnightblue" d="M304.646,-125.435C319.923,-116.009 345.441,-100.264 363.741,-88.9728"/>
<polygon fill="midnightblue" stroke="midnightblue" points="365.641,-91.9129 372.314,-83.6831 361.966,-85.9556 365.641,-91.9129"/>
</g>
<!-- Node13 -->
<g id="node13" class="node"><title>Node13</title>
<g id="a_node13"><a xlink:href="xmm_attribute_8hpp.html" target="_top" xlink:title="../common/xmmAttribute.hpp">
<polygon fill="white" stroke="black" points="467.665,-65.5 467.665,-83.5 611.487,-83.5 611.487,-65.5 467.665,-65.5"/>
<text text-anchor="middle" x="539.576" y="-71.5" font-family="Helvetica,sans-Serif" font-size="10.00">../common/xmmAttribute.hpp</text>
</a>
</g>
</g>
<!-- Node9&#45;&gt;Node13 -->
<g id="edge13" class="edge"><title>Node9&#45;&gt;Node13</title>
<path fill="none" stroke="midnightblue" d="M322.652,-125.446C329.842,-123.621 337.469,-121.716 344.576,-120 395.346,-107.743 453.77,-94.5279 493.329,-85.7113"/>
<polygon fill="midnightblue" stroke="midnightblue" points="494.212,-89.1005 503.214,-83.5124 492.692,-82.2675 494.212,-89.1005"/>
</g>
<!-- Node9&#45;&gt;Node17 -->
<g id="edge19" class="edge"><title>Node9&#45;&gt;Node17</title>
<path fill="none" stroke="midnightblue" d="M260.569,-125.435C221.154,-115.184 153.005,-97.459 109.397,-86.1171"/>
<polygon fill="midnightblue" stroke="midnightblue" points="110.238,-82.7194 99.6787,-83.5894 108.476,-89.494 110.238,-82.7194"/>
</g>
<!-- Node19 -->
<g id="node19" class="node"><title>Node19</title>
<polygon fill="white" stroke="#bfbfbf" points="260.96,-65.5 260.96,-83.5 304.192,-83.5 304.192,-65.5 260.96,-65.5"/>
<text text-anchor="middle" x="282.576" y="-71.5" font-family="Helvetica,sans-Serif" font-size="10.00">cmath</text>
</g>
<!-- Node9&#45;&gt;Node19 -->
<g id="edge21" class="edge"><title>Node9&#45;&gt;Node19</title>
<path fill="none" stroke="midnightblue" d="M290.325,-125.435C289.063,-117.304 287.071,-104.469 285.423,-93.8485"/>
<polygon fill="midnightblue" stroke="midnightblue" points="288.867,-93.2168 283.875,-83.8718 281.95,-94.2902 288.867,-93.2168"/>
</g>
<!-- Node10&#45;&gt;Node5 -->
<g id="edge12" class="edge"><title>Node10&#45;&gt;Node5</title>
<path fill="none" stroke="midnightblue" d="M416.463,-65.4454C446.846,-57.2493 494.387,-43.6917 534.576,-29 535.954,-28.4961 537.359,-27.9619 538.772,-27.4081"/>
<polygon fill="midnightblue" stroke="midnightblue" points="540.117,-30.6393 548.02,-23.5826 537.442,-24.1709 540.117,-30.6393"/>
</g>
<!-- Node11 -->
<g id="node11" class="node"><title>Node11</title>
<polygon fill="white" stroke="#bfbfbf" points="225.988,-0.5 225.988,-28.5 343.165,-28.5 343.165,-0.5 225.988,-0.5"/>
<text text-anchor="start" x="233.988" y="-16.5" font-family="Helvetica,sans-Serif" font-size="10.00">../../../dependencies</text>
<text text-anchor="middle" x="284.576" y="-6.5" font-family="Helvetica,sans-Serif" font-size="10.00">/jsoncpp/include/json.h</text>
</g>
<!-- Node10&#45;&gt;Node11 -->
<g id="edge10" class="edge"><title>Node10&#45;&gt;Node11</title>
<path fill="none" stroke="midnightblue" d="M371.533,-65.4353C357.279,-57.25 334.728,-44.3001 316.163,-33.6391"/>
<polygon fill="midnightblue" stroke="midnightblue" points="317.838,-30.5651 307.424,-28.6203 314.353,-36.6354 317.838,-30.5651"/>
</g>
<!-- Node12 -->
<g id="node12" class="node"><title>Node12</title>
<polygon fill="white" stroke="#bfbfbf" points="360.906,-5.5 360.906,-23.5 410.246,-23.5 410.246,-5.5 360.906,-5.5"/>
<text text-anchor="middle" x="385.576" y="-11.5" font-family="Helvetica,sans-Serif" font-size="10.00">fstream</text>
</g>
<!-- Node10&#45;&gt;Node12 -->
<g id="edge11" class="edge"><title>Node10&#45;&gt;Node12</title>
<path fill="none" stroke="midnightblue" d="M385.576,-65.4353C385.576,-57.3891 385.576,-44.7388 385.576,-34.1846"/>
<polygon fill="midnightblue" stroke="midnightblue" points="389.076,-33.8717 385.576,-23.8718 382.076,-33.8718 389.076,-33.8717"/>
</g>
<!-- Node13&#45;&gt;Node5 -->
<g id="edge16" class="edge"><title>Node13&#45;&gt;Node5</title>
<path fill="none" stroke="midnightblue" d="M543.191,-65.4353C546.913,-57.1323 552.833,-43.9267 557.65,-33.1807"/>
<polygon fill="midnightblue" stroke="midnightblue" points="560.926,-34.4286 561.823,-23.8718 554.539,-31.5651 560.926,-34.4286"/>
</g>
<!-- Node13&#45;&gt;Node7 -->
<g id="edge14" class="edge"><title>Node13&#45;&gt;Node7</title>
<path fill="none" stroke="midnightblue" d="M564.115,-65.3743C590.823,-56.5104 634.774,-41.8662 672.576,-29 674.67,-28.2872 676.827,-27.55 679,-26.8046"/>
<polygon fill="midnightblue" stroke="midnightblue" points="680.178,-30.1007 688.493,-23.5347 677.898,-23.4823 680.178,-30.1007"/>
</g>
<!-- Node14 -->
<g id="node14" class="node"><title>Node14</title>
<polygon fill="white" stroke="#bfbfbf" points="428.189,-5.5 428.189,-23.5 466.963,-23.5 466.963,-5.5 428.189,-5.5"/>
<text text-anchor="middle" x="447.576" y="-11.5" font-family="Helvetica,sans-Serif" font-size="10.00">limits</text>
</g>
<!-- Node13&#45;&gt;Node14 -->
<g id="edge15" class="edge"><title>Node13&#45;&gt;Node14</title>
<path fill="none" stroke="midnightblue" d="M526.784,-65.4353C511.9,-56.0521 487.085,-40.4077 469.193,-29.1277"/>
<polygon fill="midnightblue" stroke="midnightblue" points="470.882,-26.0554 460.556,-23.6831 467.149,-31.9769 470.882,-26.0554"/>
</g>
<!-- Node15 -->
<g id="node15" class="node"><title>Node15</title>
<polygon fill="white" stroke="#bfbfbf" points="485.35,-5.5 485.35,-23.5 525.803,-23.5 525.803,-5.5 485.35,-5.5"/>
<text text-anchor="middle" x="505.576" y="-11.5" font-family="Helvetica,sans-Serif" font-size="10.00">string</text>
</g>
<!-- Node13&#45;&gt;Node15 -->
<g id="edge17" class="edge"><title>Node13&#45;&gt;Node15</title>
<path fill="none" stroke="midnightblue" d="M534.849,-65.4353C529.881,-56.9611 521.92,-43.38 515.553,-32.5192"/>
<polygon fill="midnightblue" stroke="midnightblue" points="518.56,-30.7287 510.484,-23.8718 512.522,-34.2688 518.56,-30.7287"/>
</g>
<!-- Node16 -->
<g id="node16" class="node"><title>Node16</title>
<polygon fill="white" stroke="#bfbfbf" points="605.172,-5.5 605.172,-23.5 663.98,-23.5 663.98,-5.5 605.172,-5.5"/>
<text text-anchor="middle" x="634.576" y="-11.5" font-family="Helvetica,sans-Serif" font-size="10.00">functional</text>
</g>
<!-- Node13&#45;&gt;Node16 -->
<g id="edge18" class="edge"><title>Node13&#45;&gt;Node16</title>
<path fill="none" stroke="midnightblue" d="M552.786,-65.4353C568.225,-56.0091 594.014,-40.2641 612.509,-28.9728"/>
<polygon fill="midnightblue" stroke="midnightblue" points="614.462,-31.8813 621.173,-23.6831 610.814,-25.9068 614.462,-31.8813"/>
</g>
<!-- Node17&#45;&gt;Node18 -->
<g id="edge20" class="edge"><title>Node17&#45;&gt;Node18</title>
<path fill="none" stroke="midnightblue" d="M75.3894,-65.4353C82.7656,-56.7043 94.7217,-42.5523 104.026,-31.5395"/>
<polygon fill="midnightblue" stroke="midnightblue" points="106.724,-33.7694 110.503,-23.8718 101.376,-29.2519 106.724,-33.7694"/>
</g>
<!-- Node21&#45;&gt;Node8 -->
<g id="edge26" class="edge"><title>Node21&#45;&gt;Node8</title>
<path fill="none" stroke="midnightblue" d="M193.887,-250.435C197.719,-243.265 203.506,-232.437 208.713,-222.695"/>
<polygon fill="midnightblue" stroke="midnightblue" points="211.818,-224.312 213.445,-213.843 205.644,-221.012 211.818,-224.312"/>
</g>
<!-- Node21&#45;&gt;Node17 -->
<g id="edge27" class="edge"><title>Node21&#45;&gt;Node17</title>
<path fill="none" stroke="midnightblue" d="M180.305,-250.234C171.078,-241.719 156.849,-227.781 146.576,-214 116.436,-173.568 89.5804,-120.285 76.6782,-93.1011"/>
<polygon fill="midnightblue" stroke="midnightblue" points="79.7099,-91.3215 72.3028,-83.7462 73.3692,-94.2873 79.7099,-91.3215"/>
</g>
<!-- Node21&#45;&gt;Node22 -->
<g id="edge28" class="edge"><title>Node21&#45;&gt;Node22</title>
<path fill="none" stroke="midnightblue" d="M174.003,-250.435C155.468,-240.837 124.282,-224.687 102.407,-213.359"/>
<polygon fill="midnightblue" stroke="midnightblue" points="103.868,-210.174 93.3781,-208.683 100.649,-216.39 103.868,-210.174"/>
</g>
<!-- Node25 -->
<g id="node25" class="node"><title>Node25</title>
<g id="a_node25"><a xlink:href="xmm_model_parameters_8hpp.html" target="_top" xlink:title="../../core/model/xmmModel\lParameters.hpp">
<polygon fill="white" stroke="black" points="353.67,-120.5 353.67,-148.5 487.482,-148.5 487.482,-120.5 353.67,-120.5"/>
<text text-anchor="start" x="361.67" y="-136.5" font-family="Helvetica,sans-Serif" font-size="10.00">../../core/model/xmmModel</text>
<text text-anchor="middle" x="420.576" y="-126.5" font-family="Helvetica,sans-Serif" font-size="10.00">Parameters.hpp</text>
</a>
</g>
</g>
<!-- Node24&#45;&gt;Node25 -->
<g id="edge32" class="edge"><title>Node24&#45;&gt;Node25</title>
<path fill="none" stroke="midnightblue" d="M415.361,-190.264C416.113,-182.359 417.287,-170.038 418.33,-159.083"/>
<polygon fill="midnightblue" stroke="midnightblue" points="421.846,-159.085 419.31,-148.798 414.877,-158.421 421.846,-159.085"/>
</g>
<!-- Node26 -->
<g id="node26" class="node"><title>Node26</title>
<g id="a_node26"><a xlink:href="xmm_gaussian_distribution_8hpp.html" target="_top" xlink:title="../../core/distributions\l/xmmGaussianDistribution.hpp">
<polygon fill="white" stroke="black" points="505.493,-120.5 505.493,-148.5 657.66,-148.5 657.66,-120.5 505.493,-120.5"/>
<text text-anchor="start" x="513.493" y="-136.5" font-family="Helvetica,sans-Serif" font-size="10.00">../../core/distributions</text>
<text text-anchor="middle" x="581.576" y="-126.5" font-family="Helvetica,sans-Serif" font-size="10.00">/xmmGaussianDistribution.hpp</text>
</a>
</g>
</g>
<!-- Node24&#45;&gt;Node26 -->
<g id="edge35" class="edge"><title>Node24&#45;&gt;Node26</title>
<path fill="none" stroke="midnightblue" d="M436.067,-190.393C461.644,-180.744 505.004,-164.386 537.754,-152.032"/>
<polygon fill="midnightblue" stroke="midnightblue" points="538.994,-155.305 547.115,-148.5 536.524,-148.755 538.994,-155.305"/>
</g>
<!-- Node25&#45;&gt;Node10 -->
<g id="edge33" class="edge"><title>Node25&#45;&gt;Node10</title>
<path fill="none" stroke="midnightblue" d="M412.634,-120.339C407.657,-112.092 401.193,-101.38 395.831,-92.4937"/>
<polygon fill="midnightblue" stroke="midnightblue" points="398.731,-90.525 390.568,-83.7715 392.738,-94.1417 398.731,-90.525"/>
</g>
<!-- Node25&#45;&gt;Node13 -->
<g id="edge34" class="edge"><title>Node25&#45;&gt;Node13</title>
<path fill="none" stroke="midnightblue" d="M447.282,-120.484C467.187,-110.782 494.212,-97.6103 513.872,-88.0281"/>
<polygon fill="midnightblue" stroke="midnightblue" points="515.412,-91.1709 522.868,-83.6434 512.346,-84.8785 515.412,-91.1709"/>
</g>
<!-- Node26&#45;&gt;Node10 -->
<g id="edge36" class="edge"><title>Node26&#45;&gt;Node10</title>
<path fill="none" stroke="midnightblue" d="M537.59,-120.484C502.915,-110.223 455.121,-96.0797 422.436,-86.4076"/>
<polygon fill="midnightblue" stroke="midnightblue" points="423.391,-83.0402 412.809,-83.5587 421.405,-89.7525 423.391,-83.0402"/>
</g>
<!-- Node26&#45;&gt;Node13 -->
<g id="edge37" class="edge"><title>Node26&#45;&gt;Node13</title>
<path fill="none" stroke="midnightblue" d="M572.046,-120.339C565.947,-111.916 557.986,-100.923 551.473,-91.929"/>
<polygon fill="midnightblue" stroke="midnightblue" points="554.266,-89.8181 545.566,-83.7715 548.596,-93.9237 554.266,-89.8181"/>
</g>
<!-- Node27&#45;&gt;Node25 -->
<g id="edge39" class="edge"><title>Node27&#45;&gt;Node25</title>
<path fill="none" stroke="midnightblue" d="M546.917,-190.393C524.995,-180.868 488.028,-164.807 459.728,-152.511"/>
<polygon fill="midnightblue" stroke="midnightblue" points="461.064,-149.275 450.497,-148.5 458.274,-155.695 461.064,-149.275"/>
</g>
<!-- Node27&#45;&gt;Node26 -->
<g id="edge40" class="edge"><title>Node27&#45;&gt;Node26</title>
<path fill="none" stroke="midnightblue" d="M567.668,-190.264C569.696,-182.277 572.87,-169.781 575.674,-158.742"/>
<polygon fill="midnightblue" stroke="midnightblue" points="579.13,-159.352 578.199,-148.798 572.345,-157.629 579.13,-159.352"/>
</g>
<!-- Node28&#45;&gt;Node23 -->
<g id="edge42" class="edge"><title>Node28&#45;&gt;Node23</title>
<path fill="none" stroke="midnightblue" d="M149.576,-370.435C149.576,-363.56 149.576,-353.324 149.576,-343.906"/>
<polygon fill="midnightblue" stroke="midnightblue" points="153.076,-343.843 149.576,-333.843 146.076,-343.843 153.076,-343.843"/>
</g>
</g>
</svg>
