<?xml version="1.0" encoding="UTF-8" standalone="no"?>
<!DOCTYPE svg PUBLIC "-//W3C//DTD SVG 1.1//EN"
 "http://www.w3.org/Graphics/SVG/1.1/DTD/svg11.dtd">
<!-- Generated by graphviz version 2.38.0 (20140413.2041)
 -->
<!-- Title: xmmPhrase.cpp Pages: 1 -->
<svg width="655pt" height="202pt"
 viewBox="0.00 0.00 655.20 202.00" xmlns="http://www.w3.org/2000/svg" xmlns:xlink="http://www.w3.org/1999/xlink">
<g id="graph0" class="graph" transform="scale(1 1) rotate(0) translate(4 198)">
<title>xmmPhrase.cpp</title>
<polygon fill="white" stroke="none" points="-4,4 -4,-198 651.204,-198 651.204,4 -4,4"/>
<!-- Node1 -->
<g id="node1" class="node"><title>Node1</title>
<polygon fill="#bfbfbf" stroke="black" points="394.465,-175.5 394.465,-193.5 482.711,-193.5 482.711,-175.5 394.465,-175.5"/>
<text text-anchor="middle" x="438.588" y="-181.5" font-family="Helvetica,sans-Serif" font-size="10.00">xmmPhrase.cpp</text>
</g>
<!-- Node2 -->
<g id="node2" class="node"><title>Node2</title>
<g id="a_node2"><a xlink:href="xmm_phrase_8hpp.html" target="_top" xlink:title="xmmPhrase.hpp">
<polygon fill="white" stroke="black" points="394.185,-120.5 394.185,-138.5 482.992,-138.5 482.992,-120.5 394.185,-120.5"/>
<text text-anchor="middle" x="438.588" y="-126.5" font-family="Helvetica,sans-Serif" font-size="10.00">xmmPhrase.hpp</text>
</a>
</g>
</g>
<!-- Node1&#45;&gt;Node2 -->
<g id="edge1" class="edge"><title>Node1&#45;&gt;Node2</title>
<path fill="none" stroke="midnightblue" d="M438.588,-175.219C438.588,-168.177 438.588,-157.808 438.588,-148.828"/>
<polygon fill="midnightblue" stroke="midnightblue" points="442.088,-148.55 438.588,-138.55 435.088,-148.55 442.088,-148.55"/>
</g>
<!-- Node3 -->
<g id="node3" class="node"><title>Node3</title>
<g id="a_node3"><a xlink:href="xmm_json_8hpp.html" target="_top" xlink:title="../common/xmmJson.hpp">
<polygon fill="white" stroke="black" points="118.736,-65.5 118.736,-83.5 246.44,-83.5 246.44,-65.5 118.736,-65.5"/>
<text text-anchor="middle" x="182.588" y="-71.5" font-family="Helvetica,sans-Serif" font-size="10.00">../common/xmmJson.hpp</text>
</a>
</g>
</g>
<!-- Node2&#45;&gt;Node3 -->
<g id="edge2" class="edge"><title>Node2&#45;&gt;Node3</title>
<path fill="none" stroke="midnightblue" d="M399.707,-120.45C354.656,-111.123 280.363,-95.7424 231.448,-85.6155"/>
<polygon fill="midnightblue" stroke="midnightblue" points="231.917,-82.1384 221.415,-83.5383 230.498,-88.993 231.917,-82.1384"/>
</g>
<!-- Node7 -->
<g id="node7" class="node"><title>Node7</title>
<g id="a_node7"><a xlink:href="xmm_attribute_8hpp.html" target="_top" xlink:title="../common/xmmAttribute.hpp">
<polygon fill="white" stroke="black" points="287.677,-65.5 287.677,-83.5 431.5,-83.5 431.5,-65.5 287.677,-65.5"/>
<text text-anchor="middle" x="359.588" y="-71.5" font-family="Helvetica,sans-Serif" font-size="10.00">../common/xmmAttribute.hpp</text>
</a>
</g>
</g>
<!-- Node2&#45;&gt;Node7 -->
<g id="edge6" class="edge"><title>Node2&#45;&gt;Node7</title>
<path fill="none" stroke="midnightblue" d="M426.59,-120.45C414.294,-112.201 394.938,-99.2158 380.186,-89.3187"/>
<polygon fill="midnightblue" stroke="midnightblue" points="381.954,-86.2901 371.7,-83.6253 378.054,-92.1031 381.954,-86.2901"/>
</g>
<!-- Node12 -->
<g id="node12" class="node"><title>Node12</title>
<g id="a_node12"><a xlink:href="xmm_events_8hpp.html" target="_top" xlink:title="../common/xmmEvents.hpp">
<polygon fill="white" stroke="black" points="449.012,-65.5 449.012,-83.5 586.165,-83.5 586.165,-65.5 449.012,-65.5"/>
<text text-anchor="middle" x="517.588" y="-71.5" font-family="Helvetica,sans-Serif" font-size="10.00">../common/xmmEvents.hpp</text>
</a>
</g>
</g>
<!-- Node2&#45;&gt;Node12 -->
<g id="edge12" class="edge"><title>Node2&#45;&gt;Node12</title>
<path fill="none" stroke="midnightblue" d="M450.587,-120.45C462.883,-112.201 482.238,-99.2158 496.991,-89.3187"/>
<polygon fill="midnightblue" stroke="midnightblue" points="499.123,-92.1031 505.477,-83.6253 495.223,-86.2901 499.123,-92.1031"/>
</g>
<!-- Node14 -->
<g id="node14" class="node"><title>Node14</title>
<polygon fill="white" stroke="#bfbfbf" points="603.973,-65.5 603.973,-83.5 647.204,-83.5 647.204,-65.5 603.973,-65.5"/>
<text text-anchor="middle" x="625.588" y="-71.5" font-family="Helvetica,sans-Serif" font-size="10.00">cmath</text>
</g>
<!-- Node2&#45;&gt;Node14 -->
<g id="edge14" class="edge"><title>Node2&#45;&gt;Node14</title>
<path fill="none" stroke="midnightblue" d="M466.99,-120.45C501.211,-110.751 558.531,-94.5057 594.083,-84.4294"/>
<polygon fill="midnightblue" stroke="midnightblue" points="595.265,-87.7323 603.932,-81.638 593.356,-80.9976 595.265,-87.7323"/>
</g>
<!-- Node4 -->
<g id="node4" class="node"><title>Node4</title>
<polygon fill="white" stroke="#bfbfbf" points="0,-0.5 0,-28.5 117.177,-28.5 117.177,-0.5 0,-0.5"/>
<text text-anchor="start" x="8" y="-16.5" font-family="Helvetica,sans-Serif" font-size="10.00">../../../dependencies</text>
<text text-anchor="middle" x="58.5884" y="-6.5" font-family="Helvetica,sans-Serif" font-size="10.00">/jsoncpp/include/json.h</text>
</g>
<!-- Node3&#45;&gt;Node4 -->
<g id="edge3" class="edge"><title>Node3&#45;&gt;Node4</title>
<path fill="none" stroke="midnightblue" d="M165.347,-65.4353C147.449,-57.064 118.897,-43.709 95.8223,-32.9159"/>
<polygon fill="midnightblue" stroke="midnightblue" points="97.1798,-29.6869 86.6387,-28.6203 94.2139,-36.0276 97.1798,-29.6869"/>
</g>
<!-- Node5 -->
<g id="node5" class="node"><title>Node5</title>
<polygon fill="white" stroke="#bfbfbf" points="134.918,-5.5 134.918,-23.5 184.258,-23.5 184.258,-5.5 134.918,-5.5"/>
<text text-anchor="middle" x="159.588" y="-11.5" font-family="Helvetica,sans-Serif" font-size="10.00">fstream</text>
</g>
<!-- Node3&#45;&gt;Node5 -->
<g id="edge4" class="edge"><title>Node3&#45;&gt;Node5</title>
<path fill="none" stroke="midnightblue" d="M179.39,-65.4353C176.098,-57.1323 170.861,-43.9267 166.6,-33.1807"/>
<polygon fill="midnightblue" stroke="midnightblue" points="169.848,-31.8773 162.908,-23.8718 163.341,-34.4578 169.848,-31.8773"/>
</g>
<!-- Node6 -->
<g id="node6" class="node"><title>Node6</title>
<polygon fill="white" stroke="#bfbfbf" points="201.973,-5.5 201.973,-23.5 245.204,-23.5 245.204,-5.5 201.973,-5.5"/>
<text text-anchor="middle" x="223.588" y="-11.5" font-family="Helvetica,sans-Serif" font-size="10.00">vector</text>
</g>
<!-- Node3&#45;&gt;Node6 -->
<g id="edge5" class="edge"><title>Node3&#45;&gt;Node6</title>
<path fill="none" stroke="midnightblue" d="M188.289,-65.4353C194.34,-56.8755 204.074,-43.1052 211.79,-32.1909"/>
<polygon fill="midnightblue" stroke="midnightblue" points="214.756,-34.0579 217.67,-23.8718 209.04,-30.0172 214.756,-34.0579"/>
</g>
<!-- Node7&#45;&gt;Node6 -->
<g id="edge9" class="edge"><title>Node7&#45;&gt;Node6</title>
<path fill="none" stroke="midnightblue" d="M340.212,-65.3553C319.123,-56.4753 284.421,-41.8173 254.588,-29 253.564,-28.5597 252.52,-28.1105 251.467,-27.6559"/>
<polygon fill="midnightblue" stroke="midnightblue" points="252.502,-24.2901 241.935,-23.5251 249.718,-30.7129 252.502,-24.2901"/>
</g>
<!-- Node8 -->
<g id="node8" class="node"><title>Node8</title>
<polygon fill="white" stroke="#bfbfbf" points="263.187,-5.5 263.187,-23.5 321.99,-23.5 321.99,-5.5 263.187,-5.5"/>
<text text-anchor="middle" x="292.588" y="-11.5" font-family="Helvetica,sans-Serif" font-size="10.00">stdexcept</text>
</g>
<!-- Node7&#45;&gt;Node8 -->
<g id="edge7" class="edge"><title>Node7&#45;&gt;Node8</title>
<path fill="none" stroke="midnightblue" d="M350.272,-65.4353C339.89,-56.4475 322.871,-41.7151 310.004,-30.5762"/>
<polygon fill="midnightblue" stroke="midnightblue" points="312.111,-27.7706 302.259,-23.8718 307.529,-33.063 312.111,-27.7706"/>
</g>
<!-- Node9 -->
<g id="node9" class="node"><title>Node9</title>
<polygon fill="white" stroke="#bfbfbf" points="340.202,-5.5 340.202,-23.5 378.975,-23.5 378.975,-5.5 340.202,-5.5"/>
<text text-anchor="middle" x="359.588" y="-11.5" font-family="Helvetica,sans-Serif" font-size="10.00">limits</text>
</g>
<!-- Node7&#45;&gt;Node9 -->
<g id="edge8" class="edge"><title>Node7&#45;&gt;Node9</title>
<path fill="none" stroke="midnightblue" d="M359.588,-65.4353C359.588,-57.3891 359.588,-44.7388 359.588,-34.1846"/>
<polygon fill="midnightblue" stroke="midnightblue" points="363.088,-33.8717 359.588,-23.8718 356.088,-33.8718 363.088,-33.8717"/>
</g>
<!-- Node10 -->
<g id="node10" class="node"><title>Node10</title>
<polygon fill="white" stroke="#bfbfbf" points="397.362,-5.5 397.362,-23.5 437.815,-23.5 437.815,-5.5 397.362,-5.5"/>
<text text-anchor="middle" x="417.588" y="-11.5" font-family="Helvetica,sans-Serif" font-size="10.00">string</text>
</g>
<!-- Node7&#45;&gt;Node10 -->
<g id="edge10" class="edge"><title>Node7&#45;&gt;Node10</title>
<path fill="none" stroke="midnightblue" d="M367.653,-65.4353C376.47,-56.6187 390.814,-42.2743 401.872,-31.2165"/>
<polygon fill="midnightblue" stroke="midnightblue" points="404.62,-33.4177 409.217,-23.8718 399.671,-28.468 404.62,-33.4177"/>
</g>
<!-- Node11 -->
<g id="node11" class="node"><title>Node11</title>
<polygon fill="white" stroke="#bfbfbf" points="456.185,-5.5 456.185,-23.5 514.992,-23.5 514.992,-5.5 456.185,-5.5"/>
<text text-anchor="middle" x="485.588" y="-11.5" font-family="Helvetica,sans-Serif" font-size="10.00">functional</text>
</g>
<!-- Node7&#45;&gt;Node11 -->
<g id="edge11" class="edge"><title>Node7&#45;&gt;Node11</title>
<path fill="none" stroke="midnightblue" d="M377.108,-65.4353C398.24,-55.7078 433.991,-39.2511 458.642,-27.9041"/>
<polygon fill="midnightblue" stroke="midnightblue" points="460.191,-31.044 467.811,-23.6831 457.264,-24.6853 460.191,-31.044"/>
</g>
<!-- Node13 -->
<g id="node13" class="node"><title>Node13</title>
<polygon fill="white" stroke="#bfbfbf" points="532.918,-5.5 532.918,-23.5 562.258,-23.5 562.258,-5.5 532.918,-5.5"/>
<text text-anchor="middle" x="547.588" y="-11.5" font-family="Helvetica,sans-Serif" font-size="10.00">set</text>
</g>
<!-- Node12&#45;&gt;Node13 -->
<g id="edge13" class="edge"><title>Node12&#45;&gt;Node13</title>
<path fill="none" stroke="midnightblue" d="M521.76,-65.4353C526.099,-57.0467 533.026,-43.6539 538.615,-32.8491"/>
<polygon fill="midnightblue" stroke="midnightblue" points="541.773,-34.3619 543.258,-23.8718 535.555,-31.1459 541.773,-34.3619"/>
</g>
</g>
</svg>
