<?xml version="1.0" encoding="UTF-8" standalone="no"?>
<!DOCTYPE svg PUBLIC "-//W3C//DTD SVG 1.1//EN"
 "http://www.w3.org/Graphics/SVG/1.1/DTD/svg11.dtd">
<!-- Generated by graphviz version 2.38.0 (20140413.2041)
 -->
<!-- Title: xmmHierarchicalHmm.hpp Pages: 1 -->
<svg width="935pt" height="497pt"
 viewBox="0.00 0.00 934.68 497.00" xmlns="http://www.w3.org/2000/svg" xmlns:xlink="http://www.w3.org/1999/xlink">
<g id="graph0" class="graph" transform="scale(1 1) rotate(0) translate(4 493)">
<title>xmmHierarchicalHmm.hpp</title>
<polygon fill="white" stroke="none" points="-4,4 -4,-493 930.681,-493 930.681,4 -4,4"/>
<!-- Node1 -->
<g id="node1" class="node"><title>Node1</title>
<polygon fill="#bfbfbf" stroke="black" points="471.438,-470.5 471.438,-488.5 605.235,-488.5 605.235,-470.5 471.438,-470.5"/>
<text text-anchor="middle" x="538.336" y="-476.5" font-family="Helvetica,sans-Serif" font-size="10.00">xmmHierarchicalHmm.hpp</text>
</g>
<!-- Node2 -->
<g id="node2" class="node"><title>Node2</title>
<g id="a_node2"><a xlink:href="xmm_model_8hpp.html" target="_top" xlink:title="../../core/model/xmmModel.hpp">
<polygon fill="white" stroke="black" points="299.699,-360.5 299.699,-378.5 452.974,-378.5 452.974,-360.5 299.699,-360.5"/>
<text text-anchor="middle" x="376.336" y="-366.5" font-family="Helvetica,sans-Serif" font-size="10.00">../../core/model/xmmModel.hpp</text>
</a>
</g>
</g>
<!-- Node1&#45;&gt;Node2 -->
<g id="edge1" class="edge"><title>Node1&#45;&gt;Node2</title>
<path fill="none" stroke="midnightblue" d="M526.16,-470.382C498.601,-452.009 431.19,-407.069 396.978,-384.261"/>
<polygon fill="midnightblue" stroke="midnightblue" points="398.916,-381.347 388.654,-378.712 395.033,-387.171 398.916,-381.347"/>
</g>
<!-- Node27 -->
<g id="node27" class="node"><title>Node27</title>
<g id="a_node27"><a xlink:href="xmm_gmm_8hpp.html" target="_top" xlink:title="../gmm/xmmGmm.hpp">
<polygon fill="white" stroke="black" points="480.888,-415.5 480.888,-433.5 595.785,-433.5 595.785,-415.5 480.888,-415.5"/>
<text text-anchor="middle" x="538.336" y="-421.5" font-family="Helvetica,sans-Serif" font-size="10.00">../gmm/xmmGmm.hpp</text>
</a>
</g>
</g>
<!-- Node1&#45;&gt;Node27 -->
<g id="edge36" class="edge"><title>Node1&#45;&gt;Node27</title>
<path fill="none" stroke="midnightblue" d="M538.336,-470.219C538.336,-463.177 538.336,-452.808 538.336,-443.828"/>
<polygon fill="midnightblue" stroke="midnightblue" points="541.837,-443.55 538.336,-433.55 534.837,-443.55 541.837,-443.55"/>
</g>
<!-- Node31 -->
<g id="node31" class="node"><title>Node31</title>
<g id="a_node31"><a xlink:href="xmm_hmm_single_class_8hpp.html" target="_top" xlink:title="xmmHmmSingleClass.hpp">
<polygon fill="white" stroke="black" points="613.433,-415.5 613.433,-433.5 747.24,-433.5 747.24,-415.5 613.433,-415.5"/>
<text text-anchor="middle" x="680.336" y="-421.5" font-family="Helvetica,sans-Serif" font-size="10.00">xmmHmmSingleClass.hpp</text>
</a>
</g>
</g>
<!-- Node1&#45;&gt;Node31 -->
<g id="edge47" class="edge"><title>Node1&#45;&gt;Node31</title>
<path fill="none" stroke="midnightblue" d="M559.903,-470.45C583.674,-461.578 622.12,-447.229 649.166,-437.134"/>
<polygon fill="midnightblue" stroke="midnightblue" points="650.422,-440.401 658.567,-433.625 647.974,-433.843 650.422,-440.401"/>
</g>
<!-- Node3 -->
<g id="node3" class="node"><title>Node3</title>
<g id="a_node3"><a xlink:href="xmm_model_configuration_8hpp.html" target="_top" xlink:title="xmmModelConfiguration.hpp">
<polygon fill="white" stroke="black" points="307.416,-305.5 307.416,-323.5 451.257,-323.5 451.257,-305.5 307.416,-305.5"/>
<text text-anchor="middle" x="379.336" y="-311.5" font-family="Helvetica,sans-Serif" font-size="10.00">xmmModelConfiguration.hpp</text>
</a>
</g>
</g>
<!-- Node2&#45;&gt;Node3 -->
<g id="edge2" class="edge"><title>Node2&#45;&gt;Node3</title>
<path fill="none" stroke="midnightblue" d="M376.805,-360.219C377.204,-353.177 377.791,-342.808 378.299,-333.828"/>
<polygon fill="midnightblue" stroke="midnightblue" points="381.81,-333.731 378.881,-323.55 374.821,-333.336 381.81,-333.731"/>
</g>
<!-- Node14 -->
<g id="node14" class="node"><title>Node14</title>
<g id="a_node14"><a xlink:href="xmm_model_single_class_8hpp.html" target="_top" xlink:title="xmmModelSingleClass.hpp">
<polygon fill="white" stroke="black" points="151.755,-305.5 151.755,-323.5 288.917,-323.5 288.917,-305.5 151.755,-305.5"/>
<text text-anchor="middle" x="220.336" y="-311.5" font-family="Helvetica,sans-Serif" font-size="10.00">xmmModelSingleClass.hpp</text>
</a>
</g>
</g>
<!-- Node2&#45;&gt;Node14 -->
<g id="edge14" class="edge"><title>Node2&#45;&gt;Node14</title>
<path fill="none" stroke="midnightblue" d="M352.643,-360.45C326.224,-351.475 283.302,-336.892 253.542,-326.781"/>
<polygon fill="midnightblue" stroke="midnightblue" points="254.591,-323.441 243.996,-323.538 252.339,-330.069 254.591,-323.441"/>
</g>
<!-- Node25 -->
<g id="node25" class="node"><title>Node25</title>
<g id="a_node25"><a xlink:href="xmm_model_results_8hpp.html" target="_top" xlink:title="xmmModelResults.hpp">
<polygon fill="white" stroke="black" points="620.484,-305.5 620.484,-323.5 738.188,-323.5 738.188,-305.5 620.484,-305.5"/>
<text text-anchor="middle" x="679.336" y="-311.5" font-family="Helvetica,sans-Serif" font-size="10.00">xmmModelResults.hpp</text>
</a>
</g>
</g>
<!-- Node2&#45;&gt;Node25 -->
<g id="edge34" class="edge"><title>Node2&#45;&gt;Node25</title>
<path fill="none" stroke="midnightblue" d="M422.356,-360.45C476.236,-351.026 565.455,-335.42 623.313,-325.299"/>
<polygon fill="midnightblue" stroke="midnightblue" points="624.134,-328.709 633.382,-323.538 622.928,-321.814 624.134,-328.709"/>
</g>
<!-- Node26 -->
<g id="node26" class="node"><title>Node26</title>
<polygon fill="white" stroke="#bfbfbf" points="89.1592,-305.5 89.1592,-323.5 133.514,-323.5 133.514,-305.5 89.1592,-305.5"/>
<text text-anchor="middle" x="111.336" y="-311.5" font-family="Helvetica,sans-Serif" font-size="10.00">thread</text>
</g>
<!-- Node2&#45;&gt;Node26 -->
<g id="edge35" class="edge"><title>Node2&#45;&gt;Node26</title>
<path fill="none" stroke="midnightblue" d="M328.149,-360.493C282.807,-352.699 212.826,-340.005 143.42,-324.107"/>
<polygon fill="midnightblue" stroke="midnightblue" points="144.165,-320.686 133.633,-321.842 142.587,-327.506 144.165,-320.686"/>
</g>
<!-- Node4 -->
<g id="node4" class="node"><title>Node4</title>
<g id="a_node4"><a xlink:href="xmm_model_parameters_8hpp.html" target="_top" xlink:title="xmmModelParameters.hpp">
<polygon fill="white" stroke="black" points="497.314,-245.5 497.314,-263.5 633.358,-263.5 633.358,-245.5 497.314,-245.5"/>
<text text-anchor="middle" x="565.336" y="-251.5" font-family="Helvetica,sans-Serif" font-size="10.00">xmmModelParameters.hpp</text>
</a>
</g>
</g>
<!-- Node3&#45;&gt;Node4 -->
<g id="edge3" class="edge"><title>Node3&#45;&gt;Node4</title>
<path fill="none" stroke="midnightblue" d="M405.199,-305.435C437.59,-295.335 493.246,-277.98 529.667,-266.623"/>
<polygon fill="midnightblue" stroke="midnightblue" points="530.89,-269.908 539.394,-263.589 528.806,-263.225 530.89,-269.908"/>
</g>
<!-- Node5 -->
<g id="node5" class="node"><title>Node5</title>
<g id="a_node5"><a xlink:href="xmm_json_8hpp.html" target="_top" xlink:title="../common/xmmJson.hpp">
<polygon fill="white" stroke="black" points="660.484,-65.5 660.484,-83.5 788.188,-83.5 788.188,-65.5 660.484,-65.5"/>
<text text-anchor="middle" x="724.336" y="-71.5" font-family="Helvetica,sans-Serif" font-size="10.00">../common/xmmJson.hpp</text>
</a>
</g>
</g>
<!-- Node4&#45;&gt;Node5 -->
<g id="edge4" class="edge"><title>Node4&#45;&gt;Node5</title>
<path fill="none" stroke="midnightblue" d="M572.581,-245.389C597.103,-217.937 677.279,-128.181 710.117,-91.4188"/>
<polygon fill="midnightblue" stroke="midnightblue" points="712.997,-93.448 717.049,-83.6585 707.777,-88.7847 712.997,-93.448"/>
</g>
<!-- Node9 -->
<g id="node9" class="node"><title>Node9</title>
<g id="a_node9"><a xlink:href="xmm_attribute_8hpp.html" target="_top" xlink:title="../common/xmmAttribute.hpp">
<polygon fill="white" stroke="black" points="497.425,-65.5 497.425,-83.5 641.248,-83.5 641.248,-65.5 497.425,-65.5"/>
<text text-anchor="middle" x="569.336" y="-71.5" font-family="Helvetica,sans-Serif" font-size="10.00">../common/xmmAttribute.hpp</text>
</a>
</g>
</g>
<!-- Node4&#45;&gt;Node9 -->
<g id="edge8" class="edge"><title>Node4&#45;&gt;Node9</title>
<path fill="none" stroke="midnightblue" d="M565.519,-245.389C566.123,-218.516 568.068,-131.94 568.925,-93.8152"/>
<polygon fill="midnightblue" stroke="midnightblue" points="572.427,-93.7346 569.153,-83.6585 565.429,-93.5773 572.427,-93.7346"/>
</g>
<!-- Node6 -->
<g id="node6" class="node"><title>Node6</title>
<polygon fill="white" stroke="#bfbfbf" points="697.748,-0.5 697.748,-28.5 814.925,-28.5 814.925,-0.5 697.748,-0.5"/>
<text text-anchor="start" x="705.748" y="-16.5" font-family="Helvetica,sans-Serif" font-size="10.00">../../../dependencies</text>
<text text-anchor="middle" x="756.336" y="-6.5" font-family="Helvetica,sans-Serif" font-size="10.00">/jsoncpp/include/json.h</text>
</g>
<!-- Node5&#45;&gt;Node6 -->
<g id="edge5" class="edge"><title>Node5&#45;&gt;Node6</title>
<path fill="none" stroke="midnightblue" d="M728.786,-65.4353C732.742,-58.2646 738.716,-47.4371 744.091,-37.6953"/>
<polygon fill="midnightblue" stroke="midnightblue" points="747.209,-39.2893 748.975,-28.8428 741.08,-35.9078 747.209,-39.2893"/>
</g>
<!-- Node7 -->
<g id="node7" class="node"><title>Node7</title>
<polygon fill="white" stroke="#bfbfbf" points="832.667,-5.5 832.667,-23.5 882.006,-23.5 882.006,-5.5 832.667,-5.5"/>
<text text-anchor="middle" x="857.336" y="-11.5" font-family="Helvetica,sans-Serif" font-size="10.00">fstream</text>
</g>
<!-- Node5&#45;&gt;Node7 -->
<g id="edge6" class="edge"><title>Node5&#45;&gt;Node7</title>
<path fill="none" stroke="midnightblue" d="M742.83,-65.4353C765.234,-55.6648 803.207,-39.1053 829.237,-27.7537"/>
<polygon fill="midnightblue" stroke="midnightblue" points="830.804,-30.8887 838.572,-23.6831 828.006,-24.4723 830.804,-30.8887"/>
</g>
<!-- Node8 -->
<g id="node8" class="node"><title>Node8</title>
<polygon fill="white" stroke="#bfbfbf" points="502.721,-5.5 502.721,-23.5 545.952,-23.5 545.952,-5.5 502.721,-5.5"/>
<text text-anchor="middle" x="524.336" y="-11.5" font-family="Helvetica,sans-Serif" font-size="10.00">vector</text>
</g>
<!-- Node5&#45;&gt;Node8 -->
<g id="edge7" class="edge"><title>Node5&#45;&gt;Node8</title>
<path fill="none" stroke="midnightblue" d="M687.256,-65.463C652.686,-57.5657 599.907,-44.4707 555.336,-29 553.915,-28.5067 552.468,-27.977 551.014,-27.4229"/>
<polygon fill="midnightblue" stroke="midnightblue" points="552.111,-24.09 541.53,-23.5445 549.461,-30.5692 552.111,-24.09"/>
</g>
<!-- Node9&#45;&gt;Node8 -->
<g id="edge11" class="edge"><title>Node9&#45;&gt;Node8</title>
<path fill="none" stroke="midnightblue" d="M563.079,-65.4353C556.372,-56.7899 545.54,-42.8292 537.033,-31.8643"/>
<polygon fill="midnightblue" stroke="midnightblue" points="539.727,-29.6271 530.832,-23.8718 534.196,-33.9181 539.727,-29.6271"/>
</g>
<!-- Node10 -->
<g id="node10" class="node"><title>Node10</title>
<polygon fill="white" stroke="#bfbfbf" points="366.935,-5.5 366.935,-23.5 425.738,-23.5 425.738,-5.5 366.935,-5.5"/>
<text text-anchor="middle" x="396.336" y="-11.5" font-family="Helvetica,sans-Serif" font-size="10.00">stdexcept</text>
</g>
<!-- Node9&#45;&gt;Node10 -->
<g id="edge9" class="edge"><title>Node9&#45;&gt;Node10</title>
<path fill="none" stroke="midnightblue" d="M544.608,-65.3914C517.694,-56.5422 473.409,-41.9105 435.336,-29 433.241,-28.2896 431.084,-27.5541 428.911,-26.8101"/>
<polygon fill="midnightblue" stroke="midnightblue" points="430.012,-23.4874 419.417,-23.5433 427.734,-30.1066 430.012,-23.4874"/>
</g>
<!-- Node11 -->
<g id="node11" class="node"><title>Node11</title>
<polygon fill="white" stroke="#bfbfbf" points="640.95,-5.5 640.95,-23.5 679.723,-23.5 679.723,-5.5 640.95,-5.5"/>
<text text-anchor="middle" x="660.336" y="-11.5" font-family="Helvetica,sans-Serif" font-size="10.00">limits</text>
</g>
<!-- Node9&#45;&gt;Node11 -->
<g id="edge10" class="edge"><title>Node9&#45;&gt;Node11</title>
<path fill="none" stroke="midnightblue" d="M581.99,-65.4353C596.712,-56.0521 621.257,-40.4077 638.955,-29.1277"/>
<polygon fill="midnightblue" stroke="midnightblue" points="640.946,-32.0094 647.497,-23.6831 637.183,-26.1064 640.946,-32.0094"/>
</g>
<!-- Node12 -->
<g id="node12" class="node"><title>Node12</title>
<polygon fill="white" stroke="#bfbfbf" points="444.11,-5.5 444.11,-23.5 484.563,-23.5 484.563,-5.5 444.11,-5.5"/>
<text text-anchor="middle" x="464.336" y="-11.5" font-family="Helvetica,sans-Serif" font-size="10.00">string</text>
</g>
<!-- Node9&#45;&gt;Node12 -->
<g id="edge12" class="edge"><title>Node9&#45;&gt;Node12</title>
<path fill="none" stroke="midnightblue" d="M554.737,-65.4353C537.516,-55.923 508.646,-39.9759 488.169,-28.6645"/>
<polygon fill="midnightblue" stroke="midnightblue" points="489.596,-25.4547 479.151,-23.6831 486.212,-31.582 489.596,-25.4547"/>
</g>
<!-- Node13 -->
<g id="node13" class="node"><title>Node13</title>
<polygon fill="white" stroke="#bfbfbf" points="563.933,-5.5 563.933,-23.5 622.74,-23.5 622.74,-5.5 563.933,-5.5"/>
<text text-anchor="middle" x="593.336" y="-11.5" font-family="Helvetica,sans-Serif" font-size="10.00">functional</text>
</g>
<!-- Node9&#45;&gt;Node13 -->
<g id="edge13" class="edge"><title>Node9&#45;&gt;Node13</title>
<path fill="none" stroke="midnightblue" d="M572.674,-65.4353C576.109,-57.1323 581.574,-43.9267 586.02,-33.1807"/>
<polygon fill="midnightblue" stroke="midnightblue" points="589.283,-34.4502 589.872,-23.8718 582.815,-31.7737 589.283,-34.4502"/>
</g>
<!-- Node15 -->
<g id="node15" class="node"><title>Node15</title>
<g id="a_node15"><a xlink:href="xmm_circularbuffer_8hpp.html" target="_top" xlink:title="../common/xmmCircularbuffer.hpp">
<polygon fill="white" stroke="black" points="313.397,-65.5 313.397,-83.5 479.275,-83.5 479.275,-65.5 313.397,-65.5"/>
<text text-anchor="middle" x="396.336" y="-71.5" font-family="Helvetica,sans-Serif" font-size="10.00">../common/xmmCircularbuffer.hpp</text>
</a>
</g>
</g>
<!-- Node14&#45;&gt;Node15 -->
<g id="edge15" class="edge"><title>Node14&#45;&gt;Node15</title>
<path fill="none" stroke="midnightblue" d="M230.95,-305.381C259.96,-282.587 341.094,-214.706 381.336,-139 388.821,-124.92 392.61,-107.125 394.504,-93.9574"/>
<polygon fill="midnightblue" stroke="midnightblue" points="398.008,-94.1331 395.727,-83.7869 391.058,-93.2977 398.008,-94.1331"/>
</g>
<!-- Node17 -->
<g id="node17" class="node"><title>Node17</title>
<g id="a_node17"><a xlink:href="xmm_training_set_8hpp.html" target="_top" xlink:title="../trainingset/xmmTraining\lSet.hpp">
<polygon fill="white" stroke="black" points="0,-175.5 0,-203.5 130.673,-203.5 130.673,-175.5 0,-175.5"/>
<text text-anchor="start" x="8" y="-191.5" font-family="Helvetica,sans-Serif" font-size="10.00">../trainingset/xmmTraining</text>
<text text-anchor="middle" x="65.3364" y="-181.5" font-family="Helvetica,sans-Serif" font-size="10.00">Set.hpp</text>
</a>
</g>
</g>
<!-- Node14&#45;&gt;Node17 -->
<g id="edge19" class="edge"><title>Node14&#45;&gt;Node17</title>
<path fill="none" stroke="midnightblue" d="M167.208,-305.479C109.716,-296.259 24.9083,-280.873 15.3364,-269 0.16213,-250.178 19.8062,-226.542 38.7515,-210.149"/>
<polygon fill="midnightblue" stroke="midnightblue" points="41.2174,-212.653 46.7246,-203.601 36.7751,-207.243 41.2174,-212.653"/>
</g>
<!-- Node19 -->
<g id="node19" class="node"><title>Node19</title>
<g id="a_node19"><a xlink:href="xmm_events_8hpp.html" target="_top" xlink:title="../common/xmmEvents.hpp">
<polygon fill="white" stroke="black" points="95.7603,-65.5 95.7603,-83.5 232.913,-83.5 232.913,-65.5 95.7603,-65.5"/>
<text text-anchor="middle" x="164.336" y="-71.5" font-family="Helvetica,sans-Serif" font-size="10.00">../common/xmmEvents.hpp</text>
</a>
</g>
</g>
<!-- Node14&#45;&gt;Node19 -->
<g id="edge28" class="edge"><title>Node14&#45;&gt;Node19</title>
<path fill="none" stroke="midnightblue" d="M223.911,-305.456C233.018,-283.793 255.281,-222.642 239.336,-175 227.906,-140.845 199.618,-109.029 181.236,-90.957"/>
<polygon fill="midnightblue" stroke="midnightblue" points="183.237,-88.0286 173.584,-83.662 178.407,-93.0953 183.237,-88.0286"/>
</g>
<!-- Node23 -->
<g id="node23" class="node"><title>Node23</title>
<g id="a_node23"><a xlink:href="xmm_model_shared_parameters_8hpp.html" target="_top" xlink:title="xmmModelSharedParameters.hpp">
<polygon fill="white" stroke="black" points="24.1914,-245.5 24.1914,-263.5 192.481,-263.5 192.481,-245.5 24.1914,-245.5"/>
<text text-anchor="middle" x="108.336" y="-251.5" font-family="Helvetica,sans-Serif" font-size="10.00">xmmModelSharedParameters.hpp</text>
</a>
</g>
</g>
<!-- Node14&#45;&gt;Node23 -->
<g id="edge29" class="edge"><title>Node14&#45;&gt;Node23</title>
<path fill="none" stroke="midnightblue" d="M204.763,-305.435C186.228,-295.837 155.042,-279.687 133.167,-268.359"/>
<polygon fill="midnightblue" stroke="midnightblue" points="134.628,-265.174 124.138,-263.683 131.409,-271.39 134.628,-265.174"/>
</g>
<!-- Node24 -->
<g id="node24" class="node"><title>Node24</title>
<polygon fill="white" stroke="#bfbfbf" points="186.721,-180.5 186.721,-198.5 229.952,-198.5 229.952,-180.5 186.721,-180.5"/>
<text text-anchor="middle" x="208.336" y="-186.5" font-family="Helvetica,sans-Serif" font-size="10.00">mutex</text>
</g>
<!-- Node14&#45;&gt;Node24 -->
<g id="edge33" class="edge"><title>Node14&#45;&gt;Node24</title>
<path fill="none" stroke="midnightblue" d="M219.549,-305.43C217.651,-285.975 212.785,-236.094 210.13,-208.881"/>
<polygon fill="midnightblue" stroke="midnightblue" points="213.597,-208.374 209.142,-198.761 206.63,-209.054 213.597,-208.374"/>
</g>
<!-- Node15&#45;&gt;Node8 -->
<g id="edge16" class="edge"><title>Node15&#45;&gt;Node8</title>
<path fill="none" stroke="midnightblue" d="M414.134,-65.4353C435.602,-55.7078 471.92,-39.2511 496.962,-27.9041"/>
<polygon fill="midnightblue" stroke="midnightblue" points="498.613,-30.9985 506.277,-23.6831 495.724,-24.6225 498.613,-30.9985"/>
</g>
<!-- Node15&#45;&gt;Node10 -->
<g id="edge18" class="edge"><title>Node15&#45;&gt;Node10</title>
<path fill="none" stroke="midnightblue" d="M396.336,-65.4353C396.336,-57.3891 396.336,-44.7388 396.336,-34.1846"/>
<polygon fill="midnightblue" stroke="midnightblue" points="399.837,-33.8717 396.336,-23.8718 392.837,-33.8718 399.837,-33.8717"/>
</g>
<!-- Node16 -->
<g id="node16" class="node"><title>Node16</title>
<polygon fill="white" stroke="#bfbfbf" points="289.933,-5.5 289.933,-23.5 348.74,-23.5 348.74,-5.5 289.933,-5.5"/>
<text text-anchor="middle" x="319.336" y="-11.5" font-family="Helvetica,sans-Serif" font-size="10.00">exception</text>
</g>
<!-- Node15&#45;&gt;Node16 -->
<g id="edge17" class="edge"><title>Node15&#45;&gt;Node16</title>
<path fill="none" stroke="midnightblue" d="M385.63,-65.4353C373.471,-56.2763 353.391,-41.1518 338.512,-29.9437"/>
<polygon fill="midnightblue" stroke="midnightblue" points="340.544,-27.0927 330.451,-23.8718 336.332,-32.684 340.544,-27.0927"/>
</g>
<!-- Node18 -->
<g id="node18" class="node"><title>Node18</title>
<g id="a_node18"><a xlink:href="xmm_phrase_8hpp.html" target="_top" xlink:title="xmmPhrase.hpp">
<polygon fill="white" stroke="black" points="283.933,-120.5 283.933,-138.5 372.74,-138.5 372.74,-120.5 283.933,-120.5"/>
<text text-anchor="middle" x="328.336" y="-126.5" font-family="Helvetica,sans-Serif" font-size="10.00">xmmPhrase.hpp</text>
</a>
</g>
</g>
<!-- Node17&#45;&gt;Node18 -->
<g id="edge20" class="edge"><title>Node17&#45;&gt;Node18</title>
<path fill="none" stroke="midnightblue" d="M124.359,-175.484C171.989,-164.98 238.069,-150.407 281.961,-140.727"/>
<polygon fill="midnightblue" stroke="midnightblue" points="282.783,-144.13 291.794,-138.559 281.275,-137.294 282.783,-144.13"/>
</g>
<!-- Node20 -->
<g id="node20" class="node"><title>Node20</title>
<polygon fill="white" stroke="#bfbfbf" points="100.667,-5.5 100.667,-23.5 130.006,-23.5 130.006,-5.5 100.667,-5.5"/>
<text text-anchor="middle" x="115.336" y="-11.5" font-family="Helvetica,sans-Serif" font-size="10.00">set</text>
</g>
<!-- Node17&#45;&gt;Node20 -->
<g id="edge27" class="edge"><title>Node17&#45;&gt;Node20</title>
<path fill="none" stroke="midnightblue" d="M66.0088,-175.487C67.5287,-152.532 72.2727,-103.624 86.3364,-65 90.5348,-53.4696 97.4089,-41.5726 103.411,-32.3325"/>
<polygon fill="midnightblue" stroke="midnightblue" points="106.487,-34.033 109.201,-23.7918 100.693,-30.1049 106.487,-34.033"/>
</g>
<!-- Node22 -->
<g id="node22" class="node"><title>Node22</title>
<polygon fill="white" stroke="#bfbfbf" points="93.6099,-120.5 93.6099,-138.5 129.063,-138.5 129.063,-120.5 93.6099,-120.5"/>
<text text-anchor="middle" x="111.336" y="-126.5" font-family="Helvetica,sans-Serif" font-size="10.00">map</text>
</g>
<!-- Node17&#45;&gt;Node22 -->
<g id="edge26" class="edge"><title>Node17&#45;&gt;Node22</title>
<path fill="none" stroke="midnightblue" d="M75.7745,-175.339C82.5241,-166.829 91.3555,-155.693 98.5289,-146.649"/>
<polygon fill="midnightblue" stroke="midnightblue" points="101.305,-148.781 104.776,-138.771 95.8201,-144.432 101.305,-148.781"/>
</g>
<!-- Node18&#45;&gt;Node5 -->
<g id="edge21" class="edge"><title>Node18&#45;&gt;Node5</title>
<path fill="none" stroke="midnightblue" d="M372.993,-122.523C441.467,-113.359 572.985,-95.7567 654.247,-84.8806"/>
<polygon fill="midnightblue" stroke="midnightblue" points="654.942,-88.319 664.389,-83.5232 654.013,-81.3808 654.942,-88.319"/>
</g>
<!-- Node18&#45;&gt;Node9 -->
<g id="edge22" class="edge"><title>Node18&#45;&gt;Node9</title>
<path fill="none" stroke="midnightblue" d="M364.939,-120.45C407.174,-111.162 476.706,-95.871 522.76,-85.7429"/>
<polygon fill="midnightblue" stroke="midnightblue" points="523.77,-89.1045 532.785,-83.5383 522.266,-82.2679 523.77,-89.1045"/>
</g>
<!-- Node18&#45;&gt;Node19 -->
<g id="edge23" class="edge"><title>Node18&#45;&gt;Node19</title>
<path fill="none" stroke="midnightblue" d="M303.428,-120.45C275.533,-111.436 230.138,-96.7653 198.837,-86.6496"/>
<polygon fill="midnightblue" stroke="midnightblue" points="199.801,-83.2831 189.21,-83.5383 197.649,-89.9439 199.801,-83.2831"/>
</g>
<!-- Node21 -->
<g id="node21" class="node"><title>Node21</title>
<polygon fill="white" stroke="#bfbfbf" points="251.721,-65.5 251.721,-83.5 294.952,-83.5 294.952,-65.5 251.721,-65.5"/>
<text text-anchor="middle" x="273.336" y="-71.5" font-family="Helvetica,sans-Serif" font-size="10.00">cmath</text>
</g>
<!-- Node18&#45;&gt;Node21 -->
<g id="edge25" class="edge"><title>Node18&#45;&gt;Node21</title>
<path fill="none" stroke="midnightblue" d="M319.743,-120.219C311.542,-112.316 298.993,-100.224 289.012,-90.6057"/>
<polygon fill="midnightblue" stroke="midnightblue" points="291.319,-87.9682 281.69,-83.5496 286.462,-93.0088 291.319,-87.9682"/>
</g>
<!-- Node19&#45;&gt;Node20 -->
<g id="edge24" class="edge"><title>Node19&#45;&gt;Node20</title>
<path fill="none" stroke="midnightblue" d="M157.523,-65.4353C150.147,-56.7043 138.191,-42.5523 128.887,-31.5395"/>
<polygon fill="midnightblue" stroke="midnightblue" points="131.536,-29.2519 122.409,-23.8718 126.189,-33.7694 131.536,-29.2519"/>
</g>
<!-- Node23&#45;&gt;Node17 -->
<g id="edge30" class="edge"><title>Node23&#45;&gt;Node17</title>
<path fill="none" stroke="midnightblue" d="M102.715,-245.264C97.0386,-236.947 88.026,-223.743 80.2729,-212.384"/>
<polygon fill="midnightblue" stroke="midnightblue" points="82.9412,-210.085 74.4129,-203.798 77.1596,-214.031 82.9412,-210.085"/>
</g>
<!-- Node23&#45;&gt;Node19 -->
<g id="edge31" class="edge"><title>Node23&#45;&gt;Node19</title>
<path fill="none" stroke="midnightblue" d="M114.846,-245.253C121.958,-235.822 133.158,-219.657 139.336,-204 154.166,-166.417 160.455,-119.065 162.914,-93.6351"/>
<polygon fill="midnightblue" stroke="midnightblue" points="166.406,-93.8746 163.791,-83.6076 159.433,-93.2646 166.406,-93.8746"/>
</g>
<!-- Node23&#45;&gt;Node24 -->
<g id="edge32" class="edge"><title>Node23&#45;&gt;Node24</title>
<path fill="none" stroke="midnightblue" d="M121.41,-245.264C138.046,-234.783 167.005,-216.539 186.894,-204.009"/>
<polygon fill="midnightblue" stroke="midnightblue" points="188.981,-206.831 195.576,-198.539 185.25,-200.908 188.981,-206.831"/>
</g>
<!-- Node27&#45;&gt;Node2 -->
<g id="edge37" class="edge"><title>Node27&#45;&gt;Node2</title>
<path fill="none" stroke="midnightblue" d="M513.732,-415.45C486.177,-406.436 441.336,-391.765 410.416,-381.65"/>
<polygon fill="midnightblue" stroke="midnightblue" points="411.499,-378.321 400.906,-378.538 409.322,-384.974 411.499,-378.321"/>
</g>
<!-- Node28 -->
<g id="node28" class="node"><title>Node28</title>
<g id="a_node28"><a xlink:href="xmm_gaussian_distribution_8hpp.html" target="_top" xlink:title="../../core/distributions\l/xmmGaussianDistribution.hpp">
<polygon fill="white" stroke="black" points="651.253,-240.5 651.253,-268.5 803.42,-268.5 803.42,-240.5 651.253,-240.5"/>
<text text-anchor="start" x="659.253" y="-256.5" font-family="Helvetica,sans-Serif" font-size="10.00">../../core/distributions</text>
<text text-anchor="middle" x="727.336" y="-246.5" font-family="Helvetica,sans-Serif" font-size="10.00">/xmmGaussianDistribution.hpp</text>
</a>
</g>
</g>
<!-- Node27&#45;&gt;Node28 -->
<g id="edge38" class="edge"><title>Node27&#45;&gt;Node28</title>
<path fill="none" stroke="midnightblue" d="M592.46,-415.46C650.749,-406.257 736.519,-390.917 746.336,-379 769.923,-350.369 753.522,-304.884 740.03,-277.835"/>
<polygon fill="midnightblue" stroke="midnightblue" points="743.018,-275.996 735.271,-268.769 736.82,-279.25 743.018,-275.996"/>
</g>
<!-- Node29 -->
<g id="node29" class="node"><title>Node29</title>
<g id="a_node29"><a xlink:href="xmm_gmm_single_class_8hpp.html" target="_top" xlink:title="xmmGmmSingleClass.hpp">
<polygon fill="white" stroke="black" points="471.154,-360.5 471.154,-378.5 605.519,-378.5 605.519,-360.5 471.154,-360.5"/>
<text text-anchor="middle" x="538.336" y="-366.5" font-family="Helvetica,sans-Serif" font-size="10.00">xmmGmmSingleClass.hpp</text>
</a>
</g>
</g>
<!-- Node27&#45;&gt;Node29 -->
<g id="edge41" class="edge"><title>Node27&#45;&gt;Node29</title>
<path fill="none" stroke="midnightblue" d="M538.336,-415.219C538.336,-408.177 538.336,-397.808 538.336,-388.828"/>
<polygon fill="midnightblue" stroke="midnightblue" points="541.837,-388.55 538.336,-378.55 534.837,-388.55 541.837,-388.55"/>
</g>
<!-- Node28&#45;&gt;Node5 -->
<g id="edge39" class="edge"><title>Node28&#45;&gt;Node5</title>
<path fill="none" stroke="midnightblue" d="M727.116,-240.411C726.588,-209.114 725.253,-129.881 724.646,-93.8463"/>
<polygon fill="midnightblue" stroke="midnightblue" points="728.144,-93.7195 724.476,-83.78 721.145,-93.8376 728.144,-93.7195"/>
</g>
<!-- Node28&#45;&gt;Node9 -->
<g id="edge40" class="edge"><title>Node28&#45;&gt;Node9</title>
<path fill="none" stroke="midnightblue" d="M715.718,-240.411C687.337,-208.437 614.543,-126.429 583.599,-91.5679"/>
<polygon fill="midnightblue" stroke="midnightblue" points="585.942,-88.9353 576.686,-83.78 580.707,-93.5822 585.942,-88.9353"/>
</g>
<!-- Node29&#45;&gt;Node14 -->
<g id="edge42" class="edge"><title>Node29&#45;&gt;Node14</title>
<path fill="none" stroke="midnightblue" d="M490.039,-360.45C433.374,-351.006 339.468,-335.355 278.756,-325.237"/>
<polygon fill="midnightblue" stroke="midnightblue" points="279.006,-321.73 268.566,-323.538 277.855,-328.635 279.006,-321.73"/>
</g>
<!-- Node29&#45;&gt;Node25 -->
<g id="edge43" class="edge"><title>Node29&#45;&gt;Node25</title>
<path fill="none" stroke="midnightblue" d="M559.751,-360.45C583.251,-351.617 621.195,-337.355 648.032,-327.267"/>
<polygon fill="midnightblue" stroke="midnightblue" points="649.591,-330.42 657.72,-323.625 647.128,-323.868 649.591,-330.42"/>
</g>
<!-- Node30 -->
<g id="node30" class="node"><title>Node30</title>
<g id="a_node30"><a xlink:href="xmm_gmm_parameters_8hpp.html" target="_top" xlink:title="xmmGmmParameters.hpp">
<polygon fill="white" stroke="black" points="469.713,-305.5 469.713,-323.5 602.959,-323.5 602.959,-305.5 469.713,-305.5"/>
<text text-anchor="middle" x="536.336" y="-311.5" font-family="Helvetica,sans-Serif" font-size="10.00">xmmGmmParameters.hpp</text>
</a>
</g>
</g>
<!-- Node29&#45;&gt;Node30 -->
<g id="edge44" class="edge"><title>Node29&#45;&gt;Node30</title>
<path fill="none" stroke="midnightblue" d="M538.024,-360.219C537.758,-353.177 537.367,-342.808 537.028,-333.828"/>
<polygon fill="midnightblue" stroke="midnightblue" points="540.515,-333.41 536.64,-323.55 533.52,-333.674 540.515,-333.41"/>
</g>
<!-- Node30&#45;&gt;Node4 -->
<g id="edge45" class="edge"><title>Node30&#45;&gt;Node4</title>
<path fill="none" stroke="midnightblue" d="M540.369,-305.435C544.563,-297.047 551.259,-283.654 556.662,-272.849"/>
<polygon fill="midnightblue" stroke="midnightblue" points="559.809,-274.381 561.151,-263.872 553.548,-271.251 559.809,-274.381"/>
</g>
<!-- Node30&#45;&gt;Node28 -->
<g id="edge46" class="edge"><title>Node30&#45;&gt;Node28</title>
<path fill="none" stroke="midnightblue" d="M562.894,-305.435C591.658,-296.701 638.289,-282.54 674.562,-271.526"/>
<polygon fill="midnightblue" stroke="midnightblue" points="675.943,-274.764 684.495,-268.51 673.909,-268.066 675.943,-274.764"/>
</g>
<!-- Node31&#45;&gt;Node29 -->
<g id="edge48" class="edge"><title>Node31&#45;&gt;Node29</title>
<path fill="none" stroke="midnightblue" d="M658.77,-415.45C634.999,-406.578 596.553,-392.229 569.507,-382.134"/>
<polygon fill="midnightblue" stroke="midnightblue" points="570.699,-378.843 560.106,-378.625 568.251,-385.401 570.699,-378.843"/>
</g>
<!-- Node32 -->
<g id="node32" class="node"><title>Node32</title>
<g id="a_node32"><a xlink:href="xmm_hmm_parameters_8hpp.html" target="_top" xlink:title="xmmHmmParameters.hpp">
<polygon fill="white" stroke="black" points="793.992,-305.5 793.992,-323.5 926.681,-323.5 926.681,-305.5 793.992,-305.5"/>
<text text-anchor="middle" x="860.336" y="-311.5" font-family="Helvetica,sans-Serif" font-size="10.00">xmmHmmParameters.hpp</text>
</a>
</g>
</g>
<!-- Node31&#45;&gt;Node32 -->
<g id="edge49" class="edge"><title>Node31&#45;&gt;Node32</title>
<path fill="none" stroke="midnightblue" d="M702.586,-415.467C723.396,-407.527 754.984,-394.363 780.336,-379 803.88,-364.733 828.29,-344.416 843.857,-330.635"/>
<polygon fill="midnightblue" stroke="midnightblue" points="846.439,-333.02 851.533,-323.731 841.758,-327.816 846.439,-333.02"/>
</g>
<!-- Node33 -->
<g id="node33" class="node"><title>Node33</title>
<g id="a_node33"><a xlink:href="xmm_hmm_results_8hpp.html" target="_top" xlink:title="xmmHmmResults.hpp">
<polygon fill="white" stroke="black" points="623.162,-360.5 623.162,-378.5 737.511,-378.5 737.511,-360.5 623.162,-360.5"/>
<text text-anchor="middle" x="680.336" y="-366.5" font-family="Helvetica,sans-Serif" font-size="10.00">xmmHmmResults.hpp</text>
</a>
</g>
</g>
<!-- Node31&#45;&gt;Node33 -->
<g id="edge52" class="edge"><title>Node31&#45;&gt;Node33</title>
<path fill="none" stroke="midnightblue" d="M680.336,-415.219C680.336,-408.177 680.336,-397.808 680.336,-388.828"/>
<polygon fill="midnightblue" stroke="midnightblue" points="683.837,-388.55 680.336,-378.55 676.837,-388.55 683.837,-388.55"/>
</g>
<!-- Node32&#45;&gt;Node4 -->
<g id="edge50" class="edge"><title>Node32&#45;&gt;Node4</title>
<path fill="none" stroke="midnightblue" d="M819.628,-305.496C766.546,-295.06 673.693,-276.804 616.081,-265.477"/>
<polygon fill="midnightblue" stroke="midnightblue" points="616.588,-262.01 606.101,-263.515 615.238,-268.878 616.588,-262.01"/>
</g>
<!-- Node32&#45;&gt;Node28 -->
<g id="edge51" class="edge"><title>Node32&#45;&gt;Node28</title>
<path fill="none" stroke="midnightblue" d="M841.843,-305.435C822.413,-296.962 791.275,-283.383 766.371,-272.522"/>
<polygon fill="midnightblue" stroke="midnightblue" points="767.734,-269.299 757.169,-268.51 764.936,-275.715 767.734,-269.299"/>
</g>
<!-- Node33&#45;&gt;Node25 -->
<g id="edge53" class="edge"><title>Node33&#45;&gt;Node25</title>
<path fill="none" stroke="midnightblue" d="M680.18,-360.219C680.047,-353.177 679.852,-342.808 679.682,-333.828"/>
<polygon fill="midnightblue" stroke="midnightblue" points="683.176,-333.482 679.488,-323.55 676.178,-333.614 683.176,-333.482"/>
</g>
</g>
</svg>
