<?xml version="1.0" encoding="UTF-8" standalone="no"?>
<!DOCTYPE svg PUBLIC "-//W3C//DTD SVG 1.1//EN"
 "http://www.w3.org/Graphics/SVG/1.1/DTD/svg11.dtd">
<!-- Generated by graphviz version 2.38.0 (20140413.2041)
 -->
<!-- Title: xmmAttribute.hpp Pages: 1 -->
<svg width="321pt" height="82pt"
 viewBox="0.00 0.00 320.81 82.00" xmlns="http://www.w3.org/2000/svg" xmlns:xlink="http://www.w3.org/1999/xlink">
<g id="graph0" class="graph" transform="scale(1 1) rotate(0) translate(4 78)">
<title>xmmAttribute.hpp</title>
<polygon fill="white" stroke="none" points="-4,4 -4,-78 316.805,-78 316.805,4 -4,4"/>
<!-- Node1 -->
<g id="node1" class="node"><title>Node1</title>
<polygon fill="#bfbfbf" stroke="black" points="108.219,-55.5 108.219,-73.5 202.583,-73.5 202.583,-55.5 108.219,-55.5"/>
<text text-anchor="middle" x="155.401" y="-61.5" font-family="Helvetica,sans-Serif" font-size="10.00">xmmAttribute.hpp</text>
</g>
<!-- Node2 -->
<g id="node2" class="node"><title>Node2</title>
<polygon fill="white" stroke="#bfbfbf" points="0,-0.5 0,-18.5 58.8027,-18.5 58.8027,-0.5 0,-0.5"/>
<text text-anchor="middle" x="29.4014" y="-6.5" font-family="Helvetica,sans-Serif" font-size="10.00">stdexcept</text>
</g>
<!-- Node1&#45;&gt;Node2 -->
<g id="edge1" class="edge"><title>Node1&#45;&gt;Node2</title>
<path fill="none" stroke="midnightblue" d="M136.265,-55.4504C115.45,-46.6951 81.9541,-32.6055 58.012,-22.5346"/>
<polygon fill="midnightblue" stroke="midnightblue" points="59.293,-19.2765 48.7181,-18.6253 56.5788,-25.7289 59.293,-19.2765"/>
</g>
<!-- Node3 -->
<g id="node3" class="node"><title>Node3</title>
<polygon fill="white" stroke="#bfbfbf" points="77.0146,-0.5 77.0146,-18.5 115.788,-18.5 115.788,-0.5 77.0146,-0.5"/>
<text text-anchor="middle" x="96.4014" y="-6.5" font-family="Helvetica,sans-Serif" font-size="10.00">limits</text>
</g>
<!-- Node1&#45;&gt;Node3 -->
<g id="edge2" class="edge"><title>Node1&#45;&gt;Node3</title>
<path fill="none" stroke="midnightblue" d="M146.441,-55.4504C137.604,-47.5123 123.885,-35.1891 113.046,-25.4519"/>
<polygon fill="midnightblue" stroke="midnightblue" points="115.225,-22.7043 105.447,-18.6253 110.547,-27.9118 115.225,-22.7043"/>
</g>
<!-- Node4 -->
<g id="node4" class="node"><title>Node4</title>
<polygon fill="white" stroke="#bfbfbf" points="133.786,-0.5 133.786,-18.5 177.017,-18.5 177.017,-0.5 133.786,-0.5"/>
<text text-anchor="middle" x="155.401" y="-6.5" font-family="Helvetica,sans-Serif" font-size="10.00">vector</text>
</g>
<!-- Node1&#45;&gt;Node4 -->
<g id="edge3" class="edge"><title>Node1&#45;&gt;Node4</title>
<path fill="none" stroke="midnightblue" d="M155.401,-55.2188C155.401,-48.1769 155.401,-37.8083 155.401,-28.8277"/>
<polygon fill="midnightblue" stroke="midnightblue" points="158.901,-28.5495 155.401,-18.5496 151.901,-28.5496 158.901,-28.5495"/>
</g>
<!-- Node5 -->
<g id="node5" class="node"><title>Node5</title>
<polygon fill="white" stroke="#bfbfbf" points="195.175,-0.5 195.175,-18.5 235.628,-18.5 235.628,-0.5 195.175,-0.5"/>
<text text-anchor="middle" x="215.401" y="-6.5" font-family="Helvetica,sans-Serif" font-size="10.00">string</text>
</g>
<!-- Node1&#45;&gt;Node5 -->
<g id="edge4" class="edge"><title>Node1&#45;&gt;Node5</title>
<path fill="none" stroke="midnightblue" d="M164.514,-55.4504C173.501,-47.5123 187.451,-35.1891 198.475,-25.4519"/>
<polygon fill="midnightblue" stroke="midnightblue" points="201.025,-27.8689 206.203,-18.6253 196.391,-22.6225 201.025,-27.8689"/>
</g>
<!-- Node6 -->
<g id="node6" class="node"><title>Node6</title>
<polygon fill="white" stroke="#bfbfbf" points="253.998,-0.5 253.998,-18.5 312.805,-18.5 312.805,-0.5 253.998,-0.5"/>
<text text-anchor="middle" x="283.401" y="-6.5" font-family="Helvetica,sans-Serif" font-size="10.00">functional</text>
</g>
<!-- Node1&#45;&gt;Node6 -->
<g id="edge5" class="edge"><title>Node1&#45;&gt;Node6</title>
<path fill="none" stroke="midnightblue" d="M174.842,-55.4504C195.987,-46.6951 230.014,-32.6055 254.337,-22.5346"/>
<polygon fill="midnightblue" stroke="midnightblue" points="255.878,-25.6848 263.778,-18.6253 253.2,-19.2173 255.878,-25.6848"/>
</g>
</g>
</svg>
