<?xml version="1.0" encoding="UTF-8" standalone="no"?>
<!DOCTYPE svg PUBLIC "-//W3C//DTD SVG 1.1//EN"
 "http://www.w3.org/Graphics/SVG/1.1/DTD/svg11.dtd">
<!-- Generated by graphviz version 2.38.0 (20140413.2041)
 -->
<!-- Title: xmmAttribute.hpp Pages: 1 -->
<svg width="1283pt" height="467pt"
 viewBox="0.00 0.00 1283.28 467.00" xmlns="http://www.w3.org/2000/svg" xmlns:xlink="http://www.w3.org/1999/xlink">
<g id="graph0" class="graph" transform="scale(1 1) rotate(0) translate(4 463)">
<title>xmmAttribute.hpp</title>
<polygon fill="white" stroke="none" points="-4,4 -4,-463 1279.28,-463 1279.28,4 -4,4"/>
<!-- Node1 -->
<g id="node1" class="node"><title>Node1</title>
<polygon fill="#bfbfbf" stroke="black" points="776.682,-440.5 776.682,-458.5 871.046,-458.5 871.046,-440.5 776.682,-440.5"/>
<text text-anchor="middle" x="823.864" y="-446.5" font-family="Helvetica,sans-Serif" font-size="10.00">xmmAttribute.hpp</text>
</g>
<!-- Node2 -->
<g id="node2" class="node"><title>Node2</title>
<g id="a_node2"><a xlink:href="xmm_model_parameters_8hpp.html" target="_top" xlink:title="xmmModelParameters.hpp">
<polygon fill="white" stroke="black" points="736.842,-275.5 736.842,-293.5 872.886,-293.5 872.886,-275.5 736.842,-275.5"/>
<text text-anchor="middle" x="804.864" y="-281.5" font-family="Helvetica,sans-Serif" font-size="10.00">xmmModelParameters.hpp</text>
</a>
</g>
</g>
<!-- Node1&#45;&gt;Node2 -->
<g id="edge1" class="edge"><title>Node1&#45;&gt;Node2</title>
<path fill="none" stroke="midnightblue" d="M821.689,-429.841C817.554,-394.362 808.71,-318.492 805.808,-293.597"/>
<polygon fill="midnightblue" stroke="midnightblue" points="818.262,-430.665 822.896,-440.193 825.214,-429.855 818.262,-430.665"/>
</g>
<!-- Node22 -->
<g id="node22" class="node"><title>Node22</title>
<g id="a_node22"><a xlink:href="xmm_phrase_8hpp.html" target="_top" xlink:title="xmmPhrase.hpp">
<polygon fill="white" stroke="black" points="610.46,-385.5 610.46,-403.5 699.268,-403.5 699.268,-385.5 610.46,-385.5"/>
<text text-anchor="middle" x="654.864" y="-391.5" font-family="Helvetica,sans-Serif" font-size="10.00">xmmPhrase.hpp</text>
</a>
</g>
</g>
<!-- Node1&#45;&gt;Node22 -->
<g id="edge29" class="edge"><title>Node1&#45;&gt;Node22</title>
<path fill="none" stroke="midnightblue" d="M788.271,-437.338C756.004,-427.218 709.227,-412.549 680.496,-403.538"/>
<polygon fill="midnightblue" stroke="midnightblue" points="787.608,-440.798 798.197,-440.45 789.702,-434.118 787.608,-440.798"/>
</g>
<!-- Node30 -->
<g id="node30" class="node"><title>Node30</title>
<g id="a_node30"><a xlink:href="xmm_gaussian_distribution_8hpp.html" target="_top" xlink:title="xmmGaussianDistribution.hpp">
<polygon fill="white" stroke="black" points="930.17,-275.5 930.17,-293.5 1079.56,-293.5 1079.56,-275.5 930.17,-275.5"/>
<text text-anchor="middle" x="1004.86" y="-281.5" font-family="Helvetica,sans-Serif" font-size="10.00">xmmGaussianDistribution.hpp</text>
</a>
</g>
</g>
<!-- Node1&#45;&gt;Node30 -->
<g id="edge41" class="edge"><title>Node1&#45;&gt;Node30</title>
<path fill="none" stroke="midnightblue" d="M831.707,-431.171C838.414,-417.597 849.009,-398.769 861.864,-385 901.08,-342.996 960.855,-308.533 989.07,-293.555"/>
<polygon fill="midnightblue" stroke="midnightblue" points="828.474,-429.821 827.363,-440.357 834.802,-432.813 828.474,-429.821"/>
</g>
<!-- Node32 -->
<g id="node32" class="node"><title>Node32</title>
<g id="a_node32"><a xlink:href="xmm_attribute_8cpp.html" target="_top" xlink:title="xmmAttribute.cpp">
<polygon fill="white" stroke="black" points="870.963,-385.5 870.963,-403.5 964.766,-403.5 964.766,-385.5 870.963,-385.5"/>
<text text-anchor="middle" x="917.864" y="-391.5" font-family="Helvetica,sans-Serif" font-size="10.00">xmmAttribute.cpp</text>
</a>
</g>
</g>
<!-- Node1&#45;&gt;Node32 -->
<g id="edge46" class="edge"><title>Node1&#45;&gt;Node32</title>
<path fill="none" stroke="midnightblue" d="M847.226,-435.328C864.86,-425.386 888.494,-412.06 903.453,-403.625"/>
<polygon fill="midnightblue" stroke="midnightblue" points="845.133,-432.49 838.141,-440.45 848.571,-438.588 845.133,-432.49"/>
</g>
<!-- Node3 -->
<g id="node3" class="node"><title>Node3</title>
<g id="a_node3"><a xlink:href="xmm_model_configuration_8hpp.html" target="_top" xlink:title="xmmModelConfiguration.hpp">
<polygon fill="white" stroke="black" points="349.943,-220.5 349.943,-238.5 493.785,-238.5 493.785,-220.5 349.943,-220.5"/>
<text text-anchor="middle" x="421.864" y="-226.5" font-family="Helvetica,sans-Serif" font-size="10.00">xmmModelConfiguration.hpp</text>
</a>
</g>
</g>
<!-- Node2&#45;&gt;Node3 -->
<g id="edge2" class="edge"><title>Node2&#45;&gt;Node3</title>
<path fill="none" stroke="midnightblue" d="M736.671,-274.063C663.604,-263.952 548.869,-248.075 479.952,-238.538"/>
<polygon fill="midnightblue" stroke="midnightblue" points="736.309,-277.547 746.695,-275.45 737.269,-270.613 736.309,-277.547"/>
</g>
<!-- Node13 -->
<g id="node13" class="node"><title>Node13</title>
<g id="a_node13"><a xlink:href="xmm_gmm_parameters_8hpp.html" target="_top" xlink:title="xmmGmmParameters.hpp">
<polygon fill="white" stroke="black" points="763.241,-220.5 763.241,-238.5 896.487,-238.5 896.487,-220.5 763.241,-220.5"/>
<text text-anchor="middle" x="829.864" y="-226.5" font-family="Helvetica,sans-Serif" font-size="10.00">xmmGmmParameters.hpp</text>
</a>
</g>
</g>
<!-- Node2&#45;&gt;Node13 -->
<g id="edge15" class="edge"><title>Node2&#45;&gt;Node13</title>
<path fill="none" stroke="midnightblue" d="M813.087,-266.068C817.463,-256.791 822.634,-245.827 826.067,-238.55"/>
<polygon fill="midnightblue" stroke="midnightblue" points="809.871,-264.681 808.771,-275.219 816.202,-267.668 809.871,-264.681"/>
</g>
<!-- Node18 -->
<g id="node18" class="node"><title>Node18</title>
<g id="a_node18"><a xlink:href="xmm_hmm_parameters_8hpp.html" target="_top" xlink:title="xmmHmmParameters.hpp">
<polygon fill="white" stroke="black" points="938.52,-220.5 938.52,-238.5 1071.21,-238.5 1071.21,-220.5 938.52,-220.5"/>
<text text-anchor="middle" x="1004.86" y="-226.5" font-family="Helvetica,sans-Serif" font-size="10.00">xmmHmmParameters.hpp</text>
</a>
</g>
</g>
<!-- Node2&#45;&gt;Node18 -->
<g id="edge23" class="edge"><title>Node2&#45;&gt;Node18</title>
<path fill="none" stroke="midnightblue" d="M845.018,-272.859C883.249,-262.728 939.941,-247.705 974.531,-238.538"/>
<polygon fill="midnightblue" stroke="midnightblue" points="844.01,-269.506 835.24,-275.45 845.803,-276.272 844.01,-269.506"/>
</g>
<!-- Node20 -->
<g id="node20" class="node"><title>Node20</title>
<g id="a_node20"><a xlink:href="xmm_k_means_parameters_8hpp.html" target="_top" xlink:title="xmmKMeansParameters.hpp">
<polygon fill="white" stroke="black" points="186.118,-220.5 186.118,-238.5 331.61,-238.5 331.61,-220.5 186.118,-220.5"/>
<text text-anchor="middle" x="258.864" y="-226.5" font-family="Helvetica,sans-Serif" font-size="10.00">xmmKMeansParameters.hpp</text>
</a>
</g>
</g>
<!-- Node2&#45;&gt;Node20 -->
<g id="edge26" class="edge"><title>Node2&#45;&gt;Node20</title>
<path fill="none" stroke="midnightblue" d="M726.748,-276.193C634.517,-267.522 476.498,-252.534 340.864,-239 337.874,-238.702 334.822,-238.395 331.739,-238.083"/>
<polygon fill="midnightblue" stroke="midnightblue" points="726.555,-279.69 736.839,-277.141 727.21,-272.721 726.555,-279.69"/>
</g>
<!-- Node4 -->
<g id="node4" class="node"><title>Node4</title>
<g id="a_node4"><a xlink:href="xmm_model_8hpp.html" target="_top" xlink:title="xmmModel.hpp">
<polygon fill="white" stroke="black" points="379.685,-165.5 379.685,-183.5 464.044,-183.5 464.044,-165.5 379.685,-165.5"/>
<text text-anchor="middle" x="421.864" y="-171.5" font-family="Helvetica,sans-Serif" font-size="10.00">xmmModel.hpp</text>
</a>
</g>
</g>
<!-- Node3&#45;&gt;Node4 -->
<g id="edge3" class="edge"><title>Node3&#45;&gt;Node4</title>
<path fill="none" stroke="midnightblue" d="M421.864,-210.175C421.864,-201.094 421.864,-190.595 421.864,-183.55"/>
<polygon fill="midnightblue" stroke="midnightblue" points="418.364,-210.219 421.864,-220.219 425.364,-210.219 418.364,-210.219"/>
</g>
<!-- Node10 -->
<g id="node10" class="node"><title>Node10</title>
<g id="a_node10"><a xlink:href="xmm_k_means_8hpp.html" target="_top" xlink:title="xmmKMeans.hpp">
<polygon fill="white" stroke="black" points="267.96,-165.5 267.96,-183.5 361.768,-183.5 361.768,-165.5 267.96,-165.5"/>
<text text-anchor="middle" x="314.864" y="-171.5" font-family="Helvetica,sans-Serif" font-size="10.00">xmmKMeans.hpp</text>
</a>
</g>
</g>
<!-- Node3&#45;&gt;Node10 -->
<g id="edge11" class="edge"><title>Node3&#45;&gt;Node10</title>
<path fill="none" stroke="midnightblue" d="M396.379,-215.877C376.199,-205.881 348.612,-192.216 331.268,-183.625"/>
<polygon fill="midnightblue" stroke="midnightblue" points="395.099,-219.148 405.613,-220.45 398.206,-212.875 395.099,-219.148"/>
</g>
<!-- Node5 -->
<g id="node5" class="node"><title>Node5</title>
<g id="a_node5"><a xlink:href="xmm_gmm_8hpp.html" target="_top" xlink:title="xmmGmm.hpp">
<polygon fill="white" stroke="black" points="608.083,-110.5 608.083,-128.5 689.645,-128.5 689.645,-110.5 608.083,-110.5"/>
<text text-anchor="middle" x="648.864" y="-116.5" font-family="Helvetica,sans-Serif" font-size="10.00">xmmGmm.hpp</text>
</a>
</g>
</g>
<!-- Node4&#45;&gt;Node5 -->
<g id="edge4" class="edge"><title>Node4&#45;&gt;Node5</title>
<path fill="none" stroke="midnightblue" d="M466.335,-163.117C509.734,-152.984 574.843,-137.783 614.436,-128.538"/>
<polygon fill="midnightblue" stroke="midnightblue" points="465.283,-159.768 456.341,-165.45 466.875,-166.585 465.283,-159.768"/>
</g>
<!-- Node7 -->
<g id="node7" class="node"><title>Node7</title>
<g id="a_node7"><a xlink:href="xmm_hierarchical_hmm_8hpp.html" target="_top" xlink:title="xmmHierarchicalHmm.hpp">
<polygon fill="white" stroke="black" points="581.965,-55.5 581.965,-73.5 715.763,-73.5 715.763,-55.5 581.965,-55.5"/>
<text text-anchor="middle" x="648.864" y="-61.5" font-family="Helvetica,sans-Serif" font-size="10.00">xmmHierarchicalHmm.hpp</text>
</a>
</g>
</g>
<!-- Node4&#45;&gt;Node7 -->
<g id="edge10" class="edge"><title>Node4&#45;&gt;Node7</title>
<path fill="none" stroke="midnightblue" d="M467.21,-162.869C495.085,-155.399 531.048,-144.05 560.864,-129 592.147,-113.209 624.427,-86.8433 639.741,-73.605"/>
<polygon fill="midnightblue" stroke="midnightblue" points="466.126,-159.535 457.333,-165.445 467.892,-166.308 466.126,-159.535"/>
</g>
<!-- Node6 -->
<g id="node6" class="node"><title>Node6</title>
<g id="a_node6"><a xlink:href="xmm_8h.html" target="_top" xlink:title="xmm.h">
<polygon fill="white" stroke="black" points="530.864,-0.5 530.864,-18.5 576.864,-18.5 576.864,-0.5 530.864,-0.5"/>
<text text-anchor="middle" x="553.864" y="-6.5" font-family="Helvetica,sans-Serif" font-size="10.00">xmm.h</text>
</a>
</g>
</g>
<!-- Node5&#45;&gt;Node6 -->
<g id="edge5" class="edge"><title>Node5&#45;&gt;Node6</title>
<path fill="none" stroke="midnightblue" d="M616.933,-106.397C601.629,-99.1214 584.206,-88.4373 572.864,-74 559.784,-57.3503 555.691,-31.8303 554.424,-18.7924"/>
<polygon fill="midnightblue" stroke="midnightblue" points="615.556,-109.615 626.115,-110.489 618.406,-103.221 615.556,-109.615"/>
</g>
<!-- Node5&#45;&gt;Node7 -->
<g id="edge6" class="edge"><title>Node5&#45;&gt;Node7</title>
<path fill="none" stroke="midnightblue" d="M648.864,-100.175C648.864,-91.0945 648.864,-80.5949 648.864,-73.5496"/>
<polygon fill="midnightblue" stroke="midnightblue" points="645.364,-100.219 648.864,-110.219 652.364,-100.219 645.364,-100.219"/>
</g>
<!-- Node9 -->
<g id="node9" class="node"><title>Node9</title>
<g id="a_node9"><a xlink:href="xmm_gmm_8cpp.html" target="_top" xlink:title="xmmGmm.cpp">
<polygon fill="white" stroke="black" points="341.364,-55.5 341.364,-73.5 422.364,-73.5 422.364,-55.5 341.364,-55.5"/>
<text text-anchor="middle" x="381.864" y="-61.5" font-family="Helvetica,sans-Serif" font-size="10.00">xmmGmm.cpp</text>
</a>
</g>
</g>
<!-- Node5&#45;&gt;Node9 -->
<g id="edge9" class="edge"><title>Node5&#45;&gt;Node9</title>
<path fill="none" stroke="midnightblue" d="M598.483,-108.499C547.455,-98.37 469.519,-82.8996 422.359,-73.5383"/>
<polygon fill="midnightblue" stroke="midnightblue" points="597.823,-111.936 608.313,-110.45 599.186,-105.07 597.823,-111.936"/>
</g>
<!-- Node7&#45;&gt;Node6 -->
<g id="edge7" class="edge"><title>Node7&#45;&gt;Node6</title>
<path fill="none" stroke="midnightblue" d="M625.254,-50.3277C607.433,-40.3856 583.547,-27.0598 568.428,-18.6253"/>
<polygon fill="midnightblue" stroke="midnightblue" points="623.998,-53.6349 634.436,-55.4504 627.408,-47.5218 623.998,-53.6349"/>
</g>
<!-- Node8 -->
<g id="node8" class="node"><title>Node8</title>
<g id="a_node8"><a xlink:href="xmm_hierarchical_hmm_8cpp.html" target="_top" xlink:title="xmmHierarchicalHmm.cpp">
<polygon fill="white" stroke="black" points="595.246,-0.5 595.246,-18.5 728.482,-18.5 728.482,-0.5 595.246,-0.5"/>
<text text-anchor="middle" x="661.864" y="-6.5" font-family="Helvetica,sans-Serif" font-size="10.00">xmmHierarchicalHmm.cpp</text>
</a>
</g>
</g>
<!-- Node7&#45;&gt;Node8 -->
<g id="edge8" class="edge"><title>Node7&#45;&gt;Node8</title>
<path fill="none" stroke="midnightblue" d="M653.286,-45.4734C655.53,-36.3257 658.143,-25.6724 659.89,-18.5496"/>
<polygon fill="midnightblue" stroke="midnightblue" points="649.879,-44.6728 650.896,-55.2188 656.677,-46.3404 649.879,-44.6728"/>
</g>
<!-- Node10&#45;&gt;Node9 -->
<g id="edge13" class="edge"><title>Node10&#45;&gt;Node9</title>
<path fill="none" stroke="midnightblue" d="M303.024,-156.455C295.319,-143.069 288.175,-124.357 296.864,-110 308.162,-91.3322 330.155,-80.1171 348.939,-73.6156"/>
<polygon fill="midnightblue" stroke="midnightblue" points="300.206,-158.548 308.515,-165.122 306.119,-154.802 300.206,-158.548"/>
</g>
<!-- Node11 -->
<g id="node11" class="node"><title>Node11</title>
<g id="a_node11"><a xlink:href="xmm_k_means_8cpp.html" target="_top" xlink:title="xmmKMeans.cpp">
<polygon fill="white" stroke="black" points="306.241,-110.5 306.241,-128.5 399.487,-128.5 399.487,-110.5 306.241,-110.5"/>
<text text-anchor="middle" x="352.864" y="-116.5" font-family="Helvetica,sans-Serif" font-size="10.00">xmmKMeans.cpp</text>
</a>
</g>
</g>
<!-- Node10&#45;&gt;Node11 -->
<g id="edge12" class="edge"><title>Node10&#45;&gt;Node11</title>
<path fill="none" stroke="midnightblue" d="M326.73,-156.951C333.51,-147.494 341.708,-136.059 347.093,-128.55"/>
<polygon fill="midnightblue" stroke="midnightblue" points="323.784,-155.052 320.802,-165.219 329.473,-159.131 323.784,-155.052"/>
</g>
<!-- Node12 -->
<g id="node12" class="node"><title>Node12</title>
<g id="a_node12"><a xlink:href="xmm_gmm_single_class_8cpp.html" target="_top" xlink:title="xmmGmmSingleClass.cpp">
<polygon fill="white" stroke="black" points="417.963,-110.5 417.963,-128.5 551.766,-128.5 551.766,-110.5 417.963,-110.5"/>
<text text-anchor="middle" x="484.864" y="-116.5" font-family="Helvetica,sans-Serif" font-size="10.00">xmmGmmSingleClass.cpp</text>
</a>
</g>
</g>
<!-- Node10&#45;&gt;Node12 -->
<g id="edge14" class="edge"><title>Node10&#45;&gt;Node12</title>
<path fill="none" stroke="midnightblue" d="M350.247,-162.469C382.719,-152.345 430.055,-137.588 459.081,-128.538"/>
<polygon fill="midnightblue" stroke="midnightblue" points="349.189,-159.133 340.684,-165.45 351.272,-165.815 349.189,-159.133"/>
</g>
<!-- Node14 -->
<g id="node14" class="node"><title>Node14</title>
<g id="a_node14"><a xlink:href="xmm_gmm_single_class_8hpp.html" target="_top" xlink:title="xmmGmmSingleClass.hpp">
<polygon fill="white" stroke="black" points="635.682,-165.5 635.682,-183.5 770.046,-183.5 770.046,-165.5 635.682,-165.5"/>
<text text-anchor="middle" x="702.864" y="-171.5" font-family="Helvetica,sans-Serif" font-size="10.00">xmmGmmSingleClass.hpp</text>
</a>
</g>
</g>
<!-- Node13&#45;&gt;Node14 -->
<g id="edge16" class="edge"><title>Node13&#45;&gt;Node14</title>
<path fill="none" stroke="midnightblue" d="M801.235,-216.552C777.158,-206.505 743.387,-192.411 722.334,-183.625"/>
<polygon fill="midnightblue" stroke="midnightblue" points="799.999,-219.829 810.576,-220.45 802.695,-213.369 799.999,-219.829"/>
</g>
<!-- Node17 -->
<g id="node17" class="node"><title>Node17</title>
<g id="a_node17"><a xlink:href="xmm_gmm_parameters_8cpp.html" target="_top" xlink:title="xmmGmmParameters.cpp">
<polygon fill="white" stroke="black" points="788.522,-165.5 788.522,-183.5 921.207,-183.5 921.207,-165.5 788.522,-165.5"/>
<text text-anchor="middle" x="854.864" y="-171.5" font-family="Helvetica,sans-Serif" font-size="10.00">xmmGmmParameters.cpp</text>
</a>
</g>
</g>
<!-- Node13&#45;&gt;Node17 -->
<g id="edge22" class="edge"><title>Node13&#45;&gt;Node17</title>
<path fill="none" stroke="midnightblue" d="M838.087,-211.068C842.463,-201.791 847.634,-190.827 851.067,-183.55"/>
<polygon fill="midnightblue" stroke="midnightblue" points="834.871,-209.681 833.771,-220.219 841.202,-212.668 834.871,-209.681"/>
</g>
<!-- Node14&#45;&gt;Node5 -->
<g id="edge17" class="edge"><title>Node14&#45;&gt;Node5</title>
<path fill="none" stroke="midnightblue" d="M687.184,-158.11C677.335,-148.444 665.033,-136.369 657.066,-128.55"/>
<polygon fill="midnightblue" stroke="midnightblue" points="684.838,-160.712 694.427,-165.219 689.742,-155.716 684.838,-160.712"/>
</g>
<!-- Node14&#45;&gt;Node12 -->
<g id="edge21" class="edge"><title>Node14&#45;&gt;Node12</title>
<path fill="none" stroke="midnightblue" d="M659.892,-163.053C618.215,-152.92 555.871,-137.763 517.927,-128.538"/>
<polygon fill="midnightblue" stroke="midnightblue" points="659.211,-166.489 669.755,-165.45 660.865,-159.687 659.211,-166.489"/>
</g>
<!-- Node15 -->
<g id="node15" class="node"><title>Node15</title>
<g id="a_node15"><a xlink:href="xmm_hmm_single_class_8hpp.html" target="_top" xlink:title="xmmHmmSingleClass.hpp">
<polygon fill="white" stroke="black" points="720.96,-110.5 720.96,-128.5 854.768,-128.5 854.768,-110.5 720.96,-110.5"/>
<text text-anchor="middle" x="787.864" y="-116.5" font-family="Helvetica,sans-Serif" font-size="10.00">xmmHmmSingleClass.hpp</text>
</a>
</g>
</g>
<!-- Node14&#45;&gt;Node15 -->
<g id="edge18" class="edge"><title>Node14&#45;&gt;Node15</title>
<path fill="none" stroke="midnightblue" d="M724.434,-160.051C740.33,-150.139 761.431,-136.982 774.833,-128.625"/>
<polygon fill="midnightblue" stroke="midnightblue" points="722.408,-157.189 715.774,-165.45 726.111,-163.129 722.408,-157.189"/>
</g>
<!-- Node15&#45;&gt;Node7 -->
<g id="edge19" class="edge"><title>Node15&#45;&gt;Node7</title>
<path fill="none" stroke="midnightblue" d="M757.23,-106.819C730.836,-96.7556 693.421,-82.4894 670.174,-73.6253"/>
<polygon fill="midnightblue" stroke="midnightblue" points="756.162,-110.158 766.753,-110.45 758.656,-103.617 756.162,-110.158"/>
</g>
<!-- Node16 -->
<g id="node16" class="node"><title>Node16</title>
<g id="a_node16"><a xlink:href="xmm_hmm_single_class_8cpp.html" target="_top" xlink:title="xmmHmmSingleClass.cpp">
<polygon fill="white" stroke="black" points="734.241,-55.5 734.241,-73.5 867.487,-73.5 867.487,-55.5 734.241,-55.5"/>
<text text-anchor="middle" x="800.864" y="-61.5" font-family="Helvetica,sans-Serif" font-size="10.00">xmmHmmSingleClass.cpp</text>
</a>
</g>
</g>
<!-- Node15&#45;&gt;Node16 -->
<g id="edge20" class="edge"><title>Node15&#45;&gt;Node16</title>
<path fill="none" stroke="midnightblue" d="M792.286,-100.473C794.53,-91.3257 797.143,-80.6724 798.89,-73.5496"/>
<polygon fill="midnightblue" stroke="midnightblue" points="788.879,-99.6728 789.896,-110.219 795.677,-101.34 788.879,-99.6728"/>
</g>
<!-- Node18&#45;&gt;Node15 -->
<g id="edge24" class="edge"><title>Node18&#45;&gt;Node15</title>
<path fill="none" stroke="midnightblue" d="M1037.44,-216.57C1064.98,-204.705 1097.37,-185.374 1079.86,-165 1051.46,-131.938 932.014,-123.163 854.967,-120.998"/>
<polygon fill="midnightblue" stroke="midnightblue" points="1035.92,-213.412 1027.99,-220.445 1038.57,-219.888 1035.92,-213.412"/>
</g>
<!-- Node19 -->
<g id="node19" class="node"><title>Node19</title>
<g id="a_node19"><a xlink:href="xmm_hmm_parameters_8cpp.html" target="_top" xlink:title="xmmHmmParameters.cpp">
<polygon fill="white" stroke="black" points="938.8,-165.5 938.8,-183.5 1070.93,-183.5 1070.93,-165.5 938.8,-165.5"/>
<text text-anchor="middle" x="1004.86" y="-171.5" font-family="Helvetica,sans-Serif" font-size="10.00">xmmHmmParameters.cpp</text>
</a>
</g>
</g>
<!-- Node18&#45;&gt;Node19 -->
<g id="edge25" class="edge"><title>Node18&#45;&gt;Node19</title>
<path fill="none" stroke="midnightblue" d="M1004.86,-210.175C1004.86,-201.094 1004.86,-190.595 1004.86,-183.55"/>
<polygon fill="midnightblue" stroke="midnightblue" points="1001.36,-210.219 1004.86,-220.219 1008.36,-210.219 1001.36,-210.219"/>
</g>
<!-- Node20&#45;&gt;Node10 -->
<g id="edge27" class="edge"><title>Node20&#45;&gt;Node10</title>
<path fill="none" stroke="midnightblue" d="M275.125,-213.11C285.339,-203.444 298.097,-191.369 306.359,-183.55"/>
<polygon fill="midnightblue" stroke="midnightblue" points="272.471,-210.803 267.614,-220.219 277.283,-215.887 272.471,-210.803"/>
</g>
<!-- Node21 -->
<g id="node21" class="node"><title>Node21</title>
<g id="a_node21"><a xlink:href="xmm_k_means_parameters_8cpp.html" target="_top" xlink:title="xmmKMeansParameters.cpp">
<polygon fill="white" stroke="black" points="105.399,-165.5 105.399,-183.5 250.33,-183.5 250.33,-165.5 105.399,-165.5"/>
<text text-anchor="middle" x="177.864" y="-171.5" font-family="Helvetica,sans-Serif" font-size="10.00">xmmKMeansParameters.cpp</text>
</a>
</g>
</g>
<!-- Node20&#45;&gt;Node21 -->
<g id="edge28" class="edge"><title>Node20&#45;&gt;Node21</title>
<path fill="none" stroke="midnightblue" d="M237.884,-214.772C222.787,-204.894 202.934,-191.904 190.282,-183.625"/>
<polygon fill="midnightblue" stroke="midnightblue" points="236.278,-217.904 246.562,-220.45 240.111,-212.046 236.278,-217.904"/>
</g>
<!-- Node23 -->
<g id="node23" class="node"><title>Node23</title>
<g id="a_node23"><a xlink:href="xmm_training_set_8hpp.html" target="_top" xlink:title="xmmTrainingSet.hpp">
<polygon fill="white" stroke="black" points="474.917,-330.5 474.917,-348.5 582.812,-348.5 582.812,-330.5 474.917,-330.5"/>
<text text-anchor="middle" x="528.864" y="-336.5" font-family="Helvetica,sans-Serif" font-size="10.00">xmmTrainingSet.hpp</text>
</a>
</g>
</g>
<!-- Node22&#45;&gt;Node23 -->
<g id="edge30" class="edge"><title>Node22&#45;&gt;Node23</title>
<path fill="none" stroke="midnightblue" d="M626.46,-381.552C602.573,-371.505 569.068,-357.411 548.181,-348.625"/>
<polygon fill="midnightblue" stroke="midnightblue" points="625.153,-384.799 635.728,-385.45 627.867,-378.347 625.153,-384.799"/>
</g>
<!-- Node29 -->
<g id="node29" class="node"><title>Node29</title>
<g id="a_node29"><a xlink:href="xmm_phrase_8cpp.html" target="_top" xlink:title="xmmPhrase.cpp">
<polygon fill="white" stroke="black" points="610.741,-330.5 610.741,-348.5 698.987,-348.5 698.987,-330.5 610.741,-330.5"/>
<text text-anchor="middle" x="654.864" y="-336.5" font-family="Helvetica,sans-Serif" font-size="10.00">xmmPhrase.cpp</text>
</a>
</g>
</g>
<!-- Node22&#45;&gt;Node29 -->
<g id="edge40" class="edge"><title>Node22&#45;&gt;Node29</title>
<path fill="none" stroke="midnightblue" d="M654.864,-375.175C654.864,-366.094 654.864,-355.595 654.864,-348.55"/>
<polygon fill="midnightblue" stroke="midnightblue" points="651.364,-375.219 654.864,-385.219 658.364,-375.219 651.364,-375.219"/>
</g>
<!-- Node24 -->
<g id="node24" class="node"><title>Node24</title>
<g id="a_node24"><a xlink:href="xmm_model_single_class_8hpp.html" target="_top" xlink:title="xmmModelSingleClass.hpp">
<polygon fill="white" stroke="black" points="512.283,-220.5 512.283,-238.5 649.445,-238.5 649.445,-220.5 512.283,-220.5"/>
<text text-anchor="middle" x="580.864" y="-226.5" font-family="Helvetica,sans-Serif" font-size="10.00">xmmModelSingleClass.hpp</text>
</a>
</g>
</g>
<!-- Node23&#45;&gt;Node24 -->
<g id="edge31" class="edge"><title>Node23&#45;&gt;Node24</title>
<path fill="none" stroke="midnightblue" d="M552.924,-325.069C563.917,-317.512 575.816,-306.975 581.864,-294 590.342,-275.812 586.26,-251.39 583.192,-238.791"/>
<polygon fill="midnightblue" stroke="midnightblue" points="550.983,-322.156 544.43,-330.481 554.745,-328.059 550.983,-322.156"/>
</g>
<!-- Node26 -->
<g id="node26" class="node"><title>Node26</title>
<g id="a_node26"><a xlink:href="xmm_model_shared_parameters_8hpp.html" target="_top" xlink:title="xmmModelSharedParameters.hpp">
<polygon fill="white" stroke="black" points="278.719,-275.5 278.719,-293.5 447.009,-293.5 447.009,-275.5 278.719,-275.5"/>
<text text-anchor="middle" x="362.864" y="-281.5" font-family="Helvetica,sans-Serif" font-size="10.00">xmmModelSharedParameters.hpp</text>
</a>
</g>
</g>
<!-- Node23&#45;&gt;Node26 -->
<g id="edge36" class="edge"><title>Node23&#45;&gt;Node26</title>
<path fill="none" stroke="midnightblue" d="M493.903,-327.338C462.208,-317.218 416.262,-302.549 388.041,-293.538"/>
<polygon fill="midnightblue" stroke="midnightblue" points="493.062,-330.743 503.652,-330.45 495.191,-324.075 493.062,-330.743"/>
</g>
<!-- Node28 -->
<g id="node28" class="node"><title>Node28</title>
<g id="a_node28"><a xlink:href="xmm_training_set_8cpp.html" target="_top" xlink:title="xmmTrainingSet.cpp">
<polygon fill="white" stroke="black" points="465.198,-275.5 465.198,-293.5 572.531,-293.5 572.531,-275.5 465.198,-275.5"/>
<text text-anchor="middle" x="518.864" y="-281.5" font-family="Helvetica,sans-Serif" font-size="10.00">xmmTrainingSet.cpp</text>
</a>
</g>
</g>
<!-- Node23&#45;&gt;Node28 -->
<g id="edge39" class="edge"><title>Node23&#45;&gt;Node28</title>
<path fill="none" stroke="midnightblue" d="M525.407,-320.175C523.693,-311.094 521.712,-300.595 520.383,-293.55"/>
<polygon fill="midnightblue" stroke="midnightblue" points="522.008,-321.041 527.302,-330.219 528.887,-319.743 522.008,-321.041"/>
</g>
<!-- Node24&#45;&gt;Node4 -->
<g id="edge32" class="edge"><title>Node24&#45;&gt;Node4</title>
<path fill="none" stroke="midnightblue" d="M546.982,-217.206C516.638,-207.091 472.893,-192.51 445.979,-183.538"/>
<polygon fill="midnightblue" stroke="midnightblue" points="546.122,-220.608 556.716,-220.45 548.336,-213.968 546.122,-220.608"/>
</g>
<!-- Node24&#45;&gt;Node10 -->
<g id="edge35" class="edge"><title>Node24&#45;&gt;Node10</title>
<path fill="none" stroke="midnightblue" d="M530.354,-218.436C479.511,-208.306 402.093,-192.88 355.207,-183.538"/>
<polygon fill="midnightblue" stroke="midnightblue" points="529.973,-221.929 540.465,-220.45 531.341,-215.064 529.973,-221.929"/>
</g>
<!-- Node24&#45;&gt;Node14 -->
<g id="edge33" class="edge"><title>Node24&#45;&gt;Node14</title>
<path fill="none" stroke="midnightblue" d="M608.676,-216.418C631.783,-206.379 664.026,-192.372 684.161,-183.625"/>
<polygon fill="midnightblue" stroke="midnightblue" points="607.171,-213.256 599.393,-220.45 609.96,-219.676 607.171,-213.256"/>
</g>
<!-- Node25 -->
<g id="node25" class="node"><title>Node25</title>
<g id="a_node25"><a xlink:href="xmm_model_single_class_8cpp.html" target="_top" xlink:title="xmmModelSingleClass.cpp">
<polygon fill="white" stroke="black" points="481.564,-165.5 481.564,-183.5 618.165,-183.5 618.165,-165.5 481.564,-165.5"/>
<text text-anchor="middle" x="549.864" y="-171.5" font-family="Helvetica,sans-Serif" font-size="10.00">xmmModelSingleClass.cpp</text>
</a>
</g>
</g>
<!-- Node24&#45;&gt;Node25 -->
<g id="edge34" class="edge"><title>Node24&#45;&gt;Node25</title>
<path fill="none" stroke="midnightblue" d="M570.841,-211.363C565.378,-202.024 558.875,-190.905 554.572,-183.55"/>
<polygon fill="midnightblue" stroke="midnightblue" points="567.95,-213.354 576.021,-220.219 573.993,-209.82 567.95,-213.354"/>
</g>
<!-- Node26&#45;&gt;Node24 -->
<g id="edge37" class="edge"><title>Node26&#45;&gt;Node24</title>
<path fill="none" stroke="midnightblue" d="M405.836,-273.053C447.514,-262.92 509.858,-247.763 547.801,-238.538"/>
<polygon fill="midnightblue" stroke="midnightblue" points="404.864,-269.687 395.974,-275.45 406.518,-276.489 404.864,-269.687"/>
</g>
<!-- Node27 -->
<g id="node27" class="node"><title>Node27</title>
<g id="a_node27"><a xlink:href="xmm_model_shared_parameters_8cpp.html" target="_top" xlink:title="xmmModelSharedParameters.cpp">
<polygon fill="white" stroke="black" points="0,-220.5 0,-238.5 167.729,-238.5 167.729,-220.5 0,-220.5"/>
<text text-anchor="middle" x="83.8643" y="-226.5" font-family="Helvetica,sans-Serif" font-size="10.00">xmmModelSharedParameters.cpp</text>
</a>
</g>
</g>
<!-- Node26&#45;&gt;Node27 -->
<g id="edge38" class="edge"><title>Node26&#45;&gt;Node27</title>
<path fill="none" stroke="midnightblue" d="M310.551,-273.562C257.236,-263.434 175.561,-247.919 126.179,-238.538"/>
<polygon fill="midnightblue" stroke="midnightblue" points="310.013,-277.023 320.49,-275.45 311.319,-270.146 310.013,-277.023"/>
</g>
<!-- Node30&#45;&gt;Node5 -->
<g id="edge42" class="edge"><title>Node30&#45;&gt;Node5</title>
<path fill="none" stroke="midnightblue" d="M1040.92,-271.311C1055.74,-264.317 1071.38,-253.894 1079.86,-239 1096.14,-210.42 1101.96,-189.362 1079.86,-165 1052.26,-134.568 752.673,-133.747 711.864,-129 704.739,-128.171 697.17,-127.215 689.842,-126.25"/>
<polygon fill="midnightblue" stroke="midnightblue" points="1039.18,-268.249 1031.39,-275.425 1041.96,-274.676 1039.18,-268.249"/>
</g>
<!-- Node30&#45;&gt;Node13 -->
<g id="edge43" class="edge"><title>Node30&#45;&gt;Node13</title>
<path fill="none" stroke="midnightblue" d="M968.441,-272.469C935.014,-262.345 886.285,-247.588 856.406,-238.538"/>
<polygon fill="midnightblue" stroke="midnightblue" points="967.7,-275.902 978.286,-275.45 969.729,-269.202 967.7,-275.902"/>
</g>
<!-- Node30&#45;&gt;Node18 -->
<g id="edge44" class="edge"><title>Node30&#45;&gt;Node18</title>
<path fill="none" stroke="midnightblue" d="M1004.86,-265.175C1004.86,-256.094 1004.86,-245.595 1004.86,-238.55"/>
<polygon fill="midnightblue" stroke="midnightblue" points="1001.36,-265.219 1004.86,-275.219 1008.36,-265.219 1001.36,-265.219"/>
</g>
<!-- Node31 -->
<g id="node31" class="node"><title>Node31</title>
<g id="a_node31"><a xlink:href="xmm_gaussian_distribution_8cpp.html" target="_top" xlink:title="xmmGaussianDistribution.cpp">
<polygon fill="white" stroke="black" points="1126.45,-220.5 1126.45,-238.5 1275.28,-238.5 1275.28,-220.5 1126.45,-220.5"/>
<text text-anchor="middle" x="1200.86" y="-226.5" font-family="Helvetica,sans-Serif" font-size="10.00">xmmGaussianDistribution.cpp</text>
</a>
</g>
</g>
<!-- Node30&#45;&gt;Node31 -->
<g id="edge45" class="edge"><title>Node30&#45;&gt;Node31</title>
<path fill="none" stroke="midnightblue" d="M1044.69,-272.73C1082.15,-262.6 1137.38,-247.666 1171.14,-238.538"/>
<polygon fill="midnightblue" stroke="midnightblue" points="1043.37,-269.461 1034.63,-275.45 1045.2,-276.219 1043.37,-269.461"/>
</g>
</g>
</svg>
