<?xml version="1.0" encoding="UTF-8" standalone="no"?>
<!DOCTYPE svg PUBLIC "-//W3C//DTD SVG 1.1//EN"
 "http://www.w3.org/Graphics/SVG/1.1/DTD/svg11.dtd">
<!-- Generated by graphviz version 2.38.0 (20140413.2041)
 -->
<!-- Title: xmmMatrix.hpp Pages: 1 -->
<svg width="339pt" height="82pt"
 viewBox="0.00 0.00 338.79 82.00" xmlns="http://www.w3.org/2000/svg" xmlns:xlink="http://www.w3.org/1999/xlink">
<g id="graph0" class="graph" transform="scale(1 1) rotate(0) translate(4 78)">
<title>xmmMatrix.hpp</title>
<polygon fill="white" stroke="none" points="-4,4 -4,-78 334.788,-78 334.788,4 -4,4"/>
<!-- Node1 -->
<g id="node1" class="node"><title>Node1</title>
<polygon fill="#bfbfbf" stroke="black" points="121,-55.5 121,-73.5 205.345,-73.5 205.345,-55.5 121,-55.5"/>
<text text-anchor="middle" x="163.172" y="-61.5" font-family="Helvetica,sans-Serif" font-size="10.00">xmmMatrix.hpp</text>
</g>
<!-- Node2 -->
<g id="node2" class="node"><title>Node2</title>
<polygon fill="white" stroke="#bfbfbf" points="0,-0.5 0,-18.5 54.3447,-18.5 54.3447,-0.5 0,-0.5"/>
<text text-anchor="middle" x="27.1724" y="-6.5" font-family="Helvetica,sans-Serif" font-size="10.00">iostream</text>
</g>
<!-- Node1&#45;&gt;Node2 -->
<g id="edge1" class="edge"><title>Node1&#45;&gt;Node2</title>
<path fill="none" stroke="midnightblue" d="M142.517,-55.4504C119.851,-46.6173 83.2521,-32.3546 57.367,-22.267"/>
<polygon fill="midnightblue" stroke="midnightblue" points="58.6106,-18.9953 48.0222,-18.6253 56.0688,-25.5176 58.6106,-18.9953"/>
</g>
<!-- Node3 -->
<g id="node3" class="node"><title>Node3</title>
<polygon fill="white" stroke="#bfbfbf" points="72.5566,-0.5 72.5566,-18.5 115.788,-18.5 115.788,-0.5 72.5566,-0.5"/>
<text text-anchor="middle" x="94.1724" y="-6.5" font-family="Helvetica,sans-Serif" font-size="10.00">vector</text>
</g>
<!-- Node1&#45;&gt;Node3 -->
<g id="edge2" class="edge"><title>Node1&#45;&gt;Node3</title>
<path fill="none" stroke="midnightblue" d="M152.693,-55.4504C142.156,-47.3566 125.683,-34.7042 112.896,-24.8822"/>
<polygon fill="midnightblue" stroke="midnightblue" points="114.813,-21.9412 104.751,-18.6253 110.549,-27.4926 114.813,-21.9412"/>
</g>
<!-- Node4 -->
<g id="node4" class="node"><title>Node4</title>
<polygon fill="white" stroke="#bfbfbf" points="133.769,-0.5 133.769,-18.5 192.576,-18.5 192.576,-0.5 133.769,-0.5"/>
<text text-anchor="middle" x="163.172" y="-6.5" font-family="Helvetica,sans-Serif" font-size="10.00">exception</text>
</g>
<!-- Node1&#45;&gt;Node4 -->
<g id="edge3" class="edge"><title>Node1&#45;&gt;Node4</title>
<path fill="none" stroke="midnightblue" d="M163.172,-55.2188C163.172,-48.1769 163.172,-37.8083 163.172,-28.8277"/>
<polygon fill="midnightblue" stroke="midnightblue" points="166.672,-28.5495 163.172,-18.5496 159.672,-28.5496 166.672,-28.5495"/>
</g>
<!-- Node5 -->
<g id="node5" class="node"><title>Node5</title>
<polygon fill="white" stroke="#bfbfbf" points="210.771,-0.5 210.771,-18.5 269.574,-18.5 269.574,-0.5 210.771,-0.5"/>
<text text-anchor="middle" x="240.172" y="-6.5" font-family="Helvetica,sans-Serif" font-size="10.00">stdexcept</text>
</g>
<!-- Node1&#45;&gt;Node5 -->
<g id="edge4" class="edge"><title>Node1&#45;&gt;Node5</title>
<path fill="none" stroke="midnightblue" d="M174.867,-55.4504C186.852,-47.201 205.717,-34.2158 220.096,-24.3187"/>
<polygon fill="midnightblue" stroke="midnightblue" points="222.115,-27.1782 228.368,-18.6253 218.146,-21.4121 222.115,-27.1782"/>
</g>
<!-- Node6 -->
<g id="node6" class="node"><title>Node6</title>
<polygon fill="white" stroke="#bfbfbf" points="287.557,-0.5 287.557,-18.5 330.788,-18.5 330.788,-0.5 287.557,-0.5"/>
<text text-anchor="middle" x="309.172" y="-6.5" font-family="Helvetica,sans-Serif" font-size="10.00">cmath</text>
</g>
<!-- Node1&#45;&gt;Node6 -->
<g id="edge5" class="edge"><title>Node1&#45;&gt;Node6</title>
<path fill="none" stroke="midnightblue" d="M185.347,-55.4504C209.929,-46.5268 249.776,-32.0618 277.608,-21.9583"/>
<polygon fill="midnightblue" stroke="midnightblue" points="279.062,-25.1539 287.268,-18.4517 276.674,-18.574 279.062,-25.1539"/>
</g>
</g>
</svg>
