<?xml version="1.0" encoding="UTF-8" standalone="no"?>
<!DOCTYPE svg PUBLIC "-//W3C//DTD SVG 1.1//EN"
 "http://www.w3.org/Graphics/SVG/1.1/DTD/svg11.dtd">
<!-- Generated by graphviz version 2.38.0 (20140413.2041)
 -->
<!-- Title: xmmGmmSingleClass.cpp Pages: 1 -->
<svg width="799pt" height="462pt"
 viewBox="0.00 0.00 798.98 462.00" xmlns="http://www.w3.org/2000/svg" xmlns:xlink="http://www.w3.org/1999/xlink">
<g id="graph0" class="graph" transform="scale(1 1) rotate(0) translate(4 458)">
<title>xmmGmmSingleClass.cpp</title>
<polygon fill="white" stroke="none" points="-4,4 -4,-458 794.98,-458 794.98,4 -4,4"/>
<!-- Node1 -->
<g id="node1" class="node"><title>Node1</title>
<polygon fill="#bfbfbf" stroke="black" points="471.675,-435.5 471.675,-453.5 605.478,-453.5 605.478,-435.5 471.675,-435.5"/>
<text text-anchor="middle" x="538.576" y="-441.5" font-family="Helvetica,sans-Serif" font-size="10.00">xmmGmmSingleClass.cpp</text>
</g>
<!-- Node2 -->
<g id="node2" class="node"><title>Node2</title>
<g id="a_node2"><a xlink:href="xmm_gmm_single_class_8hpp.html" target="_top" xlink:title="xmmGmmSingleClass.hpp">
<polygon fill="white" stroke="black" points="570.394,-380.5 570.394,-398.5 704.758,-398.5 704.758,-380.5 570.394,-380.5"/>
<text text-anchor="middle" x="637.576" y="-386.5" font-family="Helvetica,sans-Serif" font-size="10.00">xmmGmmSingleClass.hpp</text>
</a>
</g>
</g>
<!-- Node1&#45;&gt;Node2 -->
<g id="edge1" class="edge"><title>Node1&#45;&gt;Node2</title>
<path fill="none" stroke="midnightblue" d="M553.612,-435.45C569.53,-426.929 594.888,-413.353 613.576,-403.349"/>
<polygon fill="midnightblue" stroke="midnightblue" points="615.234,-406.431 622.399,-398.625 611.931,-400.259 615.234,-406.431"/>
</g>
<!-- Node27 -->
<g id="node27" class="node"><title>Node27</title>
<g id="a_node27"><a xlink:href="xmm_k_means_8hpp.html" target="_top" xlink:title="../kmeans/xmmKMeans.hpp">
<polygon fill="white" stroke="black" points="370.608,-380.5 370.608,-398.5 510.544,-398.5 510.544,-380.5 370.608,-380.5"/>
<text text-anchor="middle" x="440.576" y="-386.5" font-family="Helvetica,sans-Serif" font-size="10.00">../kmeans/xmmKMeans.hpp</text>
</a>
</g>
</g>
<!-- Node1&#45;&gt;Node27 -->
<g id="edge38" class="edge"><title>Node1&#45;&gt;Node27</title>
<path fill="none" stroke="midnightblue" d="M523.692,-435.45C508.007,-426.968 483.062,-413.477 464.588,-403.486"/>
<polygon fill="midnightblue" stroke="midnightblue" points="466.061,-400.304 455.6,-398.625 462.731,-406.461 466.061,-400.304"/>
</g>
<!-- Node3 -->
<g id="node3" class="node"><title>Node3</title>
<g id="a_node3"><a xlink:href="xmm_model_single_class_8hpp.html" target="_top" xlink:title="../../core/model/xmmModel\lSingleClass.hpp">
<polygon fill="white" stroke="black" points="183.67,-315.5 183.67,-343.5 317.482,-343.5 317.482,-315.5 183.67,-315.5"/>
<text text-anchor="start" x="191.67" y="-331.5" font-family="Helvetica,sans-Serif" font-size="10.00">../../core/model/xmmModel</text>
<text text-anchor="middle" x="250.576" y="-321.5" font-family="Helvetica,sans-Serif" font-size="10.00">SingleClass.hpp</text>
</a>
</g>
</g>
<!-- Node2&#45;&gt;Node3 -->
<g id="edge2" class="edge"><title>Node2&#45;&gt;Node3</title>
<path fill="none" stroke="midnightblue" d="M584.172,-380.496C517.694,-370.533 403.666,-353.444 327.705,-342.059"/>
<polygon fill="midnightblue" stroke="midnightblue" points="328.119,-338.582 317.711,-340.562 327.082,-345.505 328.119,-338.582"/>
</g>
<!-- Node23 -->
<g id="node23" class="node"><title>Node23</title>
<g id="a_node23"><a xlink:href="xmm_model_results_8hpp.html" target="_top" xlink:title="../../core/model/xmmModel\lResults.hpp">
<polygon fill="white" stroke="black" points="547.67,-250.5 547.67,-278.5 681.482,-278.5 681.482,-250.5 547.67,-250.5"/>
<text text-anchor="start" x="555.67" y="-266.5" font-family="Helvetica,sans-Serif" font-size="10.00">../../core/model/xmmModel</text>
<text text-anchor="middle" x="614.576" y="-256.5" font-family="Helvetica,sans-Serif" font-size="10.00">Results.hpp</text>
</a>
</g>
</g>
<!-- Node2&#45;&gt;Node23 -->
<g id="edge30" class="edge"><title>Node2&#45;&gt;Node23</title>
<path fill="none" stroke="midnightblue" d="M644.054,-380.22C653.968,-366.482 670.831,-338.189 661.576,-315 657.137,-303.877 648.878,-293.822 640.506,-285.724"/>
<polygon fill="midnightblue" stroke="midnightblue" points="642.665,-282.959 632.894,-278.864 637.98,-288.159 642.665,-282.959"/>
</g>
<!-- Node24 -->
<g id="node24" class="node"><title>Node24</title>
<g id="a_node24"><a xlink:href="xmm_gmm_parameters_8hpp.html" target="_top" xlink:title="xmmGmmParameters.hpp">
<polygon fill="white" stroke="black" points="523.953,-190.5 523.953,-208.5 657.199,-208.5 657.199,-190.5 523.953,-190.5"/>
<text text-anchor="middle" x="590.576" y="-196.5" font-family="Helvetica,sans-Serif" font-size="10.00">xmmGmmParameters.hpp</text>
</a>
</g>
</g>
<!-- Node2&#45;&gt;Node24 -->
<g id="edge31" class="edge"><title>Node2&#45;&gt;Node24</title>
<path fill="none" stroke="midnightblue" d="M647.141,-380.304C656.138,-372.053 669.285,-358.501 676.576,-344 695.55,-306.263 712.854,-285.886 690.576,-250 678.854,-231.118 657.555,-219.219 637.616,-211.835"/>
<polygon fill="midnightblue" stroke="midnightblue" points="638.58,-208.466 627.986,-208.563 636.328,-215.094 638.58,-208.466"/>
</g>
<!-- Node4 -->
<g id="node4" class="node"><title>Node4</title>
<g id="a_node4"><a xlink:href="xmm_circularbuffer_8hpp.html" target="_top" xlink:title="../common/xmmCircularbuffer.hpp">
<polygon fill="white" stroke="black" points="602.637,-65.5 602.637,-83.5 768.515,-83.5 768.515,-65.5 602.637,-65.5"/>
<text text-anchor="middle" x="685.576" y="-71.5" font-family="Helvetica,sans-Serif" font-size="10.00">../common/xmmCircularbuffer.hpp</text>
</a>
</g>
</g>
<!-- Node3&#45;&gt;Node4 -->
<g id="edge3" class="edge"><title>Node3&#45;&gt;Node4</title>
<path fill="none" stroke="midnightblue" d="M303.997,-315.488C342.838,-305.86 396.617,-292.182 443.576,-279 486.079,-267.069 496.214,-262.421 538.576,-250 595.285,-233.372 627.766,-258.566 666.576,-214 696.126,-180.068 692.841,-122.647 688.781,-93.553"/>
<polygon fill="midnightblue" stroke="midnightblue" points="692.224,-92.9128 687.198,-83.5854 685.31,-94.0106 692.224,-92.9128"/>
</g>
<!-- Node8 -->
<g id="node8" class="node"><title>Node8</title>
<g id="a_node8"><a xlink:href="xmm_training_set_8hpp.html" target="_top" xlink:title="../trainingset/xmmTraining\lSet.hpp">
<polygon fill="white" stroke="black" points="172.24,-185.5 172.24,-213.5 302.913,-213.5 302.913,-185.5 172.24,-185.5"/>
<text text-anchor="start" x="180.24" y="-201.5" font-family="Helvetica,sans-Serif" font-size="10.00">../trainingset/xmmTraining</text>
<text text-anchor="middle" x="237.576" y="-191.5" font-family="Helvetica,sans-Serif" font-size="10.00">Set.hpp</text>
</a>
</g>
</g>
<!-- Node3&#45;&gt;Node8 -->
<g id="edge7" class="edge"><title>Node3&#45;&gt;Node8</title>
<path fill="none" stroke="midnightblue" d="M249.234,-315.284C247.044,-293.726 242.676,-250.714 239.953,-223.899"/>
<polygon fill="midnightblue" stroke="midnightblue" points="243.423,-223.431 238.931,-213.836 236.459,-224.139 243.423,-223.431"/>
</g>
<!-- Node17 -->
<g id="node17" class="node"><title>Node17</title>
<g id="a_node17"><a xlink:href="xmm_events_8hpp.html" target="_top" xlink:title="../common/xmmEvents.hpp">
<polygon fill="white" stroke="black" points="0,-65.5 0,-83.5 137.152,-83.5 137.152,-65.5 0,-65.5"/>
<text text-anchor="middle" x="68.5762" y="-71.5" font-family="Helvetica,sans-Serif" font-size="10.00">../common/xmmEvents.hpp</text>
</a>
</g>
</g>
<!-- Node3&#45;&gt;Node17 -->
<g id="edge24" class="edge"><title>Node3&#45;&gt;Node17</title>
<path fill="none" stroke="midnightblue" d="M183.477,-320.51C130.769,-312.806 63.2549,-299.301 44.5762,-279 -3.62723,-226.611 38.1969,-131.776 58.7537,-92.8684"/>
<polygon fill="midnightblue" stroke="midnightblue" points="61.9581,-94.3027 63.6757,-83.848 55.8134,-90.9497 61.9581,-94.3027"/>
</g>
<!-- Node21 -->
<g id="node21" class="node"><title>Node21</title>
<g id="a_node21"><a xlink:href="xmm_model_shared_parameters_8hpp.html" target="_top" xlink:title="xmmModelSharedParameters.hpp">
<polygon fill="white" stroke="black" points="64.4312,-255.5 64.4312,-273.5 232.721,-273.5 232.721,-255.5 64.4312,-255.5"/>
<text text-anchor="middle" x="148.576" y="-261.5" font-family="Helvetica,sans-Serif" font-size="10.00">xmmModelSharedParameters.hpp</text>
</a>
</g>
</g>
<!-- Node3&#45;&gt;Node21 -->
<g id="edge25" class="edge"><title>Node3&#45;&gt;Node21</title>
<path fill="none" stroke="midnightblue" d="M229.442,-315.446C212.21,-304.803 187.954,-289.821 170.509,-279.047"/>
<polygon fill="midnightblue" stroke="midnightblue" points="171.953,-275.825 161.606,-273.548 168.275,-281.781 171.953,-275.825"/>
</g>
<!-- Node22 -->
<g id="node22" class="node"><title>Node22</title>
<polygon fill="white" stroke="#bfbfbf" points="43.9604,-190.5 43.9604,-208.5 87.1919,-208.5 87.1919,-190.5 43.9604,-190.5"/>
<text text-anchor="middle" x="65.5762" y="-196.5" font-family="Helvetica,sans-Serif" font-size="10.00">mutex</text>
</g>
<!-- Node3&#45;&gt;Node22 -->
<g id="edge29" class="edge"><title>Node3&#45;&gt;Node22</title>
<path fill="none" stroke="midnightblue" d="M183.453,-320.28C133.506,-312.622 71.3652,-299.298 55.5762,-279 42.164,-261.758 49.2699,-235.652 56.5803,-218.344"/>
<polygon fill="midnightblue" stroke="midnightblue" points="59.9455,-219.406 60.977,-208.862 53.595,-216.462 59.9455,-219.406"/>
</g>
<!-- Node5 -->
<g id="node5" class="node"><title>Node5</title>
<polygon fill="white" stroke="#bfbfbf" points="593.96,-5.5 593.96,-23.5 637.192,-23.5 637.192,-5.5 593.96,-5.5"/>
<text text-anchor="middle" x="615.576" y="-11.5" font-family="Helvetica,sans-Serif" font-size="10.00">vector</text>
</g>
<!-- Node4&#45;&gt;Node5 -->
<g id="edge4" class="edge"><title>Node4&#45;&gt;Node5</title>
<path fill="none" stroke="midnightblue" d="M675.843,-65.4353C664.892,-56.3619 646.876,-41.434 633.389,-30.2589"/>
<polygon fill="midnightblue" stroke="midnightblue" points="635.613,-27.5569 625.68,-23.8718 631.147,-32.9471 635.613,-27.5569"/>
</g>
<!-- Node6 -->
<g id="node6" class="node"><title>Node6</title>
<polygon fill="white" stroke="#bfbfbf" points="732.172,-5.5 732.172,-23.5 790.98,-23.5 790.98,-5.5 732.172,-5.5"/>
<text text-anchor="middle" x="761.576" y="-11.5" font-family="Helvetica,sans-Serif" font-size="10.00">exception</text>
</g>
<!-- Node4&#45;&gt;Node6 -->
<g id="edge5" class="edge"><title>Node4&#45;&gt;Node6</title>
<path fill="none" stroke="midnightblue" d="M696.144,-65.4353C708.145,-56.2763 727.963,-41.1518 742.65,-29.9437"/>
<polygon fill="midnightblue" stroke="midnightblue" points="744.78,-32.7209 750.606,-23.8718 740.533,-27.1562 744.78,-32.7209"/>
</g>
<!-- Node7 -->
<g id="node7" class="node"><title>Node7</title>
<polygon fill="white" stroke="#bfbfbf" points="655.175,-5.5 655.175,-23.5 713.978,-23.5 713.978,-5.5 655.175,-5.5"/>
<text text-anchor="middle" x="684.576" y="-11.5" font-family="Helvetica,sans-Serif" font-size="10.00">stdexcept</text>
</g>
<!-- Node4&#45;&gt;Node7 -->
<g id="edge6" class="edge"><title>Node4&#45;&gt;Node7</title>
<path fill="none" stroke="midnightblue" d="M685.437,-65.4353C685.298,-57.3891 685.08,-44.7388 684.898,-34.1846"/>
<polygon fill="midnightblue" stroke="midnightblue" points="688.392,-33.8099 684.721,-23.8718 681.394,-33.9306 688.392,-33.8099"/>
</g>
<!-- Node9 -->
<g id="node9" class="node"><title>Node9</title>
<g id="a_node9"><a xlink:href="xmm_phrase_8hpp.html" target="_top" xlink:title="xmmPhrase.hpp">
<polygon fill="white" stroke="black" points="193.172,-125.5 193.172,-143.5 281.98,-143.5 281.98,-125.5 193.172,-125.5"/>
<text text-anchor="middle" x="237.576" y="-131.5" font-family="Helvetica,sans-Serif" font-size="10.00">xmmPhrase.hpp</text>
</a>
</g>
</g>
<!-- Node8&#45;&gt;Node9 -->
<g id="edge8" class="edge"><title>Node8&#45;&gt;Node9</title>
<path fill="none" stroke="midnightblue" d="M237.576,-185.446C237.576,-176.334 237.576,-164.041 237.576,-153.931"/>
<polygon fill="midnightblue" stroke="midnightblue" points="241.076,-153.73 237.576,-143.73 234.076,-153.73 241.076,-153.73"/>
</g>
<!-- Node18 -->
<g id="node18" class="node"><title>Node18</title>
<polygon fill="white" stroke="#bfbfbf" points="102.906,-5.5 102.906,-23.5 132.246,-23.5 132.246,-5.5 102.906,-5.5"/>
<text text-anchor="middle" x="117.576" y="-11.5" font-family="Helvetica,sans-Serif" font-size="10.00">set</text>
</g>
<!-- Node8&#45;&gt;Node18 -->
<g id="edge23" class="edge"><title>Node8&#45;&gt;Node18</title>
<path fill="none" stroke="midnightblue" d="M220.136,-185.239C208.89,-176.015 194.556,-162.914 184.576,-149 160.695,-115.703 165.403,-101.394 146.576,-65 140.87,-53.9697 133.843,-41.9414 128.135,-32.5041"/>
<polygon fill="midnightblue" stroke="midnightblue" points="130.984,-30.4553 122.775,-23.7576 125.016,-34.1128 130.984,-30.4553"/>
</g>
<!-- Node20 -->
<g id="node20" class="node"><title>Node20</title>
<polygon fill="white" stroke="#bfbfbf" points="299.85,-125.5 299.85,-143.5 335.303,-143.5 335.303,-125.5 299.85,-125.5"/>
<text text-anchor="middle" x="317.576" y="-131.5" font-family="Helvetica,sans-Serif" font-size="10.00">map</text>
</g>
<!-- Node8&#45;&gt;Node20 -->
<g id="edge22" class="edge"><title>Node8&#45;&gt;Node20</title>
<path fill="none" stroke="midnightblue" d="M254.152,-185.446C267.217,-175.158 285.43,-160.815 298.988,-150.138"/>
<polygon fill="midnightblue" stroke="midnightblue" points="301.434,-152.667 307.125,-143.73 297.103,-147.167 301.434,-152.667"/>
</g>
<!-- Node10 -->
<g id="node10" class="node"><title>Node10</title>
<g id="a_node10"><a xlink:href="xmm_json_8hpp.html" target="_top" xlink:title="../common/xmmJson.hpp">
<polygon fill="white" stroke="black" points="294.724,-65.5 294.724,-83.5 422.428,-83.5 422.428,-65.5 294.724,-65.5"/>
<text text-anchor="middle" x="358.576" y="-71.5" font-family="Helvetica,sans-Serif" font-size="10.00">../common/xmmJson.hpp</text>
</a>
</g>
</g>
<!-- Node9&#45;&gt;Node10 -->
<g id="edge9" class="edge"><title>Node9&#45;&gt;Node10</title>
<path fill="none" stroke="midnightblue" d="M254.401,-125.435C274.605,-115.751 308.723,-99.3966 332.384,-88.055"/>
<polygon fill="midnightblue" stroke="midnightblue" points="334,-91.1618 341.504,-83.6831 330.974,-84.8495 334,-91.1618"/>
</g>
<!-- Node13 -->
<g id="node13" class="node"><title>Node13</title>
<g id="a_node13"><a xlink:href="xmm_attribute_8hpp.html" target="_top" xlink:title="../common/xmmAttribute.hpp">
<polygon fill="white" stroke="black" points="440.665,-65.5 440.665,-83.5 584.487,-83.5 584.487,-65.5 440.665,-65.5"/>
<text text-anchor="middle" x="512.576" y="-71.5" font-family="Helvetica,sans-Serif" font-size="10.00">../common/xmmAttribute.hpp</text>
</a>
</g>
</g>
<!-- Node9&#45;&gt;Node13 -->
<g id="edge13" class="edge"><title>Node9&#45;&gt;Node13</title>
<path fill="none" stroke="midnightblue" d="M268.06,-125.449C275.414,-123.586 283.262,-121.663 290.576,-120 347.948,-106.952 414.123,-93.9495 459.194,-85.3996"/>
<polygon fill="midnightblue" stroke="midnightblue" points="459.869,-88.8341 469.046,-83.538 458.57,-81.9558 459.869,-88.8341"/>
</g>
<!-- Node9&#45;&gt;Node17 -->
<g id="edge19" class="edge"><title>Node9&#45;&gt;Node17</title>
<path fill="none" stroke="midnightblue" d="M214.077,-125.435C184.899,-115.421 134.941,-98.276 101.838,-86.9152"/>
<polygon fill="midnightblue" stroke="midnightblue" points="102.742,-83.5251 92.1471,-83.5894 100.469,-90.1461 102.742,-83.5251"/>
</g>
<!-- Node19 -->
<g id="node19" class="node"><title>Node19</title>
<polygon fill="white" stroke="#bfbfbf" points="215.96,-65.5 215.96,-83.5 259.192,-83.5 259.192,-65.5 215.96,-65.5"/>
<text text-anchor="middle" x="237.576" y="-71.5" font-family="Helvetica,sans-Serif" font-size="10.00">cmath</text>
</g>
<!-- Node9&#45;&gt;Node19 -->
<g id="edge21" class="edge"><title>Node9&#45;&gt;Node19</title>
<path fill="none" stroke="midnightblue" d="M237.576,-125.435C237.576,-117.389 237.576,-104.739 237.576,-94.1846"/>
<polygon fill="midnightblue" stroke="midnightblue" points="241.076,-93.8717 237.576,-83.8718 234.076,-93.8718 241.076,-93.8717"/>
</g>
<!-- Node10&#45;&gt;Node5 -->
<g id="edge12" class="edge"><title>Node10&#45;&gt;Node5</title>
<path fill="none" stroke="midnightblue" d="M417.502,-65.4751C463.623,-58.3419 529.035,-46.3373 584.576,-29 586.194,-28.4949 587.842,-27.9321 589.491,-27.3308"/>
<polygon fill="midnightblue" stroke="midnightblue" points="590.798,-30.5779 598.773,-23.6036 588.189,-24.0821 590.798,-30.5779"/>
</g>
<!-- Node11 -->
<g id="node11" class="node"><title>Node11</title>
<polygon fill="white" stroke="#bfbfbf" points="198.988,-0.5 198.988,-28.5 316.165,-28.5 316.165,-0.5 198.988,-0.5"/>
<text text-anchor="start" x="206.988" y="-16.5" font-family="Helvetica,sans-Serif" font-size="10.00">../../../dependencies</text>
<text text-anchor="middle" x="257.576" y="-6.5" font-family="Helvetica,sans-Serif" font-size="10.00">/jsoncpp/include/json.h</text>
</g>
<!-- Node10&#45;&gt;Node11 -->
<g id="edge10" class="edge"><title>Node10&#45;&gt;Node11</title>
<path fill="none" stroke="midnightblue" d="M344.533,-65.4353C330.279,-57.25 307.728,-44.3001 289.163,-33.6391"/>
<polygon fill="midnightblue" stroke="midnightblue" points="290.838,-30.5651 280.424,-28.6203 287.353,-36.6354 290.838,-30.5651"/>
</g>
<!-- Node12 -->
<g id="node12" class="node"><title>Node12</title>
<polygon fill="white" stroke="#bfbfbf" points="333.906,-5.5 333.906,-23.5 383.246,-23.5 383.246,-5.5 333.906,-5.5"/>
<text text-anchor="middle" x="358.576" y="-11.5" font-family="Helvetica,sans-Serif" font-size="10.00">fstream</text>
</g>
<!-- Node10&#45;&gt;Node12 -->
<g id="edge11" class="edge"><title>Node10&#45;&gt;Node12</title>
<path fill="none" stroke="midnightblue" d="M358.576,-65.4353C358.576,-57.3891 358.576,-44.7388 358.576,-34.1846"/>
<polygon fill="midnightblue" stroke="midnightblue" points="362.076,-33.8717 358.576,-23.8718 355.076,-33.8718 362.076,-33.8717"/>
</g>
<!-- Node13&#45;&gt;Node5 -->
<g id="edge16" class="edge"><title>Node13&#45;&gt;Node5</title>
<path fill="none" stroke="midnightblue" d="M526.898,-65.4353C543.79,-55.923 572.11,-39.9759 592.198,-28.6645"/>
<polygon fill="midnightblue" stroke="midnightblue" points="594.048,-31.6395 601.044,-23.6831 590.613,-25.5401 594.048,-31.6395"/>
</g>
<!-- Node13&#45;&gt;Node7 -->
<g id="edge14" class="edge"><title>Node13&#45;&gt;Node7</title>
<path fill="none" stroke="midnightblue" d="M537.325,-65.4512C564.256,-56.6532 608.557,-42.0648 646.576,-29 648.463,-28.3516 650.401,-27.6802 652.355,-26.999"/>
<polygon fill="midnightblue" stroke="midnightblue" points="653.826,-30.1919 662.098,-23.5723 651.504,-23.5884 653.826,-30.1919"/>
</g>
<!-- Node14 -->
<g id="node14" class="node"><title>Node14</title>
<polygon fill="white" stroke="#bfbfbf" points="478.189,-5.5 478.189,-23.5 516.963,-23.5 516.963,-5.5 478.189,-5.5"/>
<text text-anchor="middle" x="497.576" y="-11.5" font-family="Helvetica,sans-Serif" font-size="10.00">limits</text>
</g>
<!-- Node13&#45;&gt;Node14 -->
<g id="edge15" class="edge"><title>Node13&#45;&gt;Node14</title>
<path fill="none" stroke="midnightblue" d="M510.49,-65.4353C508.387,-57.3035 505.068,-44.4692 502.321,-33.8485"/>
<polygon fill="midnightblue" stroke="midnightblue" points="505.634,-32.6769 499.741,-23.8718 498.857,-34.4296 505.634,-32.6769"/>
</g>
<!-- Node15 -->
<g id="node15" class="node"><title>Node15</title>
<polygon fill="white" stroke="#bfbfbf" points="535.35,-5.5 535.35,-23.5 575.803,-23.5 575.803,-5.5 535.35,-5.5"/>
<text text-anchor="middle" x="555.576" y="-11.5" font-family="Helvetica,sans-Serif" font-size="10.00">string</text>
</g>
<!-- Node13&#45;&gt;Node15 -->
<g id="edge17" class="edge"><title>Node13&#45;&gt;Node15</title>
<path fill="none" stroke="midnightblue" d="M518.555,-65.4353C524.901,-56.8755 535.11,-43.1052 543.202,-32.1909"/>
<polygon fill="midnightblue" stroke="midnightblue" points="546.225,-33.9894 549.37,-23.8718 540.602,-29.8204 546.225,-33.9894"/>
</g>
<!-- Node16 -->
<g id="node16" class="node"><title>Node16</title>
<polygon fill="white" stroke="#bfbfbf" points="401.172,-5.5 401.172,-23.5 459.98,-23.5 459.98,-5.5 401.172,-5.5"/>
<text text-anchor="middle" x="430.576" y="-11.5" font-family="Helvetica,sans-Serif" font-size="10.00">functional</text>
</g>
<!-- Node13&#45;&gt;Node16 -->
<g id="edge18" class="edge"><title>Node13&#45;&gt;Node16</title>
<path fill="none" stroke="midnightblue" d="M501.174,-65.4353C488.152,-56.2243 466.599,-40.9797 450.727,-29.753"/>
<polygon fill="midnightblue" stroke="midnightblue" points="452.331,-26.6004 442.145,-23.6831 448.288,-32.3153 452.331,-26.6004"/>
</g>
<!-- Node17&#45;&gt;Node18 -->
<g id="edge20" class="edge"><title>Node17&#45;&gt;Node18</title>
<path fill="none" stroke="midnightblue" d="M75.3894,-65.4353C82.7656,-56.7043 94.7217,-42.5523 104.026,-31.5395"/>
<polygon fill="midnightblue" stroke="midnightblue" points="106.724,-33.7694 110.503,-23.8718 101.376,-29.2519 106.724,-33.7694"/>
</g>
<!-- Node21&#45;&gt;Node8 -->
<g id="edge26" class="edge"><title>Node21&#45;&gt;Node8</title>
<path fill="none" stroke="midnightblue" d="M160.211,-255.264C172.971,-246.232 193.875,-231.435 210.739,-219.497"/>
<polygon fill="midnightblue" stroke="midnightblue" points="212.985,-222.195 219.125,-213.561 208.941,-216.482 212.985,-222.195"/>
</g>
<!-- Node21&#45;&gt;Node17 -->
<g id="edge27" class="edge"><title>Node21&#45;&gt;Node17</title>
<path fill="none" stroke="midnightblue" d="M145.139,-255.422C133.139,-227.224 92.9316,-132.735 76.0933,-93.1653"/>
<polygon fill="midnightblue" stroke="midnightblue" points="79.2271,-91.5908 72.091,-83.7598 72.786,-94.3318 79.2271,-91.5908"/>
</g>
<!-- Node21&#45;&gt;Node22 -->
<g id="edge28" class="edge"><title>Node21&#45;&gt;Node22</title>
<path fill="none" stroke="midnightblue" d="M137.725,-255.264C124.23,-245.02 100.964,-227.361 84.5053,-214.868"/>
<polygon fill="midnightblue" stroke="midnightblue" points="86.2486,-211.797 76.1672,-208.539 82.0164,-217.373 86.2486,-211.797"/>
</g>
<!-- Node25 -->
<g id="node25" class="node"><title>Node25</title>
<g id="a_node25"><a xlink:href="xmm_model_parameters_8hpp.html" target="_top" xlink:title="../../core/model/xmmModel\lParameters.hpp">
<polygon fill="white" stroke="black" points="353.67,-120.5 353.67,-148.5 487.482,-148.5 487.482,-120.5 353.67,-120.5"/>
<text text-anchor="start" x="361.67" y="-136.5" font-family="Helvetica,sans-Serif" font-size="10.00">../../core/model/xmmModel</text>
<text text-anchor="middle" x="420.576" y="-126.5" font-family="Helvetica,sans-Serif" font-size="10.00">Parameters.hpp</text>
</a>
</g>
</g>
<!-- Node24&#45;&gt;Node25 -->
<g id="edge32" class="edge"><title>Node24&#45;&gt;Node25</title>
<path fill="none" stroke="midnightblue" d="M568.7,-190.393C542.663,-180.744 498.524,-164.386 465.185,-152.032"/>
<polygon fill="midnightblue" stroke="midnightblue" points="466.249,-148.693 455.656,-148.5 463.817,-155.257 466.249,-148.693"/>
</g>
<!-- Node26 -->
<g id="node26" class="node"><title>Node26</title>
<g id="a_node26"><a xlink:href="xmm_gaussian_distribution_8hpp.html" target="_top" xlink:title="../../core/distributions\l/xmmGaussianDistribution.hpp">
<polygon fill="white" stroke="black" points="505.493,-120.5 505.493,-148.5 657.66,-148.5 657.66,-120.5 505.493,-120.5"/>
<text text-anchor="start" x="513.493" y="-136.5" font-family="Helvetica,sans-Serif" font-size="10.00">../../core/distributions</text>
<text text-anchor="middle" x="581.576" y="-126.5" font-family="Helvetica,sans-Serif" font-size="10.00">/xmmGaussianDistribution.hpp</text>
</a>
</g>
</g>
<!-- Node24&#45;&gt;Node26 -->
<g id="edge35" class="edge"><title>Node24&#45;&gt;Node26</title>
<path fill="none" stroke="midnightblue" d="M589.4,-190.264C588.259,-182.277 586.473,-169.781 584.896,-158.742"/>
<polygon fill="midnightblue" stroke="midnightblue" points="588.355,-158.203 583.476,-148.798 581.425,-159.193 588.355,-158.203"/>
</g>
<!-- Node25&#45;&gt;Node10 -->
<g id="edge33" class="edge"><title>Node25&#45;&gt;Node10</title>
<path fill="none" stroke="midnightblue" d="M406.507,-120.339C397.129,-111.565 384.768,-100.002 374.948,-90.8156"/>
<polygon fill="midnightblue" stroke="midnightblue" points="377.112,-88.0471 367.418,-83.7715 372.33,-93.159 377.112,-88.0471"/>
</g>
<!-- Node25&#45;&gt;Node13 -->
<g id="edge34" class="edge"><title>Node25&#45;&gt;Node13</title>
<path fill="none" stroke="midnightblue" d="M441.452,-120.339C456.292,-110.984 476.163,-98.4562 491.129,-89.021"/>
<polygon fill="midnightblue" stroke="midnightblue" points="493.132,-91.8956 499.725,-83.6018 489.399,-85.9742 493.132,-91.8956"/>
</g>
<!-- Node26&#45;&gt;Node10 -->
<g id="edge36" class="edge"><title>Node26&#45;&gt;Node10</title>
<path fill="none" stroke="midnightblue" d="M531.531,-120.484C491.739,-110.134 436.763,-95.8355 399.556,-86.1584"/>
<polygon fill="midnightblue" stroke="midnightblue" points="400.12,-82.6886 389.56,-83.5587 398.357,-89.4632 400.12,-82.6886"/>
</g>
<!-- Node26&#45;&gt;Node13 -->
<g id="edge37" class="edge"><title>Node26&#45;&gt;Node13</title>
<path fill="none" stroke="midnightblue" d="M565.919,-120.339C555.273,-111.39 541.174,-99.5384 530.144,-90.2673"/>
<polygon fill="midnightblue" stroke="midnightblue" points="532.323,-87.5268 522.416,-83.7715 527.819,-92.8852 532.323,-87.5268"/>
</g>
<!-- Node27&#45;&gt;Node3 -->
<g id="edge39" class="edge"><title>Node27&#45;&gt;Node3</title>
<path fill="none" stroke="midnightblue" d="M414.157,-380.435C385.544,-371.701 339.157,-357.54 303.074,-346.526"/>
<polygon fill="midnightblue" stroke="midnightblue" points="303.78,-343.082 293.194,-343.51 301.736,-349.777 303.78,-343.082"/>
</g>
<!-- Node28 -->
<g id="node28" class="node"><title>Node28</title>
<g id="a_node28"><a xlink:href="xmm_model_configuration_8hpp.html" target="_top" xlink:title="../../core/model/xmmModel\lConfiguration.hpp">
<polygon fill="white" stroke="black" points="373.67,-315.5 373.67,-343.5 507.482,-343.5 507.482,-315.5 373.67,-315.5"/>
<text text-anchor="start" x="381.67" y="-331.5" font-family="Helvetica,sans-Serif" font-size="10.00">../../core/model/xmmModel</text>
<text text-anchor="middle" x="440.576" y="-321.5" font-family="Helvetica,sans-Serif" font-size="10.00">Configuration.hpp</text>
</a>
</g>
</g>
<!-- Node27&#45;&gt;Node28 -->
<g id="edge40" class="edge"><title>Node27&#45;&gt;Node28</title>
<path fill="none" stroke="midnightblue" d="M440.576,-380.435C440.576,-373.56 440.576,-363.324 440.576,-353.906"/>
<polygon fill="midnightblue" stroke="midnightblue" points="444.076,-353.843 440.576,-343.843 437.076,-353.843 444.076,-353.843"/>
</g>
<!-- Node29 -->
<g id="node29" class="node"><title>Node29</title>
<g id="a_node29"><a xlink:href="xmm_k_means_parameters_8hpp.html" target="_top" xlink:title="xmmKMeansParameters.hpp">
<polygon fill="white" stroke="black" points="288.83,-255.5 288.83,-273.5 434.322,-273.5 434.322,-255.5 288.83,-255.5"/>
<text text-anchor="middle" x="361.576" y="-261.5" font-family="Helvetica,sans-Serif" font-size="10.00">xmmKMeansParameters.hpp</text>
</a>
</g>
</g>
<!-- Node27&#45;&gt;Node29 -->
<g id="edge42" class="edge"><title>Node27&#45;&gt;Node29</title>
<path fill="none" stroke="midnightblue" d="M413.931,-380.39C396.656,-373.619 375.418,-362.102 364.576,-344 353.644,-325.748 354.921,-300.59 357.587,-283.721"/>
<polygon fill="midnightblue" stroke="midnightblue" points="361.091,-284.032 359.522,-273.554 354.215,-282.723 361.091,-284.032"/>
</g>
<!-- Node30 -->
<g id="node30" class="node"><title>Node30</title>
<g id="a_node30"><a xlink:href="xmm_k_means_results_8hpp.html" target="_top" xlink:title="xmmKMeansResults.hpp">
<polygon fill="white" stroke="black" points="525,-320.5 525,-338.5 652.152,-338.5 652.152,-320.5 525,-320.5"/>
<text text-anchor="middle" x="588.576" y="-326.5" font-family="Helvetica,sans-Serif" font-size="10.00">xmmKMeansResults.hpp</text>
</a>
</g>
</g>
<!-- Node27&#45;&gt;Node30 -->
<g id="edge44" class="edge"><title>Node27&#45;&gt;Node30</title>
<path fill="none" stroke="midnightblue" d="M461.155,-380.435C486.306,-370.579 529.088,-353.813 558.071,-342.455"/>
<polygon fill="midnightblue" stroke="midnightblue" points="559.662,-345.591 567.695,-338.683 557.107,-339.073 559.662,-345.591"/>
</g>
<!-- Node28&#45;&gt;Node25 -->
<g id="edge41" class="edge"><title>Node28&#45;&gt;Node25</title>
<path fill="none" stroke="midnightblue" d="M441.581,-315.482C442.299,-305.505 443.201,-291.392 443.576,-279 443.966,-266.117 444.852,-262.826 443.576,-250 440.389,-217.952 432.302,-181.592 426.623,-158.609"/>
<polygon fill="midnightblue" stroke="midnightblue" points="429.979,-157.604 424.135,-148.767 423.192,-159.32 429.979,-157.604"/>
</g>
<!-- Node29&#45;&gt;Node25 -->
<g id="edge43" class="edge"><title>Node29&#45;&gt;Node25</title>
<path fill="none" stroke="midnightblue" d="M365.267,-255.493C374.113,-236.301 396.785,-187.114 410.196,-158.02"/>
<polygon fill="midnightblue" stroke="midnightblue" points="413.508,-159.196 414.515,-148.649 407.151,-156.265 413.508,-159.196"/>
</g>
<!-- Node30&#45;&gt;Node23 -->
<g id="edge45" class="edge"><title>Node30&#45;&gt;Node23</title>
<path fill="none" stroke="midnightblue" d="M591.975,-320.264C595.339,-312.112 600.642,-299.264 605.265,-288.061"/>
<polygon fill="midnightblue" stroke="midnightblue" points="608.508,-289.377 609.088,-278.798 602.038,-286.707 608.508,-289.377"/>
</g>
</g>
</svg>
