<?xml version="1.0" encoding="UTF-8" standalone="no"?>
<!DOCTYPE svg PUBLIC "-//W3C//DTD SVG 1.1//EN"
 "http://www.w3.org/Graphics/SVG/1.1/DTD/svg11.dtd">
<!-- Generated by graphviz version 2.38.0 (20140413.2041)
 -->
<!-- Title: xmmGmm.cpp Pages: 1 -->
<svg width="817pt" height="487pt"
 viewBox="0.00 0.00 817.16 487.00" xmlns="http://www.w3.org/2000/svg" xmlns:xlink="http://www.w3.org/1999/xlink">
<g id="graph0" class="graph" transform="scale(1 1) rotate(0) translate(4 483)">
<title>xmmGmm.cpp</title>
<polygon fill="white" stroke="none" points="-4,4 -4,-483 813.165,-483 813.165,4 -4,4"/>
<!-- Node1 -->
<g id="node1" class="node"><title>Node1</title>
<polygon fill="#bfbfbf" stroke="black" points="379.088,-460.5 379.088,-478.5 460.088,-478.5 460.088,-460.5 379.088,-460.5"/>
<text text-anchor="middle" x="419.588" y="-466.5" font-family="Helvetica,sans-Serif" font-size="10.00">xmmGmm.cpp</text>
</g>
<!-- Node2 -->
<g id="node2" class="node"><title>Node2</title>
<g id="a_node2"><a xlink:href="xmm_gmm_8hpp.html" target="_top" xlink:title="xmmGmm.hpp">
<polygon fill="white" stroke="black" points="172.808,-405.5 172.808,-423.5 254.369,-423.5 254.369,-405.5 172.808,-405.5"/>
<text text-anchor="middle" x="213.588" y="-411.5" font-family="Helvetica,sans-Serif" font-size="10.00">xmmGmm.hpp</text>
</a>
</g>
</g>
<!-- Node1&#45;&gt;Node2 -->
<g id="edge1" class="edge"><title>Node1&#45;&gt;Node2</title>
<path fill="none" stroke="midnightblue" d="M388.301,-460.45C352.58,-451.26 294.012,-436.192 254.647,-426.064"/>
<polygon fill="midnightblue" stroke="midnightblue" points="255.388,-422.64 244.832,-423.538 253.644,-429.42 255.388,-422.64"/>
</g>
<!-- Node31 -->
<g id="node31" class="node"><title>Node31</title>
<g id="a_node31"><a xlink:href="xmm_k_means_8hpp.html" target="_top" xlink:title="xmmKMeans.hpp">
<polygon fill="white" stroke="black" points="475.685,-405.5 475.685,-423.5 569.492,-423.5 569.492,-405.5 475.685,-405.5"/>
<text text-anchor="middle" x="522.588" y="-411.5" font-family="Helvetica,sans-Serif" font-size="10.00">xmmKMeans.hpp</text>
</a>
</g>
</g>
<!-- Node1&#45;&gt;Node31 -->
<g id="edge46" class="edge"><title>Node1&#45;&gt;Node31</title>
<path fill="none" stroke="midnightblue" d="M435.232,-460.45C451.869,-451.89 478.417,-438.229 497.884,-428.212"/>
<polygon fill="midnightblue" stroke="midnightblue" points="499.507,-431.313 506.798,-423.625 496.304,-425.089 499.507,-431.313"/>
</g>
<!-- Node3 -->
<g id="node3" class="node"><title>Node3</title>
<g id="a_node3"><a xlink:href="xmm_model_8hpp.html" target="_top" xlink:title="../../core/model/xmmModel.hpp">
<polygon fill="white" stroke="black" points="340.951,-350.5 340.951,-368.5 494.226,-368.5 494.226,-350.5 340.951,-350.5"/>
<text text-anchor="middle" x="417.588" y="-356.5" font-family="Helvetica,sans-Serif" font-size="10.00">../../core/model/xmmModel.hpp</text>
</a>
</g>
</g>
<!-- Node2&#45;&gt;Node3 -->
<g id="edge2" class="edge"><title>Node2&#45;&gt;Node3</title>
<path fill="none" stroke="midnightblue" d="M244.572,-405.45C279.871,-396.279 337.699,-381.256 376.679,-371.128"/>
<polygon fill="midnightblue" stroke="midnightblue" points="377.85,-374.44 386.648,-368.538 376.09,-367.665 377.85,-374.44"/>
</g>
<!-- Node28 -->
<g id="node28" class="node"><title>Node28</title>
<g id="a_node28"><a xlink:href="xmm_gaussian_distribution_8hpp.html" target="_top" xlink:title="../../core/distributions\l/xmmGaussianDistribution.hpp">
<polygon fill="white" stroke="black" points="40.5049,-175.5 40.5049,-203.5 192.672,-203.5 192.672,-175.5 40.5049,-175.5"/>
<text text-anchor="start" x="48.5049" y="-191.5" font-family="Helvetica,sans-Serif" font-size="10.00">../../core/distributions</text>
<text text-anchor="middle" x="116.588" y="-181.5" font-family="Helvetica,sans-Serif" font-size="10.00">/xmmGaussianDistribution.hpp</text>
</a>
</g>
</g>
<!-- Node2&#45;&gt;Node28 -->
<g id="edge37" class="edge"><title>Node2&#45;&gt;Node28</title>
<path fill="none" stroke="midnightblue" d="M172.652,-409.121C125.22,-403.105 51.4027,-390.506 34.5884,-369 -4.8586,-318.546 57.6972,-246.058 93.8291,-211.015"/>
<polygon fill="midnightblue" stroke="midnightblue" points="96.6647,-213.15 101.518,-203.732 91.851,-208.068 96.6647,-213.15"/>
</g>
<!-- Node29 -->
<g id="node29" class="node"><title>Node29</title>
<g id="a_node29"><a xlink:href="xmm_gmm_single_class_8hpp.html" target="_top" xlink:title="xmmGmmSingleClass.hpp">
<polygon fill="white" stroke="black" points="43.4062,-350.5 43.4062,-368.5 177.771,-368.5 177.771,-350.5 43.4062,-350.5"/>
<text text-anchor="middle" x="110.588" y="-356.5" font-family="Helvetica,sans-Serif" font-size="10.00">xmmGmmSingleClass.hpp</text>
</a>
</g>
</g>
<!-- Node2&#45;&gt;Node29 -->
<g id="edge40" class="edge"><title>Node2&#45;&gt;Node29</title>
<path fill="none" stroke="midnightblue" d="M197.945,-405.45C181.308,-396.89 154.76,-383.229 135.293,-373.212"/>
<polygon fill="midnightblue" stroke="midnightblue" points="136.872,-370.089 126.379,-368.625 133.67,-376.313 136.872,-370.089"/>
</g>
<!-- Node4 -->
<g id="node4" class="node"><title>Node4</title>
<g id="a_node4"><a xlink:href="xmm_model_configuration_8hpp.html" target="_top" xlink:title="xmmModelConfiguration.hpp">
<polygon fill="white" stroke="black" points="395.667,-295.5 395.667,-313.5 539.509,-313.5 539.509,-295.5 395.667,-295.5"/>
<text text-anchor="middle" x="467.588" y="-301.5" font-family="Helvetica,sans-Serif" font-size="10.00">xmmModelConfiguration.hpp</text>
</a>
</g>
</g>
<!-- Node3&#45;&gt;Node4 -->
<g id="edge3" class="edge"><title>Node3&#45;&gt;Node4</title>
<path fill="none" stroke="midnightblue" d="M425.401,-350.219C432.782,-342.394 444.038,-330.463 453.068,-320.892"/>
<polygon fill="midnightblue" stroke="midnightblue" points="455.678,-323.225 459.994,-313.55 450.586,-318.422 455.678,-323.225"/>
</g>
<!-- Node15 -->
<g id="node15" class="node"><title>Node15</title>
<g id="a_node15"><a xlink:href="xmm_model_single_class_8hpp.html" target="_top" xlink:title="xmmModelSingleClass.hpp">
<polygon fill="white" stroke="black" points="596.007,-295.5 596.007,-313.5 733.169,-313.5 733.169,-295.5 596.007,-295.5"/>
<text text-anchor="middle" x="664.588" y="-301.5" font-family="Helvetica,sans-Serif" font-size="10.00">xmmModelSingleClass.hpp</text>
</a>
</g>
</g>
<!-- Node3&#45;&gt;Node15 -->
<g id="edge15" class="edge"><title>Node3&#45;&gt;Node15</title>
<path fill="none" stroke="midnightblue" d="M455.102,-350.45C498.479,-341.143 569.951,-325.807 617.15,-315.679"/>
<polygon fill="midnightblue" stroke="midnightblue" points="618.084,-319.058 627.127,-313.538 616.615,-312.214 618.084,-319.058"/>
</g>
<!-- Node26 -->
<g id="node26" class="node"><title>Node26</title>
<g id="a_node26"><a xlink:href="xmm_model_results_8hpp.html" target="_top" xlink:title="xmmModelResults.hpp">
<polygon fill="white" stroke="black" points="197.736,-295.5 197.736,-313.5 315.44,-313.5 315.44,-295.5 197.736,-295.5"/>
<text text-anchor="middle" x="256.588" y="-301.5" font-family="Helvetica,sans-Serif" font-size="10.00">xmmModelResults.hpp</text>
</a>
</g>
</g>
<!-- Node3&#45;&gt;Node26 -->
<g id="edge35" class="edge"><title>Node3&#45;&gt;Node26</title>
<path fill="none" stroke="midnightblue" d="M393.136,-350.45C365.87,-341.475 321.572,-326.892 290.858,-316.781"/>
<polygon fill="midnightblue" stroke="midnightblue" points="291.6,-313.341 281.007,-313.538 289.411,-319.99 291.6,-313.341"/>
</g>
<!-- Node27 -->
<g id="node27" class="node"><title>Node27</title>
<polygon fill="white" stroke="#bfbfbf" points="333.411,-295.5 333.411,-313.5 377.766,-313.5 377.766,-295.5 333.411,-295.5"/>
<text text-anchor="middle" x="355.588" y="-301.5" font-family="Helvetica,sans-Serif" font-size="10.00">thread</text>
</g>
<!-- Node3&#45;&gt;Node27 -->
<g id="edge36" class="edge"><title>Node3&#45;&gt;Node27</title>
<path fill="none" stroke="midnightblue" d="M408.172,-350.45C398.795,-342.434 384.187,-329.947 372.745,-320.166"/>
<polygon fill="midnightblue" stroke="midnightblue" points="374.969,-317.463 365.093,-313.625 370.42,-322.784 374.969,-317.463"/>
</g>
<!-- Node5 -->
<g id="node5" class="node"><title>Node5</title>
<g id="a_node5"><a xlink:href="xmm_model_parameters_8hpp.html" target="_top" xlink:title="xmmModelParameters.hpp">
<polygon fill="white" stroke="black" points="281.566,-240.5 281.566,-258.5 417.61,-258.5 417.61,-240.5 281.566,-240.5"/>
<text text-anchor="middle" x="349.588" y="-246.5" font-family="Helvetica,sans-Serif" font-size="10.00">xmmModelParameters.hpp</text>
</a>
</g>
</g>
<!-- Node4&#45;&gt;Node5 -->
<g id="edge4" class="edge"><title>Node4&#45;&gt;Node5</title>
<path fill="none" stroke="midnightblue" d="M449.667,-295.45C430.347,-286.773 399.361,-272.856 376.982,-262.804"/>
<polygon fill="midnightblue" stroke="midnightblue" points="378.235,-259.53 367.679,-258.625 375.367,-265.915 378.235,-259.53"/>
</g>
<!-- Node6 -->
<g id="node6" class="node"><title>Node6</title>
<g id="a_node6"><a xlink:href="xmm_json_8hpp.html" target="_top" xlink:title="../common/xmmJson.hpp">
<polygon fill="white" stroke="black" points="79.7363,-65.5 79.7363,-83.5 207.44,-83.5 207.44,-65.5 79.7363,-65.5"/>
<text text-anchor="middle" x="143.588" y="-71.5" font-family="Helvetica,sans-Serif" font-size="10.00">../common/xmmJson.hpp</text>
</a>
</g>
</g>
<!-- Node5&#45;&gt;Node6 -->
<g id="edge5" class="edge"><title>Node5&#45;&gt;Node6</title>
<path fill="none" stroke="midnightblue" d="M339.929,-240.388C307.631,-213.264 203.084,-125.465 161.189,-90.2813"/>
<polygon fill="midnightblue" stroke="midnightblue" points="163.375,-87.5467 153.467,-83.7959 158.874,-92.9072 163.375,-87.5467"/>
</g>
<!-- Node10 -->
<g id="node10" class="node"><title>Node10</title>
<g id="a_node10"><a xlink:href="xmm_attribute_8hpp.html" target="_top" xlink:title="../common/xmmAttribute.hpp">
<polygon fill="white" stroke="black" points="409.677,-65.5 409.677,-83.5 553.5,-83.5 553.5,-65.5 409.677,-65.5"/>
<text text-anchor="middle" x="481.588" y="-71.5" font-family="Helvetica,sans-Serif" font-size="10.00">../common/xmmAttribute.hpp</text>
</a>
</g>
</g>
<!-- Node5&#45;&gt;Node10 -->
<g id="edge9" class="edge"><title>Node5&#45;&gt;Node10</title>
<path fill="none" stroke="midnightblue" d="M355.955,-240.156C376.559,-213.152 441.678,-127.806 469.16,-91.789"/>
<polygon fill="midnightblue" stroke="midnightblue" points="472.002,-93.8336 475.286,-83.7604 466.437,-89.5874 472.002,-93.8336"/>
</g>
<!-- Node7 -->
<g id="node7" class="node"><title>Node7</title>
<polygon fill="white" stroke="#bfbfbf" points="0,-0.5 0,-28.5 117.177,-28.5 117.177,-0.5 0,-0.5"/>
<text text-anchor="start" x="8" y="-16.5" font-family="Helvetica,sans-Serif" font-size="10.00">../../../dependencies</text>
<text text-anchor="middle" x="58.5884" y="-6.5" font-family="Helvetica,sans-Serif" font-size="10.00">/jsoncpp/include/json.h</text>
</g>
<!-- Node6&#45;&gt;Node7 -->
<g id="edge6" class="edge"><title>Node6&#45;&gt;Node7</title>
<path fill="none" stroke="midnightblue" d="M131.769,-65.4353C120.101,-57.4733 101.825,-45.0029 86.4572,-34.5163"/>
<polygon fill="midnightblue" stroke="midnightblue" points="88.0494,-31.3657 77.8164,-28.6203 84.1039,-37.1478 88.0494,-31.3657"/>
</g>
<!-- Node8 -->
<g id="node8" class="node"><title>Node8</title>
<polygon fill="white" stroke="#bfbfbf" points="134.918,-5.5 134.918,-23.5 184.258,-23.5 184.258,-5.5 134.918,-5.5"/>
<text text-anchor="middle" x="159.588" y="-11.5" font-family="Helvetica,sans-Serif" font-size="10.00">fstream</text>
</g>
<!-- Node6&#45;&gt;Node8 -->
<g id="edge7" class="edge"><title>Node6&#45;&gt;Node8</title>
<path fill="none" stroke="midnightblue" d="M145.813,-65.4353C148.08,-57.2179 151.672,-44.1985 154.619,-33.5138"/>
<polygon fill="midnightblue" stroke="midnightblue" points="157.994,-34.4425 157.279,-23.8718 151.246,-32.5809 157.994,-34.4425"/>
</g>
<!-- Node9 -->
<g id="node9" class="node"><title>Node9</title>
<polygon fill="white" stroke="#bfbfbf" points="217.973,-5.5 217.973,-23.5 261.204,-23.5 261.204,-5.5 217.973,-5.5"/>
<text text-anchor="middle" x="239.588" y="-11.5" font-family="Helvetica,sans-Serif" font-size="10.00">vector</text>
</g>
<!-- Node6&#45;&gt;Node9 -->
<g id="edge8" class="edge"><title>Node6&#45;&gt;Node9</title>
<path fill="none" stroke="midnightblue" d="M156.937,-65.4353C172.539,-56.0091 198.6,-40.2641 217.289,-28.9728"/>
<polygon fill="midnightblue" stroke="midnightblue" points="219.295,-31.85 226.044,-23.6831 215.675,-25.8586 219.295,-31.85"/>
</g>
<!-- Node10&#45;&gt;Node9 -->
<g id="edge12" class="edge"><title>Node10&#45;&gt;Node9</title>
<path fill="none" stroke="midnightblue" d="M428.794,-65.4272C385.643,-58.103 323.367,-45.865 270.588,-29 268.974,-28.4841 267.329,-27.9128 265.682,-27.3052"/>
<polygon fill="midnightblue" stroke="midnightblue" points="266.988,-24.0583 256.405,-23.5608 264.368,-30.5494 266.988,-24.0583"/>
</g>
<!-- Node11 -->
<g id="node11" class="node"><title>Node11</title>
<polygon fill="white" stroke="#bfbfbf" points="356.187,-5.5 356.187,-23.5 414.99,-23.5 414.99,-5.5 356.187,-5.5"/>
<text text-anchor="middle" x="385.588" y="-11.5" font-family="Helvetica,sans-Serif" font-size="10.00">stdexcept</text>
</g>
<!-- Node10&#45;&gt;Node11 -->
<g id="edge10" class="edge"><title>Node10&#45;&gt;Node11</title>
<path fill="none" stroke="midnightblue" d="M468.24,-65.4353C452.638,-56.0091 426.577,-40.2641 407.888,-28.9728"/>
<polygon fill="midnightblue" stroke="midnightblue" points="409.502,-25.8586 399.133,-23.6831 405.882,-31.85 409.502,-25.8586"/>
</g>
<!-- Node12 -->
<g id="node12" class="node"><title>Node12</title>
<polygon fill="white" stroke="#bfbfbf" points="433.202,-5.5 433.202,-23.5 471.975,-23.5 471.975,-5.5 433.202,-5.5"/>
<text text-anchor="middle" x="452.588" y="-11.5" font-family="Helvetica,sans-Serif" font-size="10.00">limits</text>
</g>
<!-- Node10&#45;&gt;Node12 -->
<g id="edge11" class="edge"><title>Node10&#45;&gt;Node12</title>
<path fill="none" stroke="midnightblue" d="M477.556,-65.4353C473.362,-57.0467 466.665,-43.6539 461.263,-32.8491"/>
<polygon fill="midnightblue" stroke="midnightblue" points="464.377,-31.2508 456.774,-23.8718 458.116,-34.3813 464.377,-31.2508"/>
</g>
<!-- Node13 -->
<g id="node13" class="node"><title>Node13</title>
<polygon fill="white" stroke="#bfbfbf" points="490.362,-5.5 490.362,-23.5 530.815,-23.5 530.815,-5.5 490.362,-5.5"/>
<text text-anchor="middle" x="510.588" y="-11.5" font-family="Helvetica,sans-Serif" font-size="10.00">string</text>
</g>
<!-- Node10&#45;&gt;Node13 -->
<g id="edge13" class="edge"><title>Node10&#45;&gt;Node13</title>
<path fill="none" stroke="midnightblue" d="M485.621,-65.4353C489.815,-57.0467 496.511,-43.6539 501.914,-32.8491"/>
<polygon fill="midnightblue" stroke="midnightblue" points="505.061,-34.3813 506.403,-23.8718 498.8,-31.2508 505.061,-34.3813"/>
</g>
<!-- Node14 -->
<g id="node14" class="node"><title>Node14</title>
<polygon fill="white" stroke="#bfbfbf" points="549.185,-5.5 549.185,-23.5 607.992,-23.5 607.992,-5.5 549.185,-5.5"/>
<text text-anchor="middle" x="578.588" y="-11.5" font-family="Helvetica,sans-Serif" font-size="10.00">functional</text>
</g>
<!-- Node10&#45;&gt;Node14 -->
<g id="edge14" class="edge"><title>Node10&#45;&gt;Node14</title>
<path fill="none" stroke="midnightblue" d="M495.076,-65.4353C510.912,-55.9661 537.413,-40.1201 556.315,-28.8184"/>
<polygon fill="midnightblue" stroke="midnightblue" points="558.116,-31.8191 564.903,-23.6831 554.524,-25.8112 558.116,-31.8191"/>
</g>
<!-- Node16 -->
<g id="node16" class="node"><title>Node16</title>
<g id="a_node16"><a xlink:href="xmm_circularbuffer_8hpp.html" target="_top" xlink:title="../common/xmmCircularbuffer.hpp">
<polygon fill="white" stroke="black" points="225.649,-65.5 225.649,-83.5 391.527,-83.5 391.527,-65.5 225.649,-65.5"/>
<text text-anchor="middle" x="308.588" y="-71.5" font-family="Helvetica,sans-Serif" font-size="10.00">../common/xmmCircularbuffer.hpp</text>
</a>
</g>
</g>
<!-- Node15&#45;&gt;Node16 -->
<g id="edge16" class="edge"><title>Node15&#45;&gt;Node16</title>
<path fill="none" stroke="midnightblue" d="M642.444,-295.426C621.329,-287.364 588.934,-274.032 562.588,-259 467.944,-204.998 365.906,-123.163 325.986,-90.11"/>
<polygon fill="midnightblue" stroke="midnightblue" points="328.154,-87.3607 318.23,-83.6523 323.675,-92.7404 328.154,-87.3607"/>
</g>
<!-- Node18 -->
<g id="node18" class="node"><title>Node18</title>
<g id="a_node18"><a xlink:href="xmm_training_set_8hpp.html" target="_top" xlink:title="../trainingset/xmmTraining\lSet.hpp">
<polygon fill="white" stroke="black" points="532.252,-175.5 532.252,-203.5 662.925,-203.5 662.925,-175.5 532.252,-175.5"/>
<text text-anchor="start" x="540.252" y="-191.5" font-family="Helvetica,sans-Serif" font-size="10.00">../trainingset/xmmTraining</text>
<text text-anchor="middle" x="597.588" y="-181.5" font-family="Helvetica,sans-Serif" font-size="10.00">Set.hpp</text>
</a>
</g>
</g>
<!-- Node15&#45;&gt;Node18 -->
<g id="edge20" class="edge"><title>Node15&#45;&gt;Node18</title>
<path fill="none" stroke="midnightblue" d="M625.419,-295.449C605.354,-289.127 582.66,-278.07 570.588,-259 561.246,-244.242 569.569,-225.723 579.361,-211.662"/>
<polygon fill="midnightblue" stroke="midnightblue" points="582.253,-213.641 585.503,-203.557 576.673,-209.414 582.253,-213.641"/>
</g>
<!-- Node20 -->
<g id="node20" class="node"><title>Node20</title>
<g id="a_node20"><a xlink:href="xmm_events_8hpp.html" target="_top" xlink:title="../common/xmmEvents.hpp">
<polygon fill="white" stroke="black" points="672.012,-65.5 672.012,-83.5 809.165,-83.5 809.165,-65.5 672.012,-65.5"/>
<text text-anchor="middle" x="740.588" y="-71.5" font-family="Helvetica,sans-Serif" font-size="10.00">../common/xmmEvents.hpp</text>
</a>
</g>
</g>
<!-- Node15&#45;&gt;Node20 -->
<g id="edge29" class="edge"><title>Node15&#45;&gt;Node20</title>
<path fill="none" stroke="midnightblue" d="M707.563,-295.44C730.319,-289.105 757.097,-278.039 774.588,-259 800.359,-230.951 800.525,-212.027 791.588,-175 784.03,-143.684 764.838,-111.154 752.272,-92.1456"/>
<polygon fill="midnightblue" stroke="midnightblue" points="755.075,-90.043 746.559,-83.7401 749.286,-93.978 755.075,-90.043"/>
</g>
<!-- Node24 -->
<g id="node24" class="node"><title>Node24</title>
<g id="a_node24"><a xlink:href="xmm_model_shared_parameters_8hpp.html" target="_top" xlink:title="xmmModelSharedParameters.hpp">
<polygon fill="white" stroke="black" points="579.443,-240.5 579.443,-258.5 747.733,-258.5 747.733,-240.5 579.443,-240.5"/>
<text text-anchor="middle" x="663.588" y="-246.5" font-family="Helvetica,sans-Serif" font-size="10.00">xmmModelSharedParameters.hpp</text>
</a>
</g>
</g>
<!-- Node15&#45;&gt;Node24 -->
<g id="edge30" class="edge"><title>Node15&#45;&gt;Node24</title>
<path fill="none" stroke="midnightblue" d="M664.432,-295.219C664.299,-288.177 664.104,-277.808 663.934,-268.828"/>
<polygon fill="midnightblue" stroke="midnightblue" points="667.428,-268.482 663.74,-258.55 660.43,-268.614 667.428,-268.482"/>
</g>
<!-- Node25 -->
<g id="node25" class="node"><title>Node25</title>
<polygon fill="white" stroke="#bfbfbf" points="738.973,-180.5 738.973,-198.5 782.204,-198.5 782.204,-180.5 738.973,-180.5"/>
<text text-anchor="middle" x="760.588" y="-186.5" font-family="Helvetica,sans-Serif" font-size="10.00">mutex</text>
</g>
<!-- Node15&#45;&gt;Node25 -->
<g id="edge34" class="edge"><title>Node15&#45;&gt;Node25</title>
<path fill="none" stroke="midnightblue" d="M701.122,-295.41C720.966,-289.005 743.966,-277.88 756.588,-259 766.402,-244.321 766.192,-223.678 764.277,-208.897"/>
<polygon fill="midnightblue" stroke="midnightblue" points="767.713,-208.221 762.617,-198.932 760.808,-209.371 767.713,-208.221"/>
</g>
<!-- Node16&#45;&gt;Node9 -->
<g id="edge17" class="edge"><title>Node16&#45;&gt;Node9</title>
<path fill="none" stroke="midnightblue" d="M298.994,-65.4353C288.302,-56.4475 270.775,-41.7151 257.524,-30.5762"/>
<polygon fill="midnightblue" stroke="midnightblue" points="259.455,-27.6271 249.548,-23.8718 254.951,-32.9855 259.455,-27.6271"/>
</g>
<!-- Node16&#45;&gt;Node11 -->
<g id="edge19" class="edge"><title>Node16&#45;&gt;Node11</title>
<path fill="none" stroke="midnightblue" d="M319.295,-65.4353C331.454,-56.2763 351.533,-41.1518 366.413,-29.9437"/>
<polygon fill="midnightblue" stroke="midnightblue" points="368.592,-32.684 374.474,-23.8718 364.381,-27.0927 368.592,-32.684"/>
</g>
<!-- Node17 -->
<g id="node17" class="node"><title>Node17</title>
<polygon fill="white" stroke="#bfbfbf" points="279.185,-5.5 279.185,-23.5 337.992,-23.5 337.992,-5.5 279.185,-5.5"/>
<text text-anchor="middle" x="308.588" y="-11.5" font-family="Helvetica,sans-Serif" font-size="10.00">exception</text>
</g>
<!-- Node16&#45;&gt;Node17 -->
<g id="edge18" class="edge"><title>Node16&#45;&gt;Node17</title>
<path fill="none" stroke="midnightblue" d="M308.588,-65.4353C308.588,-57.3891 308.588,-44.7388 308.588,-34.1846"/>
<polygon fill="midnightblue" stroke="midnightblue" points="312.088,-33.8717 308.588,-23.8718 305.088,-33.8718 312.088,-33.8717"/>
</g>
<!-- Node19 -->
<g id="node19" class="node"><title>Node19</title>
<g id="a_node19"><a xlink:href="xmm_phrase_8hpp.html" target="_top" xlink:title="xmmPhrase.hpp">
<polygon fill="white" stroke="black" points="473.185,-120.5 473.185,-138.5 561.992,-138.5 561.992,-120.5 473.185,-120.5"/>
<text text-anchor="middle" x="517.588" y="-126.5" font-family="Helvetica,sans-Serif" font-size="10.00">xmmPhrase.hpp</text>
</a>
</g>
</g>
<!-- Node18&#45;&gt;Node19 -->
<g id="edge21" class="edge"><title>Node18&#45;&gt;Node19</title>
<path fill="none" stroke="midnightblue" d="M579.435,-175.339C566.85,-166.215 550.102,-154.072 537.209,-144.725"/>
<polygon fill="midnightblue" stroke="midnightblue" points="539.148,-141.808 528.997,-138.771 535.039,-147.475 539.148,-141.808"/>
</g>
<!-- Node21 -->
<g id="node21" class="node"><title>Node21</title>
<polygon fill="white" stroke="#bfbfbf" points="676.918,-5.5 676.918,-23.5 706.258,-23.5 706.258,-5.5 676.918,-5.5"/>
<text text-anchor="middle" x="691.588" y="-11.5" font-family="Helvetica,sans-Serif" font-size="10.00">set</text>
</g>
<!-- Node18&#45;&gt;Node21 -->
<g id="edge28" class="edge"><title>Node18&#45;&gt;Node21</title>
<path fill="none" stroke="midnightblue" d="M605.013,-175.103C610.489,-165.172 618.085,-151.285 624.588,-139 641.886,-106.324 644.793,-97.4071 662.588,-65 668.566,-54.1144 675.6,-42.09 681.244,-32.6183"/>
<polygon fill="midnightblue" stroke="midnightblue" points="684.375,-34.2025 686.519,-23.8268 678.373,-30.6008 684.375,-34.2025"/>
</g>
<!-- Node23 -->
<g id="node23" class="node"><title>Node23</title>
<polygon fill="white" stroke="#bfbfbf" points="579.862,-120.5 579.862,-138.5 615.315,-138.5 615.315,-120.5 579.862,-120.5"/>
<text text-anchor="middle" x="597.588" y="-126.5" font-family="Helvetica,sans-Serif" font-size="10.00">map</text>
</g>
<!-- Node18&#45;&gt;Node23 -->
<g id="edge27" class="edge"><title>Node18&#45;&gt;Node23</title>
<path fill="none" stroke="midnightblue" d="M597.588,-175.339C597.588,-167.531 597.588,-157.512 597.588,-148.927"/>
<polygon fill="midnightblue" stroke="midnightblue" points="601.088,-148.771 597.588,-138.771 594.088,-148.772 601.088,-148.771"/>
</g>
<!-- Node19&#45;&gt;Node6 -->
<g id="edge22" class="edge"><title>Node19&#45;&gt;Node6</title>
<path fill="none" stroke="midnightblue" d="M472.847,-122.16C407.623,-112.917 285.972,-95.6773 210.197,-84.9393"/>
<polygon fill="midnightblue" stroke="midnightblue" points="210.67,-81.4713 200.278,-83.5335 209.688,-88.4021 210.67,-81.4713"/>
</g>
<!-- Node19&#45;&gt;Node10 -->
<g id="edge23" class="edge"><title>Node19&#45;&gt;Node10</title>
<path fill="none" stroke="midnightblue" d="M511.963,-120.219C506.861,-112.707 499.188,-101.411 492.831,-92.0515"/>
<polygon fill="midnightblue" stroke="midnightblue" points="495.57,-89.8551 487.056,-83.5496 489.78,-93.7883 495.57,-89.8551"/>
</g>
<!-- Node19&#45;&gt;Node20 -->
<g id="edge24" class="edge"><title>Node19&#45;&gt;Node20</title>
<path fill="none" stroke="midnightblue" d="M551.457,-120.45C590.373,-111.201 654.336,-95.9994 696.953,-85.8708"/>
<polygon fill="midnightblue" stroke="midnightblue" points="697.847,-89.2558 706.767,-83.5383 696.228,-82.4455 697.847,-89.2558"/>
</g>
<!-- Node22 -->
<g id="node22" class="node"><title>Node22</title>
<polygon fill="white" stroke="#bfbfbf" points="571.973,-65.5 571.973,-83.5 615.204,-83.5 615.204,-65.5 571.973,-65.5"/>
<text text-anchor="middle" x="593.588" y="-71.5" font-family="Helvetica,sans-Serif" font-size="10.00">cmath</text>
</g>
<!-- Node19&#45;&gt;Node22 -->
<g id="edge26" class="edge"><title>Node19&#45;&gt;Node22</title>
<path fill="none" stroke="midnightblue" d="M529.131,-120.45C540.849,-112.279 559.23,-99.4604 573.37,-89.5996"/>
<polygon fill="midnightblue" stroke="midnightblue" points="575.737,-92.2163 581.937,-83.6253 571.732,-86.4746 575.737,-92.2163"/>
</g>
<!-- Node20&#45;&gt;Node21 -->
<g id="edge25" class="edge"><title>Node20&#45;&gt;Node21</title>
<path fill="none" stroke="midnightblue" d="M733.775,-65.4353C726.399,-56.7043 714.443,-42.5523 705.139,-31.5395"/>
<polygon fill="midnightblue" stroke="midnightblue" points="707.788,-29.2519 698.661,-23.8718 702.441,-33.7694 707.788,-29.2519"/>
</g>
<!-- Node24&#45;&gt;Node18 -->
<g id="edge31" class="edge"><title>Node24&#45;&gt;Node18</title>
<path fill="none" stroke="midnightblue" d="M654.411,-240.435C645.663,-232.747 632.131,-220.855 620.467,-210.605"/>
<polygon fill="midnightblue" stroke="midnightblue" points="622.594,-207.815 612.772,-203.843 617.973,-213.073 622.594,-207.815"/>
</g>
<!-- Node24&#45;&gt;Node20 -->
<g id="edge32" class="edge"><title>Node24&#45;&gt;Node20</title>
<path fill="none" stroke="midnightblue" d="M667.302,-240.156C679.169,-213.495 716.346,-129.967 732.716,-93.1863"/>
<polygon fill="midnightblue" stroke="midnightblue" points="736.043,-94.3196 736.912,-83.7604 729.648,-91.4732 736.043,-94.3196"/>
</g>
<!-- Node24&#45;&gt;Node25 -->
<g id="edge33" class="edge"><title>Node24&#45;&gt;Node25</title>
<path fill="none" stroke="midnightblue" d="M677.076,-240.435C692.912,-230.966 719.413,-215.12 738.315,-203.818"/>
<polygon fill="midnightblue" stroke="midnightblue" points="740.116,-206.819 746.903,-198.683 736.524,-200.811 740.116,-206.819"/>
</g>
<!-- Node28&#45;&gt;Node6 -->
<g id="edge38" class="edge"><title>Node28&#45;&gt;Node6</title>
<path fill="none" stroke="midnightblue" d="M119.792,-175.094C124.641,-154.796 133.856,-116.231 139.286,-93.506"/>
<polygon fill="midnightblue" stroke="midnightblue" points="142.692,-94.3116 141.612,-83.772 135.884,-92.6848 142.692,-94.3116"/>
</g>
<!-- Node28&#45;&gt;Node10 -->
<g id="edge39" class="edge"><title>Node28&#45;&gt;Node10</title>
<path fill="none" stroke="midnightblue" d="M158.815,-175.427C231.283,-152.992 378.056,-107.552 445.819,-86.5738"/>
<polygon fill="midnightblue" stroke="midnightblue" points="447.092,-89.8437 455.609,-83.5428 445.022,-83.1568 447.092,-89.8437"/>
</g>
<!-- Node29&#45;&gt;Node15 -->
<g id="edge41" class="edge"><title>Node29&#45;&gt;Node15</title>
<path fill="none" stroke="midnightblue" d="M178.126,-350.881C180.985,-350.579 183.815,-350.284 186.588,-350 326.981,-335.615 490.78,-320.791 585.597,-312.402"/>
<polygon fill="midnightblue" stroke="midnightblue" points="586.029,-315.877 595.683,-311.511 585.413,-308.904 586.029,-315.877"/>
</g>
<!-- Node29&#45;&gt;Node26 -->
<g id="edge42" class="edge"><title>Node29&#45;&gt;Node26</title>
<path fill="none" stroke="midnightblue" d="M132.763,-350.45C157.203,-341.578 196.732,-327.229 224.54,-317.134"/>
<polygon fill="midnightblue" stroke="midnightblue" points="226,-320.328 234.205,-313.625 223.611,-313.748 226,-320.328"/>
</g>
<!-- Node30 -->
<g id="node30" class="node"><title>Node30</title>
<g id="a_node30"><a xlink:href="xmm_gmm_parameters_8hpp.html" target="_top" xlink:title="xmmGmmParameters.hpp">
<polygon fill="white" stroke="black" points="46.9653,-295.5 46.9653,-313.5 180.211,-313.5 180.211,-295.5 46.9653,-295.5"/>
<text text-anchor="middle" x="113.588" y="-301.5" font-family="Helvetica,sans-Serif" font-size="10.00">xmmGmmParameters.hpp</text>
</a>
</g>
</g>
<!-- Node29&#45;&gt;Node30 -->
<g id="edge43" class="edge"><title>Node29&#45;&gt;Node30</title>
<path fill="none" stroke="midnightblue" d="M111.057,-350.219C111.456,-343.177 112.043,-332.808 112.551,-323.828"/>
<polygon fill="midnightblue" stroke="midnightblue" points="116.062,-323.731 113.133,-313.55 109.073,-323.336 116.062,-323.731"/>
</g>
<!-- Node30&#45;&gt;Node5 -->
<g id="edge44" class="edge"><title>Node30&#45;&gt;Node5</title>
<path fill="none" stroke="midnightblue" d="M149.432,-295.45C190.79,-286.162 258.88,-270.871 303.979,-260.743"/>
<polygon fill="midnightblue" stroke="midnightblue" points="304.805,-264.145 313.795,-258.538 303.271,-257.315 304.805,-264.145"/>
</g>
<!-- Node30&#45;&gt;Node28 -->
<g id="edge45" class="edge"><title>Node30&#45;&gt;Node28</title>
<path fill="none" stroke="midnightblue" d="M113.804,-295.373C114.251,-278.534 115.293,-239.285 115.968,-213.869"/>
<polygon fill="midnightblue" stroke="midnightblue" points="119.474,-213.7 116.24,-203.611 112.476,-213.515 119.474,-213.7"/>
</g>
<!-- Node31&#45;&gt;Node4 -->
<g id="edge48" class="edge"><title>Node31&#45;&gt;Node4</title>
<path fill="none" stroke="midnightblue" d="M521.193,-405.293C518.841,-392.804 513.361,-368.523 503.588,-350 498.082,-339.563 489.938,-329.234 482.788,-321.158"/>
<polygon fill="midnightblue" stroke="midnightblue" points="485.206,-318.617 475.849,-313.647 480.065,-323.368 485.206,-318.617"/>
</g>
<!-- Node31&#45;&gt;Node15 -->
<g id="edge47" class="edge"><title>Node31&#45;&gt;Node15</title>
<path fill="none" stroke="midnightblue" d="M569.642,-408.613C618.147,-402.489 688.97,-390.144 705.588,-369 718.156,-353.01 700.479,-333.107 684.572,-319.89"/>
<polygon fill="midnightblue" stroke="midnightblue" points="686.618,-317.046 676.585,-313.643 682.306,-322.56 686.618,-317.046"/>
</g>
<!-- Node32 -->
<g id="node32" class="node"><title>Node32</title>
<g id="a_node32"><a xlink:href="xmm_k_means_parameters_8hpp.html" target="_top" xlink:title="xmmKMeansParameters.hpp">
<polygon fill="white" stroke="black" points="550.842,-350.5 550.842,-368.5 696.334,-368.5 696.334,-350.5 550.842,-350.5"/>
<text text-anchor="middle" x="623.588" y="-356.5" font-family="Helvetica,sans-Serif" font-size="10.00">xmmKMeansParameters.hpp</text>
</a>
</g>
</g>
<!-- Node31&#45;&gt;Node32 -->
<g id="edge49" class="edge"><title>Node31&#45;&gt;Node32</title>
<path fill="none" stroke="midnightblue" d="M537.928,-405.45C554.168,-396.929 580.038,-383.353 599.103,-373.349"/>
<polygon fill="midnightblue" stroke="midnightblue" points="600.876,-376.371 608.104,-368.625 597.623,-370.173 600.876,-376.371"/>
</g>
<!-- Node33 -->
<g id="node33" class="node"><title>Node33</title>
<g id="a_node33"><a xlink:href="xmm_k_means_results_8hpp.html" target="_top" xlink:title="xmmKMeansResults.hpp">
<polygon fill="white" stroke="black" points="196.012,-350.5 196.012,-368.5 323.165,-368.5 323.165,-350.5 196.012,-350.5"/>
<text text-anchor="middle" x="259.588" y="-356.5" font-family="Helvetica,sans-Serif" font-size="10.00">xmmKMeansResults.hpp</text>
</a>
</g>
</g>
<!-- Node31&#45;&gt;Node33 -->
<g id="edge51" class="edge"><title>Node31&#45;&gt;Node33</title>
<path fill="none" stroke="midnightblue" d="M482.644,-405.45C436.264,-396.104 359.717,-380.678 309.469,-370.552"/>
<polygon fill="midnightblue" stroke="midnightblue" points="309.971,-367.083 299.477,-368.538 308.588,-373.945 309.971,-367.083"/>
</g>
<!-- Node32&#45;&gt;Node5 -->
<g id="edge50" class="edge"><title>Node32&#45;&gt;Node5</title>
<path fill="none" stroke="midnightblue" d="M616.604,-350.461C604.295,-336.83 577.311,-309.276 548.588,-295 511.048,-276.341 465.657,-265.422 427.712,-259.076"/>
<polygon fill="midnightblue" stroke="midnightblue" points="428.155,-255.602 417.728,-257.482 427.051,-262.515 428.155,-255.602"/>
</g>
<!-- Node33&#45;&gt;Node26 -->
<g id="edge52" class="edge"><title>Node33&#45;&gt;Node26</title>
<path fill="none" stroke="midnightblue" d="M259.12,-350.219C258.721,-343.177 258.134,-332.808 257.626,-323.828"/>
<polygon fill="midnightblue" stroke="midnightblue" points="261.104,-323.336 257.044,-313.55 254.115,-323.731 261.104,-323.336"/>
</g>
</g>
</svg>
