<?xml version="1.0" encoding="UTF-8" standalone="no"?>
<!DOCTYPE svg PUBLIC "-//W3C//DTD SVG 1.1//EN"
 "http://www.w3.org/Graphics/SVG/1.1/DTD/svg11.dtd">
<!-- Generated by graphviz version 2.38.0 (20140413.2041)
 -->
<!-- Title: xmmKMeans.hpp Pages: 1 -->
<svg width="791pt" height="397pt"
 viewBox="0.00 0.00 790.98 397.00" xmlns="http://www.w3.org/2000/svg" xmlns:xlink="http://www.w3.org/1999/xlink">
<g id="graph0" class="graph" transform="scale(1 1) rotate(0) translate(4 393)">
<title>xmmKMeans.hpp</title>
<polygon fill="white" stroke="none" points="-4,4 -4,-393 786.98,-393 786.98,4 -4,4"/>
<!-- Node1 -->
<g id="node1" class="node"><title>Node1</title>
<polygon fill="#bfbfbf" stroke="black" points="455.672,-370.5 455.672,-388.5 549.48,-388.5 549.48,-370.5 455.672,-370.5"/>
<text text-anchor="middle" x="502.576" y="-376.5" font-family="Helvetica,sans-Serif" font-size="10.00">xmmKMeans.hpp</text>
</g>
<!-- Node2 -->
<g id="node2" class="node"><title>Node2</title>
<g id="a_node2"><a xlink:href="xmm_model_single_class_8hpp.html" target="_top" xlink:title="../../core/model/xmmModel\lSingleClass.hpp">
<polygon fill="white" stroke="black" points="172.67,-305.5 172.67,-333.5 306.482,-333.5 306.482,-305.5 172.67,-305.5"/>
<text text-anchor="start" x="180.67" y="-321.5" font-family="Helvetica,sans-Serif" font-size="10.00">../../core/model/xmmModel</text>
<text text-anchor="middle" x="239.576" y="-311.5" font-family="Helvetica,sans-Serif" font-size="10.00">SingleClass.hpp</text>
</a>
</g>
</g>
<!-- Node1&#45;&gt;Node2 -->
<g id="edge1" class="edge"><title>Node1&#45;&gt;Node2</title>
<path fill="none" stroke="midnightblue" d="M466.283,-370.496C425.727,-361.552 359.128,-346.865 308.582,-335.718"/>
<polygon fill="midnightblue" stroke="midnightblue" points="309.218,-332.274 298.699,-333.538 307.711,-339.11 309.218,-332.274"/>
</g>
<!-- Node22 -->
<g id="node22" class="node"><title>Node22</title>
<g id="a_node22"><a xlink:href="xmm_model_configuration_8hpp.html" target="_top" xlink:title="../../core/model/xmmModel\lConfiguration.hpp">
<polygon fill="white" stroke="black" points="391.67,-240.5 391.67,-268.5 525.482,-268.5 525.482,-240.5 391.67,-240.5"/>
<text text-anchor="start" x="399.67" y="-256.5" font-family="Helvetica,sans-Serif" font-size="10.00">../../core/model/xmmModel</text>
<text text-anchor="middle" x="458.576" y="-246.5" font-family="Helvetica,sans-Serif" font-size="10.00">Configuration.hpp</text>
</a>
</g>
</g>
<!-- Node1&#45;&gt;Node22 -->
<g id="edge29" class="edge"><title>Node1&#45;&gt;Node22</title>
<path fill="none" stroke="midnightblue" d="M495.162,-370.307C487.942,-361.849 477.252,-347.955 471.576,-334 464.387,-316.325 461.172,-294.871 459.734,-278.861"/>
<polygon fill="midnightblue" stroke="midnightblue" points="463.216,-278.478 458.996,-268.76 456.234,-278.989 463.216,-278.478"/>
</g>
<!-- Node24 -->
<g id="node24" class="node"><title>Node24</title>
<g id="a_node24"><a xlink:href="xmm_k_means_parameters_8hpp.html" target="_top" xlink:title="xmmKMeansParameters.hpp">
<polygon fill="white" stroke="black" points="480.83,-310.5 480.83,-328.5 626.322,-328.5 626.322,-310.5 480.83,-310.5"/>
<text text-anchor="middle" x="553.576" y="-316.5" font-family="Helvetica,sans-Serif" font-size="10.00">xmmKMeansParameters.hpp</text>
</a>
</g>
</g>
<!-- Node1&#45;&gt;Node24 -->
<g id="edge33" class="edge"><title>Node1&#45;&gt;Node24</title>
<path fill="none" stroke="midnightblue" d="M509.668,-370.435C517.345,-361.704 529.789,-347.552 539.472,-336.54"/>
<polygon fill="midnightblue" stroke="midnightblue" points="542.24,-338.693 546.215,-328.872 536.983,-334.07 542.24,-338.693"/>
</g>
<!-- Node25 -->
<g id="node25" class="node"><title>Node25</title>
<g id="a_node25"><a xlink:href="xmm_k_means_results_8hpp.html" target="_top" xlink:title="xmmKMeansResults.hpp">
<polygon fill="white" stroke="black" points="644,-310.5 644,-328.5 771.152,-328.5 771.152,-310.5 644,-310.5"/>
<text text-anchor="middle" x="707.576" y="-316.5" font-family="Helvetica,sans-Serif" font-size="10.00">xmmKMeansResults.hpp</text>
</a>
</g>
</g>
<!-- Node1&#45;&gt;Node25 -->
<g id="edge35" class="edge"><title>Node1&#45;&gt;Node25</title>
<path fill="none" stroke="midnightblue" d="M531.081,-370.435C567.085,-360.249 629.172,-342.683 669.288,-331.333"/>
<polygon fill="midnightblue" stroke="midnightblue" points="670.315,-334.68 678.984,-328.589 668.409,-327.944 670.315,-334.68"/>
</g>
<!-- Node3 -->
<g id="node3" class="node"><title>Node3</title>
<g id="a_node3"><a xlink:href="xmm_circularbuffer_8hpp.html" target="_top" xlink:title="../common/xmmCircularbuffer.hpp">
<polygon fill="white" stroke="black" points="400.637,-65.5 400.637,-83.5 566.515,-83.5 566.515,-65.5 400.637,-65.5"/>
<text text-anchor="middle" x="483.576" y="-71.5" font-family="Helvetica,sans-Serif" font-size="10.00">../common/xmmCircularbuffer.hpp</text>
</a>
</g>
</g>
<!-- Node2&#45;&gt;Node3 -->
<g id="edge2" class="edge"><title>Node2&#45;&gt;Node3</title>
<path fill="none" stroke="midnightblue" d="M254.122,-305.211C264.856,-295.333 279.761,-281.466 292.576,-269 359.327,-204.069 436.627,-124.299 468.575,-91.1222"/>
<polygon fill="midnightblue" stroke="midnightblue" points="471.277,-93.3621 475.687,-83.7285 466.232,-88.5096 471.277,-93.3621"/>
</g>
<!-- Node7 -->
<g id="node7" class="node"><title>Node7</title>
<g id="a_node7"><a xlink:href="xmm_training_set_8hpp.html" target="_top" xlink:title="../trainingset/xmmTraining\lSet.hpp">
<polygon fill="white" stroke="black" points="172.24,-175.5 172.24,-203.5 302.913,-203.5 302.913,-175.5 172.24,-175.5"/>
<text text-anchor="start" x="180.24" y="-191.5" font-family="Helvetica,sans-Serif" font-size="10.00">../trainingset/xmmTraining</text>
<text text-anchor="middle" x="237.576" y="-181.5" font-family="Helvetica,sans-Serif" font-size="10.00">Set.hpp</text>
</a>
</g>
</g>
<!-- Node2&#45;&gt;Node7 -->
<g id="edge6" class="edge"><title>Node2&#45;&gt;Node7</title>
<path fill="none" stroke="midnightblue" d="M253.31,-305.195C261.818,-295.951 271.973,-282.847 276.576,-269 280.642,-256.769 280.797,-252.178 276.576,-240 272.922,-229.456 265.988,-219.456 258.968,-211.24"/>
<polygon fill="midnightblue" stroke="midnightblue" points="261.371,-208.681 252.038,-203.666 256.206,-213.406 261.371,-208.681"/>
</g>
<!-- Node16 -->
<g id="node16" class="node"><title>Node16</title>
<g id="a_node16"><a xlink:href="xmm_events_8hpp.html" target="_top" xlink:title="../common/xmmEvents.hpp">
<polygon fill="white" stroke="black" points="0,-65.5 0,-83.5 137.152,-83.5 137.152,-65.5 0,-65.5"/>
<text text-anchor="middle" x="68.5762" y="-71.5" font-family="Helvetica,sans-Serif" font-size="10.00">../common/xmmEvents.hpp</text>
</a>
</g>
</g>
<!-- Node2&#45;&gt;Node16 -->
<g id="edge23" class="edge"><title>Node2&#45;&gt;Node16</title>
<path fill="none" stroke="midnightblue" d="M172.449,-311.725C139.619,-305.344 101.485,-292.972 74.5762,-269 24.5694,-224.45 48.776,-132.016 61.9614,-93.2346"/>
<polygon fill="midnightblue" stroke="midnightblue" points="65.2624,-94.3979 65.3173,-83.8032 58.6674,-92.0512 65.2624,-94.3979"/>
</g>
<!-- Node20 -->
<g id="node20" class="node"><title>Node20</title>
<g id="a_node20"><a xlink:href="xmm_model_shared_parameters_8hpp.html" target="_top" xlink:title="xmmModelSharedParameters.hpp">
<polygon fill="white" stroke="black" points="99.4312,-245.5 99.4312,-263.5 267.721,-263.5 267.721,-245.5 99.4312,-245.5"/>
<text text-anchor="middle" x="183.576" y="-251.5" font-family="Helvetica,sans-Serif" font-size="10.00">xmmModelSharedParameters.hpp</text>
</a>
</g>
</g>
<!-- Node2&#45;&gt;Node20 -->
<g id="edge24" class="edge"><title>Node2&#45;&gt;Node20</title>
<path fill="none" stroke="midnightblue" d="M227.973,-305.446C219.176,-295.55 207.045,-281.902 197.686,-271.374"/>
<polygon fill="midnightblue" stroke="midnightblue" points="200.151,-268.879 190.892,-263.73 194.92,-273.529 200.151,-268.879"/>
</g>
<!-- Node21 -->
<g id="node21" class="node"><title>Node21</title>
<polygon fill="white" stroke="#bfbfbf" points="55.9604,-180.5 55.9604,-198.5 99.1919,-198.5 99.1919,-180.5 55.9604,-180.5"/>
<text text-anchor="middle" x="77.5762" y="-186.5" font-family="Helvetica,sans-Serif" font-size="10.00">mutex</text>
</g>
<!-- Node2&#45;&gt;Node21 -->
<g id="edge28" class="edge"><title>Node2&#45;&gt;Node21</title>
<path fill="none" stroke="midnightblue" d="M172.298,-311.681C143.076,-305.241 110.94,-292.832 90.5762,-269 76.4423,-252.459 74.779,-226.558 75.5915,-209.075"/>
<polygon fill="midnightblue" stroke="midnightblue" points="79.0903,-209.226 76.3768,-198.985 72.1114,-208.683 79.0903,-209.226"/>
</g>
<!-- Node4 -->
<g id="node4" class="node"><title>Node4</title>
<polygon fill="white" stroke="#bfbfbf" points="392.96,-5.5 392.96,-23.5 436.192,-23.5 436.192,-5.5 392.96,-5.5"/>
<text text-anchor="middle" x="414.576" y="-11.5" font-family="Helvetica,sans-Serif" font-size="10.00">vector</text>
</g>
<!-- Node3&#45;&gt;Node4 -->
<g id="edge3" class="edge"><title>Node3&#45;&gt;Node4</title>
<path fill="none" stroke="midnightblue" d="M473.982,-65.4353C463.29,-56.4475 445.763,-41.7151 432.512,-30.5762"/>
<polygon fill="midnightblue" stroke="midnightblue" points="434.443,-27.6271 424.536,-23.8718 429.938,-32.9855 434.443,-27.6271"/>
</g>
<!-- Node5 -->
<g id="node5" class="node"><title>Node5</title>
<polygon fill="white" stroke="#bfbfbf" points="454.172,-5.5 454.172,-23.5 512.98,-23.5 512.98,-5.5 454.172,-5.5"/>
<text text-anchor="middle" x="483.576" y="-11.5" font-family="Helvetica,sans-Serif" font-size="10.00">exception</text>
</g>
<!-- Node3&#45;&gt;Node5 -->
<g id="edge4" class="edge"><title>Node3&#45;&gt;Node5</title>
<path fill="none" stroke="midnightblue" d="M483.576,-65.4353C483.576,-57.3891 483.576,-44.7388 483.576,-34.1846"/>
<polygon fill="midnightblue" stroke="midnightblue" points="487.076,-33.8717 483.576,-23.8718 480.076,-33.8718 487.076,-33.8717"/>
</g>
<!-- Node6 -->
<g id="node6" class="node"><title>Node6</title>
<polygon fill="white" stroke="#bfbfbf" points="531.175,-5.5 531.175,-23.5 589.978,-23.5 589.978,-5.5 531.175,-5.5"/>
<text text-anchor="middle" x="560.576" y="-11.5" font-family="Helvetica,sans-Serif" font-size="10.00">stdexcept</text>
</g>
<!-- Node3&#45;&gt;Node6 -->
<g id="edge5" class="edge"><title>Node3&#45;&gt;Node6</title>
<path fill="none" stroke="midnightblue" d="M494.283,-65.4353C506.442,-56.2763 526.521,-41.1518 541.401,-29.9437"/>
<polygon fill="midnightblue" stroke="midnightblue" points="543.58,-32.684 549.462,-23.8718 539.369,-27.0927 543.58,-32.684"/>
</g>
<!-- Node8 -->
<g id="node8" class="node"><title>Node8</title>
<g id="a_node8"><a xlink:href="xmm_phrase_8hpp.html" target="_top" xlink:title="xmmPhrase.hpp">
<polygon fill="white" stroke="black" points="193.172,-120.5 193.172,-138.5 281.98,-138.5 281.98,-120.5 193.172,-120.5"/>
<text text-anchor="middle" x="237.576" y="-126.5" font-family="Helvetica,sans-Serif" font-size="10.00">xmmPhrase.hpp</text>
</a>
</g>
</g>
<!-- Node7&#45;&gt;Node8 -->
<g id="edge7" class="edge"><title>Node7&#45;&gt;Node8</title>
<path fill="none" stroke="midnightblue" d="M237.576,-175.339C237.576,-167.531 237.576,-157.512 237.576,-148.927"/>
<polygon fill="midnightblue" stroke="midnightblue" points="241.076,-148.771 237.576,-138.771 234.076,-148.772 241.076,-148.771"/>
</g>
<!-- Node17 -->
<g id="node17" class="node"><title>Node17</title>
<polygon fill="white" stroke="#bfbfbf" points="98.9062,-5.5 98.9062,-23.5 128.246,-23.5 128.246,-5.5 98.9062,-5.5"/>
<text text-anchor="middle" x="113.576" y="-11.5" font-family="Helvetica,sans-Serif" font-size="10.00">set</text>
</g>
<!-- Node7&#45;&gt;Node17 -->
<g id="edge22" class="edge"><title>Node7&#45;&gt;Node17</title>
<path fill="none" stroke="midnightblue" d="M220.851,-175.481C209.632,-166.165 195.049,-152.864 184.576,-139 162.291,-109.5 165.305,-96.8771 146.576,-65 139.984,-53.7795 131.887,-41.6129 125.363,-32.1496"/>
<polygon fill="midnightblue" stroke="midnightblue" points="128.073,-29.9172 119.478,-23.7227 122.334,-33.9253 128.073,-29.9172"/>
</g>
<!-- Node19 -->
<g id="node19" class="node"><title>Node19</title>
<polygon fill="white" stroke="#bfbfbf" points="299.85,-120.5 299.85,-138.5 335.303,-138.5 335.303,-120.5 299.85,-120.5"/>
<text text-anchor="middle" x="317.576" y="-126.5" font-family="Helvetica,sans-Serif" font-size="10.00">map</text>
</g>
<!-- Node7&#45;&gt;Node19 -->
<g id="edge21" class="edge"><title>Node7&#45;&gt;Node19</title>
<path fill="none" stroke="midnightblue" d="M255.729,-175.339C268.315,-166.215 285.062,-154.072 297.956,-144.725"/>
<polygon fill="midnightblue" stroke="midnightblue" points="300.126,-147.475 306.167,-138.771 296.017,-141.808 300.126,-147.475"/>
</g>
<!-- Node9 -->
<g id="node9" class="node"><title>Node9</title>
<g id="a_node9"><a xlink:href="xmm_json_8hpp.html" target="_top" xlink:title="../common/xmmJson.hpp">
<polygon fill="white" stroke="black" points="254.724,-65.5 254.724,-83.5 382.428,-83.5 382.428,-65.5 254.724,-65.5"/>
<text text-anchor="middle" x="318.576" y="-71.5" font-family="Helvetica,sans-Serif" font-size="10.00">../common/xmmJson.hpp</text>
</a>
</g>
</g>
<!-- Node8&#45;&gt;Node9 -->
<g id="edge8" class="edge"><title>Node8&#45;&gt;Node9</title>
<path fill="none" stroke="midnightblue" d="M249.878,-120.45C262.486,-112.201 282.331,-99.2158 297.457,-89.3187"/>
<polygon fill="midnightblue" stroke="midnightblue" points="299.707,-92.0294 306.158,-83.6253 295.874,-86.1719 299.707,-92.0294"/>
</g>
<!-- Node12 -->
<g id="node12" class="node"><title>Node12</title>
<g id="a_node12"><a xlink:href="xmm_attribute_8hpp.html" target="_top" xlink:title="../common/xmmAttribute.hpp">
<polygon fill="white" stroke="black" points="584.665,-65.5 584.665,-83.5 728.487,-83.5 728.487,-65.5 584.665,-65.5"/>
<text text-anchor="middle" x="656.576" y="-71.5" font-family="Helvetica,sans-Serif" font-size="10.00">../common/xmmAttribute.hpp</text>
</a>
</g>
</g>
<!-- Node8&#45;&gt;Node12 -->
<g id="edge12" class="edge"><title>Node8&#45;&gt;Node12</title>
<path fill="none" stroke="midnightblue" d="M282.091,-121.235C284.96,-120.806 287.808,-120.39 290.576,-120 387.888,-106.286 500.117,-93.016 574.372,-84.5899"/>
<polygon fill="midnightblue" stroke="midnightblue" points="575.049,-88.0358 584.592,-83.4336 574.262,-81.0801 575.049,-88.0358"/>
</g>
<!-- Node8&#45;&gt;Node16 -->
<g id="edge18" class="edge"><title>Node8&#45;&gt;Node16</title>
<path fill="none" stroke="midnightblue" d="M211.909,-120.45C183.163,-111.436 136.384,-96.7653 104.129,-86.6496"/>
<polygon fill="midnightblue" stroke="midnightblue" points="104.797,-83.1911 94.2078,-83.5383 102.702,-89.8704 104.797,-83.1911"/>
</g>
<!-- Node18 -->
<g id="node18" class="node"><title>Node18</title>
<polygon fill="white" stroke="#bfbfbf" points="193.96,-65.5 193.96,-83.5 237.192,-83.5 237.192,-65.5 193.96,-65.5"/>
<text text-anchor="middle" x="215.576" y="-71.5" font-family="Helvetica,sans-Serif" font-size="10.00">cmath</text>
</g>
<!-- Node8&#45;&gt;Node18 -->
<g id="edge20" class="edge"><title>Node8&#45;&gt;Node18</title>
<path fill="none" stroke="midnightblue" d="M234.139,-120.219C231.118,-112.942 226.623,-102.113 222.813,-92.9345"/>
<polygon fill="midnightblue" stroke="midnightblue" points="225.984,-91.4436 218.917,-83.5496 219.519,-94.1273 225.984,-91.4436"/>
</g>
<!-- Node9&#45;&gt;Node4 -->
<g id="edge11" class="edge"><title>Node9&#45;&gt;Node4</title>
<path fill="none" stroke="midnightblue" d="M331.925,-65.4353C347.527,-56.0091 373.587,-40.2641 392.276,-28.9728"/>
<polygon fill="midnightblue" stroke="midnightblue" points="394.282,-31.85 401.032,-23.6831 390.663,-25.8586 394.282,-31.85"/>
</g>
<!-- Node10 -->
<g id="node10" class="node"><title>Node10</title>
<polygon fill="white" stroke="#bfbfbf" points="174.988,-0.5 174.988,-28.5 292.165,-28.5 292.165,-0.5 174.988,-0.5"/>
<text text-anchor="start" x="182.988" y="-16.5" font-family="Helvetica,sans-Serif" font-size="10.00">../../../dependencies</text>
<text text-anchor="middle" x="233.576" y="-6.5" font-family="Helvetica,sans-Serif" font-size="10.00">/jsoncpp/include/json.h</text>
</g>
<!-- Node9&#45;&gt;Node10 -->
<g id="edge9" class="edge"><title>Node9&#45;&gt;Node10</title>
<path fill="none" stroke="midnightblue" d="M306.757,-65.4353C295.089,-57.4733 276.813,-45.0029 261.445,-34.5163"/>
<polygon fill="midnightblue" stroke="midnightblue" points="263.037,-31.3657 252.804,-28.6203 259.092,-37.1478 263.037,-31.3657"/>
</g>
<!-- Node11 -->
<g id="node11" class="node"><title>Node11</title>
<polygon fill="white" stroke="#bfbfbf" points="309.906,-5.5 309.906,-23.5 359.246,-23.5 359.246,-5.5 309.906,-5.5"/>
<text text-anchor="middle" x="334.576" y="-11.5" font-family="Helvetica,sans-Serif" font-size="10.00">fstream</text>
</g>
<!-- Node9&#45;&gt;Node11 -->
<g id="edge10" class="edge"><title>Node9&#45;&gt;Node11</title>
<path fill="none" stroke="midnightblue" d="M320.801,-65.4353C323.068,-57.2179 326.659,-44.1985 329.607,-33.5138"/>
<polygon fill="midnightblue" stroke="midnightblue" points="332.981,-34.4425 332.267,-23.8718 326.233,-32.5809 332.981,-34.4425"/>
</g>
<!-- Node12&#45;&gt;Node4 -->
<g id="edge15" class="edge"><title>Node12&#45;&gt;Node4</title>
<path fill="none" stroke="midnightblue" d="M603.782,-65.4272C560.631,-58.103 498.355,-45.865 445.576,-29 443.962,-28.4841 442.317,-27.9128 440.669,-27.3052"/>
<polygon fill="midnightblue" stroke="midnightblue" points="441.976,-24.0583 431.393,-23.5608 439.356,-30.5494 441.976,-24.0583"/>
</g>
<!-- Node12&#45;&gt;Node6 -->
<g id="edge13" class="edge"><title>Node12&#45;&gt;Node6</title>
<path fill="none" stroke="midnightblue" d="M643.228,-65.4353C627.626,-56.0091 601.565,-40.2641 582.876,-28.9728"/>
<polygon fill="midnightblue" stroke="midnightblue" points="584.49,-25.8586 574.121,-23.6831 580.87,-31.85 584.49,-25.8586"/>
</g>
<!-- Node13 -->
<g id="node13" class="node"><title>Node13</title>
<polygon fill="white" stroke="#bfbfbf" points="608.189,-5.5 608.189,-23.5 646.963,-23.5 646.963,-5.5 608.189,-5.5"/>
<text text-anchor="middle" x="627.576" y="-11.5" font-family="Helvetica,sans-Serif" font-size="10.00">limits</text>
</g>
<!-- Node12&#45;&gt;Node13 -->
<g id="edge14" class="edge"><title>Node12&#45;&gt;Node13</title>
<path fill="none" stroke="midnightblue" d="M652.544,-65.4353C648.35,-57.0467 641.653,-43.6539 636.251,-32.8491"/>
<polygon fill="midnightblue" stroke="midnightblue" points="639.365,-31.2508 631.762,-23.8718 633.104,-34.3813 639.365,-31.2508"/>
</g>
<!-- Node14 -->
<g id="node14" class="node"><title>Node14</title>
<polygon fill="white" stroke="#bfbfbf" points="665.35,-5.5 665.35,-23.5 705.803,-23.5 705.803,-5.5 665.35,-5.5"/>
<text text-anchor="middle" x="685.576" y="-11.5" font-family="Helvetica,sans-Serif" font-size="10.00">string</text>
</g>
<!-- Node12&#45;&gt;Node14 -->
<g id="edge16" class="edge"><title>Node12&#45;&gt;Node14</title>
<path fill="none" stroke="midnightblue" d="M660.608,-65.4353C664.803,-57.0467 671.499,-43.6539 676.902,-32.8491"/>
<polygon fill="midnightblue" stroke="midnightblue" points="680.049,-34.3813 681.39,-23.8718 673.788,-31.2508 680.049,-34.3813"/>
</g>
<!-- Node15 -->
<g id="node15" class="node"><title>Node15</title>
<polygon fill="white" stroke="#bfbfbf" points="724.172,-5.5 724.172,-23.5 782.98,-23.5 782.98,-5.5 724.172,-5.5"/>
<text text-anchor="middle" x="753.576" y="-11.5" font-family="Helvetica,sans-Serif" font-size="10.00">functional</text>
</g>
<!-- Node12&#45;&gt;Node15 -->
<g id="edge17" class="edge"><title>Node12&#45;&gt;Node15</title>
<path fill="none" stroke="midnightblue" d="M670.064,-65.4353C685.9,-55.9661 712.401,-40.1201 731.302,-28.8184"/>
<polygon fill="midnightblue" stroke="midnightblue" points="733.104,-31.8191 739.891,-23.6831 729.512,-25.8112 733.104,-31.8191"/>
</g>
<!-- Node16&#45;&gt;Node17 -->
<g id="edge19" class="edge"><title>Node16&#45;&gt;Node17</title>
<path fill="none" stroke="midnightblue" d="M74.8332,-65.4353C81.5409,-56.7899 92.3725,-42.8292 100.88,-31.8643"/>
<polygon fill="midnightblue" stroke="midnightblue" points="103.716,-33.9181 107.081,-23.8718 98.1855,-29.6271 103.716,-33.9181"/>
</g>
<!-- Node20&#45;&gt;Node7 -->
<g id="edge25" class="edge"><title>Node20&#45;&gt;Node7</title>
<path fill="none" stroke="midnightblue" d="M190.636,-245.264C197.905,-236.783 209.532,-223.218 219.395,-211.711"/>
<polygon fill="midnightblue" stroke="midnightblue" points="222.327,-213.668 226.178,-203.798 217.012,-209.113 222.327,-213.668"/>
</g>
<!-- Node20&#45;&gt;Node16 -->
<g id="edge26" class="edge"><title>Node20&#45;&gt;Node16</title>
<path fill="none" stroke="midnightblue" d="M178.336,-245.389C160.75,-218.169 103.587,-129.691 79.4694,-92.3608"/>
<polygon fill="midnightblue" stroke="midnightblue" points="82.2136,-90.1586 73.8471,-83.6585 76.3339,-93.9573 82.2136,-90.1586"/>
</g>
<!-- Node20&#45;&gt;Node21 -->
<g id="edge27" class="edge"><title>Node20&#45;&gt;Node21</title>
<path fill="none" stroke="midnightblue" d="M169.719,-245.264C151.925,-234.688 120.831,-216.208 99.7353,-203.67"/>
<polygon fill="midnightblue" stroke="midnightblue" points="101.487,-200.639 91.1021,-198.539 97.9102,-206.657 101.487,-200.639"/>
</g>
<!-- Node23 -->
<g id="node23" class="node"><title>Node23</title>
<g id="a_node23"><a xlink:href="xmm_model_parameters_8hpp.html" target="_top" xlink:title="xmmModelParameters.hpp">
<polygon fill="white" stroke="black" points="438.554,-180.5 438.554,-198.5 574.598,-198.5 574.598,-180.5 438.554,-180.5"/>
<text text-anchor="middle" x="506.576" y="-186.5" font-family="Helvetica,sans-Serif" font-size="10.00">xmmModelParameters.hpp</text>
</a>
</g>
</g>
<!-- Node22&#45;&gt;Node23 -->
<g id="edge30" class="edge"><title>Node22&#45;&gt;Node23</title>
<path fill="none" stroke="midnightblue" d="M468.522,-240.446C475.987,-230.648 486.255,-217.172 494.243,-206.687"/>
<polygon fill="midnightblue" stroke="midnightblue" points="497.029,-208.806 500.306,-198.73 491.461,-204.563 497.029,-208.806"/>
</g>
<!-- Node23&#45;&gt;Node9 -->
<g id="edge31" class="edge"><title>Node23&#45;&gt;Node9</title>
<path fill="none" stroke="midnightblue" d="M493.056,-180.373C460.943,-161.071 379.845,-112.326 340.567,-88.7181"/>
<polygon fill="midnightblue" stroke="midnightblue" points="342.348,-85.7049 331.974,-83.553 338.742,-91.7046 342.348,-85.7049"/>
</g>
<!-- Node23&#45;&gt;Node12 -->
<g id="edge32" class="edge"><title>Node23&#45;&gt;Node12</title>
<path fill="none" stroke="midnightblue" d="M517.364,-180.373C542.662,-161.316 606.06,-113.556 637.824,-89.6266"/>
<polygon fill="midnightblue" stroke="midnightblue" points="640.005,-92.3656 645.886,-83.553 635.793,-86.7746 640.005,-92.3656"/>
</g>
<!-- Node24&#45;&gt;Node23 -->
<g id="edge34" class="edge"><title>Node24&#45;&gt;Node23</title>
<path fill="none" stroke="midnightblue" d="M552.39,-310.478C550.088,-296.018 544.362,-264.779 534.576,-240 530.054,-228.55 523.295,-216.511 517.55,-207.173"/>
<polygon fill="midnightblue" stroke="midnightblue" points="520.389,-205.115 512.067,-198.557 514.484,-208.873 520.389,-205.115"/>
</g>
<!-- Node26 -->
<g id="node26" class="node"><title>Node26</title>
<g id="a_node26"><a xlink:href="xmm_model_results_8hpp.html" target="_top" xlink:title="../../core/model/xmmModel\lResults.hpp">
<polygon fill="white" stroke="black" points="640.67,-240.5 640.67,-268.5 774.482,-268.5 774.482,-240.5 640.67,-240.5"/>
<text text-anchor="start" x="648.67" y="-256.5" font-family="Helvetica,sans-Serif" font-size="10.00">../../core/model/xmmModel</text>
<text text-anchor="middle" x="707.576" y="-246.5" font-family="Helvetica,sans-Serif" font-size="10.00">Results.hpp</text>
</a>
</g>
</g>
<!-- Node25&#45;&gt;Node26 -->
<g id="edge36" class="edge"><title>Node25&#45;&gt;Node26</title>
<path fill="none" stroke="midnightblue" d="M707.576,-310.264C707.576,-302.359 707.576,-290.038 707.576,-279.083"/>
<polygon fill="midnightblue" stroke="midnightblue" points="711.076,-278.798 707.576,-268.798 704.076,-278.798 711.076,-278.798"/>
</g>
</g>
</svg>
