<?xml version="1.0" encoding="UTF-8" standalone="no"?>
<!DOCTYPE svg PUBLIC "-//W3C//DTD SVG 1.1//EN"
 "http://www.w3.org/Graphics/SVG/1.1/DTD/svg11.dtd">
<!-- Generated by graphviz version 2.38.0 (20140413.2041)
 -->
<!-- Title: xmmGmm.hpp Pages: 1 -->
<svg width="767pt" height="442pt"
 viewBox="0.00 0.00 766.61 442.00" xmlns="http://www.w3.org/2000/svg" xmlns:xlink="http://www.w3.org/1999/xlink">
<g id="graph0" class="graph" transform="scale(1 1) rotate(0) translate(4 438)">
<title>xmmGmm.hpp</title>
<polygon fill="white" stroke="none" points="-4,4 -4,-438 762.614,-438 762.614,4 -4,4"/>
<!-- Node1 -->
<g id="node1" class="node"><title>Node1</title>
<polygon fill="#bfbfbf" stroke="black" points="211.446,-415.5 211.446,-433.5 293.007,-433.5 293.007,-415.5 211.446,-415.5"/>
<text text-anchor="middle" x="252.227" y="-421.5" font-family="Helvetica,sans-Serif" font-size="10.00">xmmGmm.hpp</text>
</g>
<!-- Node2 -->
<g id="node2" class="node"><title>Node2</title>
<g id="a_node2"><a xlink:href="xmm_model_8hpp.html" target="_top" xlink:title="../../core/model/xmmModel.hpp">
<polygon fill="white" stroke="black" points="337.589,-360.5 337.589,-378.5 490.864,-378.5 490.864,-360.5 337.589,-360.5"/>
<text text-anchor="middle" x="414.227" y="-366.5" font-family="Helvetica,sans-Serif" font-size="10.00">../../core/model/xmmModel.hpp</text>
</a>
</g>
</g>
<!-- Node1&#45;&gt;Node2 -->
<g id="edge1" class="edge"><title>Node1&#45;&gt;Node2</title>
<path fill="none" stroke="midnightblue" d="M276.831,-415.45C304.386,-406.436 349.227,-391.765 380.147,-381.65"/>
<polygon fill="midnightblue" stroke="midnightblue" points="381.241,-384.974 389.657,-378.538 379.064,-378.321 381.241,-384.974"/>
</g>
<!-- Node27 -->
<g id="node27" class="node"><title>Node27</title>
<g id="a_node27"><a xlink:href="xmm_gaussian_distribution_8hpp.html" target="_top" xlink:title="../../core/distributions\l/xmmGaussianDistribution.hpp">
<polygon fill="white" stroke="black" points="56.1431,-120.5 56.1431,-148.5 208.31,-148.5 208.31,-120.5 56.1431,-120.5"/>
<text text-anchor="start" x="64.1431" y="-136.5" font-family="Helvetica,sans-Serif" font-size="10.00">../../core/distributions</text>
<text text-anchor="middle" x="132.227" y="-126.5" font-family="Helvetica,sans-Serif" font-size="10.00">/xmmGaussianDistribution.hpp</text>
</a>
</g>
</g>
<!-- Node1&#45;&gt;Node27 -->
<g id="edge36" class="edge"><title>Node1&#45;&gt;Node27</title>
<path fill="none" stroke="midnightblue" d="M229.85,-415.493C194.63,-401.286 130.227,-368.115 130.227,-315.5 130.227,-315.5 130.227,-315.5 130.227,-258.5 130.227,-223.867 131.029,-183.755 131.617,-159.003"/>
<polygon fill="midnightblue" stroke="midnightblue" points="135.122,-158.869 131.869,-148.786 128.124,-158.697 135.122,-158.869"/>
</g>
<!-- Node28 -->
<g id="node28" class="node"><title>Node28</title>
<g id="a_node28"><a xlink:href="xmm_gmm_single_class_8hpp.html" target="_top" xlink:title="xmmGmmSingleClass.hpp">
<polygon fill="white" stroke="black" points="185.044,-360.5 185.044,-378.5 319.409,-378.5 319.409,-360.5 185.044,-360.5"/>
<text text-anchor="middle" x="252.227" y="-366.5" font-family="Helvetica,sans-Serif" font-size="10.00">xmmGmmSingleClass.hpp</text>
</a>
</g>
</g>
<!-- Node1&#45;&gt;Node28 -->
<g id="edge39" class="edge"><title>Node1&#45;&gt;Node28</title>
<path fill="none" stroke="midnightblue" d="M252.227,-415.219C252.227,-408.177 252.227,-397.808 252.227,-388.828"/>
<polygon fill="midnightblue" stroke="midnightblue" points="255.727,-388.55 252.227,-378.55 248.727,-388.55 255.727,-388.55"/>
</g>
<!-- Node3 -->
<g id="node3" class="node"><title>Node3</title>
<g id="a_node3"><a xlink:href="xmm_model_configuration_8hpp.html" target="_top" xlink:title="xmmModelConfiguration.hpp">
<polygon fill="white" stroke="black" points="248.306,-250.5 248.306,-268.5 392.147,-268.5 392.147,-250.5 248.306,-250.5"/>
<text text-anchor="middle" x="320.227" y="-256.5" font-family="Helvetica,sans-Serif" font-size="10.00">xmmModelConfiguration.hpp</text>
</a>
</g>
</g>
<!-- Node2&#45;&gt;Node3 -->
<g id="edge2" class="edge"><title>Node2&#45;&gt;Node3</title>
<path fill="none" stroke="midnightblue" d="M407.122,-360.267C396.657,-348.146 376.472,-324.794 359.227,-305 350.926,-295.473 341.599,-284.828 334.147,-276.339"/>
<polygon fill="midnightblue" stroke="midnightblue" points="336.658,-273.893 327.429,-268.689 331.398,-278.512 336.658,-273.893"/>
</g>
<!-- Node14 -->
<g id="node14" class="node"><title>Node14</title>
<g id="a_node14"><a xlink:href="xmm_model_single_class_8hpp.html" target="_top" xlink:title="xmmModelSingleClass.hpp">
<polygon fill="white" stroke="black" points="406.646,-305.5 406.646,-323.5 543.808,-323.5 543.808,-305.5 406.646,-305.5"/>
<text text-anchor="middle" x="475.227" y="-311.5" font-family="Helvetica,sans-Serif" font-size="10.00">xmmModelSingleClass.hpp</text>
</a>
</g>
</g>
<!-- Node2&#45;&gt;Node14 -->
<g id="edge14" class="edge"><title>Node2&#45;&gt;Node14</title>
<path fill="none" stroke="midnightblue" d="M423.491,-360.45C432.628,-352.512 446.811,-340.189 458.018,-330.452"/>
<polygon fill="midnightblue" stroke="midnightblue" points="460.622,-332.826 465.875,-323.625 456.03,-327.542 460.622,-332.826"/>
</g>
<!-- Node25 -->
<g id="node25" class="node"><title>Node25</title>
<g id="a_node25"><a xlink:href="xmm_model_results_8hpp.html" target="_top" xlink:title="xmmModelResults.hpp">
<polygon fill="white" stroke="black" points="232.375,-305.5 232.375,-323.5 350.079,-323.5 350.079,-305.5 232.375,-305.5"/>
<text text-anchor="middle" x="291.227" y="-311.5" font-family="Helvetica,sans-Serif" font-size="10.00">xmmModelResults.hpp</text>
</a>
</g>
</g>
<!-- Node2&#45;&gt;Node25 -->
<g id="edge34" class="edge"><title>Node2&#45;&gt;Node25</title>
<path fill="none" stroke="midnightblue" d="M395.546,-360.45C375.317,-351.734 342.818,-337.731 319.468,-327.669"/>
<polygon fill="midnightblue" stroke="midnightblue" points="320.652,-324.368 310.083,-323.625 317.882,-330.797 320.652,-324.368"/>
</g>
<!-- Node26 -->
<g id="node26" class="node"><title>Node26</title>
<polygon fill="white" stroke="#bfbfbf" points="562.049,-305.5 562.049,-323.5 606.404,-323.5 606.404,-305.5 562.049,-305.5"/>
<text text-anchor="middle" x="584.227" y="-311.5" font-family="Helvetica,sans-Serif" font-size="10.00">thread</text>
</g>
<!-- Node2&#45;&gt;Node26 -->
<g id="edge35" class="edge"><title>Node2&#45;&gt;Node26</title>
<path fill="none" stroke="midnightblue" d="M440.046,-360.45C470.051,-351.096 519.589,-335.652 552.067,-325.526"/>
<polygon fill="midnightblue" stroke="midnightblue" points="553.462,-328.758 561.967,-322.44 551.378,-322.075 553.462,-328.758"/>
</g>
<!-- Node4 -->
<g id="node4" class="node"><title>Node4</title>
<g id="a_node4"><a xlink:href="xmm_model_parameters_8hpp.html" target="_top" xlink:title="xmmModelParameters.hpp">
<polygon fill="white" stroke="black" points="238.205,-125.5 238.205,-143.5 374.249,-143.5 374.249,-125.5 238.205,-125.5"/>
<text text-anchor="middle" x="306.227" y="-131.5" font-family="Helvetica,sans-Serif" font-size="10.00">xmmModelParameters.hpp</text>
</a>
</g>
</g>
<!-- Node3&#45;&gt;Node4 -->
<g id="edge3" class="edge"><title>Node3&#45;&gt;Node4</title>
<path fill="none" stroke="midnightblue" d="M319.308,-250.43C317.094,-230.975 311.416,-181.094 308.319,-153.881"/>
<polygon fill="midnightblue" stroke="midnightblue" points="311.775,-153.301 307.167,-143.761 304.82,-154.093 311.775,-153.301"/>
</g>
<!-- Node5 -->
<g id="node5" class="node"><title>Node5</title>
<g id="a_node5"><a xlink:href="xmm_json_8hpp.html" target="_top" xlink:title="../common/xmmJson.hpp">
<polygon fill="white" stroke="black" points="402.375,-65.5 402.375,-83.5 530.079,-83.5 530.079,-65.5 402.375,-65.5"/>
<text text-anchor="middle" x="466.227" y="-71.5" font-family="Helvetica,sans-Serif" font-size="10.00">../common/xmmJson.hpp</text>
</a>
</g>
</g>
<!-- Node4&#45;&gt;Node5 -->
<g id="edge4" class="edge"><title>Node4&#45;&gt;Node5</title>
<path fill="none" stroke="midnightblue" d="M328.474,-125.435C355.98,-115.465 402.989,-98.4237 434.33,-87.0624"/>
<polygon fill="midnightblue" stroke="midnightblue" points="435.702,-90.288 443.911,-83.5894 433.317,-83.707 435.702,-90.288"/>
</g>
<!-- Node9 -->
<g id="node9" class="node"><title>Node9</title>
<g id="a_node9"><a xlink:href="xmm_attribute_8hpp.html" target="_top" xlink:title="../common/xmmAttribute.hpp">
<polygon fill="white" stroke="black" points="56.3154,-65.5 56.3154,-83.5 200.138,-83.5 200.138,-65.5 56.3154,-65.5"/>
<text text-anchor="middle" x="128.227" y="-71.5" font-family="Helvetica,sans-Serif" font-size="10.00">../common/xmmAttribute.hpp</text>
</a>
</g>
</g>
<!-- Node4&#45;&gt;Node9 -->
<g id="edge8" class="edge"><title>Node4&#45;&gt;Node9</title>
<path fill="none" stroke="midnightblue" d="M281.476,-125.435C250.611,-115.378 197.671,-98.128 162.81,-86.7686"/>
<polygon fill="midnightblue" stroke="midnightblue" points="163.645,-83.3598 153.053,-83.5894 161.476,-90.0154 163.645,-83.3598"/>
</g>
<!-- Node6 -->
<g id="node6" class="node"><title>Node6</title>
<polygon fill="white" stroke="#bfbfbf" points="407.638,-0.5 407.638,-28.5 524.815,-28.5 524.815,-0.5 407.638,-0.5"/>
<text text-anchor="start" x="415.638" y="-16.5" font-family="Helvetica,sans-Serif" font-size="10.00">../../../dependencies</text>
<text text-anchor="middle" x="466.227" y="-6.5" font-family="Helvetica,sans-Serif" font-size="10.00">/jsoncpp/include/json.h</text>
</g>
<!-- Node5&#45;&gt;Node6 -->
<g id="edge5" class="edge"><title>Node5&#45;&gt;Node6</title>
<path fill="none" stroke="midnightblue" d="M466.227,-65.4353C466.227,-58.5603 466.227,-48.3238 466.227,-38.9057"/>
<polygon fill="midnightblue" stroke="midnightblue" points="469.727,-38.8427 466.227,-28.8428 462.727,-38.8428 469.727,-38.8427"/>
</g>
<!-- Node7 -->
<g id="node7" class="node"><title>Node7</title>
<polygon fill="white" stroke="#bfbfbf" points="542.557,-5.5 542.557,-23.5 591.896,-23.5 591.896,-5.5 542.557,-5.5"/>
<text text-anchor="middle" x="567.227" y="-11.5" font-family="Helvetica,sans-Serif" font-size="10.00">fstream</text>
</g>
<!-- Node5&#45;&gt;Node7 -->
<g id="edge6" class="edge"><title>Node5&#45;&gt;Node7</title>
<path fill="none" stroke="midnightblue" d="M480.27,-65.4353C496.835,-55.923 524.605,-39.9759 544.302,-28.6645"/>
<polygon fill="midnightblue" stroke="midnightblue" points="546.048,-31.6982 552.977,-23.6831 542.562,-25.6279 546.048,-31.6982"/>
</g>
<!-- Node8 -->
<g id="node8" class="node"><title>Node8</title>
<polygon fill="white" stroke="#bfbfbf" points="346.611,-5.5 346.611,-23.5 389.842,-23.5 389.842,-5.5 346.611,-5.5"/>
<text text-anchor="middle" x="368.227" y="-11.5" font-family="Helvetica,sans-Serif" font-size="10.00">vector</text>
</g>
<!-- Node5&#45;&gt;Node8 -->
<g id="edge7" class="edge"><title>Node5&#45;&gt;Node8</title>
<path fill="none" stroke="midnightblue" d="M452.6,-65.4353C436.6,-55.9661 409.826,-40.1201 390.73,-28.8184"/>
<polygon fill="midnightblue" stroke="midnightblue" points="392.442,-25.7644 382.053,-23.6831 388.876,-31.7884 392.442,-25.7644"/>
</g>
<!-- Node9&#45;&gt;Node8 -->
<g id="edge11" class="edge"><title>Node9&#45;&gt;Node8</title>
<path fill="none" stroke="midnightblue" d="M180.085,-65.4469C222.841,-58.0992 284.766,-45.8191 337.227,-29 338.841,-28.4825 340.485,-27.91 342.132,-27.3015"/>
<polygon fill="midnightblue" stroke="midnightblue" points="343.447,-30.5453 351.408,-23.5547 340.825,-24.0549 343.447,-30.5453"/>
</g>
<!-- Node10 -->
<g id="node10" class="node"><title>Node10</title>
<polygon fill="white" stroke="#bfbfbf" points="192.825,-5.5 192.825,-23.5 251.628,-23.5 251.628,-5.5 192.825,-5.5"/>
<text text-anchor="middle" x="222.227" y="-11.5" font-family="Helvetica,sans-Serif" font-size="10.00">stdexcept</text>
</g>
<!-- Node9&#45;&gt;Node10 -->
<g id="edge9" class="edge"><title>Node9&#45;&gt;Node10</title>
<path fill="none" stroke="midnightblue" d="M141.297,-65.4353C156.574,-56.0091 182.092,-40.2641 200.391,-28.9728"/>
<polygon fill="midnightblue" stroke="midnightblue" points="202.292,-31.9129 208.964,-23.6831 198.616,-25.9556 202.292,-31.9129"/>
</g>
<!-- Node11 -->
<g id="node11" class="node"><title>Node11</title>
<polygon fill="white" stroke="#bfbfbf" points="135.84,-5.5 135.84,-23.5 174.613,-23.5 174.613,-5.5 135.84,-5.5"/>
<text text-anchor="middle" x="155.227" y="-11.5" font-family="Helvetica,sans-Serif" font-size="10.00">limits</text>
</g>
<!-- Node9&#45;&gt;Node11 -->
<g id="edge10" class="edge"><title>Node9&#45;&gt;Node11</title>
<path fill="none" stroke="midnightblue" d="M131.981,-65.4353C135.846,-57.1323 141.993,-43.9267 146.996,-33.1807"/>
<polygon fill="midnightblue" stroke="midnightblue" points="150.282,-34.4147 151.329,-23.8718 143.936,-31.4605 150.282,-34.4147"/>
</g>
<!-- Node12 -->
<g id="node12" class="node"><title>Node12</title>
<polygon fill="white" stroke="#bfbfbf" points="0,-5.5 0,-23.5 40.4531,-23.5 40.4531,-5.5 0,-5.5"/>
<text text-anchor="middle" x="20.2266" y="-11.5" font-family="Helvetica,sans-Serif" font-size="10.00">string</text>
</g>
<!-- Node9&#45;&gt;Node12 -->
<g id="edge12" class="edge"><title>Node9&#45;&gt;Node12</title>
<path fill="none" stroke="midnightblue" d="M113.21,-65.4353C95.4169,-55.88 65.5335,-39.8315 44.4545,-28.5113"/>
<polygon fill="midnightblue" stroke="midnightblue" points="45.93,-25.331 35.4641,-23.6831 42.6181,-31.4979 45.93,-25.331"/>
</g>
<!-- Node13 -->
<g id="node13" class="node"><title>Node13</title>
<polygon fill="white" stroke="#bfbfbf" points="58.8228,-5.5 58.8228,-23.5 117.63,-23.5 117.63,-5.5 58.8228,-5.5"/>
<text text-anchor="middle" x="88.2266" y="-11.5" font-family="Helvetica,sans-Serif" font-size="10.00">functional</text>
</g>
<!-- Node9&#45;&gt;Node13 -->
<g id="edge13" class="edge"><title>Node9&#45;&gt;Node13</title>
<path fill="none" stroke="midnightblue" d="M122.665,-65.4353C116.761,-56.8755 107.265,-43.1052 99.7375,-32.1909"/>
<polygon fill="midnightblue" stroke="midnightblue" points="102.559,-30.1168 94.0002,-23.8718 96.7963,-34.091 102.559,-30.1168"/>
</g>
<!-- Node15 -->
<g id="node15" class="node"><title>Node15</title>
<g id="a_node15"><a xlink:href="xmm_circularbuffer_8hpp.html" target="_top" xlink:title="../common/xmmCircularbuffer.hpp">
<polygon fill="white" stroke="black" points="218.288,-65.5 218.288,-83.5 384.166,-83.5 384.166,-65.5 218.288,-65.5"/>
<text text-anchor="middle" x="301.227" y="-71.5" font-family="Helvetica,sans-Serif" font-size="10.00">../common/xmmCircularbuffer.hpp</text>
</a>
</g>
</g>
<!-- Node14&#45;&gt;Node15 -->
<g id="edge15" class="edge"><title>Node14&#45;&gt;Node15</title>
<path fill="none" stroke="midnightblue" d="M472.124,-305.311C459.522,-272.363 411.505,-149.83 383.227,-120 369.626,-105.654 350.356,-94.8721 333.914,-87.5171"/>
<polygon fill="midnightblue" stroke="midnightblue" points="335.197,-84.2596 324.624,-83.5816 332.466,-90.7051 335.197,-84.2596"/>
</g>
<!-- Node17 -->
<g id="node17" class="node"><title>Node17</title>
<g id="a_node17"><a xlink:href="xmm_training_set_8hpp.html" target="_top" xlink:title="../trainingset/xmmTraining\lSet.hpp">
<polygon fill="white" stroke="black" points="509.89,-185.5 509.89,-213.5 640.563,-213.5 640.563,-185.5 509.89,-185.5"/>
<text text-anchor="start" x="517.89" y="-201.5" font-family="Helvetica,sans-Serif" font-size="10.00">../trainingset/xmmTraining</text>
<text text-anchor="middle" x="575.227" y="-191.5" font-family="Helvetica,sans-Serif" font-size="10.00">Set.hpp</text>
</a>
</g>
</g>
<!-- Node14&#45;&gt;Node17 -->
<g id="edge19" class="edge"><title>Node14&#45;&gt;Node17</title>
<path fill="none" stroke="midnightblue" d="M523.312,-305.479C576.909,-296.051 657.283,-280.267 666.227,-269 683.089,-247.757 655.762,-229.614 626.755,-217.347"/>
<polygon fill="midnightblue" stroke="midnightblue" points="627.917,-214.042 617.332,-213.574 625.315,-220.541 627.917,-214.042"/>
</g>
<!-- Node19 -->
<g id="node19" class="node"><title>Node19</title>
<g id="a_node19"><a xlink:href="xmm_events_8hpp.html" target="_top" xlink:title="../common/xmmEvents.hpp">
<polygon fill="white" stroke="black" points="608.65,-65.5 608.65,-83.5 745.803,-83.5 745.803,-65.5 608.65,-65.5"/>
<text text-anchor="middle" x="677.227" y="-71.5" font-family="Helvetica,sans-Serif" font-size="10.00">../common/xmmEvents.hpp</text>
</a>
</g>
</g>
<!-- Node14&#45;&gt;Node19 -->
<g id="edge28" class="edge"><title>Node14&#45;&gt;Node19</title>
<path fill="none" stroke="midnightblue" d="M528.743,-305.471C586.962,-296.211 673.142,-280.753 683.227,-269 726.453,-218.622 699.41,-130.804 684.794,-93.3012"/>
<polygon fill="midnightblue" stroke="midnightblue" points="687.919,-91.6944 680.909,-83.7505 681.435,-94.3322 687.919,-91.6944"/>
</g>
<!-- Node23 -->
<g id="node23" class="node"><title>Node23</title>
<g id="a_node23"><a xlink:href="xmm_model_shared_parameters_8hpp.html" target="_top" xlink:title="xmmModelSharedParameters.hpp">
<polygon fill="white" stroke="black" points="489.082,-250.5 489.082,-268.5 657.372,-268.5 657.372,-250.5 489.082,-250.5"/>
<text text-anchor="middle" x="573.227" y="-256.5" font-family="Helvetica,sans-Serif" font-size="10.00">xmmModelSharedParameters.hpp</text>
</a>
</g>
</g>
<!-- Node14&#45;&gt;Node23 -->
<g id="edge29" class="edge"><title>Node14&#45;&gt;Node23</title>
<path fill="none" stroke="midnightblue" d="M490.111,-305.45C505.796,-296.968 530.741,-283.477 549.215,-273.486"/>
<polygon fill="midnightblue" stroke="midnightblue" points="551.071,-276.461 558.202,-268.625 547.741,-270.304 551.071,-276.461"/>
</g>
<!-- Node24 -->
<g id="node24" class="node"><title>Node24</title>
<polygon fill="white" stroke="#bfbfbf" points="448.611,-190.5 448.611,-208.5 491.842,-208.5 491.842,-190.5 448.611,-190.5"/>
<text text-anchor="middle" x="470.227" y="-196.5" font-family="Helvetica,sans-Serif" font-size="10.00">mutex</text>
</g>
<!-- Node14&#45;&gt;Node24 -->
<g id="edge33" class="edge"><title>Node14&#45;&gt;Node24</title>
<path fill="none" stroke="midnightblue" d="M474.867,-305.373C474.071,-287.374 472.141,-243.774 471.037,-218.826"/>
<polygon fill="midnightblue" stroke="midnightblue" points="474.522,-218.389 470.583,-208.553 467.528,-218.698 474.522,-218.389"/>
</g>
<!-- Node15&#45;&gt;Node8 -->
<g id="edge16" class="edge"><title>Node15&#45;&gt;Node8</title>
<path fill="none" stroke="midnightblue" d="M310.543,-65.4353C320.925,-56.4475 337.944,-41.7151 350.811,-30.5762"/>
<polygon fill="midnightblue" stroke="midnightblue" points="353.286,-33.063 358.556,-23.8718 348.704,-27.7706 353.286,-33.063"/>
</g>
<!-- Node15&#45;&gt;Node10 -->
<g id="edge18" class="edge"><title>Node15&#45;&gt;Node10</title>
<path fill="none" stroke="midnightblue" d="M290.242,-65.4353C277.696,-56.2243 256.932,-40.9797 241.64,-29.753"/>
<polygon fill="midnightblue" stroke="midnightblue" points="243.505,-26.7799 233.373,-23.6831 239.362,-32.4225 243.505,-26.7799"/>
</g>
<!-- Node16 -->
<g id="node16" class="node"><title>Node16</title>
<polygon fill="white" stroke="#bfbfbf" points="269.823,-5.5 269.823,-23.5 328.63,-23.5 328.63,-5.5 269.823,-5.5"/>
<text text-anchor="middle" x="299.227" y="-11.5" font-family="Helvetica,sans-Serif" font-size="10.00">exception</text>
</g>
<!-- Node15&#45;&gt;Node16 -->
<g id="edge17" class="edge"><title>Node15&#45;&gt;Node16</title>
<path fill="none" stroke="midnightblue" d="M300.948,-65.4353C300.671,-57.3891 300.235,-44.7388 299.871,-34.1846"/>
<polygon fill="midnightblue" stroke="midnightblue" points="303.358,-33.7452 299.515,-23.8718 296.362,-33.9865 303.358,-33.7452"/>
</g>
<!-- Node18 -->
<g id="node18" class="node"><title>Node18</title>
<g id="a_node18"><a xlink:href="xmm_phrase_8hpp.html" target="_top" xlink:title="xmmPhrase.hpp">
<polygon fill="white" stroke="black" points="525.823,-125.5 525.823,-143.5 614.63,-143.5 614.63,-125.5 525.823,-125.5"/>
<text text-anchor="middle" x="570.227" y="-131.5" font-family="Helvetica,sans-Serif" font-size="10.00">xmmPhrase.hpp</text>
</a>
</g>
</g>
<!-- Node17&#45;&gt;Node18 -->
<g id="edge20" class="edge"><title>Node17&#45;&gt;Node18</title>
<path fill="none" stroke="midnightblue" d="M574.191,-185.446C573.467,-176.334 572.492,-164.041 571.689,-153.931"/>
<polygon fill="midnightblue" stroke="midnightblue" points="575.16,-153.422 570.88,-143.73 568.182,-153.976 575.16,-153.422"/>
</g>
<!-- Node20 -->
<g id="node20" class="node"><title>Node20</title>
<polygon fill="white" stroke="#bfbfbf" points="710.557,-5.5 710.557,-23.5 739.896,-23.5 739.896,-5.5 710.557,-5.5"/>
<text text-anchor="middle" x="725.227" y="-11.5" font-family="Helvetica,sans-Serif" font-size="10.00">set</text>
</g>
<!-- Node17&#45;&gt;Node20 -->
<g id="edge27" class="edge"><title>Node17&#45;&gt;Node20</title>
<path fill="none" stroke="midnightblue" d="M616.932,-185.394C660.343,-169.259 725.993,-137.243 755.227,-84 764.748,-66.6593 752.306,-45.6932 740.674,-31.561"/>
<polygon fill="midnightblue" stroke="midnightblue" points="742.992,-28.8997 733.739,-23.7384 737.754,-33.5432 742.992,-28.8997"/>
</g>
<!-- Node22 -->
<g id="node22" class="node"><title>Node22</title>
<polygon fill="white" stroke="#bfbfbf" points="472.5,-125.5 472.5,-143.5 507.953,-143.5 507.953,-125.5 472.5,-125.5"/>
<text text-anchor="middle" x="490.227" y="-131.5" font-family="Helvetica,sans-Serif" font-size="10.00">map</text>
</g>
<!-- Node17&#45;&gt;Node22 -->
<g id="edge26" class="edge"><title>Node17&#45;&gt;Node22</title>
<path fill="none" stroke="midnightblue" d="M557.615,-185.446C543.601,-175.06 524.013,-160.542 509.566,-149.834"/>
<polygon fill="midnightblue" stroke="midnightblue" points="511.449,-146.873 501.331,-143.73 507.28,-152.497 511.449,-146.873"/>
</g>
<!-- Node18&#45;&gt;Node5 -->
<g id="edge21" class="edge"><title>Node18&#45;&gt;Node5</title>
<path fill="none" stroke="midnightblue" d="M555.766,-125.435C538.709,-115.923 510.114,-99.9759 489.832,-88.6645"/>
<polygon fill="midnightblue" stroke="midnightblue" points="491.338,-85.4971 480.9,-83.6831 487.929,-91.6106 491.338,-85.4971"/>
</g>
<!-- Node18&#45;&gt;Node9 -->
<g id="edge22" class="edge"><title>Node18&#45;&gt;Node9</title>
<path fill="none" stroke="midnightblue" d="M541.777,-125.499C533.875,-123.483 525.258,-121.475 517.227,-120 487.838,-114.602 315.315,-95.6268 210.139,-84.2713"/>
<polygon fill="midnightblue" stroke="midnightblue" points="210.495,-80.7896 200.178,-83.1969 209.745,-87.7492 210.495,-80.7896"/>
</g>
<!-- Node18&#45;&gt;Node19 -->
<g id="edge23" class="edge"><title>Node18&#45;&gt;Node19</title>
<path fill="none" stroke="midnightblue" d="M585.104,-125.435C602.732,-115.88 632.339,-99.8315 653.223,-88.5113"/>
<polygon fill="midnightblue" stroke="midnightblue" points="655.007,-91.5257 662.13,-83.6831 651.671,-85.3716 655.007,-91.5257"/>
</g>
<!-- Node21 -->
<g id="node21" class="node"><title>Node21</title>
<polygon fill="white" stroke="#bfbfbf" points="547.611,-65.5 547.611,-83.5 590.842,-83.5 590.842,-65.5 547.611,-65.5"/>
<text text-anchor="middle" x="569.227" y="-71.5" font-family="Helvetica,sans-Serif" font-size="10.00">cmath</text>
</g>
<!-- Node18&#45;&gt;Node21 -->
<g id="edge25" class="edge"><title>Node18&#45;&gt;Node21</title>
<path fill="none" stroke="midnightblue" d="M570.088,-125.435C569.949,-117.389 569.731,-104.739 569.549,-94.1846"/>
<polygon fill="midnightblue" stroke="midnightblue" points="573.043,-93.8099 569.371,-83.8718 566.044,-93.9306 573.043,-93.8099"/>
</g>
<!-- Node19&#45;&gt;Node20 -->
<g id="edge24" class="edge"><title>Node19&#45;&gt;Node20</title>
<path fill="none" stroke="midnightblue" d="M683.901,-65.4353C691.056,-56.7899 702.609,-42.8292 711.684,-31.8643"/>
<polygon fill="midnightblue" stroke="midnightblue" points="714.619,-33.8072 718.298,-23.8718 709.226,-29.3442 714.619,-33.8072"/>
</g>
<!-- Node23&#45;&gt;Node17 -->
<g id="edge30" class="edge"><title>Node23&#45;&gt;Node17</title>
<path fill="none" stroke="midnightblue" d="M573.505,-250.435C573.742,-243.56 574.095,-233.324 574.419,-223.906"/>
<polygon fill="midnightblue" stroke="midnightblue" points="577.92,-223.957 574.766,-213.843 570.924,-223.716 577.92,-223.957"/>
</g>
<!-- Node23&#45;&gt;Node19 -->
<g id="edge31" class="edge"><title>Node23&#45;&gt;Node19</title>
<path fill="none" stroke="midnightblue" d="M597.509,-250.396C614.603,-243.426 636.606,-231.667 649.227,-214 675.42,-177.332 678.44,-121.976 678.056,-93.6307"/>
<polygon fill="midnightblue" stroke="midnightblue" points="681.553,-93.4631 677.755,-83.5722 674.556,-93.6724 681.553,-93.4631"/>
</g>
<!-- Node23&#45;&gt;Node24 -->
<g id="edge32" class="edge"><title>Node23&#45;&gt;Node24</title>
<path fill="none" stroke="midnightblue" d="M558.905,-250.435C542.012,-240.923 513.692,-224.976 493.605,-213.665"/>
<polygon fill="midnightblue" stroke="midnightblue" points="495.19,-210.54 484.759,-208.683 491.755,-216.64 495.19,-210.54"/>
</g>
<!-- Node27&#45;&gt;Node5 -->
<g id="edge37" class="edge"><title>Node27&#45;&gt;Node5</title>
<path fill="none" stroke="midnightblue" d="M207.183,-120.484C268.563,-109.825 354.069,-94.9765 409.777,-85.3026"/>
<polygon fill="midnightblue" stroke="midnightblue" points="410.566,-88.7181 419.82,-83.5587 409.368,-81.8213 410.566,-88.7181"/>
</g>
<!-- Node27&#45;&gt;Node9 -->
<g id="edge38" class="edge"><title>Node27&#45;&gt;Node9</title>
<path fill="none" stroke="midnightblue" d="M131.319,-120.339C130.78,-112.531 130.089,-102.512 129.497,-93.9265"/>
<polygon fill="midnightblue" stroke="midnightblue" points="132.977,-93.5069 128.797,-83.7715 125.993,-93.9886 132.977,-93.5069"/>
</g>
<!-- Node28&#45;&gt;Node14 -->
<g id="edge40" class="edge"><title>Node28&#45;&gt;Node14</title>
<path fill="none" stroke="midnightblue" d="M286.095,-360.45C325.011,-351.201 388.974,-335.999 431.591,-325.871"/>
<polygon fill="midnightblue" stroke="midnightblue" points="432.485,-329.256 441.405,-323.538 430.867,-322.446 432.485,-329.256"/>
</g>
<!-- Node28&#45;&gt;Node25 -->
<g id="edge41" class="edge"><title>Node28&#45;&gt;Node25</title>
<path fill="none" stroke="midnightblue" d="M258.32,-360.219C263.905,-352.629 272.333,-341.175 279.262,-331.76"/>
<polygon fill="midnightblue" stroke="midnightblue" points="282.195,-333.678 285.303,-323.55 276.557,-329.53 282.195,-333.678"/>
</g>
<!-- Node29 -->
<g id="node29" class="node"><title>Node29</title>
<g id="a_node29"><a xlink:href="xmm_gmm_parameters_8hpp.html" target="_top" xlink:title="xmmGmmParameters.hpp">
<polygon fill="white" stroke="black" points="158.604,-190.5 158.604,-208.5 291.85,-208.5 291.85,-190.5 158.604,-190.5"/>
<text text-anchor="middle" x="225.227" y="-196.5" font-family="Helvetica,sans-Serif" font-size="10.00">xmmGmmParameters.hpp</text>
</a>
</g>
</g>
<!-- Node28&#45;&gt;Node29 -->
<g id="edge42" class="edge"><title>Node28&#45;&gt;Node29</title>
<path fill="none" stroke="midnightblue" d="M244.823,-360.387C237.706,-351.99 227.428,-338.143 223.227,-324 212.472,-287.799 217.461,-242.96 221.622,-218.499"/>
<polygon fill="midnightblue" stroke="midnightblue" points="225.089,-218.997 223.47,-208.526 218.206,-217.721 225.089,-218.997"/>
</g>
<!-- Node29&#45;&gt;Node4 -->
<g id="edge43" class="edge"><title>Node29&#45;&gt;Node4</title>
<path fill="none" stroke="midnightblue" d="M235.816,-190.264C248.986,-180.02 271.692,-162.361 287.754,-149.868"/>
<polygon fill="midnightblue" stroke="midnightblue" points="290.146,-152.441 295.891,-143.539 285.848,-146.916 290.146,-152.441"/>
</g>
<!-- Node29&#45;&gt;Node27 -->
<g id="edge44" class="edge"><title>Node29&#45;&gt;Node27</title>
<path fill="none" stroke="midnightblue" d="M213.068,-190.264C199.736,-181.232 177.892,-166.435 160.27,-154.497"/>
<polygon fill="midnightblue" stroke="midnightblue" points="161.749,-151.272 151.507,-148.561 157.823,-157.067 161.749,-151.272"/>
</g>
</g>
</svg>
