<?xml version="1.0" encoding="UTF-8" standalone="no"?>
<!DOCTYPE svg PUBLIC "-//W3C//DTD SVG 1.1//EN"
 "http://www.w3.org/Graphics/SVG/1.1/DTD/svg11.dtd">
<!-- Generated by graphviz version 2.38.0 (20140413.2041)
 -->
<!-- Title: xmmCircularbuffer.hpp Pages: 1 -->
<svg width="205pt" height="82pt"
 viewBox="0.00 0.00 205.02 82.00" xmlns="http://www.w3.org/2000/svg" xmlns:xlink="http://www.w3.org/1999/xlink">
<g id="graph0" class="graph" transform="scale(1 1) rotate(0) translate(4 78)">
<title>xmmCircularbuffer.hpp</title>
<polygon fill="white" stroke="none" points="-4,4 -4,-78 201.017,-78 201.017,4 -4,4"/>
<!-- Node1 -->
<g id="node1" class="node"><title>Node1</title>
<polygon fill="#bfbfbf" stroke="black" points="32.4058,-55.5 32.4058,-73.5 148.826,-73.5 148.826,-55.5 32.4058,-55.5"/>
<text text-anchor="middle" x="90.6157" y="-61.5" font-family="Helvetica,sans-Serif" font-size="10.00">xmmCircularbuffer.hpp</text>
</g>
<!-- Node2 -->
<g id="node2" class="node"><title>Node2</title>
<polygon fill="white" stroke="#bfbfbf" points="0,-0.5 0,-18.5 43.2314,-18.5 43.2314,-0.5 0,-0.5"/>
<text text-anchor="middle" x="21.6157" y="-6.5" font-family="Helvetica,sans-Serif" font-size="10.00">vector</text>
</g>
<!-- Node1&#45;&gt;Node2 -->
<g id="edge1" class="edge"><title>Node1&#45;&gt;Node2</title>
<path fill="none" stroke="midnightblue" d="M80.1361,-55.4504C69.5989,-47.3566 53.1268,-34.7042 40.3397,-24.8822"/>
<polygon fill="midnightblue" stroke="midnightblue" points="42.2565,-21.9412 32.194,-18.6253 37.9924,-27.4926 42.2565,-21.9412"/>
</g>
<!-- Node3 -->
<g id="node3" class="node"><title>Node3</title>
<polygon fill="white" stroke="#bfbfbf" points="61.2119,-0.5 61.2119,-18.5 120.02,-18.5 120.02,-0.5 61.2119,-0.5"/>
<text text-anchor="middle" x="90.6157" y="-6.5" font-family="Helvetica,sans-Serif" font-size="10.00">exception</text>
</g>
<!-- Node1&#45;&gt;Node3 -->
<g id="edge2" class="edge"><title>Node1&#45;&gt;Node3</title>
<path fill="none" stroke="midnightblue" d="M90.6157,-55.2188C90.6157,-48.1769 90.6157,-37.8083 90.6157,-28.8277"/>
<polygon fill="midnightblue" stroke="midnightblue" points="94.1158,-28.5495 90.6157,-18.5496 87.1158,-28.5496 94.1158,-28.5495"/>
</g>
<!-- Node4 -->
<g id="node4" class="node"><title>Node4</title>
<polygon fill="white" stroke="#bfbfbf" points="138.214,-0.5 138.214,-18.5 197.017,-18.5 197.017,-0.5 138.214,-0.5"/>
<text text-anchor="middle" x="167.616" y="-6.5" font-family="Helvetica,sans-Serif" font-size="10.00">stdexcept</text>
</g>
<!-- Node1&#45;&gt;Node4 -->
<g id="edge3" class="edge"><title>Node1&#45;&gt;Node4</title>
<path fill="none" stroke="midnightblue" d="M102.31,-55.4504C114.295,-47.201 133.161,-34.2158 147.54,-24.3187"/>
<polygon fill="midnightblue" stroke="midnightblue" points="149.558,-27.1782 155.811,-18.6253 145.589,-21.4121 149.558,-27.1782"/>
</g>
</g>
</svg>
