<?xml version="1.0" encoding="UTF-8" standalone="no"?>
<!DOCTYPE svg PUBLIC "-//W3C//DTD SVG 1.1//EN"
 "http://www.w3.org/Graphics/SVG/1.1/DTD/svg11.dtd">
<!-- Generated by graphviz version 2.38.0 (20140413.2041)
 -->
<!-- Title: xmmAttribute.cpp Pages: 1 -->
<svg width="321pt" height="137pt"
 viewBox="0.00 0.00 320.63 137.00" xmlns="http://www.w3.org/2000/svg" xmlns:xlink="http://www.w3.org/1999/xlink">
<g id="graph0" class="graph" transform="scale(1 1) rotate(0) translate(4 133)">
<title>xmmAttribute.cpp</title>
<polygon fill="white" stroke="none" points="-4,4 -4,-133 316.628,-133 316.628,4 -4,4"/>
<!-- Node1 -->
<g id="node1" class="node"><title>Node1</title>
<polygon fill="#bfbfbf" stroke="black" points="176.5,-110.5 176.5,-128.5 270.303,-128.5 270.303,-110.5 176.5,-110.5"/>
<text text-anchor="middle" x="223.401" y="-116.5" font-family="Helvetica,sans-Serif" font-size="10.00">xmmAttribute.cpp</text>
</g>
<!-- Node2 -->
<g id="node2" class="node"><title>Node2</title>
<g id="a_node2"><a xlink:href="xmm_attribute_8hpp.html" target="_top" xlink:title="xmmAttribute.hpp">
<polygon fill="white" stroke="black" points="123.219,-55.5 123.219,-73.5 217.583,-73.5 217.583,-55.5 123.219,-55.5"/>
<text text-anchor="middle" x="170.401" y="-61.5" font-family="Helvetica,sans-Serif" font-size="10.00">xmmAttribute.hpp</text>
</a>
</g>
</g>
<!-- Node1&#45;&gt;Node2 -->
<g id="edge1" class="edge"><title>Node1&#45;&gt;Node2</title>
<path fill="none" stroke="midnightblue" d="M215.12,-110.219C207.296,-102.394 195.364,-90.4631 185.793,-80.8921"/>
<polygon fill="midnightblue" stroke="midnightblue" points="187.997,-78.1458 178.451,-73.5496 183.047,-83.0955 187.997,-78.1458"/>
</g>
<!-- Node6 -->
<g id="node6" class="node"><title>Node6</title>
<polygon fill="white" stroke="#bfbfbf" points="272.175,-0.5 272.175,-18.5 312.628,-18.5 312.628,-0.5 272.175,-0.5"/>
<text text-anchor="middle" x="292.401" y="-6.5" font-family="Helvetica,sans-Serif" font-size="10.00">string</text>
</g>
<!-- Node1&#45;&gt;Node6 -->
<g id="edge7" class="edge"><title>Node1&#45;&gt;Node6</title>
<path fill="none" stroke="midnightblue" d="M228.588,-110.382C239.826,-92.7913 266.625,-50.8457 281.675,-27.2894"/>
<polygon fill="midnightblue" stroke="midnightblue" points="284.72,-29.0231 287.155,-18.7118 278.822,-25.2544 284.72,-29.0231"/>
</g>
<!-- Node3 -->
<g id="node3" class="node"><title>Node3</title>
<polygon fill="white" stroke="#bfbfbf" points="0,-0.5 0,-18.5 58.8027,-18.5 58.8027,-0.5 0,-0.5"/>
<text text-anchor="middle" x="29.4014" y="-6.5" font-family="Helvetica,sans-Serif" font-size="10.00">stdexcept</text>
</g>
<!-- Node2&#45;&gt;Node3 -->
<g id="edge2" class="edge"><title>Node2&#45;&gt;Node3</title>
<path fill="none" stroke="midnightblue" d="M148.987,-55.4504C125.487,-46.6173 87.5429,-32.3546 60.7061,-22.267"/>
<polygon fill="midnightblue" stroke="midnightblue" points="61.6098,-18.8677 51.0178,-18.6253 59.1468,-25.4201 61.6098,-18.8677"/>
</g>
<!-- Node4 -->
<g id="node4" class="node"><title>Node4</title>
<polygon fill="white" stroke="#bfbfbf" points="77.0146,-0.5 77.0146,-18.5 115.788,-18.5 115.788,-0.5 77.0146,-0.5"/>
<text text-anchor="middle" x="96.4014" y="-6.5" font-family="Helvetica,sans-Serif" font-size="10.00">limits</text>
</g>
<!-- Node2&#45;&gt;Node4 -->
<g id="edge3" class="edge"><title>Node2&#45;&gt;Node4</title>
<path fill="none" stroke="midnightblue" d="M159.162,-55.4504C147.753,-47.2788 129.856,-34.4604 116.088,-24.5996"/>
<polygon fill="midnightblue" stroke="midnightblue" points="117.914,-21.6027 107.746,-18.6253 113.838,-27.2936 117.914,-21.6027"/>
</g>
<!-- Node5 -->
<g id="node5" class="node"><title>Node5</title>
<polygon fill="white" stroke="#bfbfbf" points="133.786,-0.5 133.786,-18.5 177.017,-18.5 177.017,-0.5 133.786,-0.5"/>
<text text-anchor="middle" x="155.401" y="-6.5" font-family="Helvetica,sans-Serif" font-size="10.00">vector</text>
</g>
<!-- Node2&#45;&gt;Node5 -->
<g id="edge4" class="edge"><title>Node2&#45;&gt;Node5</title>
<path fill="none" stroke="midnightblue" d="M168.058,-55.2188C166.02,-48.0204 162.999,-37.3458 160.42,-28.2311"/>
<polygon fill="midnightblue" stroke="midnightblue" points="163.771,-27.2185 157.68,-18.5496 157.035,-29.1248 163.771,-27.2185"/>
</g>
<!-- Node2&#45;&gt;Node6 -->
<g id="edge5" class="edge"><title>Node2&#45;&gt;Node6</title>
<path fill="none" stroke="midnightblue" d="M188.931,-55.4504C208.995,-46.734 241.229,-32.7306 264.389,-22.6691"/>
<polygon fill="midnightblue" stroke="midnightblue" points="265.921,-25.8201 273.698,-18.6253 263.131,-19.3997 265.921,-25.8201"/>
</g>
<!-- Node7 -->
<g id="node7" class="node"><title>Node7</title>
<polygon fill="white" stroke="#bfbfbf" points="194.998,-0.5 194.998,-18.5 253.805,-18.5 253.805,-0.5 194.998,-0.5"/>
<text text-anchor="middle" x="224.401" y="-6.5" font-family="Helvetica,sans-Serif" font-size="10.00">functional</text>
</g>
<!-- Node2&#45;&gt;Node7 -->
<g id="edge6" class="edge"><title>Node2&#45;&gt;Node7</title>
<path fill="none" stroke="midnightblue" d="M178.839,-55.2188C186.891,-47.3162 199.211,-35.2241 209.011,-25.6057"/>
<polygon fill="midnightblue" stroke="midnightblue" points="211.515,-28.0522 216.2,-18.5496 206.611,-23.0564 211.515,-28.0522"/>
</g>
</g>
</svg>
