<?xml version="1.0" encoding="UTF-8" standalone="no"?>
<!DOCTYPE svg PUBLIC "-//W3C//DTD SVG 1.1//EN"
 "http://www.w3.org/Graphics/SVG/1.1/DTD/svg11.dtd">
<!-- Generated by graphviz version 2.38.0 (20140413.2041)
 -->
<!-- Title: xmmModelSingleClass.cpp Pages: 1 -->
<svg width="773pt" height="377pt"
 viewBox="0.00 0.00 772.70 377.00" xmlns="http://www.w3.org/2000/svg" xmlns:xlink="http://www.w3.org/1999/xlink">
<g id="graph0" class="graph" transform="scale(1 1) rotate(0) translate(4 373)">
<title>xmmModelSingleClass.cpp</title>
<polygon fill="white" stroke="none" points="-4,4 -4,-373 768.697,-373 768.697,4 -4,4"/>
<!-- Node1 -->
<g id="node1" class="node"><title>Node1</title>
<polygon fill="#bfbfbf" stroke="black" points="261.288,-350.5 261.288,-368.5 397.889,-368.5 397.889,-350.5 261.288,-350.5"/>
<text text-anchor="middle" x="329.588" y="-356.5" font-family="Helvetica,sans-Serif" font-size="10.00">xmmModelSingleClass.cpp</text>
</g>
<!-- Node2 -->
<g id="node2" class="node"><title>Node2</title>
<g id="a_node2"><a xlink:href="xmm_model_single_class_8hpp.html" target="_top" xlink:title="xmmModelSingleClass.hpp">
<polygon fill="white" stroke="black" points="497.007,-295.5 497.007,-313.5 634.169,-313.5 634.169,-295.5 497.007,-295.5"/>
<text text-anchor="middle" x="565.588" y="-301.5" font-family="Helvetica,sans-Serif" font-size="10.00">xmmModelSingleClass.hpp</text>
</a>
</g>
</g>
<!-- Node1&#45;&gt;Node2 -->
<g id="edge1" class="edge"><title>Node1&#45;&gt;Node2</title>
<path fill="none" stroke="midnightblue" d="M365.432,-350.45C406.79,-341.162 474.88,-325.871 519.979,-315.743"/>
<polygon fill="midnightblue" stroke="midnightblue" points="520.805,-319.145 529.795,-313.538 519.271,-312.315 520.805,-319.145"/>
</g>
<!-- Node18 -->
<g id="node18" class="node"><title>Node18</title>
<polygon fill="white" stroke="#bfbfbf" points="22.9727,-65.5 22.9727,-83.5 66.2041,-83.5 66.2041,-65.5 22.9727,-65.5"/>
<text text-anchor="middle" x="44.5884" y="-71.5" font-family="Helvetica,sans-Serif" font-size="10.00">cmath</text>
</g>
<!-- Node1&#45;&gt;Node18 -->
<g id="edge29" class="edge"><title>Node1&#45;&gt;Node18</title>
<path fill="none" stroke="midnightblue" d="M307.579,-350.385C272.936,-336.023 209.588,-302.633 209.588,-250.5 209.588,-250.5 209.588,-250.5 209.588,-188.5 209.588,-155.681 119.603,-109.709 72.539,-87.9085"/>
<polygon fill="midnightblue" stroke="midnightblue" points="73.7452,-84.6116 63.1952,-83.6369 70.8347,-90.9779 73.7452,-84.6116"/>
</g>
<!-- Node3 -->
<g id="node3" class="node"><title>Node3</title>
<g id="a_node3"><a xlink:href="xmm_circularbuffer_8hpp.html" target="_top" xlink:title="../common/xmmCircularbuffer.hpp">
<polygon fill="white" stroke="black" points="229.649,-65.5 229.649,-83.5 395.527,-83.5 395.527,-65.5 229.649,-65.5"/>
<text text-anchor="middle" x="312.588" y="-71.5" font-family="Helvetica,sans-Serif" font-size="10.00">../common/xmmCircularbuffer.hpp</text>
</a>
</g>
</g>
<!-- Node2&#45;&gt;Node3 -->
<g id="edge2" class="edge"><title>Node2&#45;&gt;Node3</title>
<path fill="none" stroke="midnightblue" d="M556.584,-295.385C519.388,-261.865 377.397,-133.904 328.921,-90.2185"/>
<polygon fill="midnightblue" stroke="midnightblue" points="331.257,-87.6119 321.485,-83.5174 326.57,-92.812 331.257,-87.6119"/>
</g>
<!-- Node7 -->
<g id="node7" class="node"><title>Node7</title>
<g id="a_node7"><a xlink:href="xmm_training_set_8hpp.html" target="_top" xlink:title="../trainingset/xmmTraining\lSet.hpp">
<polygon fill="white" stroke="black" points="519.252,-175.5 519.252,-203.5 649.925,-203.5 649.925,-175.5 519.252,-175.5"/>
<text text-anchor="start" x="527.252" y="-191.5" font-family="Helvetica,sans-Serif" font-size="10.00">../trainingset/xmmTraining</text>
<text text-anchor="middle" x="584.588" y="-181.5" font-family="Helvetica,sans-Serif" font-size="10.00">Set.hpp</text>
</a>
</g>
</g>
<!-- Node2&#45;&gt;Node7 -->
<g id="edge6" class="edge"><title>Node2&#45;&gt;Node7</title>
<path fill="none" stroke="midnightblue" d="M554.778,-295.174C540.789,-283.317 519.256,-260.705 528.588,-240 533.962,-228.078 543.784,-217.871 553.718,-209.877"/>
<polygon fill="midnightblue" stroke="midnightblue" points="556.079,-212.482 561.995,-203.693 551.889,-206.874 556.079,-212.482"/>
</g>
<!-- Node16 -->
<g id="node16" class="node"><title>Node16</title>
<g id="a_node16"><a xlink:href="xmm_events_8hpp.html" target="_top" xlink:title="../common/xmmEvents.hpp">
<polygon fill="white" stroke="black" points="614.012,-65.5 614.012,-83.5 751.165,-83.5 751.165,-65.5 614.012,-65.5"/>
<text text-anchor="middle" x="682.588" y="-71.5" font-family="Helvetica,sans-Serif" font-size="10.00">../common/xmmEvents.hpp</text>
</a>
</g>
</g>
<!-- Node2&#45;&gt;Node16 -->
<g id="edge23" class="edge"><title>Node2&#45;&gt;Node16</title>
<path fill="none" stroke="midnightblue" d="M634.453,-298.885C667.611,-293.513 706.047,-282.271 733.588,-259 763.341,-233.86 771.068,-211.898 758.588,-175 746.941,-140.561 718.073,-108.652 699.458,-90.667"/>
<polygon fill="midnightblue" stroke="midnightblue" points="701.645,-87.9202 691.956,-83.6341 696.858,-93.0269 701.645,-87.9202"/>
</g>
<!-- Node20 -->
<g id="node20" class="node"><title>Node20</title>
<g id="a_node20"><a xlink:href="xmm_model_shared_parameters_8hpp.html" target="_top" xlink:title="xmmModelSharedParameters.hpp">
<polygon fill="white" stroke="black" points="537.443,-240.5 537.443,-258.5 705.733,-258.5 705.733,-240.5 537.443,-240.5"/>
<text text-anchor="middle" x="621.588" y="-246.5" font-family="Helvetica,sans-Serif" font-size="10.00">xmmModelSharedParameters.hpp</text>
</a>
</g>
</g>
<!-- Node2&#45;&gt;Node20 -->
<g id="edge24" class="edge"><title>Node2&#45;&gt;Node20</title>
<path fill="none" stroke="midnightblue" d="M574.338,-295.219C582.688,-287.316 595.465,-275.224 605.628,-265.606"/>
<polygon fill="midnightblue" stroke="midnightblue" points="608.226,-267.965 613.083,-258.55 603.414,-262.881 608.226,-267.965"/>
</g>
<!-- Node21 -->
<g id="node21" class="node"><title>Node21</title>
<polygon fill="white" stroke="#bfbfbf" points="705.973,-180.5 705.973,-198.5 749.204,-198.5 749.204,-180.5 705.973,-180.5"/>
<text text-anchor="middle" x="727.588" y="-186.5" font-family="Helvetica,sans-Serif" font-size="10.00">mutex</text>
</g>
<!-- Node2&#45;&gt;Node21 -->
<g id="edge28" class="edge"><title>Node2&#45;&gt;Node21</title>
<path fill="none" stroke="midnightblue" d="M634.376,-298.485C663.004,-292.874 694.243,-281.55 714.588,-259 726.736,-245.536 729.118,-224.372 729.004,-209.13"/>
<polygon fill="midnightblue" stroke="midnightblue" points="732.488,-208.691 728.551,-198.855 725.495,-209 732.488,-208.691"/>
</g>
<!-- Node4 -->
<g id="node4" class="node"><title>Node4</title>
<polygon fill="white" stroke="#bfbfbf" points="290.973,-5.5 290.973,-23.5 334.204,-23.5 334.204,-5.5 290.973,-5.5"/>
<text text-anchor="middle" x="312.588" y="-11.5" font-family="Helvetica,sans-Serif" font-size="10.00">vector</text>
</g>
<!-- Node3&#45;&gt;Node4 -->
<g id="edge3" class="edge"><title>Node3&#45;&gt;Node4</title>
<path fill="none" stroke="midnightblue" d="M312.588,-65.4353C312.588,-57.3891 312.588,-44.7388 312.588,-34.1846"/>
<polygon fill="midnightblue" stroke="midnightblue" points="316.088,-33.8717 312.588,-23.8718 309.088,-33.8718 316.088,-33.8717"/>
</g>
<!-- Node5 -->
<g id="node5" class="node"><title>Node5</title>
<polygon fill="white" stroke="#bfbfbf" points="214.185,-5.5 214.185,-23.5 272.992,-23.5 272.992,-5.5 214.185,-5.5"/>
<text text-anchor="middle" x="243.588" y="-11.5" font-family="Helvetica,sans-Serif" font-size="10.00">exception</text>
</g>
<!-- Node3&#45;&gt;Node5 -->
<g id="edge4" class="edge"><title>Node3&#45;&gt;Node5</title>
<path fill="none" stroke="midnightblue" d="M302.994,-65.4353C292.302,-56.4475 274.775,-41.7151 261.524,-30.5762"/>
<polygon fill="midnightblue" stroke="midnightblue" points="263.455,-27.6271 253.548,-23.8718 258.951,-32.9855 263.455,-27.6271"/>
</g>
<!-- Node6 -->
<g id="node6" class="node"><title>Node6</title>
<polygon fill="white" stroke="#bfbfbf" points="352.187,-5.5 352.187,-23.5 410.99,-23.5 410.99,-5.5 352.187,-5.5"/>
<text text-anchor="middle" x="381.588" y="-11.5" font-family="Helvetica,sans-Serif" font-size="10.00">stdexcept</text>
</g>
<!-- Node3&#45;&gt;Node6 -->
<g id="edge5" class="edge"><title>Node3&#45;&gt;Node6</title>
<path fill="none" stroke="midnightblue" d="M322.183,-65.4353C332.875,-56.4475 350.401,-41.7151 363.653,-30.5762"/>
<polygon fill="midnightblue" stroke="midnightblue" points="366.226,-32.9855 371.629,-23.8718 361.722,-27.6271 366.226,-32.9855"/>
</g>
<!-- Node8 -->
<g id="node8" class="node"><title>Node8</title>
<g id="a_node8"><a xlink:href="xmm_phrase_8hpp.html" target="_top" xlink:title="xmmPhrase.hpp">
<polygon fill="white" stroke="black" points="441.185,-120.5 441.185,-138.5 529.992,-138.5 529.992,-120.5 441.185,-120.5"/>
<text text-anchor="middle" x="485.588" y="-126.5" font-family="Helvetica,sans-Serif" font-size="10.00">xmmPhrase.hpp</text>
</a>
</g>
</g>
<!-- Node7&#45;&gt;Node8 -->
<g id="edge7" class="edge"><title>Node7&#45;&gt;Node8</title>
<path fill="none" stroke="midnightblue" d="M562.124,-175.339C546.005,-165.895 524.368,-153.22 508.213,-143.755"/>
<polygon fill="midnightblue" stroke="midnightblue" points="509.815,-140.637 499.417,-138.602 506.276,-146.677 509.815,-140.637"/>
</g>
<!-- Node17 -->
<g id="node17" class="node"><title>Node17</title>
<polygon fill="white" stroke="#bfbfbf" points="644.918,-5.5 644.918,-23.5 674.258,-23.5 674.258,-5.5 644.918,-5.5"/>
<text text-anchor="middle" x="659.588" y="-11.5" font-family="Helvetica,sans-Serif" font-size="10.00">set</text>
</g>
<!-- Node7&#45;&gt;Node17 -->
<g id="edge22" class="edge"><title>Node7&#45;&gt;Node17</title>
<path fill="none" stroke="midnightblue" d="M583.951,-175.331C583.384,-151.711 584.83,-101.231 604.588,-65 612.43,-50.6202 626.104,-38.2856 637.855,-29.5258"/>
<polygon fill="midnightblue" stroke="midnightblue" points="640.179,-32.17 646.338,-23.5493 636.147,-26.4476 640.179,-32.17"/>
</g>
<!-- Node19 -->
<g id="node19" class="node"><title>Node19</title>
<polygon fill="white" stroke="#bfbfbf" points="613.862,-120.5 613.862,-138.5 649.315,-138.5 649.315,-120.5 613.862,-120.5"/>
<text text-anchor="middle" x="631.588" y="-126.5" font-family="Helvetica,sans-Serif" font-size="10.00">map</text>
</g>
<!-- Node7&#45;&gt;Node19 -->
<g id="edge21" class="edge"><title>Node7&#45;&gt;Node19</title>
<path fill="none" stroke="midnightblue" d="M595.253,-175.339C602.15,-166.829 611.173,-155.693 618.502,-146.649"/>
<polygon fill="midnightblue" stroke="midnightblue" points="621.309,-148.744 624.886,-138.771 615.87,-144.337 621.309,-148.744"/>
</g>
<!-- Node9 -->
<g id="node9" class="node"><title>Node9</title>
<g id="a_node9"><a xlink:href="xmm_json_8hpp.html" target="_top" xlink:title="../common/xmmJson.hpp">
<polygon fill="white" stroke="black" points="83.7363,-65.5 83.7363,-83.5 211.44,-83.5 211.44,-65.5 83.7363,-65.5"/>
<text text-anchor="middle" x="147.588" y="-71.5" font-family="Helvetica,sans-Serif" font-size="10.00">../common/xmmJson.hpp</text>
</a>
</g>
</g>
<!-- Node8&#45;&gt;Node9 -->
<g id="edge8" class="edge"><title>Node8&#45;&gt;Node9</title>
<path fill="none" stroke="midnightblue" d="M441.053,-121.517C381.546,-112.186 275.84,-95.6104 208.856,-85.1071"/>
<polygon fill="midnightblue" stroke="midnightblue" points="209.28,-81.6308 198.858,-83.5393 208.195,-88.5463 209.28,-81.6308"/>
</g>
<!-- Node12 -->
<g id="node12" class="node"><title>Node12</title>
<g id="a_node12"><a xlink:href="xmm_attribute_8hpp.html" target="_top" xlink:title="../common/xmmAttribute.hpp">
<polygon fill="white" stroke="black" points="413.677,-65.5 413.677,-83.5 557.5,-83.5 557.5,-65.5 413.677,-65.5"/>
<text text-anchor="middle" x="485.588" y="-71.5" font-family="Helvetica,sans-Serif" font-size="10.00">../common/xmmAttribute.hpp</text>
</a>
</g>
</g>
<!-- Node8&#45;&gt;Node12 -->
<g id="edge12" class="edge"><title>Node8&#45;&gt;Node12</title>
<path fill="none" stroke="midnightblue" d="M485.588,-120.219C485.588,-113.177 485.588,-102.808 485.588,-93.8277"/>
<polygon fill="midnightblue" stroke="midnightblue" points="489.088,-93.5495 485.588,-83.5496 482.088,-93.5496 489.088,-93.5495"/>
</g>
<!-- Node8&#45;&gt;Node16 -->
<g id="edge18" class="edge"><title>Node8&#45;&gt;Node16</title>
<path fill="none" stroke="midnightblue" d="M515.508,-120.45C549.452,-111.318 604.966,-96.3833 642.602,-86.2578"/>
<polygon fill="midnightblue" stroke="midnightblue" points="643.963,-89.5162 652.71,-83.5383 642.144,-82.7565 643.963,-89.5162"/>
</g>
<!-- Node8&#45;&gt;Node18 -->
<g id="edge20" class="edge"><title>Node8&#45;&gt;Node18</title>
<path fill="none" stroke="midnightblue" d="M441.127,-126.144C367.112,-121.687 213.91,-110.197 76.3192,-84.0581"/>
<polygon fill="midnightblue" stroke="midnightblue" points="76.9231,-80.6102 66.4409,-82.1507 75.5959,-87.4832 76.9231,-80.6102"/>
</g>
<!-- Node9&#45;&gt;Node4 -->
<g id="edge11" class="edge"><title>Node9&#45;&gt;Node4</title>
<path fill="none" stroke="midnightblue" d="M174.026,-65.4941C201.234,-57.0747 244.732,-43.1123 281.588,-29 282.791,-28.5395 284.015,-28.0588 285.248,-27.5648"/>
<polygon fill="midnightblue" stroke="midnightblue" points="286.792,-30.7132 294.67,-23.6293 284.094,-24.2541 286.792,-30.7132"/>
</g>
<!-- Node10 -->
<g id="node10" class="node"><title>Node10</title>
<polygon fill="white" stroke="#bfbfbf" points="0,-0.5 0,-28.5 117.177,-28.5 117.177,-0.5 0,-0.5"/>
<text text-anchor="start" x="8" y="-16.5" font-family="Helvetica,sans-Serif" font-size="10.00">../../../dependencies</text>
<text text-anchor="middle" x="58.5884" y="-6.5" font-family="Helvetica,sans-Serif" font-size="10.00">/jsoncpp/include/json.h</text>
</g>
<!-- Node9&#45;&gt;Node10 -->
<g id="edge9" class="edge"><title>Node9&#45;&gt;Node10</title>
<path fill="none" stroke="midnightblue" d="M135.213,-65.4353C122.881,-57.3989 103.502,-44.7694 87.3183,-34.2229"/>
<polygon fill="midnightblue" stroke="midnightblue" points="89.0102,-31.1479 78.7213,-28.6203 85.1883,-37.0125 89.0102,-31.1479"/>
</g>
<!-- Node11 -->
<g id="node11" class="node"><title>Node11</title>
<polygon fill="white" stroke="#bfbfbf" points="134.918,-5.5 134.918,-23.5 184.258,-23.5 184.258,-5.5 134.918,-5.5"/>
<text text-anchor="middle" x="159.588" y="-11.5" font-family="Helvetica,sans-Serif" font-size="10.00">fstream</text>
</g>
<!-- Node9&#45;&gt;Node11 -->
<g id="edge10" class="edge"><title>Node9&#45;&gt;Node11</title>
<path fill="none" stroke="midnightblue" d="M149.257,-65.4353C150.939,-57.3035 153.595,-44.4692 155.792,-33.8485"/>
<polygon fill="midnightblue" stroke="midnightblue" points="159.258,-34.3735 157.856,-23.8718 152.403,-32.9552 159.258,-34.3735"/>
</g>
<!-- Node12&#45;&gt;Node4 -->
<g id="edge15" class="edge"><title>Node12&#45;&gt;Node4</title>
<path fill="none" stroke="midnightblue" d="M456.725,-65.4395C427.816,-57.1367 382.194,-43.4081 343.588,-29 342.213,-28.4869 340.811,-27.9452 339.401,-27.3855"/>
<polygon fill="midnightblue" stroke="midnightblue" points="340.737,-24.1507 330.16,-23.5406 338.048,-30.6136 340.737,-24.1507"/>
</g>
<!-- Node12&#45;&gt;Node6 -->
<g id="edge13" class="edge"><title>Node12&#45;&gt;Node6</title>
<path fill="none" stroke="midnightblue" d="M471.128,-65.4353C454.071,-55.923 425.476,-39.9759 405.194,-28.6645"/>
<polygon fill="midnightblue" stroke="midnightblue" points="406.7,-25.4971 396.262,-23.6831 403.29,-31.6106 406.7,-25.4971"/>
</g>
<!-- Node13 -->
<g id="node13" class="node"><title>Node13</title>
<polygon fill="white" stroke="#bfbfbf" points="429.202,-5.5 429.202,-23.5 467.975,-23.5 467.975,-5.5 429.202,-5.5"/>
<text text-anchor="middle" x="448.588" y="-11.5" font-family="Helvetica,sans-Serif" font-size="10.00">limits</text>
</g>
<!-- Node12&#45;&gt;Node13 -->
<g id="edge14" class="edge"><title>Node12&#45;&gt;Node13</title>
<path fill="none" stroke="midnightblue" d="M480.444,-65.4353C475.038,-56.9611 466.374,-43.38 459.445,-32.5192"/>
<polygon fill="midnightblue" stroke="midnightblue" points="462.258,-30.42 453.929,-23.8718 456.356,-34.1848 462.258,-30.42"/>
</g>
<!-- Node14 -->
<g id="node14" class="node"><title>Node14</title>
<polygon fill="white" stroke="#bfbfbf" points="486.362,-5.5 486.362,-23.5 526.815,-23.5 526.815,-5.5 486.362,-5.5"/>
<text text-anchor="middle" x="506.588" y="-11.5" font-family="Helvetica,sans-Serif" font-size="10.00">string</text>
</g>
<!-- Node12&#45;&gt;Node14 -->
<g id="edge16" class="edge"><title>Node12&#45;&gt;Node14</title>
<path fill="none" stroke="midnightblue" d="M488.508,-65.4353C491.484,-57.2179 496.198,-44.1985 500.066,-33.5138"/>
<polygon fill="midnightblue" stroke="midnightblue" points="503.444,-34.466 503.557,-23.8718 496.862,-32.0829 503.444,-34.466"/>
</g>
<!-- Node15 -->
<g id="node15" class="node"><title>Node15</title>
<polygon fill="white" stroke="#bfbfbf" points="545.185,-5.5 545.185,-23.5 603.992,-23.5 603.992,-5.5 545.185,-5.5"/>
<text text-anchor="middle" x="574.588" y="-11.5" font-family="Helvetica,sans-Serif" font-size="10.00">functional</text>
</g>
<!-- Node12&#45;&gt;Node15 -->
<g id="edge17" class="edge"><title>Node12&#45;&gt;Node15</title>
<path fill="none" stroke="midnightblue" d="M497.963,-65.4353C512.23,-56.1382 535.928,-40.6942 553.199,-29.4393"/>
<polygon fill="midnightblue" stroke="midnightblue" points="555.564,-32.0753 562.031,-23.6831 551.743,-26.2107 555.564,-32.0753"/>
</g>
<!-- Node16&#45;&gt;Node17 -->
<g id="edge19" class="edge"><title>Node16&#45;&gt;Node17</title>
<path fill="none" stroke="midnightblue" d="M679.39,-65.4353C676.098,-57.1323 670.861,-43.9267 666.6,-33.1807"/>
<polygon fill="midnightblue" stroke="midnightblue" points="669.848,-31.8773 662.908,-23.8718 663.341,-34.4578 669.848,-31.8773"/>
</g>
<!-- Node20&#45;&gt;Node7 -->
<g id="edge25" class="edge"><title>Node20&#45;&gt;Node7</title>
<path fill="none" stroke="midnightblue" d="M616.444,-240.435C611.822,-233.191 604.819,-222.213 598.555,-212.394"/>
<polygon fill="midnightblue" stroke="midnightblue" points="601.429,-210.391 593.1,-203.843 595.528,-214.156 601.429,-210.391"/>
</g>
<!-- Node20&#45;&gt;Node16 -->
<g id="edge26" class="edge"><title>Node20&#45;&gt;Node16</title>
<path fill="none" stroke="midnightblue" d="M630.736,-240.246C639.327,-231.952 651.839,-218.369 658.588,-204 675.742,-167.483 680.645,-119.716 682.04,-93.9336"/>
<polygon fill="midnightblue" stroke="midnightblue" points="685.545,-93.8914 682.465,-83.754 678.551,-93.599 685.545,-93.8914"/>
</g>
<!-- Node20&#45;&gt;Node21 -->
<g id="edge27" class="edge"><title>Node20&#45;&gt;Node21</title>
<path fill="none" stroke="midnightblue" d="M636.327,-240.435C653.79,-230.88 683.12,-214.832 703.809,-203.511"/>
<polygon fill="midnightblue" stroke="midnightblue" points="705.54,-206.554 712.633,-198.683 702.18,-200.413 705.54,-206.554"/>
</g>
</g>
</svg>
