<?xml version="1.0" encoding="UTF-8" standalone="no"?>
<!DOCTYPE svg PUBLIC "-//W3C//DTD SVG 1.1//EN"
 "http://www.w3.org/Graphics/SVG/1.1/DTD/svg11.dtd">
<!-- Generated by graphviz version 2.38.0 (20140413.2041)
 -->
<!-- Title: xmm.h Pages: 1 -->
<svg width="1840pt" height="572pt"
 viewBox="0.00 0.00 1839.99 572.00" xmlns="http://www.w3.org/2000/svg" xmlns:xlink="http://www.w3.org/1999/xlink">
<g id="graph0" class="graph" transform="scale(1 1) rotate(0) translate(4 568)">
<title>xmm.h</title>
<polygon fill="white" stroke="none" points="-4,4 -4,-568 1835.99,-568 1835.99,4 -4,4"/>
<!-- Node1 -->
<g id="node1" class="node"><title>Node1</title>
<polygon fill="#bfbfbf" stroke="black" points="974.227,-545.5 974.227,-563.5 1020.23,-563.5 1020.23,-545.5 974.227,-545.5"/>
<text text-anchor="middle" x="997.227" y="-551.5" font-family="Helvetica,sans-Serif" font-size="10.00">xmm.h</text>
</g>
<!-- Node2 -->
<g id="node2" class="node"><title>Node2</title>
<g id="a_node2"><a xlink:href="xmm_gmm_8hpp.html" target="_top" xlink:title="models/gmm/xmmGmm.hpp">
<polygon fill="white" stroke="black" points="130.438,-415.5 130.438,-433.5 272.015,-433.5 272.015,-415.5 130.438,-415.5"/>
<text text-anchor="middle" x="201.227" y="-421.5" font-family="Helvetica,sans-Serif" font-size="10.00">models/gmm/xmmGmm.hpp</text>
</a>
</g>
</g>
<!-- Node1&#45;&gt;Node2 -->
<g id="edge1" class="edge"><title>Node1&#45;&gt;Node2</title>
<path fill="none" stroke="midnightblue" d="M974.209,-553.17C841.824,-551.162 182.292,-539.638 153.227,-509 141.297,-496.425 146.292,-485.886 153.227,-470 158.571,-457.756 169.13,-447.373 178.987,-439.724"/>
<polygon fill="midnightblue" stroke="midnightblue" points="181.247,-442.41 187.319,-433.728 177.158,-436.728 181.247,-442.41"/>
</g>
<!-- Node9 -->
<g id="node9" class="node"><title>Node9</title>
<polygon fill="white" stroke="#bfbfbf" points="269.611,-5.5 269.611,-23.5 312.842,-23.5 312.842,-5.5 269.611,-5.5"/>
<text text-anchor="middle" x="291.227" y="-11.5" font-family="Helvetica,sans-Serif" font-size="10.00">vector</text>
</g>
<!-- Node1&#45;&gt;Node9 -->
<g id="edge51" class="edge"><title>Node1&#45;&gt;Node9</title>
<path fill="none" stroke="midnightblue" d="M973.937,-553.631C841.293,-554.209 184.411,-554.733 108.227,-509 71.1399,-486.737 58.2266,-468.756 58.2266,-425.5 58.2266,-425.5 58.2266,-425.5 58.2266,-313.5 58.2266,-279.76 60.8374,-269.493 77.2266,-240 129.482,-145.965 230.514,-61.9696 272.363,-29.617"/>
<polygon fill="midnightblue" stroke="midnightblue" points="274.533,-32.3635 280.356,-23.5121 270.284,-26.8005 274.533,-32.3635"/>
</g>
<!-- Node13 -->
<g id="node13" class="node"><title>Node13</title>
<polygon fill="white" stroke="#bfbfbf" points="0,-5.5 0,-23.5 40.4531,-23.5 40.4531,-5.5 0,-5.5"/>
<text text-anchor="middle" x="20.2266" y="-11.5" font-family="Helvetica,sans-Serif" font-size="10.00">string</text>
</g>
<!-- Node1&#45;&gt;Node13 -->
<g id="edge50" class="edge"><title>Node1&#45;&gt;Node13</title>
<path fill="none" stroke="midnightblue" d="M973.831,-553.044C832.991,-550.219 102.697,-534.379 63.2266,-509 28.1153,-486.424 20.2266,-467.243 20.2266,-425.5 20.2266,-425.5 20.2266,-425.5 20.2266,-128.5 20.2266,-95.088 20.2266,-56.1189 20.2266,-33.775"/>
<polygon fill="midnightblue" stroke="midnightblue" points="23.7267,-33.7235 20.2266,-23.7235 16.7267,-33.7235 23.7267,-33.7235"/>
</g>
<!-- Node17 -->
<g id="node17" class="node"><title>Node17</title>
<polygon fill="white" stroke="#bfbfbf" points="518.823,-180.5 518.823,-198.5 577.63,-198.5 577.63,-180.5 518.823,-180.5"/>
<text text-anchor="middle" x="548.227" y="-186.5" font-family="Helvetica,sans-Serif" font-size="10.00">exception</text>
</g>
<!-- Node1&#45;&gt;Node17 -->
<g id="edge52" class="edge"><title>Node1&#45;&gt;Node17</title>
<path fill="none" stroke="midnightblue" d="M974.029,-553.051C840.595,-550.375 175.628,-535.73 142.227,-509 108.804,-482.253 96.359,-449.844 121.227,-415 202.414,-301.242 291.271,-372.816 422.227,-324 439.92,-317.405 442.636,-311.864 460.227,-305 514.085,-283.984 550.46,-315.192 585.227,-269 600.098,-249.241 580.688,-222.548 564.844,-205.936"/>
<polygon fill="midnightblue" stroke="midnightblue" points="567.081,-203.226 557.518,-198.666 562.15,-208.194 567.081,-203.226"/>
</g>
<!-- Node23 -->
<g id="node23" class="node"><title>Node23</title>
<polygon fill="white" stroke="#bfbfbf" points="676.5,-120.5 676.5,-138.5 711.953,-138.5 711.953,-120.5 676.5,-120.5"/>
<text text-anchor="middle" x="694.227" y="-126.5" font-family="Helvetica,sans-Serif" font-size="10.00">map</text>
</g>
<!-- Node1&#45;&gt;Node23 -->
<g id="edge53" class="edge"><title>Node1&#45;&gt;Node23</title>
<path fill="none" stroke="midnightblue" d="M1020.61,-553.137C1152.12,-550.981 1794.86,-538.938 1823.23,-509 1835.15,-496.418 1834.59,-483.091 1823.23,-470 1521.04,-121.813 1173.2,-589.412 796.227,-324 734.617,-280.623 707.236,-188.248 698.036,-148.884"/>
<polygon fill="midnightblue" stroke="midnightblue" points="701.4,-147.885 695.827,-138.875 694.564,-149.394 701.4,-147.885"/>
</g>
<!-- Node31 -->
<g id="node31" class="node"><title>Node31</title>
<polygon fill="white" stroke="#bfbfbf" points="330.688,-470.5 330.688,-508.5 481.766,-508.5 481.766,-470.5 330.688,-470.5"/>
<text text-anchor="start" x="338.688" y="-496.5" font-family="Helvetica,sans-Serif" font-size="10.00">/Users/jfrancoi/Documents</text>
<text text-anchor="start" x="338.688" y="-486.5" font-family="Helvetica,sans-Serif" font-size="10.00">/Code/cpp/xmm/dependencies</text>
<text text-anchor="middle" x="406.227" y="-476.5" font-family="Helvetica,sans-Serif" font-size="10.00">/jsoncpp/include/autolink.h</text>
</g>
<!-- Node1&#45;&gt;Node31 -->
<g id="edge46" class="edge"><title>Node1&#45;&gt;Node31</title>
<path fill="none" stroke="midnightblue" d="M974.107,-552.536C903.334,-549.361 683.299,-537.83 492.096,-509.191"/>
<polygon fill="midnightblue" stroke="midnightblue" points="492.562,-505.722 482.15,-507.682 491.512,-512.643 492.562,-505.722"/>
</g>
<!-- Node32 -->
<g id="node32" class="node"><title>Node32</title>
<polygon fill="white" stroke="#bfbfbf" points="499.688,-470.5 499.688,-508.5 650.766,-508.5 650.766,-470.5 499.688,-470.5"/>
<text text-anchor="start" x="507.688" y="-496.5" font-family="Helvetica,sans-Serif" font-size="10.00">/Users/jfrancoi/Documents</text>
<text text-anchor="start" x="507.688" y="-486.5" font-family="Helvetica,sans-Serif" font-size="10.00">/Code/cpp/xmm/dependencies</text>
<text text-anchor="middle" x="575.227" y="-476.5" font-family="Helvetica,sans-Serif" font-size="10.00">/jsoncpp/include/config.h</text>
</g>
<!-- Node1&#45;&gt;Node32 -->
<g id="edge47" class="edge"><title>Node1&#45;&gt;Node32</title>
<path fill="none" stroke="midnightblue" d="M974.172,-551.156C920.796,-545.582 784.429,-530.503 661.159,-509.271"/>
<polygon fill="midnightblue" stroke="midnightblue" points="661.627,-505.8 651.175,-507.533 660.426,-512.697 661.627,-505.8"/>
</g>
<!-- Node33 -->
<g id="node33" class="node"><title>Node33</title>
<polygon fill="white" stroke="#bfbfbf" points="668.688,-470.5 668.688,-508.5 819.766,-508.5 819.766,-470.5 668.688,-470.5"/>
<text text-anchor="start" x="676.688" y="-496.5" font-family="Helvetica,sans-Serif" font-size="10.00">/Users/jfrancoi/Documents</text>
<text text-anchor="start" x="676.688" y="-486.5" font-family="Helvetica,sans-Serif" font-size="10.00">/Code/cpp/xmm/dependencies</text>
<text text-anchor="middle" x="744.227" y="-476.5" font-family="Helvetica,sans-Serif" font-size="10.00">/jsoncpp/include/value.h</text>
</g>
<!-- Node1&#45;&gt;Node33 -->
<g id="edge48" class="edge"><title>Node1&#45;&gt;Node33</title>
<path fill="none" stroke="midnightblue" d="M973.878,-547.686C940.608,-539.401 877.884,-523.782 826.384,-510.958"/>
<polygon fill="midnightblue" stroke="midnightblue" points="827.127,-507.536 816.578,-508.516 825.436,-514.329 827.127,-507.536"/>
</g>
<!-- Node34 -->
<g id="node34" class="node"><title>Node34</title>
<polygon fill="white" stroke="#bfbfbf" points="837.688,-470.5 837.688,-508.5 988.766,-508.5 988.766,-470.5 837.688,-470.5"/>
<text text-anchor="start" x="845.688" y="-496.5" font-family="Helvetica,sans-Serif" font-size="10.00">/Users/jfrancoi/Documents</text>
<text text-anchor="start" x="845.688" y="-486.5" font-family="Helvetica,sans-Serif" font-size="10.00">/Code/cpp/xmm/dependencies</text>
<text text-anchor="middle" x="913.227" y="-476.5" font-family="Helvetica,sans-Serif" font-size="10.00">/jsoncpp/include/forwards.h</text>
</g>
<!-- Node1&#45;&gt;Node34 -->
<g id="edge49" class="edge"><title>Node1&#45;&gt;Node34</title>
<path fill="none" stroke="midnightblue" d="M986.245,-545.264C975.91,-537.513 959.914,-525.516 945.525,-514.724"/>
<polygon fill="midnightblue" stroke="midnightblue" points="947.394,-511.751 937.294,-508.551 943.194,-517.351 947.394,-511.751"/>
</g>
<!-- Node35 -->
<g id="node35" class="node"><title>Node35</title>
<polygon fill="white" stroke="#bfbfbf" points="1006.69,-470.5 1006.69,-508.5 1157.77,-508.5 1157.77,-470.5 1006.69,-470.5"/>
<text text-anchor="start" x="1014.69" y="-496.5" font-family="Helvetica,sans-Serif" font-size="10.00">/Users/jfrancoi/Documents</text>
<text text-anchor="start" x="1014.69" y="-486.5" font-family="Helvetica,sans-Serif" font-size="10.00">/Code/cpp/xmm/dependencies</text>
<text text-anchor="middle" x="1082.23" y="-476.5" font-family="Helvetica,sans-Serif" font-size="10.00">/jsoncpp/include/reader.h</text>
</g>
<!-- Node1&#45;&gt;Node35 -->
<g id="edge54" class="edge"><title>Node1&#45;&gt;Node35</title>
<path fill="none" stroke="midnightblue" d="M1008.34,-545.264C1018.8,-537.513 1034.98,-525.516 1049.54,-514.724"/>
<polygon fill="midnightblue" stroke="midnightblue" points="1051.92,-517.317 1057.87,-508.551 1047.75,-511.693 1051.92,-517.317"/>
</g>
<!-- Node36 -->
<g id="node36" class="node"><title>Node36</title>
<polygon fill="white" stroke="#bfbfbf" points="1175.69,-470.5 1175.69,-508.5 1326.77,-508.5 1326.77,-470.5 1175.69,-470.5"/>
<text text-anchor="start" x="1183.69" y="-496.5" font-family="Helvetica,sans-Serif" font-size="10.00">/Users/jfrancoi/Documents</text>
<text text-anchor="start" x="1183.69" y="-486.5" font-family="Helvetica,sans-Serif" font-size="10.00">/Code/cpp/xmm/dependencies</text>
<text text-anchor="middle" x="1251.23" y="-476.5" font-family="Helvetica,sans-Serif" font-size="10.00">/jsoncpp/include/features.h</text>
</g>
<!-- Node1&#45;&gt;Node36 -->
<g id="edge55" class="edge"><title>Node1&#45;&gt;Node36</title>
<path fill="none" stroke="midnightblue" d="M1020.67,-547.686C1054.07,-539.401 1117.04,-523.782 1168.74,-510.958"/>
<polygon fill="midnightblue" stroke="midnightblue" points="1169.73,-514.321 1178.59,-508.516 1168.04,-507.527 1169.73,-514.321"/>
</g>
<!-- Node37 -->
<g id="node37" class="node"><title>Node37</title>
<polygon fill="white" stroke="#bfbfbf" points="1344.32,-480.5 1344.32,-498.5 1388.13,-498.5 1388.13,-480.5 1344.32,-480.5"/>
<text text-anchor="middle" x="1366.23" y="-486.5" font-family="Helvetica,sans-Serif" font-size="10.00">deque</text>
</g>
<!-- Node1&#45;&gt;Node37 -->
<g id="edge56" class="edge"><title>Node1&#45;&gt;Node37</title>
<path fill="none" stroke="midnightblue" d="M1020.62,-553.757C1076.77,-553.672 1222.97,-549.262 1336.23,-509 1339.9,-507.693 1343.61,-505.89 1347.1,-503.919"/>
<polygon fill="midnightblue" stroke="midnightblue" points="1349.07,-506.814 1355.68,-498.534 1345.35,-500.885 1349.07,-506.814"/>
</g>
<!-- Node38 -->
<g id="node38" class="node"><title>Node38</title>
<polygon fill="white" stroke="#bfbfbf" points="1406.05,-480.5 1406.05,-498.5 1450.4,-498.5 1450.4,-480.5 1406.05,-480.5"/>
<text text-anchor="middle" x="1428.23" y="-486.5" font-family="Helvetica,sans-Serif" font-size="10.00">iosfwd</text>
</g>
<!-- Node1&#45;&gt;Node38 -->
<g id="edge57" class="edge"><title>Node1&#45;&gt;Node38</title>
<path fill="none" stroke="midnightblue" d="M1020.27,-552.224C1094.46,-547.916 1326.36,-532.832 1397.23,-509 1401.13,-507.689 1405.06,-505.834 1408.76,-503.801"/>
<polygon fill="midnightblue" stroke="midnightblue" points="1410.6,-506.782 1417.31,-498.586 1406.95,-500.805 1410.6,-506.782"/>
</g>
<!-- Node39 -->
<g id="node39" class="node"><title>Node39</title>
<polygon fill="white" stroke="#bfbfbf" points="1468.56,-480.5 1468.56,-498.5 1507.9,-498.5 1507.9,-480.5 1468.56,-480.5"/>
<text text-anchor="middle" x="1488.23" y="-486.5" font-family="Helvetica,sans-Serif" font-size="10.00">stack</text>
</g>
<!-- Node1&#45;&gt;Node39 -->
<g id="edge58" class="edge"><title>Node1&#45;&gt;Node39</title>
<path fill="none" stroke="midnightblue" d="M1020.37,-552.7C1102.09,-549.655 1376.57,-537.491 1459.23,-509 1462.72,-507.796 1466.22,-506.093 1469.52,-504.203"/>
<polygon fill="midnightblue" stroke="midnightblue" points="1471.62,-507.013 1478.11,-498.639 1467.81,-501.138 1471.62,-507.013"/>
</g>
<!-- Node40 -->
<g id="node40" class="node"><title>Node40</title>
<polygon fill="white" stroke="#bfbfbf" points="1525.83,-480.5 1525.83,-498.5 1574.62,-498.5 1574.62,-480.5 1525.83,-480.5"/>
<text text-anchor="middle" x="1550.23" y="-486.5" font-family="Helvetica,sans-Serif" font-size="10.00">istream</text>
</g>
<!-- Node1&#45;&gt;Node40 -->
<g id="edge59" class="edge"><title>Node1&#45;&gt;Node40</title>
<path fill="none" stroke="midnightblue" d="M1020.43,-552.816C1108.55,-550.018 1422.28,-538.179 1517.23,-509 1521.46,-507.698 1525.76,-505.796 1529.79,-503.701"/>
<polygon fill="midnightblue" stroke="midnightblue" points="1531.64,-506.677 1538.56,-498.656 1528.15,-500.61 1531.64,-506.677"/>
</g>
<!-- Node41 -->
<g id="node41" class="node"><title>Node41</title>
<polygon fill="white" stroke="#bfbfbf" points="1592.69,-470.5 1592.69,-508.5 1743.77,-508.5 1743.77,-470.5 1592.69,-470.5"/>
<text text-anchor="start" x="1600.69" y="-496.5" font-family="Helvetica,sans-Serif" font-size="10.00">/Users/jfrancoi/Documents</text>
<text text-anchor="start" x="1600.69" y="-486.5" font-family="Helvetica,sans-Serif" font-size="10.00">/Code/cpp/xmm/dependencies</text>
<text text-anchor="middle" x="1668.23" y="-476.5" font-family="Helvetica,sans-Serif" font-size="10.00">/jsoncpp/include/writer.h</text>
</g>
<!-- Node1&#45;&gt;Node41 -->
<g id="edge60" class="edge"><title>Node1&#45;&gt;Node41</title>
<path fill="none" stroke="midnightblue" d="M1020.25,-552.897C1097.98,-550.623 1357.89,-541.066 1582.34,-509.01"/>
<polygon fill="midnightblue" stroke="midnightblue" points="1582.93,-512.462 1592.32,-507.566 1581.92,-505.534 1582.93,-512.462"/>
</g>
<!-- Node42 -->
<g id="node42" class="node"><title>Node42</title>
<polygon fill="white" stroke="#bfbfbf" points="1762.17,-480.5 1762.17,-498.5 1814.29,-498.5 1814.29,-480.5 1762.17,-480.5"/>
<text text-anchor="middle" x="1788.23" y="-486.5" font-family="Helvetica,sans-Serif" font-size="10.00">ostream</text>
</g>
<!-- Node1&#45;&gt;Node42 -->
<g id="edge61" class="edge"><title>Node1&#45;&gt;Node42</title>
<path fill="none" stroke="midnightblue" d="M1020.41,-553.456C1131.56,-553.045 1610.3,-548.944 1753.23,-509 1757.9,-507.695 1762.65,-505.705 1767.08,-503.506"/>
<polygon fill="midnightblue" stroke="midnightblue" points="1769.05,-506.421 1776.13,-498.545 1765.68,-500.283 1769.05,-506.421"/>
</g>
<!-- Node43 -->
<g id="node43" class="node"><title>Node43</title>
<g id="a_node43"><a xlink:href="xmm_hierarchical_hmm_8hpp.html" target="_top" xlink:title="models/hmm/xmmHierarchical\lHmm.hpp">
<polygon fill="white" stroke="black" points="161.993,-475.5 161.993,-503.5 312.46,-503.5 312.46,-475.5 161.993,-475.5"/>
<text text-anchor="start" x="169.993" y="-491.5" font-family="Helvetica,sans-Serif" font-size="10.00">models/hmm/xmmHierarchical</text>
<text text-anchor="middle" x="237.227" y="-481.5" font-family="Helvetica,sans-Serif" font-size="10.00">Hmm.hpp</text>
</a>
</g>
</g>
<!-- Node1&#45;&gt;Node43 -->
<g id="edge62" class="edge"><title>Node1&#45;&gt;Node43</title>
<path fill="none" stroke="midnightblue" d="M974.042,-553.24C887.51,-552.002 575.365,-545.139 321.227,-509 314.571,-508.054 307.659,-506.868 300.787,-505.557"/>
<polygon fill="midnightblue" stroke="midnightblue" points="301.272,-502.084 290.78,-503.558 299.901,-508.949 301.272,-502.084"/>
</g>
<!-- Node3 -->
<g id="node3" class="node"><title>Node3</title>
<g id="a_node3"><a xlink:href="xmm_model_8hpp.html" target="_top" xlink:title="../../core/model/xmmModel.hpp">
<polygon fill="white" stroke="black" points="594.589,-360.5 594.589,-378.5 747.864,-378.5 747.864,-360.5 594.589,-360.5"/>
<text text-anchor="middle" x="671.227" y="-366.5" font-family="Helvetica,sans-Serif" font-size="10.00">../../core/model/xmmModel.hpp</text>
</a>
</g>
</g>
<!-- Node2&#45;&gt;Node3 -->
<g id="edge2" class="edge"><title>Node2&#45;&gt;Node3</title>
<path fill="none" stroke="midnightblue" d="M272.099,-415.508C357.412,-405.888 500.367,-389.767 590.038,-379.655"/>
<polygon fill="midnightblue" stroke="midnightblue" points="590.617,-383.112 600.162,-378.514 589.833,-376.156 590.617,-383.112"/>
</g>
<!-- Node28 -->
<g id="node28" class="node"><title>Node28</title>
<g id="a_node28"><a xlink:href="xmm_gaussian_distribution_8hpp.html" target="_top" xlink:title="../../core/distributions\l/xmmGaussianDistribution.hpp">
<polygon fill="white" stroke="black" points="86.1431,-240.5 86.1431,-268.5 238.31,-268.5 238.31,-240.5 86.1431,-240.5"/>
<text text-anchor="start" x="94.1431" y="-256.5" font-family="Helvetica,sans-Serif" font-size="10.00">../../core/distributions</text>
<text text-anchor="middle" x="162.227" y="-246.5" font-family="Helvetica,sans-Serif" font-size="10.00">/xmmGaussianDistribution.hpp</text>
</a>
</g>
</g>
<!-- Node2&#45;&gt;Node28 -->
<g id="edge37" class="edge"><title>Node2&#45;&gt;Node28</title>
<path fill="none" stroke="midnightblue" d="M190.969,-415.266C172.554,-399.743 134.48,-364.086 120.227,-324 114.015,-306.53 125.575,-288.736 138.127,-275.663"/>
<polygon fill="midnightblue" stroke="midnightblue" points="140.736,-278.01 145.506,-268.55 135.877,-272.971 140.736,-278.01"/>
</g>
<!-- Node29 -->
<g id="node29" class="node"><title>Node29</title>
<g id="a_node29"><a xlink:href="xmm_gmm_single_class_8hpp.html" target="_top" xlink:title="xmmGmmSingleClass.hpp">
<polygon fill="white" stroke="black" points="290.044,-360.5 290.044,-378.5 424.409,-378.5 424.409,-360.5 290.044,-360.5"/>
<text text-anchor="middle" x="357.227" y="-366.5" font-family="Helvetica,sans-Serif" font-size="10.00">xmmGmmSingleClass.hpp</text>
</a>
</g>
</g>
<!-- Node2&#45;&gt;Node29 -->
<g id="edge40" class="edge"><title>Node2&#45;&gt;Node29</title>
<path fill="none" stroke="midnightblue" d="M224.92,-415.45C251.339,-406.475 294.261,-391.892 324.021,-381.781"/>
<polygon fill="midnightblue" stroke="midnightblue" points="325.224,-385.069 333.567,-378.538 322.972,-378.441 325.224,-385.069"/>
</g>
<!-- Node4 -->
<g id="node4" class="node"><title>Node4</title>
<g id="a_node4"><a xlink:href="xmm_model_configuration_8hpp.html" target="_top" xlink:title="xmmModelConfiguration.hpp">
<polygon fill="white" stroke="black" points="605.306,-305.5 605.306,-323.5 749.147,-323.5 749.147,-305.5 605.306,-305.5"/>
<text text-anchor="middle" x="677.227" y="-311.5" font-family="Helvetica,sans-Serif" font-size="10.00">xmmModelConfiguration.hpp</text>
</a>
</g>
</g>
<!-- Node3&#45;&gt;Node4 -->
<g id="edge3" class="edge"><title>Node3&#45;&gt;Node4</title>
<path fill="none" stroke="midnightblue" d="M672.164,-360.219C672.97,-353.099 674.161,-342.577 675.186,-333.529"/>
<polygon fill="midnightblue" stroke="midnightblue" points="678.668,-333.88 676.315,-323.55 671.713,-333.092 678.668,-333.88"/>
</g>
<!-- Node15 -->
<g id="node15" class="node"><title>Node15</title>
<g id="a_node15"><a xlink:href="xmm_model_single_class_8hpp.html" target="_top" xlink:title="xmmModelSingleClass.hpp">
<polygon fill="white" stroke="black" points="805.646,-305.5 805.646,-323.5 942.808,-323.5 942.808,-305.5 805.646,-305.5"/>
<text text-anchor="middle" x="874.227" y="-311.5" font-family="Helvetica,sans-Serif" font-size="10.00">xmmModelSingleClass.hpp</text>
</a>
</g>
</g>
<!-- Node3&#45;&gt;Node15 -->
<g id="edge15" class="edge"><title>Node3&#45;&gt;Node15</title>
<path fill="none" stroke="midnightblue" d="M702.058,-360.45C737.185,-351.279 794.729,-336.256 833.518,-326.128"/>
<polygon fill="midnightblue" stroke="midnightblue" points="834.647,-329.451 843.438,-323.538 832.878,-322.678 834.647,-329.451"/>
</g>
<!-- Node26 -->
<g id="node26" class="node"><title>Node26</title>
<g id="a_node26"><a xlink:href="xmm_model_results_8hpp.html" target="_top" xlink:title="xmmModelResults.hpp">
<polygon fill="white" stroke="black" points="469.375,-305.5 469.375,-323.5 587.079,-323.5 587.079,-305.5 469.375,-305.5"/>
<text text-anchor="middle" x="528.227" y="-311.5" font-family="Helvetica,sans-Serif" font-size="10.00">xmmModelResults.hpp</text>
</a>
</g>
</g>
<!-- Node3&#45;&gt;Node26 -->
<g id="edge35" class="edge"><title>Node3&#45;&gt;Node26</title>
<path fill="none" stroke="midnightblue" d="M649.508,-360.45C625.57,-351.578 586.853,-337.229 559.616,-327.134"/>
<polygon fill="midnightblue" stroke="midnightblue" points="560.743,-323.819 550.15,-323.625 558.31,-330.383 560.743,-323.819"/>
</g>
<!-- Node27 -->
<g id="node27" class="node"><title>Node27</title>
<polygon fill="white" stroke="#bfbfbf" points="961.049,-305.5 961.049,-323.5 1005.4,-323.5 1005.4,-305.5 961.049,-305.5"/>
<text text-anchor="middle" x="983.227" y="-311.5" font-family="Helvetica,sans-Serif" font-size="10.00">thread</text>
</g>
<!-- Node3&#45;&gt;Node27 -->
<g id="edge36" class="edge"><title>Node3&#45;&gt;Node27</title>
<path fill="none" stroke="midnightblue" d="M734.652,-360.496C789.502,-353.11 871.084,-341.021 950.74,-324.12"/>
<polygon fill="midnightblue" stroke="midnightblue" points="951.907,-327.449 960.948,-321.925 950.436,-320.606 951.907,-327.449"/>
</g>
<!-- Node5 -->
<g id="node5" class="node"><title>Node5</title>
<g id="a_node5"><a xlink:href="xmm_model_parameters_8hpp.html" target="_top" xlink:title="xmmModelParameters.hpp">
<polygon fill="white" stroke="black" points="256.205,-245.5 256.205,-263.5 392.249,-263.5 392.249,-245.5 256.205,-245.5"/>
<text text-anchor="middle" x="324.227" y="-251.5" font-family="Helvetica,sans-Serif" font-size="10.00">xmmModelParameters.hpp</text>
</a>
</g>
</g>
<!-- Node4&#45;&gt;Node5 -->
<g id="edge4" class="edge"><title>Node4&#45;&gt;Node5</title>
<path fill="none" stroke="midnightblue" d="M626.069,-305.467C570.637,-296.712 479.602,-282.188 401.227,-269 394.142,-267.808 386.694,-266.531 379.337,-265.257"/>
<polygon fill="midnightblue" stroke="midnightblue" points="379.856,-261.794 369.403,-263.527 378.655,-268.691 379.856,-261.794"/>
</g>
<!-- Node6 -->
<g id="node6" class="node"><title>Node6</title>
<g id="a_node6"><a xlink:href="xmm_json_8hpp.html" target="_top" xlink:title="../common/xmmJson.hpp">
<polygon fill="white" stroke="black" points="325.375,-65.5 325.375,-83.5 453.079,-83.5 453.079,-65.5 325.375,-65.5"/>
<text text-anchor="middle" x="389.227" y="-71.5" font-family="Helvetica,sans-Serif" font-size="10.00">../common/xmmJson.hpp</text>
</a>
</g>
</g>
<!-- Node5&#45;&gt;Node6 -->
<g id="edge5" class="edge"><title>Node5&#45;&gt;Node6</title>
<path fill="none" stroke="midnightblue" d="M328.906,-245.288C334.287,-235.625 343.156,-218.992 349.227,-204 364.739,-165.688 377.914,-118.963 384.574,-93.7474"/>
<polygon fill="midnightblue" stroke="midnightblue" points="388.035,-94.3418 387.16,-83.7832 381.26,-92.583 388.035,-94.3418"/>
</g>
<!-- Node10 -->
<g id="node10" class="node"><title>Node10</title>
<g id="a_node10"><a xlink:href="xmm_attribute_8hpp.html" target="_top" xlink:title="../common/xmmAttribute.hpp">
<polygon fill="white" stroke="black" points="49.3154,-65.5 49.3154,-83.5 193.138,-83.5 193.138,-65.5 49.3154,-65.5"/>
<text text-anchor="middle" x="121.227" y="-71.5" font-family="Helvetica,sans-Serif" font-size="10.00">../common/xmmAttribute.hpp</text>
</a>
</g>
</g>
<!-- Node5&#45;&gt;Node10 -->
<g id="edge9" class="edge"><title>Node5&#45;&gt;Node10</title>
<path fill="none" stroke="midnightblue" d="M314.977,-245.389C283.338,-217.647 179.139,-126.28 138.075,-90.2733"/>
<polygon fill="midnightblue" stroke="midnightblue" points="140.357,-87.6198 130.531,-83.6585 135.742,-92.883 140.357,-87.6198"/>
</g>
<!-- Node7 -->
<g id="node7" class="node"><title>Node7</title>
<polygon fill="white" stroke="#bfbfbf" points="330.638,-0.5 330.638,-28.5 447.815,-28.5 447.815,-0.5 330.638,-0.5"/>
<text text-anchor="start" x="338.638" y="-16.5" font-family="Helvetica,sans-Serif" font-size="10.00">../../../dependencies</text>
<text text-anchor="middle" x="389.227" y="-6.5" font-family="Helvetica,sans-Serif" font-size="10.00">/jsoncpp/include/json.h</text>
</g>
<!-- Node6&#45;&gt;Node7 -->
<g id="edge6" class="edge"><title>Node6&#45;&gt;Node7</title>
<path fill="none" stroke="midnightblue" d="M389.227,-65.4353C389.227,-58.5603 389.227,-48.3238 389.227,-38.9057"/>
<polygon fill="midnightblue" stroke="midnightblue" points="392.727,-38.8427 389.227,-28.8428 385.727,-38.8428 392.727,-38.8427"/>
</g>
<!-- Node8 -->
<g id="node8" class="node"><title>Node8</title>
<polygon fill="white" stroke="#bfbfbf" points="465.557,-5.5 465.557,-23.5 514.896,-23.5 514.896,-5.5 465.557,-5.5"/>
<text text-anchor="middle" x="490.227" y="-11.5" font-family="Helvetica,sans-Serif" font-size="10.00">fstream</text>
</g>
<!-- Node6&#45;&gt;Node8 -->
<g id="edge7" class="edge"><title>Node6&#45;&gt;Node8</title>
<path fill="none" stroke="midnightblue" d="M403.27,-65.4353C419.835,-55.923 447.605,-39.9759 467.302,-28.6645"/>
<polygon fill="midnightblue" stroke="midnightblue" points="469.048,-31.6982 475.977,-23.6831 465.562,-25.6279 469.048,-31.6982"/>
</g>
<!-- Node6&#45;&gt;Node9 -->
<g id="edge8" class="edge"><title>Node6&#45;&gt;Node9</title>
<path fill="none" stroke="midnightblue" d="M375.6,-65.4353C359.6,-55.9661 332.826,-40.1201 313.73,-28.8184"/>
<polygon fill="midnightblue" stroke="midnightblue" points="315.442,-25.7644 305.053,-23.6831 311.876,-31.7884 315.442,-25.7644"/>
</g>
<!-- Node10&#45;&gt;Node9 -->
<g id="edge12" class="edge"><title>Node10&#45;&gt;Node9</title>
<path fill="none" stroke="midnightblue" d="M149.202,-65.4494C177.476,-57.1019 222.288,-43.2922 260.227,-29 261.6,-28.4826 263.001,-27.9376 264.41,-27.3752"/>
<polygon fill="midnightblue" stroke="midnightblue" points="265.766,-30.6019 273.648,-23.5214 263.071,-24.1415 265.766,-30.6019"/>
</g>
<!-- Node11 -->
<g id="node11" class="node"><title>Node11</title>
<polygon fill="white" stroke="#bfbfbf" points="192.825,-5.5 192.825,-23.5 251.628,-23.5 251.628,-5.5 192.825,-5.5"/>
<text text-anchor="middle" x="222.227" y="-11.5" font-family="Helvetica,sans-Serif" font-size="10.00">stdexcept</text>
</g>
<!-- Node10&#45;&gt;Node11 -->
<g id="edge10" class="edge"><title>Node10&#45;&gt;Node11</title>
<path fill="none" stroke="midnightblue" d="M135.27,-65.4353C151.835,-55.923 179.605,-39.9759 199.302,-28.6645"/>
<polygon fill="midnightblue" stroke="midnightblue" points="201.048,-31.6982 207.977,-23.6831 197.562,-25.6279 201.048,-31.6982"/>
</g>
<!-- Node12 -->
<g id="node12" class="node"><title>Node12</title>
<polygon fill="white" stroke="#bfbfbf" points="58.8398,-5.5 58.8398,-23.5 97.6133,-23.5 97.6133,-5.5 58.8398,-5.5"/>
<text text-anchor="middle" x="78.2266" y="-11.5" font-family="Helvetica,sans-Serif" font-size="10.00">limits</text>
</g>
<!-- Node10&#45;&gt;Node12 -->
<g id="edge11" class="edge"><title>Node10&#45;&gt;Node12</title>
<path fill="none" stroke="midnightblue" d="M115.248,-65.4353C108.902,-56.8755 98.6925,-43.1052 90.6008,-32.1909"/>
<polygon fill="midnightblue" stroke="midnightblue" points="93.2004,-29.8204 84.4332,-23.8718 87.5772,-33.9894 93.2004,-29.8204"/>
</g>
<!-- Node10&#45;&gt;Node13 -->
<g id="edge13" class="edge"><title>Node10&#45;&gt;Node13</title>
<path fill="none" stroke="midnightblue" d="M107.183,-65.4353C90.6184,-55.923 62.8485,-39.9759 43.151,-28.6645"/>
<polygon fill="midnightblue" stroke="midnightblue" points="44.8913,-25.6279 34.4765,-23.6831 41.4054,-31.6982 44.8913,-25.6279"/>
</g>
<!-- Node14 -->
<g id="node14" class="node"><title>Node14</title>
<polygon fill="white" stroke="#bfbfbf" points="115.823,-5.5 115.823,-23.5 174.63,-23.5 174.63,-5.5 115.823,-5.5"/>
<text text-anchor="middle" x="145.227" y="-11.5" font-family="Helvetica,sans-Serif" font-size="10.00">functional</text>
</g>
<!-- Node10&#45;&gt;Node14 -->
<g id="edge14" class="edge"><title>Node10&#45;&gt;Node14</title>
<path fill="none" stroke="midnightblue" d="M124.564,-65.4353C127.999,-57.1323 133.464,-43.9267 137.91,-33.1807"/>
<polygon fill="midnightblue" stroke="midnightblue" points="141.173,-34.4502 141.762,-23.8718 134.705,-31.7737 141.173,-34.4502"/>
</g>
<!-- Node16 -->
<g id="node16" class="node"><title>Node16</title>
<g id="a_node16"><a xlink:href="xmm_circularbuffer_8hpp.html" target="_top" xlink:title="../common/xmmCircularbuffer.hpp">
<polygon fill="white" stroke="black" points="410.288,-245.5 410.288,-263.5 576.166,-263.5 576.166,-245.5 410.288,-245.5"/>
<text text-anchor="middle" x="493.227" y="-251.5" font-family="Helvetica,sans-Serif" font-size="10.00">../common/xmmCircularbuffer.hpp</text>
</a>
</g>
</g>
<!-- Node15&#45;&gt;Node16 -->
<g id="edge16" class="edge"><title>Node15&#45;&gt;Node16</title>
<path fill="none" stroke="midnightblue" d="M821.65,-305.496C752.242,-294.93 630.184,-276.349 556.012,-265.058"/>
<polygon fill="midnightblue" stroke="midnightblue" points="556.288,-261.56 545.875,-263.515 555.234,-268.48 556.288,-261.56"/>
</g>
<!-- Node18 -->
<g id="node18" class="node"><title>Node18</title>
<g id="a_node18"><a xlink:href="xmm_training_set_8hpp.html" target="_top" xlink:title="../trainingset/xmmTraining\lSet.hpp">
<polygon fill="white" stroke="black" points="777.89,-175.5 777.89,-203.5 908.563,-203.5 908.563,-175.5 777.89,-175.5"/>
<text text-anchor="start" x="785.89" y="-191.5" font-family="Helvetica,sans-Serif" font-size="10.00">../trainingset/xmmTraining</text>
<text text-anchor="middle" x="843.227" y="-181.5" font-family="Helvetica,sans-Serif" font-size="10.00">Set.hpp</text>
</a>
</g>
</g>
<!-- Node15&#45;&gt;Node18 -->
<g id="edge20" class="edge"><title>Node15&#45;&gt;Node18</title>
<path fill="none" stroke="midnightblue" d="M852.105,-305.429C836.464,-298.42 816.664,-286.597 807.227,-269 796.968,-249.872 809.824,-227.275 822.933,-211.249"/>
<polygon fill="midnightblue" stroke="midnightblue" points="825.742,-213.352 829.69,-203.52 820.473,-208.745 825.742,-213.352"/>
</g>
<!-- Node20 -->
<g id="node20" class="node"><title>Node20</title>
<g id="a_node20"><a xlink:href="xmm_events_8hpp.html" target="_top" xlink:title="../common/xmmEvents.hpp">
<polygon fill="white" stroke="black" points="874.65,-65.5 874.65,-83.5 1011.8,-83.5 1011.8,-65.5 874.65,-65.5"/>
<text text-anchor="middle" x="943.227" y="-71.5" font-family="Helvetica,sans-Serif" font-size="10.00">../common/xmmEvents.hpp</text>
</a>
</g>
</g>
<!-- Node15&#45;&gt;Node20 -->
<g id="edge29" class="edge"><title>Node15&#45;&gt;Node20</title>
<path fill="none" stroke="midnightblue" d="M942.978,-305.571C967.669,-299.372 993.713,-288.396 1011.23,-269 1039.53,-237.65 1039.5,-214.755 1025.23,-175 1012.59,-139.79 981.503,-108.146 961.444,-90.4189"/>
<polygon fill="midnightblue" stroke="midnightblue" points="963.478,-87.5533 953.608,-83.7037 958.923,-92.8685 963.478,-87.5533"/>
</g>
<!-- Node24 -->
<g id="node24" class="node"><title>Node24</title>
<g id="a_node24"><a xlink:href="xmm_model_shared_parameters_8hpp.html" target="_top" xlink:title="xmmModelSharedParameters.hpp">
<polygon fill="white" stroke="black" points="816.082,-245.5 816.082,-263.5 984.372,-263.5 984.372,-245.5 816.082,-245.5"/>
<text text-anchor="middle" x="900.227" y="-251.5" font-family="Helvetica,sans-Serif" font-size="10.00">xmmModelSharedParameters.hpp</text>
</a>
</g>
</g>
<!-- Node15&#45;&gt;Node24 -->
<g id="edge30" class="edge"><title>Node15&#45;&gt;Node24</title>
<path fill="none" stroke="midnightblue" d="M877.842,-305.435C881.564,-297.132 887.484,-283.927 892.301,-273.181"/>
<polygon fill="midnightblue" stroke="midnightblue" points="895.577,-274.429 896.474,-263.872 889.189,-271.565 895.577,-274.429"/>
</g>
<!-- Node25 -->
<g id="node25" class="node"><title>Node25</title>
<polygon fill="white" stroke="#bfbfbf" points="972.611,-180.5 972.611,-198.5 1015.84,-198.5 1015.84,-180.5 972.611,-180.5"/>
<text text-anchor="middle" x="994.227" y="-186.5" font-family="Helvetica,sans-Serif" font-size="10.00">mutex</text>
</g>
<!-- Node15&#45;&gt;Node25 -->
<g id="edge34" class="edge"><title>Node15&#45;&gt;Node25</title>
<path fill="none" stroke="midnightblue" d="M934.442,-305.444C956.635,-299.247 979.651,-288.306 993.227,-269 1005.57,-251.44 1003.11,-225.774 999.38,-208.622"/>
<polygon fill="midnightblue" stroke="midnightblue" points="1002.73,-207.593 996.893,-198.752 995.943,-209.304 1002.73,-207.593"/>
</g>
<!-- Node16&#45;&gt;Node9 -->
<g id="edge17" class="edge"><title>Node16&#45;&gt;Node9</title>
<path fill="none" stroke="midnightblue" d="M481.548,-245.353C450.387,-223.052 364.381,-157.742 316.227,-84 305.967,-68.2892 299.207,-47.8084 295.334,-33.3477"/>
<polygon fill="midnightblue" stroke="midnightblue" points="298.731,-32.5037 292.924,-23.6417 291.937,-34.1904 298.731,-32.5037"/>
</g>
<!-- Node16&#45;&gt;Node11 -->
<g id="edge19" class="edge"><title>Node16&#45;&gt;Node11</title>
<path fill="none" stroke="midnightblue" d="M483.898,-245.308C444.401,-210.62 290.609,-75.5556 239.125,-30.3411"/>
<polygon fill="midnightblue" stroke="midnightblue" points="241.339,-27.627 231.516,-23.658 236.72,-32.8867 241.339,-27.627"/>
</g>
<!-- Node16&#45;&gt;Node17 -->
<g id="edge18" class="edge"><title>Node16&#45;&gt;Node17</title>
<path fill="none" stroke="midnightblue" d="M500.417,-245.264C509.028,-235.4 523.644,-218.659 534.453,-206.277"/>
<polygon fill="midnightblue" stroke="midnightblue" points="537.268,-208.374 541.208,-198.539 531.995,-203.77 537.268,-208.374"/>
</g>
<!-- Node19 -->
<g id="node19" class="node"><title>Node19</title>
<g id="a_node19"><a xlink:href="xmm_phrase_8hpp.html" target="_top" xlink:title="xmmPhrase.hpp">
<polygon fill="white" stroke="black" points="729.823,-120.5 729.823,-138.5 818.63,-138.5 818.63,-120.5 729.823,-120.5"/>
<text text-anchor="middle" x="774.227" y="-126.5" font-family="Helvetica,sans-Serif" font-size="10.00">xmmPhrase.hpp</text>
</a>
</g>
</g>
<!-- Node18&#45;&gt;Node19 -->
<g id="edge21" class="edge"><title>Node18&#45;&gt;Node19</title>
<path fill="none" stroke="midnightblue" d="M827.569,-175.339C816.923,-166.39 802.824,-154.538 791.795,-145.267"/>
<polygon fill="midnightblue" stroke="midnightblue" points="793.974,-142.527 784.067,-138.771 789.47,-147.885 793.974,-142.527"/>
</g>
<!-- Node21 -->
<g id="node21" class="node"><title>Node21</title>
<polygon fill="white" stroke="#bfbfbf" points="879.557,-5.5 879.557,-23.5 908.896,-23.5 908.896,-5.5 879.557,-5.5"/>
<text text-anchor="middle" x="894.227" y="-11.5" font-family="Helvetica,sans-Serif" font-size="10.00">set</text>
</g>
<!-- Node18&#45;&gt;Node21 -->
<g id="edge28" class="edge"><title>Node18&#45;&gt;Node21</title>
<path fill="none" stroke="midnightblue" d="M844.033,-175.486C845.784,-152.531 850.992,-103.622 865.227,-65 869.47,-53.4862 876.346,-41.5898 882.338,-32.3459"/>
<polygon fill="midnightblue" stroke="midnightblue" points="885.414,-34.0451 888.114,-23.8001 879.614,-30.125 885.414,-34.0451"/>
</g>
<!-- Node18&#45;&gt;Node23 -->
<g id="edge27" class="edge"><title>Node18&#45;&gt;Node23</title>
<path fill="none" stroke="midnightblue" d="M809.788,-175.484C783.243,-165.151 746.584,-150.881 721.726,-141.205"/>
<polygon fill="midnightblue" stroke="midnightblue" points="722.769,-137.855 712.181,-137.489 720.23,-144.378 722.769,-137.855"/>
</g>
<!-- Node19&#45;&gt;Node6 -->
<g id="edge22" class="edge"><title>Node19&#45;&gt;Node6</title>
<path fill="none" stroke="midnightblue" d="M729.706,-121.275C726.838,-120.835 723.992,-120.407 721.227,-120 632.435,-106.931 530.043,-93.4473 462.717,-84.798"/>
<polygon fill="midnightblue" stroke="midnightblue" points="462.996,-81.3053 452.632,-83.5049 462.106,-88.2484 462.996,-81.3053"/>
</g>
<!-- Node19&#45;&gt;Node10 -->
<g id="edge23" class="edge"><title>Node19&#45;&gt;Node10</title>
<path fill="none" stroke="midnightblue" d="M729.732,-121.083C726.857,-120.691 724.003,-120.325 721.227,-120 536.936,-98.4275 319.505,-85.3666 203.662,-79.3921"/>
<polygon fill="midnightblue" stroke="midnightblue" points="203.62,-75.8855 193.454,-78.8705 203.263,-82.8764 203.62,-75.8855"/>
</g>
<!-- Node19&#45;&gt;Node20 -->
<g id="edge24" class="edge"><title>Node19&#45;&gt;Node20</title>
<path fill="none" stroke="midnightblue" d="M799.894,-120.45C828.64,-111.436 875.418,-96.7653 907.674,-86.6496"/>
<polygon fill="midnightblue" stroke="midnightblue" points="909.101,-89.8704 917.595,-83.5383 907.006,-83.1911 909.101,-89.8704"/>
</g>
<!-- Node22 -->
<g id="node22" class="node"><title>Node22</title>
<polygon fill="white" stroke="#bfbfbf" points="752.611,-65.5 752.611,-83.5 795.842,-83.5 795.842,-65.5 752.611,-65.5"/>
<text text-anchor="middle" x="774.227" y="-71.5" font-family="Helvetica,sans-Serif" font-size="10.00">cmath</text>
</g>
<!-- Node19&#45;&gt;Node22 -->
<g id="edge26" class="edge"><title>Node19&#45;&gt;Node22</title>
<path fill="none" stroke="midnightblue" d="M774.227,-120.219C774.227,-113.177 774.227,-102.808 774.227,-93.8277"/>
<polygon fill="midnightblue" stroke="midnightblue" points="777.727,-93.5495 774.227,-83.5496 770.727,-93.5496 777.727,-93.5495"/>
</g>
<!-- Node20&#45;&gt;Node21 -->
<g id="edge25" class="edge"><title>Node20&#45;&gt;Node21</title>
<path fill="none" stroke="midnightblue" d="M936.413,-65.4353C929.037,-56.7043 917.081,-42.5523 907.777,-31.5395"/>
<polygon fill="midnightblue" stroke="midnightblue" points="910.426,-29.2519 901.299,-23.8718 905.079,-33.7694 910.426,-29.2519"/>
</g>
<!-- Node24&#45;&gt;Node18 -->
<g id="edge31" class="edge"><title>Node24&#45;&gt;Node18</title>
<path fill="none" stroke="midnightblue" d="M892.775,-245.264C885.027,-236.7 872.59,-222.954 862.115,-211.377"/>
<polygon fill="midnightblue" stroke="midnightblue" points="864.563,-208.865 855.258,-203.798 859.372,-213.562 864.563,-208.865"/>
</g>
<!-- Node24&#45;&gt;Node20 -->
<g id="edge32" class="edge"><title>Node24&#45;&gt;Node20</title>
<path fill="none" stroke="midnightblue" d="M903.453,-245.196C907.154,-235.446 913.225,-218.731 917.227,-204 927.781,-165.142 936.165,-118.626 940.337,-93.5912"/>
<polygon fill="midnightblue" stroke="midnightblue" points="943.794,-94.1385 941.951,-83.7053 936.885,-93.0109 943.794,-94.1385"/>
</g>
<!-- Node24&#45;&gt;Node25 -->
<g id="edge33" class="edge"><title>Node24&#45;&gt;Node25</title>
<path fill="none" stroke="midnightblue" d="M912.515,-245.264C928.083,-234.831 955.129,-216.704 973.816,-204.179"/>
<polygon fill="midnightblue" stroke="midnightblue" points="975.874,-207.014 982.232,-198.539 971.976,-201.199 975.874,-207.014"/>
</g>
<!-- Node28&#45;&gt;Node6 -->
<g id="edge38" class="edge"><title>Node28&#45;&gt;Node6</title>
<path fill="none" stroke="midnightblue" d="M178.918,-240.411C220.299,-207.963 327.394,-123.985 370.673,-90.0484"/>
<polygon fill="midnightblue" stroke="midnightblue" points="372.958,-92.7048 378.667,-83.78 368.638,-87.1963 372.958,-92.7048"/>
</g>
<!-- Node28&#45;&gt;Node10 -->
<g id="edge39" class="edge"><title>Node28&#45;&gt;Node10</title>
<path fill="none" stroke="midnightblue" d="M159.212,-240.411C152.003,-209.114 133.753,-129.881 125.452,-93.8463"/>
<polygon fill="midnightblue" stroke="midnightblue" points="128.789,-92.7392 123.134,-83.78 121.968,-94.3104 128.789,-92.7392"/>
</g>
<!-- Node29&#45;&gt;Node15 -->
<g id="edge41" class="edge"><title>Node29&#45;&gt;Node15</title>
<path fill="none" stroke="midnightblue" d="M424.55,-361.598C519.861,-351.828 693.784,-333.998 795.127,-323.609"/>
<polygon fill="midnightblue" stroke="midnightblue" points="795.715,-327.067 805.306,-322.565 795.001,-320.103 795.715,-327.067"/>
</g>
<!-- Node29&#45;&gt;Node26 -->
<g id="edge42" class="edge"><title>Node29&#45;&gt;Node26</title>
<path fill="none" stroke="midnightblue" d="M383.198,-360.45C412.41,-351.396 460.026,-336.638 492.676,-326.519"/>
<polygon fill="midnightblue" stroke="midnightblue" points="493.776,-329.842 502.292,-323.538 491.704,-323.156 493.776,-329.842"/>
</g>
<!-- Node30 -->
<g id="node30" class="node"><title>Node30</title>
<g id="a_node30"><a xlink:href="xmm_gmm_parameters_8hpp.html" target="_top" xlink:title="xmmGmmParameters.hpp">
<polygon fill="white" stroke="black" points="279.604,-305.5 279.604,-323.5 412.85,-323.5 412.85,-305.5 279.604,-305.5"/>
<text text-anchor="middle" x="346.227" y="-311.5" font-family="Helvetica,sans-Serif" font-size="10.00">xmmGmmParameters.hpp</text>
</a>
</g>
</g>
<!-- Node29&#45;&gt;Node30 -->
<g id="edge43" class="edge"><title>Node29&#45;&gt;Node30</title>
<path fill="none" stroke="midnightblue" d="M355.508,-360.219C354.03,-353.099 351.846,-342.577 349.968,-333.529"/>
<polygon fill="midnightblue" stroke="midnightblue" points="353.356,-332.63 347.897,-323.55 346.502,-334.052 353.356,-332.63"/>
</g>
<!-- Node30&#45;&gt;Node5 -->
<g id="edge44" class="edge"><title>Node30&#45;&gt;Node5</title>
<path fill="none" stroke="midnightblue" d="M343.168,-305.435C340.051,-297.218 335.112,-284.198 331.059,-273.514"/>
<polygon fill="midnightblue" stroke="midnightblue" points="334.221,-271.98 327.402,-263.872 327.676,-274.463 334.221,-271.98"/>
</g>
<!-- Node30&#45;&gt;Node28 -->
<g id="edge45" class="edge"><title>Node30&#45;&gt;Node28</title>
<path fill="none" stroke="midnightblue" d="M320.642,-305.435C292.932,-296.701 248.01,-282.54 213.067,-271.526"/>
<polygon fill="midnightblue" stroke="midnightblue" points="214.088,-268.178 203.498,-268.51 211.983,-274.854 214.088,-268.178"/>
</g>
<!-- Node43&#45;&gt;Node2 -->
<g id="edge64" class="edge"><title>Node43&#45;&gt;Node2</title>
<path fill="none" stroke="midnightblue" d="M229.767,-475.446C224.336,-465.942 216.928,-452.977 211.02,-442.639"/>
<polygon fill="midnightblue" stroke="midnightblue" points="213.93,-440.676 205.929,-433.73 207.852,-444.149 213.93,-440.676"/>
</g>
<!-- Node43&#45;&gt;Node3 -->
<g id="edge63" class="edge"><title>Node43&#45;&gt;Node3</title>
<path fill="none" stroke="midnightblue" d="M285.33,-475.421C371.893,-451.885 552.295,-402.836 631.963,-381.175"/>
<polygon fill="midnightblue" stroke="midnightblue" points="632.886,-384.552 641.617,-378.55 631.049,-377.797 632.886,-384.552"/>
</g>
<!-- Node44 -->
<g id="node44" class="node"><title>Node44</title>
<g id="a_node44"><a xlink:href="xmm_hmm_single_class_8hpp.html" target="_top" xlink:title="xmmHmmSingleClass.hpp">
<polygon fill="white" stroke="black" points="290.323,-415.5 290.323,-433.5 424.13,-433.5 424.13,-415.5 290.323,-415.5"/>
<text text-anchor="middle" x="357.227" y="-421.5" font-family="Helvetica,sans-Serif" font-size="10.00">xmmHmmSingleClass.hpp</text>
</a>
</g>
</g>
<!-- Node43&#45;&gt;Node44 -->
<g id="edge65" class="edge"><title>Node43&#45;&gt;Node44</title>
<path fill="none" stroke="midnightblue" d="M262.091,-475.446C282.833,-464.557 312.226,-449.125 332.835,-438.305"/>
<polygon fill="midnightblue" stroke="midnightblue" points="334.67,-441.295 341.897,-433.548 331.416,-435.097 334.67,-441.295"/>
</g>
<!-- Node44&#45;&gt;Node29 -->
<g id="edge66" class="edge"><title>Node44&#45;&gt;Node29</title>
<path fill="none" stroke="midnightblue" d="M357.227,-415.219C357.227,-408.177 357.227,-397.808 357.227,-388.828"/>
<polygon fill="midnightblue" stroke="midnightblue" points="360.727,-388.55 357.227,-378.55 353.727,-388.55 360.727,-388.55"/>
</g>
<!-- Node45 -->
<g id="node45" class="node"><title>Node45</title>
<g id="a_node45"><a xlink:href="xmm_hmm_parameters_8hpp.html" target="_top" xlink:title="xmmHmmParameters.hpp">
<polygon fill="white" stroke="black" points="128.882,-305.5 128.882,-323.5 261.571,-323.5 261.571,-305.5 128.882,-305.5"/>
<text text-anchor="middle" x="195.227" y="-311.5" font-family="Helvetica,sans-Serif" font-size="10.00">xmmHmmParameters.hpp</text>
</a>
</g>
</g>
<!-- Node44&#45;&gt;Node45 -->
<g id="edge67" class="edge"><title>Node44&#45;&gt;Node45</title>
<path fill="none" stroke="midnightblue" d="M342.376,-415.421C326.848,-406.832 301.906,-392.634 281.227,-379 257.211,-363.168 230.754,-343.231 213.613,-329.963"/>
<polygon fill="midnightblue" stroke="midnightblue" points="215.6,-327.075 205.561,-323.69 211.298,-332.597 215.6,-327.075"/>
</g>
<!-- Node46 -->
<g id="node46" class="node"><title>Node46</title>
<g id="a_node46"><a xlink:href="xmm_hmm_results_8hpp.html" target="_top" xlink:title="xmmHmmResults.hpp">
<polygon fill="white" stroke="black" points="449.052,-360.5 449.052,-378.5 563.401,-378.5 563.401,-360.5 449.052,-360.5"/>
<text text-anchor="middle" x="506.227" y="-366.5" font-family="Helvetica,sans-Serif" font-size="10.00">xmmHmmResults.hpp</text>
</a>
</g>
</g>
<!-- Node44&#45;&gt;Node46 -->
<g id="edge70" class="edge"><title>Node44&#45;&gt;Node46</title>
<path fill="none" stroke="midnightblue" d="M379.856,-415.45C404.908,-406.539 445.494,-392.103 473.893,-382.001"/>
<polygon fill="midnightblue" stroke="midnightblue" points="475.135,-385.274 483.384,-378.625 472.789,-378.679 475.135,-385.274"/>
</g>
<!-- Node45&#45;&gt;Node5 -->
<g id="edge68" class="edge"><title>Node45&#45;&gt;Node5</title>
<path fill="none" stroke="midnightblue" d="M213.163,-305.435C234.799,-295.708 271.401,-279.251 296.638,-267.904"/>
<polygon fill="midnightblue" stroke="midnightblue" points="298.341,-270.976 306.026,-263.683 295.47,-264.592 298.341,-270.976"/>
</g>
<!-- Node45&#45;&gt;Node28 -->
<g id="edge69" class="edge"><title>Node45&#45;&gt;Node28</title>
<path fill="none" stroke="midnightblue" d="M190.638,-305.435C186.558,-298.265 180.398,-287.437 174.855,-277.695"/>
<polygon fill="midnightblue" stroke="midnightblue" points="177.806,-275.804 169.818,-268.843 171.721,-279.265 177.806,-275.804"/>
</g>
<!-- Node46&#45;&gt;Node26 -->
<g id="edge71" class="edge"><title>Node46&#45;&gt;Node26</title>
<path fill="none" stroke="midnightblue" d="M509.664,-360.219C512.685,-352.942 517.18,-342.113 520.99,-332.934"/>
<polygon fill="midnightblue" stroke="midnightblue" points="524.284,-334.127 524.885,-323.55 517.819,-331.444 524.284,-334.127"/>
</g>
</g>
</svg>
