<?xml version="1.0" encoding="UTF-8" standalone="no"?>
<!DOCTYPE svg PUBLIC "-//W3C//DTD SVG 1.1//EN"
 "http://www.w3.org/Graphics/SVG/1.1/DTD/svg11.dtd">
<!-- Generated by graphviz version 2.38.0 (20140413.2041)
 -->
<!-- Title: xmmKMeans.cpp Pages: 1 -->
<svg width="982pt" height="452pt"
 viewBox="0.00 0.00 981.58 452.00" xmlns="http://www.w3.org/2000/svg" xmlns:xlink="http://www.w3.org/1999/xlink">
<g id="graph0" class="graph" transform="scale(1 1) rotate(0) translate(4 448)">
<title>xmmKMeans.cpp</title>
<polygon fill="white" stroke="none" points="-4,4 -4,-448 977.576,-448 977.576,4 -4,4"/>
<!-- Node1 -->
<g id="node1" class="node"><title>Node1</title>
<polygon fill="#bfbfbf" stroke="black" points="208.047,-425.5 208.047,-443.5 301.293,-443.5 301.293,-425.5 208.047,-425.5"/>
<text text-anchor="middle" x="254.67" y="-431.5" font-family="Helvetica,sans-Serif" font-size="10.00">xmmKMeans.cpp</text>
</g>
<!-- Node2 -->
<g id="node2" class="node"><title>Node2</title>
<g id="a_node2"><a xlink:href="xmm_k_means_8hpp.html" target="_top" xlink:title="xmmKMeans.hpp">
<polygon fill="white" stroke="black" points="375.766,-370.5 375.766,-388.5 469.574,-388.5 469.574,-370.5 375.766,-370.5"/>
<text text-anchor="middle" x="422.67" y="-376.5" font-family="Helvetica,sans-Serif" font-size="10.00">xmmKMeans.hpp</text>
</a>
</g>
</g>
<!-- Node1&#45;&gt;Node2 -->
<g id="edge1" class="edge"><title>Node1&#45;&gt;Node2</title>
<path fill="none" stroke="midnightblue" d="M280.186,-425.45C308.761,-416.436 355.263,-401.765 387.328,-391.65"/>
<polygon fill="midnightblue" stroke="midnightblue" points="388.706,-394.885 397.19,-388.538 386.6,-388.209 388.706,-394.885"/>
</g>
<!-- Node14 -->
<g id="node14" class="node"><title>Node14</title>
<polygon fill="white" stroke="#bfbfbf" points="67.2832,-5.5 67.2832,-23.5 106.057,-23.5 106.057,-5.5 67.2832,-5.5"/>
<text text-anchor="middle" x="86.6699" y="-11.5" font-family="Helvetica,sans-Serif" font-size="10.00">limits</text>
</g>
<!-- Node1&#45;&gt;Node14 -->
<g id="edge38" class="edge"><title>Node1&#45;&gt;Node14</title>
<path fill="none" stroke="midnightblue" d="M216.357,-425.452C167.053,-412.589 87.6699,-382.287 87.6699,-320.5 87.6699,-320.5 87.6699,-320.5 87.6699,-128.5 87.6699,-95.0867 87.2273,-56.118 86.931,-33.7745"/>
<polygon fill="midnightblue" stroke="midnightblue" points="90.4301,-33.6741 86.7925,-23.7233 83.4307,-33.7706 90.4301,-33.6741"/>
</g>
<!-- Node3 -->
<g id="node3" class="node"><title>Node3</title>
<g id="a_node3"><a xlink:href="xmm_model_single_class_8hpp.html" target="_top" xlink:title="../../core/model/xmmModel\lSingleClass.hpp">
<polygon fill="white" stroke="black" points="534.764,-305.5 534.764,-333.5 668.576,-333.5 668.576,-305.5 534.764,-305.5"/>
<text text-anchor="start" x="542.764" y="-321.5" font-family="Helvetica,sans-Serif" font-size="10.00">../../core/model/xmmModel</text>
<text text-anchor="middle" x="601.67" y="-311.5" font-family="Helvetica,sans-Serif" font-size="10.00">SingleClass.hpp</text>
</a>
</g>
</g>
<!-- Node2&#45;&gt;Node3 -->
<g id="edge2" class="edge"><title>Node2&#45;&gt;Node3</title>
<path fill="none" stroke="midnightblue" d="M447.559,-370.435C474.401,-361.738 517.844,-347.661 551.775,-336.667"/>
<polygon fill="midnightblue" stroke="midnightblue" points="553.086,-339.922 561.52,-333.51 550.928,-333.262 553.086,-339.922"/>
</g>
<!-- Node23 -->
<g id="node23" class="node"><title>Node23</title>
<g id="a_node23"><a xlink:href="xmm_model_configuration_8hpp.html" target="_top" xlink:title="../../core/model/xmmModel\lConfiguration.hpp">
<polygon fill="white" stroke="black" points="349.764,-240.5 349.764,-268.5 483.576,-268.5 483.576,-240.5 349.764,-240.5"/>
<text text-anchor="start" x="357.764" y="-256.5" font-family="Helvetica,sans-Serif" font-size="10.00">../../core/model/xmmModel</text>
<text text-anchor="middle" x="416.67" y="-246.5" font-family="Helvetica,sans-Serif" font-size="10.00">Configuration.hpp</text>
</a>
</g>
</g>
<!-- Node2&#45;&gt;Node23 -->
<g id="edge30" class="edge"><title>Node2&#45;&gt;Node23</title>
<path fill="none" stroke="midnightblue" d="M422.276,-370.43C421.383,-352.123 419.176,-306.872 417.812,-278.922"/>
<polygon fill="midnightblue" stroke="midnightblue" points="421.302,-278.627 417.319,-268.809 414.311,-278.968 421.302,-278.627"/>
</g>
<!-- Node25 -->
<g id="node25" class="node"><title>Node25</title>
<g id="a_node25"><a xlink:href="xmm_k_means_parameters_8hpp.html" target="_top" xlink:title="xmmKMeansParameters.hpp">
<polygon fill="white" stroke="black" points="248.924,-310.5 248.924,-328.5 394.416,-328.5 394.416,-310.5 248.924,-310.5"/>
<text text-anchor="middle" x="321.67" y="-316.5" font-family="Helvetica,sans-Serif" font-size="10.00">xmmKMeansParameters.hpp</text>
</a>
</g>
</g>
<!-- Node2&#45;&gt;Node25 -->
<g id="edge34" class="edge"><title>Node2&#45;&gt;Node25</title>
<path fill="none" stroke="midnightblue" d="M408.626,-370.435C392.062,-360.923 364.292,-344.976 344.594,-333.665"/>
<polygon fill="midnightblue" stroke="midnightblue" points="346.335,-330.628 335.92,-328.683 342.849,-336.698 346.335,-330.628"/>
</g>
<!-- Node26 -->
<g id="node26" class="node"><title>Node26</title>
<g id="a_node26"><a xlink:href="xmm_k_means_results_8hpp.html" target="_top" xlink:title="xmmKMeansResults.hpp">
<polygon fill="white" stroke="black" points="790.094,-310.5 790.094,-328.5 917.246,-328.5 917.246,-310.5 790.094,-310.5"/>
<text text-anchor="middle" x="853.67" y="-316.5" font-family="Helvetica,sans-Serif" font-size="10.00">xmmKMeansResults.hpp</text>
</a>
</g>
</g>
<!-- Node2&#45;&gt;Node26 -->
<g id="edge36" class="edge"><title>Node2&#45;&gt;Node26</title>
<path fill="none" stroke="midnightblue" d="M469.615,-372.183C545.558,-361.963 695.752,-341.751 784.135,-329.857"/>
<polygon fill="midnightblue" stroke="midnightblue" points="784.627,-333.323 794.071,-328.52 783.694,-326.385 784.627,-333.323"/>
</g>
<!-- Node4 -->
<g id="node4" class="node"><title>Node4</title>
<g id="a_node4"><a xlink:href="xmm_circularbuffer_8hpp.html" target="_top" xlink:title="../common/xmmCircularbuffer.hpp">
<polygon fill="white" stroke="black" points="425.731,-65.5 425.731,-83.5 591.609,-83.5 591.609,-65.5 425.731,-65.5"/>
<text text-anchor="middle" x="508.67" y="-71.5" font-family="Helvetica,sans-Serif" font-size="10.00">../common/xmmCircularbuffer.hpp</text>
</a>
</g>
</g>
<!-- Node3&#45;&gt;Node4 -->
<g id="edge3" class="edge"><title>Node3&#45;&gt;Node4</title>
<path fill="none" stroke="midnightblue" d="M588.41,-305.182C579.588,-295.732 568.267,-282.395 560.67,-269 527.521,-210.553 514.791,-130.14 510.539,-94.1867"/>
<polygon fill="midnightblue" stroke="midnightblue" points="513.969,-93.3553 509.405,-83.7941 507.011,-94.1148 513.969,-93.3553"/>
</g>
<!-- Node8 -->
<g id="node8" class="node"><title>Node8</title>
<g id="a_node8"><a xlink:href="xmm_training_set_8hpp.html" target="_top" xlink:title="../trainingset/xmmTraining\lSet.hpp">
<polygon fill="white" stroke="black" points="615.333,-175.5 615.333,-203.5 746.006,-203.5 746.006,-175.5 615.333,-175.5"/>
<text text-anchor="start" x="623.333" y="-191.5" font-family="Helvetica,sans-Serif" font-size="10.00">../trainingset/xmmTraining</text>
<text text-anchor="middle" x="680.67" y="-181.5" font-family="Helvetica,sans-Serif" font-size="10.00">Set.hpp</text>
</a>
</g>
</g>
<!-- Node3&#45;&gt;Node8 -->
<g id="edge7" class="edge"><title>Node3&#45;&gt;Node8</title>
<path fill="none" stroke="midnightblue" d="M668.645,-314.37C700.111,-308.661 734.961,-296.091 754.67,-269 770.982,-246.578 743.68,-223.836 717.752,-208.644"/>
<polygon fill="midnightblue" stroke="midnightblue" points="719.15,-205.415 708.712,-203.597 715.738,-211.528 719.15,-205.415"/>
</g>
<!-- Node17 -->
<g id="node17" class="node"><title>Node17</title>
<g id="a_node17"><a xlink:href="xmm_events_8hpp.html" target="_top" xlink:title="../common/xmmEvents.hpp">
<polygon fill="white" stroke="black" points="710.094,-65.5 710.094,-83.5 847.246,-83.5 847.246,-65.5 710.094,-65.5"/>
<text text-anchor="middle" x="778.67" y="-71.5" font-family="Helvetica,sans-Serif" font-size="10.00">../common/xmmEvents.hpp</text>
</a>
</g>
</g>
<!-- Node3&#45;&gt;Node17 -->
<g id="edge24" class="edge"><title>Node3&#45;&gt;Node17</title>
<path fill="none" stroke="midnightblue" d="M668.735,-315.547C704.327,-310.369 745.912,-297.925 771.67,-269 816.188,-219.009 804.504,-186.058 793.67,-120 792.184,-110.938 789.101,-101.235 786.115,-93.2099"/>
<polygon fill="midnightblue" stroke="midnightblue" points="789.331,-91.824 782.387,-83.8215 782.825,-94.4073 789.331,-91.824"/>
</g>
<!-- Node21 -->
<g id="node21" class="node"><title>Node21</title>
<g id="a_node21"><a xlink:href="xmm_model_shared_parameters_8hpp.html" target="_top" xlink:title="xmmModelSharedParameters.hpp">
<polygon fill="white" stroke="black" points="577.525,-245.5 577.525,-263.5 745.815,-263.5 745.815,-245.5 577.525,-245.5"/>
<text text-anchor="middle" x="661.67" y="-251.5" font-family="Helvetica,sans-Serif" font-size="10.00">xmmModelSharedParameters.hpp</text>
</a>
</g>
</g>
<!-- Node3&#45;&gt;Node21 -->
<g id="edge25" class="edge"><title>Node3&#45;&gt;Node21</title>
<path fill="none" stroke="midnightblue" d="M614.102,-305.446C623.621,-295.452 636.783,-281.632 646.849,-271.062"/>
<polygon fill="midnightblue" stroke="midnightblue" points="649.47,-273.385 653.832,-263.73 644.401,-268.558 649.47,-273.385"/>
</g>
<!-- Node22 -->
<g id="node22" class="node"><title>Node22</title>
<polygon fill="white" stroke="#bfbfbf" points="547.054,-180.5 547.054,-198.5 590.286,-198.5 590.286,-180.5 547.054,-180.5"/>
<text text-anchor="middle" x="568.67" y="-186.5" font-family="Helvetica,sans-Serif" font-size="10.00">mutex</text>
</g>
<!-- Node3&#45;&gt;Node22 -->
<g id="edge29" class="edge"><title>Node3&#45;&gt;Node22</title>
<path fill="none" stroke="midnightblue" d="M589.732,-305.34C582.067,-295.96 572.8,-282.642 568.67,-269 562.632,-249.057 563.806,-224.936 565.731,-208.74"/>
<polygon fill="midnightblue" stroke="midnightblue" points="569.242,-208.912 567.174,-198.521 562.31,-207.934 569.242,-208.912"/>
</g>
<!-- Node5 -->
<g id="node5" class="node"><title>Node5</title>
<polygon fill="white" stroke="#bfbfbf" points="395.054,-5.5 395.054,-23.5 438.286,-23.5 438.286,-5.5 395.054,-5.5"/>
<text text-anchor="middle" x="416.67" y="-11.5" font-family="Helvetica,sans-Serif" font-size="10.00">vector</text>
</g>
<!-- Node4&#45;&gt;Node5 -->
<g id="edge4" class="edge"><title>Node4&#45;&gt;Node5</title>
<path fill="none" stroke="midnightblue" d="M495.878,-65.4353C480.994,-56.0521 456.179,-40.4077 438.286,-29.1277"/>
<polygon fill="midnightblue" stroke="midnightblue" points="439.976,-26.0554 429.65,-23.6831 436.243,-31.9769 439.976,-26.0554"/>
</g>
<!-- Node6 -->
<g id="node6" class="node"><title>Node6</title>
<polygon fill="white" stroke="#bfbfbf" points="533.266,-5.5 533.266,-23.5 592.074,-23.5 592.074,-5.5 533.266,-5.5"/>
<text text-anchor="middle" x="562.67" y="-11.5" font-family="Helvetica,sans-Serif" font-size="10.00">exception</text>
</g>
<!-- Node4&#45;&gt;Node6 -->
<g id="edge5" class="edge"><title>Node4&#45;&gt;Node6</title>
<path fill="none" stroke="midnightblue" d="M516.178,-65.4353C524.387,-56.6187 537.742,-42.2743 548.037,-31.2165"/>
<polygon fill="midnightblue" stroke="midnightblue" points="550.623,-33.5757 554.876,-23.8718 545.5,-28.8057 550.623,-33.5757"/>
</g>
<!-- Node7 -->
<g id="node7" class="node"><title>Node7</title>
<polygon fill="white" stroke="#bfbfbf" points="456.269,-5.5 456.269,-23.5 515.071,-23.5 515.071,-5.5 456.269,-5.5"/>
<text text-anchor="middle" x="485.67" y="-11.5" font-family="Helvetica,sans-Serif" font-size="10.00">stdexcept</text>
</g>
<!-- Node4&#45;&gt;Node7 -->
<g id="edge6" class="edge"><title>Node4&#45;&gt;Node7</title>
<path fill="none" stroke="midnightblue" d="M505.472,-65.4353C502.179,-57.1323 496.943,-43.9267 492.681,-33.1807"/>
<polygon fill="midnightblue" stroke="midnightblue" points="495.93,-31.8773 488.99,-23.8718 489.423,-34.4578 495.93,-31.8773"/>
</g>
<!-- Node9 -->
<g id="node9" class="node"><title>Node9</title>
<g id="a_node9"><a xlink:href="xmm_phrase_8hpp.html" target="_top" xlink:title="xmmPhrase.hpp">
<polygon fill="white" stroke="black" points="565.266,-120.5 565.266,-138.5 654.074,-138.5 654.074,-120.5 565.266,-120.5"/>
<text text-anchor="middle" x="609.67" y="-126.5" font-family="Helvetica,sans-Serif" font-size="10.00">xmmPhrase.hpp</text>
</a>
</g>
</g>
<!-- Node8&#45;&gt;Node9 -->
<g id="edge8" class="edge"><title>Node8&#45;&gt;Node9</title>
<path fill="none" stroke="midnightblue" d="M664.559,-175.339C653.604,-166.39 639.096,-154.538 627.747,-145.267"/>
<polygon fill="midnightblue" stroke="midnightblue" points="629.754,-142.387 619.795,-138.771 625.326,-147.808 629.754,-142.387"/>
</g>
<!-- Node18 -->
<g id="node18" class="node"><title>Node18</title>
<polygon fill="white" stroke="#bfbfbf" points="715,-5.5 715,-23.5 744.34,-23.5 744.34,-5.5 715,-5.5"/>
<text text-anchor="middle" x="729.67" y="-11.5" font-family="Helvetica,sans-Serif" font-size="10.00">set</text>
</g>
<!-- Node8&#45;&gt;Node18 -->
<g id="edge23" class="edge"><title>Node8&#45;&gt;Node18</title>
<path fill="none" stroke="midnightblue" d="M681.208,-175.488C682.497,-152.535 686.777,-103.629 700.67,-65 704.823,-53.4531 711.695,-41.5555 717.708,-32.3192"/>
<polygon fill="midnightblue" stroke="midnightblue" points="720.783,-34.021 723.512,-23.7836 714.995,-30.0847 720.783,-34.021"/>
</g>
<!-- Node20 -->
<g id="node20" class="node"><title>Node20</title>
<polygon fill="white" stroke="#bfbfbf" points="709.943,-120.5 709.943,-138.5 745.396,-138.5 745.396,-120.5 709.943,-120.5"/>
<text text-anchor="middle" x="727.67" y="-126.5" font-family="Helvetica,sans-Serif" font-size="10.00">map</text>
</g>
<!-- Node8&#45;&gt;Node20 -->
<g id="edge22" class="edge"><title>Node8&#45;&gt;Node20</title>
<path fill="none" stroke="midnightblue" d="M691.335,-175.339C698.231,-166.829 707.255,-155.693 714.584,-146.649"/>
<polygon fill="midnightblue" stroke="midnightblue" points="717.391,-148.744 720.967,-138.771 711.952,-144.337 717.391,-148.744"/>
</g>
<!-- Node10 -->
<g id="node10" class="node"><title>Node10</title>
<g id="a_node10"><a xlink:href="xmm_json_8hpp.html" target="_top" xlink:title="../common/xmmJson.hpp">
<polygon fill="white" stroke="black" points="117.818,-65.5 117.818,-83.5 245.522,-83.5 245.522,-65.5 117.818,-65.5"/>
<text text-anchor="middle" x="181.67" y="-71.5" font-family="Helvetica,sans-Serif" font-size="10.00">../common/xmmJson.hpp</text>
</a>
</g>
</g>
<!-- Node9&#45;&gt;Node10 -->
<g id="edge9" class="edge"><title>Node9&#45;&gt;Node10</title>
<path fill="none" stroke="midnightblue" d="M565.078,-122.978C491.685,-113.89 344.707,-95.6891 255.573,-84.6515"/>
<polygon fill="midnightblue" stroke="midnightblue" points="255.887,-81.1638 245.533,-83.4082 255.027,-88.1107 255.887,-81.1638"/>
</g>
<!-- Node13 -->
<g id="node13" class="node"><title>Node13</title>
<g id="a_node13"><a xlink:href="xmm_attribute_8hpp.html" target="_top" xlink:title="../common/xmmAttribute.hpp">
<polygon fill="white" stroke="black" points="263.759,-65.5 263.759,-83.5 407.581,-83.5 407.581,-65.5 263.759,-65.5"/>
<text text-anchor="middle" x="335.67" y="-71.5" font-family="Helvetica,sans-Serif" font-size="10.00">../common/xmmAttribute.hpp</text>
</a>
</g>
</g>
<!-- Node9&#45;&gt;Node13 -->
<g id="edge13" class="edge"><title>Node9&#45;&gt;Node13</title>
<path fill="none" stroke="midnightblue" d="M568.055,-120.45C519.634,-111.084 439.653,-95.6136 387.309,-85.4886"/>
<polygon fill="midnightblue" stroke="midnightblue" points="387.709,-82.0012 377.226,-83.5383 386.38,-88.8738 387.709,-82.0012"/>
</g>
<!-- Node9&#45;&gt;Node17 -->
<g id="edge19" class="edge"><title>Node9&#45;&gt;Node17</title>
<path fill="none" stroke="midnightblue" d="M635.337,-120.45C664.083,-111.436 710.862,-96.7653 743.117,-86.6496"/>
<polygon fill="midnightblue" stroke="midnightblue" points="744.544,-89.8704 753.038,-83.5383 742.449,-83.1911 744.544,-89.8704"/>
</g>
<!-- Node19 -->
<g id="node19" class="node"><title>Node19</title>
<polygon fill="white" stroke="#bfbfbf" points="610.054,-65.5 610.054,-83.5 653.286,-83.5 653.286,-65.5 610.054,-65.5"/>
<text text-anchor="middle" x="631.67" y="-71.5" font-family="Helvetica,sans-Serif" font-size="10.00">cmath</text>
</g>
<!-- Node9&#45;&gt;Node19 -->
<g id="edge21" class="edge"><title>Node9&#45;&gt;Node19</title>
<path fill="none" stroke="midnightblue" d="M613.107,-120.219C616.128,-112.942 620.623,-102.113 624.433,-92.9345"/>
<polygon fill="midnightblue" stroke="midnightblue" points="627.727,-94.1273 628.329,-83.5496 621.262,-91.4436 627.727,-94.1273"/>
</g>
<!-- Node10&#45;&gt;Node5 -->
<g id="edge12" class="edge"><title>Node10&#45;&gt;Node5</title>
<path fill="none" stroke="midnightblue" d="M231.44,-65.4603C273.195,-58.0492 334.106,-45.6736 385.67,-29 387.283,-28.4785 388.926,-27.9029 390.573,-27.292"/>
<polygon fill="midnightblue" stroke="midnightblue" points="391.89,-30.5348 399.846,-23.5388 389.264,-24.046 391.89,-30.5348"/>
</g>
<!-- Node11 -->
<g id="node11" class="node"><title>Node11</title>
<polygon fill="white" stroke="#bfbfbf" points="124.082,-0.5 124.082,-28.5 241.258,-28.5 241.258,-0.5 124.082,-0.5"/>
<text text-anchor="start" x="132.082" y="-16.5" font-family="Helvetica,sans-Serif" font-size="10.00">../../../dependencies</text>
<text text-anchor="middle" x="182.67" y="-6.5" font-family="Helvetica,sans-Serif" font-size="10.00">/jsoncpp/include/json.h</text>
</g>
<!-- Node10&#45;&gt;Node11 -->
<g id="edge10" class="edge"><title>Node10&#45;&gt;Node11</title>
<path fill="none" stroke="midnightblue" d="M181.809,-65.4353C181.928,-58.5603 182.104,-48.3238 182.266,-38.9057"/>
<polygon fill="midnightblue" stroke="midnightblue" points="185.767,-38.9017 182.44,-28.8428 178.768,-38.7809 185.767,-38.9017"/>
</g>
<!-- Node12 -->
<g id="node12" class="node"><title>Node12</title>
<polygon fill="white" stroke="#bfbfbf" points="0,-5.5 0,-23.5 49.3398,-23.5 49.3398,-5.5 0,-5.5"/>
<text text-anchor="middle" x="24.6699" y="-11.5" font-family="Helvetica,sans-Serif" font-size="10.00">fstream</text>
</g>
<!-- Node10&#45;&gt;Node12 -->
<g id="edge11" class="edge"><title>Node10&#45;&gt;Node12</title>
<path fill="none" stroke="midnightblue" d="M158.468,-65.3461C133.681,-56.579 93.279,-42.1279 58.6699,-29 57.2596,-28.465 55.8183,-27.9131 54.364,-27.3521"/>
<polygon fill="midnightblue" stroke="midnightblue" points="55.3538,-23.9811 44.7659,-23.598 52.804,-30.5002 55.3538,-23.9811"/>
</g>
<!-- Node13&#45;&gt;Node5 -->
<g id="edge16" class="edge"><title>Node13&#45;&gt;Node5</title>
<path fill="none" stroke="midnightblue" d="M346.933,-65.4353C359.796,-56.2243 381.086,-40.9797 396.765,-29.753"/>
<polygon fill="midnightblue" stroke="midnightblue" points="399.149,-32.3507 405.242,-23.6831 395.074,-26.6594 399.149,-32.3507"/>
</g>
<!-- Node13&#45;&gt;Node7 -->
<g id="edge14" class="edge"><title>Node13&#45;&gt;Node7</title>
<path fill="none" stroke="midnightblue" d="M356.527,-65.4353C382.129,-55.5356 425.757,-38.6664 455.136,-27.3064"/>
<polygon fill="midnightblue" stroke="midnightblue" points="456.442,-30.5541 464.507,-23.6831 453.917,-24.0252 456.442,-30.5541"/>
</g>
<!-- Node13&#45;&gt;Node14 -->
<g id="edge15" class="edge"><title>Node13&#45;&gt;Node14</title>
<path fill="none" stroke="midnightblue" d="M275.044,-65.4845C230.028,-58.5316 167.54,-46.7545 114.67,-29 113.461,-28.5941 112.237,-28.1482 111.011,-27.6731"/>
<polygon fill="midnightblue" stroke="midnightblue" points="112.349,-24.4383 101.785,-23.6391 109.545,-30.8521 112.349,-24.4383"/>
</g>
<!-- Node15 -->
<g id="node15" class="node"><title>Node15</title>
<polygon fill="white" stroke="#bfbfbf" points="336.443,-5.5 336.443,-23.5 376.896,-23.5 376.896,-5.5 336.443,-5.5"/>
<text text-anchor="middle" x="356.67" y="-11.5" font-family="Helvetica,sans-Serif" font-size="10.00">string</text>
</g>
<!-- Node13&#45;&gt;Node15 -->
<g id="edge17" class="edge"><title>Node13&#45;&gt;Node15</title>
<path fill="none" stroke="midnightblue" d="M338.59,-65.4353C341.565,-57.2179 346.279,-44.1985 350.148,-33.5138"/>
<polygon fill="midnightblue" stroke="midnightblue" points="353.525,-34.466 353.639,-23.8718 346.943,-32.0829 353.525,-34.466"/>
</g>
<!-- Node16 -->
<g id="node16" class="node"><title>Node16</title>
<polygon fill="white" stroke="#bfbfbf" points="259.266,-5.5 259.266,-23.5 318.074,-23.5 318.074,-5.5 259.266,-5.5"/>
<text text-anchor="middle" x="288.67" y="-11.5" font-family="Helvetica,sans-Serif" font-size="10.00">functional</text>
</g>
<!-- Node13&#45;&gt;Node16 -->
<g id="edge18" class="edge"><title>Node13&#45;&gt;Node16</title>
<path fill="none" stroke="midnightblue" d="M329.135,-65.4353C322.129,-56.7899 310.816,-42.8292 301.931,-31.8643"/>
<polygon fill="midnightblue" stroke="midnightblue" points="304.469,-29.4376 295.454,-23.8718 299.031,-33.8447 304.469,-29.4376"/>
</g>
<!-- Node17&#45;&gt;Node18 -->
<g id="edge20" class="edge"><title>Node17&#45;&gt;Node18</title>
<path fill="none" stroke="midnightblue" d="M771.857,-65.4353C764.48,-56.7043 752.524,-42.5523 743.221,-31.5395"/>
<polygon fill="midnightblue" stroke="midnightblue" points="745.87,-29.2519 736.743,-23.8718 740.523,-33.7694 745.87,-29.2519"/>
</g>
<!-- Node21&#45;&gt;Node8 -->
<g id="edge26" class="edge"><title>Node21&#45;&gt;Node8</title>
<path fill="none" stroke="midnightblue" d="M664.154,-245.264C666.587,-237.194 670.409,-224.523 673.763,-213.401"/>
<polygon fill="midnightblue" stroke="midnightblue" points="677.123,-214.383 676.659,-203.798 670.421,-212.362 677.123,-214.383"/>
</g>
<!-- Node21&#45;&gt;Node17 -->
<g id="edge27" class="edge"><title>Node21&#45;&gt;Node17</title>
<path fill="none" stroke="midnightblue" d="M690.988,-245.405C711.989,-238.06 739.194,-225.085 754.67,-204 778.884,-171.01 780.894,-120.742 779.966,-93.9026"/>
<polygon fill="midnightblue" stroke="midnightblue" points="783.448,-93.4596 779.424,-83.6586 776.458,-93.8297 783.448,-93.4596"/>
</g>
<!-- Node21&#45;&gt;Node22 -->
<g id="edge28" class="edge"><title>Node21&#45;&gt;Node22</title>
<path fill="none" stroke="midnightblue" d="M649.512,-245.264C634.11,-234.831 607.352,-216.704 588.863,-204.179"/>
<polygon fill="midnightblue" stroke="midnightblue" points="590.779,-201.25 580.537,-198.539 586.853,-207.045 590.779,-201.25"/>
</g>
<!-- Node24 -->
<g id="node24" class="node"><title>Node24</title>
<g id="a_node24"><a xlink:href="xmm_model_parameters_8hpp.html" target="_top" xlink:title="xmmModelParameters.hpp">
<polygon fill="white" stroke="black" points="257.648,-180.5 257.648,-198.5 393.692,-198.5 393.692,-180.5 257.648,-180.5"/>
<text text-anchor="middle" x="325.67" y="-186.5" font-family="Helvetica,sans-Serif" font-size="10.00">xmmModelParameters.hpp</text>
</a>
</g>
</g>
<!-- Node23&#45;&gt;Node24 -->
<g id="edge31" class="edge"><title>Node23&#45;&gt;Node24</title>
<path fill="none" stroke="midnightblue" d="M397.815,-240.446C382.583,-229.901 361.201,-215.098 345.671,-204.347"/>
<polygon fill="midnightblue" stroke="midnightblue" points="347.509,-201.362 337.295,-198.548 343.524,-207.118 347.509,-201.362"/>
</g>
<!-- Node24&#45;&gt;Node10 -->
<g id="edge32" class="edge"><title>Node24&#45;&gt;Node10</title>
<path fill="none" stroke="midnightblue" d="M315.314,-180.373C291.132,-161.397 230.685,-113.963 200.065,-89.9347"/>
<polygon fill="midnightblue" stroke="midnightblue" points="201.96,-86.973 191.932,-83.553 197.639,-92.4799 201.96,-86.973"/>
</g>
<!-- Node24&#45;&gt;Node13 -->
<g id="edge33" class="edge"><title>Node24&#45;&gt;Node13</title>
<path fill="none" stroke="midnightblue" d="M326.389,-180.373C327.982,-162.374 331.84,-118.774 334.048,-93.8264"/>
<polygon fill="midnightblue" stroke="midnightblue" points="337.562,-93.8227 334.957,-83.553 330.589,-93.2056 337.562,-93.8227"/>
</g>
<!-- Node25&#45;&gt;Node24 -->
<g id="edge35" class="edge"><title>Node25&#45;&gt;Node24</title>
<path fill="none" stroke="midnightblue" d="M321.92,-310.493C322.551,-290.29 324.222,-236.845 325.104,-208.594"/>
<polygon fill="midnightblue" stroke="midnightblue" points="328.606,-208.608 325.42,-198.504 321.609,-208.39 328.606,-208.608"/>
</g>
<!-- Node27 -->
<g id="node27" class="node"><title>Node27</title>
<g id="a_node27"><a xlink:href="xmm_model_results_8hpp.html" target="_top" xlink:title="../../core/model/xmmModel\lResults.hpp">
<polygon fill="white" stroke="black" points="839.764,-240.5 839.764,-268.5 973.576,-268.5 973.576,-240.5 839.764,-240.5"/>
<text text-anchor="start" x="847.764" y="-256.5" font-family="Helvetica,sans-Serif" font-size="10.00">../../core/model/xmmModel</text>
<text text-anchor="middle" x="906.67" y="-246.5" font-family="Helvetica,sans-Serif" font-size="10.00">Results.hpp</text>
</a>
</g>
</g>
<!-- Node26&#45;&gt;Node27 -->
<g id="edge37" class="edge"><title>Node26&#45;&gt;Node27</title>
<path fill="none" stroke="midnightblue" d="M860.599,-310.264C867.734,-301.783 879.145,-288.218 888.826,-276.711"/>
<polygon fill="midnightblue" stroke="midnightblue" points="891.723,-278.704 895.483,-268.798 886.367,-274.197 891.723,-278.704"/>
</g>
</g>
</svg>
