<?xml version="1.0" encoding="UTF-8" standalone="no"?>
<!DOCTYPE svg PUBLIC "-//W3C//DTD SVG 1.1//EN"
 "http://www.w3.org/Graphics/SVG/1.1/DTD/svg11.dtd">
<!-- Generated by graphviz version 2.38.0 (20140413.2041)
 -->
<!-- Title: xmmHmmParameters.hpp Pages: 1 -->
<svg width="523pt" height="212pt"
 viewBox="0.00 0.00 523.07 212.00" xmlns="http://www.w3.org/2000/svg" xmlns:xlink="http://www.w3.org/1999/xlink">
<g id="graph0" class="graph" transform="scale(1 1) rotate(0) translate(4 208)">
<title>xmmHmmParameters.hpp</title>
<polygon fill="white" stroke="none" points="-4,4 -4,-208 519.071,-208 519.071,4 -4,4"/>
<!-- Node1 -->
<g id="node1" class="node"><title>Node1</title>
<polygon fill="#bfbfbf" stroke="black" points="166.325,-185.5 166.325,-203.5 299.015,-203.5 299.015,-185.5 166.325,-185.5"/>
<text text-anchor="middle" x="232.67" y="-191.5" font-family="Helvetica,sans-Serif" font-size="10.00">xmmHmmParameters.hpp</text>
</g>
<!-- Node2 -->
<g id="node2" class="node"><title>Node2</title>
<g id="a_node2"><a xlink:href="xmm_model_parameters_8hpp.html" target="_top" xlink:title="../../core/model/xmmModel\lParameters.hpp">
<polygon fill="white" stroke="black" points="85.7637,-120.5 85.7637,-148.5 219.576,-148.5 219.576,-120.5 85.7637,-120.5"/>
<text text-anchor="start" x="93.7637" y="-136.5" font-family="Helvetica,sans-Serif" font-size="10.00">../../core/model/xmmModel</text>
<text text-anchor="middle" x="152.67" y="-126.5" font-family="Helvetica,sans-Serif" font-size="10.00">Parameters.hpp</text>
</a>
</g>
</g>
<!-- Node1&#45;&gt;Node2 -->
<g id="edge1" class="edge"><title>Node1&#45;&gt;Node2</title>
<path fill="none" stroke="midnightblue" d="M221.546,-185.435C210.564,-177.473 193.364,-165.003 178.899,-154.516"/>
<polygon fill="midnightblue" stroke="midnightblue" points="180.917,-151.656 170.767,-148.62 176.809,-157.324 180.917,-151.656"/>
</g>
<!-- Node12 -->
<g id="node12" class="node"><title>Node12</title>
<g id="a_node12"><a xlink:href="xmm_gaussian_distribution_8hpp.html" target="_top" xlink:title="../../core/distributions\l/xmmGaussianDistribution.hpp">
<polygon fill="white" stroke="black" points="237.586,-120.5 237.586,-148.5 389.753,-148.5 389.753,-120.5 237.586,-120.5"/>
<text text-anchor="start" x="245.586" y="-136.5" font-family="Helvetica,sans-Serif" font-size="10.00">../../core/distributions</text>
<text text-anchor="middle" x="313.67" y="-126.5" font-family="Helvetica,sans-Serif" font-size="10.00">/xmmGaussianDistribution.hpp</text>
</a>
</g>
</g>
<!-- Node1&#45;&gt;Node12 -->
<g id="edge12" class="edge"><title>Node1&#45;&gt;Node12</title>
<path fill="none" stroke="midnightblue" d="M243.933,-185.435C255.052,-177.473 272.468,-165.003 287.113,-154.516"/>
<polygon fill="midnightblue" stroke="midnightblue" points="289.254,-157.288 295.347,-148.62 285.178,-151.597 289.254,-157.288"/>
</g>
<!-- Node3 -->
<g id="node3" class="node"><title>Node3</title>
<g id="a_node3"><a xlink:href="xmm_json_8hpp.html" target="_top" xlink:title="../common/xmmJson.hpp">
<polygon fill="white" stroke="black" points="88.8179,-65.5 88.8179,-83.5 216.522,-83.5 216.522,-65.5 88.8179,-65.5"/>
<text text-anchor="middle" x="152.67" y="-71.5" font-family="Helvetica,sans-Serif" font-size="10.00">../common/xmmJson.hpp</text>
</a>
</g>
</g>
<!-- Node2&#45;&gt;Node3 -->
<g id="edge2" class="edge"><title>Node2&#45;&gt;Node3</title>
<path fill="none" stroke="midnightblue" d="M152.67,-120.339C152.67,-112.531 152.67,-102.512 152.67,-93.9265"/>
<polygon fill="midnightblue" stroke="midnightblue" points="156.17,-93.7714 152.67,-83.7715 149.17,-93.7715 156.17,-93.7714"/>
</g>
<!-- Node7 -->
<g id="node7" class="node"><title>Node7</title>
<g id="a_node7"><a xlink:href="xmm_attribute_8hpp.html" target="_top" xlink:title="../common/xmmAttribute.hpp">
<polygon fill="white" stroke="black" points="241.759,-65.5 241.759,-83.5 385.581,-83.5 385.581,-65.5 241.759,-65.5"/>
<text text-anchor="middle" x="313.67" y="-71.5" font-family="Helvetica,sans-Serif" font-size="10.00">../common/xmmAttribute.hpp</text>
</a>
</g>
</g>
<!-- Node2&#45;&gt;Node7 -->
<g id="edge6" class="edge"><title>Node2&#45;&gt;Node7</title>
<path fill="none" stroke="midnightblue" d="M188.801,-120.484C216.588,-110.474 254.631,-96.7686 281.402,-87.1246"/>
<polygon fill="midnightblue" stroke="midnightblue" points="282.843,-90.3256 291.065,-83.6434 280.471,-83.7399 282.843,-90.3256"/>
</g>
<!-- Node4 -->
<g id="node4" class="node"><title>Node4</title>
<polygon fill="white" stroke="#bfbfbf" points="67.0815,-0.5 67.0815,-28.5 184.258,-28.5 184.258,-0.5 67.0815,-0.5"/>
<text text-anchor="start" x="75.0815" y="-16.5" font-family="Helvetica,sans-Serif" font-size="10.00">../../../dependencies</text>
<text text-anchor="middle" x="125.67" y="-6.5" font-family="Helvetica,sans-Serif" font-size="10.00">/jsoncpp/include/json.h</text>
</g>
<!-- Node3&#45;&gt;Node4 -->
<g id="edge3" class="edge"><title>Node3&#45;&gt;Node4</title>
<path fill="none" stroke="midnightblue" d="M148.916,-65.4353C145.612,-58.3385 140.641,-47.6599 136.143,-37.9969"/>
<polygon fill="midnightblue" stroke="midnightblue" points="139.275,-36.4315 131.881,-28.8428 132.929,-39.3857 139.275,-36.4315"/>
</g>
<!-- Node5 -->
<g id="node5" class="node"><title>Node5</title>
<polygon fill="white" stroke="#bfbfbf" points="0,-5.5 0,-23.5 49.3398,-23.5 49.3398,-5.5 0,-5.5"/>
<text text-anchor="middle" x="24.6699" y="-11.5" font-family="Helvetica,sans-Serif" font-size="10.00">fstream</text>
</g>
<!-- Node3&#45;&gt;Node5 -->
<g id="edge4" class="edge"><title>Node3&#45;&gt;Node5</title>
<path fill="none" stroke="midnightblue" d="M134.872,-65.4353C113.404,-55.7078 77.0861,-39.2511 52.0444,-27.9041"/>
<polygon fill="midnightblue" stroke="midnightblue" points="53.2824,-24.6225 42.7293,-23.6831 50.3932,-30.9985 53.2824,-24.6225"/>
</g>
<!-- Node6 -->
<g id="node6" class="node"><title>Node6</title>
<polygon fill="white" stroke="#bfbfbf" points="202.054,-5.5 202.054,-23.5 245.286,-23.5 245.286,-5.5 202.054,-5.5"/>
<text text-anchor="middle" x="223.67" y="-11.5" font-family="Helvetica,sans-Serif" font-size="10.00">vector</text>
</g>
<!-- Node3&#45;&gt;Node6 -->
<g id="edge5" class="edge"><title>Node3&#45;&gt;Node6</title>
<path fill="none" stroke="midnightblue" d="M162.542,-65.4353C173.649,-56.3619 191.923,-41.434 205.603,-30.2589"/>
<polygon fill="midnightblue" stroke="midnightblue" points="207.892,-32.9088 213.422,-23.8718 203.463,-27.4877 207.892,-32.9088"/>
</g>
<!-- Node7&#45;&gt;Node6 -->
<g id="edge9" class="edge"><title>Node7&#45;&gt;Node6</title>
<path fill="none" stroke="midnightblue" d="M301.156,-65.4353C286.596,-56.0521 262.32,-40.4077 244.816,-29.1277"/>
<polygon fill="midnightblue" stroke="midnightblue" points="246.67,-26.1582 236.368,-23.6831 242.878,-32.0422 246.67,-26.1582"/>
</g>
<!-- Node8 -->
<g id="node8" class="node"><title>Node8</title>
<polygon fill="white" stroke="#bfbfbf" points="456.269,-5.5 456.269,-23.5 515.071,-23.5 515.071,-5.5 456.269,-5.5"/>
<text text-anchor="middle" x="485.67" y="-11.5" font-family="Helvetica,sans-Serif" font-size="10.00">stdexcept</text>
</g>
<!-- Node7&#45;&gt;Node8 -->
<g id="edge7" class="edge"><title>Node7&#45;&gt;Node8</title>
<path fill="none" stroke="midnightblue" d="M338.209,-65.3743C364.917,-56.5104 408.868,-41.8662 446.67,-29 448.764,-28.2872 450.92,-27.55 453.094,-26.8046"/>
<polygon fill="midnightblue" stroke="midnightblue" points="454.272,-30.1007 462.586,-23.5347 451.992,-23.4823 454.272,-30.1007"/>
</g>
<!-- Node9 -->
<g id="node9" class="node"><title>Node9</title>
<polygon fill="white" stroke="#bfbfbf" points="263.283,-5.5 263.283,-23.5 302.057,-23.5 302.057,-5.5 263.283,-5.5"/>
<text text-anchor="middle" x="282.67" y="-11.5" font-family="Helvetica,sans-Serif" font-size="10.00">limits</text>
</g>
<!-- Node7&#45;&gt;Node9 -->
<g id="edge8" class="edge"><title>Node7&#45;&gt;Node9</title>
<path fill="none" stroke="midnightblue" d="M309.36,-65.4353C304.876,-57.0467 297.718,-43.6539 291.943,-32.8491"/>
<polygon fill="midnightblue" stroke="midnightblue" points="294.945,-31.0412 287.144,-23.8718 288.772,-34.3409 294.945,-31.0412"/>
</g>
<!-- Node10 -->
<g id="node10" class="node"><title>Node10</title>
<polygon fill="white" stroke="#bfbfbf" points="320.443,-5.5 320.443,-23.5 360.896,-23.5 360.896,-5.5 320.443,-5.5"/>
<text text-anchor="middle" x="340.67" y="-11.5" font-family="Helvetica,sans-Serif" font-size="10.00">string</text>
</g>
<!-- Node7&#45;&gt;Node10 -->
<g id="edge10" class="edge"><title>Node7&#45;&gt;Node10</title>
<path fill="none" stroke="midnightblue" d="M317.424,-65.4353C321.289,-57.1323 327.437,-43.9267 332.439,-33.1807"/>
<polygon fill="midnightblue" stroke="midnightblue" points="335.725,-34.4147 336.773,-23.8718 329.379,-31.4605 335.725,-34.4147"/>
</g>
<!-- Node11 -->
<g id="node11" class="node"><title>Node11</title>
<polygon fill="white" stroke="#bfbfbf" points="379.266,-5.5 379.266,-23.5 438.074,-23.5 438.074,-5.5 379.266,-5.5"/>
<text text-anchor="middle" x="408.67" y="-11.5" font-family="Helvetica,sans-Serif" font-size="10.00">functional</text>
</g>
<!-- Node7&#45;&gt;Node11 -->
<g id="edge11" class="edge"><title>Node7&#45;&gt;Node11</title>
<path fill="none" stroke="midnightblue" d="M326.879,-65.4353C342.319,-56.0091 368.108,-40.2641 386.602,-28.9728"/>
<polygon fill="midnightblue" stroke="midnightblue" points="388.555,-31.8813 395.267,-23.6831 384.908,-25.9068 388.555,-31.8813"/>
</g>
<!-- Node12&#45;&gt;Node3 -->
<g id="edge13" class="edge"><title>Node12&#45;&gt;Node3</title>
<path fill="none" stroke="midnightblue" d="M277.538,-120.484C249.752,-110.474 211.709,-96.7686 184.938,-87.1246"/>
<polygon fill="midnightblue" stroke="midnightblue" points="185.869,-83.7399 175.275,-83.6434 183.497,-90.3256 185.869,-83.7399"/>
</g>
<!-- Node12&#45;&gt;Node7 -->
<g id="edge14" class="edge"><title>Node12&#45;&gt;Node7</title>
<path fill="none" stroke="midnightblue" d="M313.67,-120.339C313.67,-112.531 313.67,-102.512 313.67,-93.9265"/>
<polygon fill="midnightblue" stroke="midnightblue" points="317.17,-93.7714 313.67,-83.7715 310.17,-93.7715 317.17,-93.7714"/>
</g>
</g>
</svg>
