<?xml version="1.0" encoding="UTF-8" standalone="no"?>
<!DOCTYPE svg PUBLIC "-//W3C//DTD SVG 1.1//EN"
 "http://www.w3.org/Graphics/SVG/1.1/DTD/svg11.dtd">
<!-- Generated by graphviz version 2.38.0 (20140413.2041)
 -->
<!-- Title: xmmKMeansParameters.cpp Pages: 1 -->
<svg width="523pt" height="267pt"
 viewBox="0.00 0.00 522.99 267.00" xmlns="http://www.w3.org/2000/svg" xmlns:xlink="http://www.w3.org/1999/xlink">
<g id="graph0" class="graph" transform="scale(1 1) rotate(0) translate(4 263)">
<title>xmmKMeansParameters.cpp</title>
<polygon fill="white" stroke="none" points="-4,4 -4,-263 518.992,-263 518.992,4 -4,4"/>
<!-- Node1 -->
<g id="node1" class="node"><title>Node1</title>
<polygon fill="#bfbfbf" stroke="black" points="186.123,-240.5 186.123,-258.5 331.054,-258.5 331.054,-240.5 186.123,-240.5"/>
<text text-anchor="middle" x="258.588" y="-246.5" font-family="Helvetica,sans-Serif" font-size="10.00">xmmKMeansParameters.cpp</text>
</g>
<!-- Node2 -->
<g id="node2" class="node"><title>Node2</title>
<g id="a_node2"><a xlink:href="xmm_k_means_parameters_8hpp.html" target="_top" xlink:title="xmmKMeansParameters.hpp">
<polygon fill="white" stroke="black" points="185.842,-185.5 185.842,-203.5 331.334,-203.5 331.334,-185.5 185.842,-185.5"/>
<text text-anchor="middle" x="258.588" y="-191.5" font-family="Helvetica,sans-Serif" font-size="10.00">xmmKMeansParameters.hpp</text>
</a>
</g>
</g>
<!-- Node1&#45;&gt;Node2 -->
<g id="edge1" class="edge"><title>Node1&#45;&gt;Node2</title>
<path fill="none" stroke="midnightblue" d="M258.588,-240.219C258.588,-233.177 258.588,-222.808 258.588,-213.828"/>
<polygon fill="midnightblue" stroke="midnightblue" points="262.088,-213.55 258.588,-203.55 255.088,-213.55 262.088,-213.55"/>
</g>
<!-- Node3 -->
<g id="node3" class="node"><title>Node3</title>
<g id="a_node3"><a xlink:href="xmm_model_parameters_8hpp.html" target="_top" xlink:title="../../core/model/xmmModel\lParameters.hpp">
<polygon fill="white" stroke="black" points="191.682,-120.5 191.682,-148.5 325.495,-148.5 325.495,-120.5 191.682,-120.5"/>
<text text-anchor="start" x="199.682" y="-136.5" font-family="Helvetica,sans-Serif" font-size="10.00">../../core/model/xmmModel</text>
<text text-anchor="middle" x="258.588" y="-126.5" font-family="Helvetica,sans-Serif" font-size="10.00">Parameters.hpp</text>
</a>
</g>
</g>
<!-- Node2&#45;&gt;Node3 -->
<g id="edge2" class="edge"><title>Node2&#45;&gt;Node3</title>
<path fill="none" stroke="midnightblue" d="M258.588,-185.435C258.588,-178.56 258.588,-168.324 258.588,-158.906"/>
<polygon fill="midnightblue" stroke="midnightblue" points="262.088,-158.843 258.588,-148.843 255.088,-158.843 262.088,-158.843"/>
</g>
<!-- Node4 -->
<g id="node4" class="node"><title>Node4</title>
<g id="a_node4"><a xlink:href="xmm_json_8hpp.html" target="_top" xlink:title="../common/xmmJson.hpp">
<polygon fill="white" stroke="black" points="106.736,-65.5 106.736,-83.5 234.44,-83.5 234.44,-65.5 106.736,-65.5"/>
<text text-anchor="middle" x="170.588" y="-71.5" font-family="Helvetica,sans-Serif" font-size="10.00">../common/xmmJson.hpp</text>
</a>
</g>
</g>
<!-- Node3&#45;&gt;Node4 -->
<g id="edge3" class="edge"><title>Node3&#45;&gt;Node4</title>
<path fill="none" stroke="midnightblue" d="M238.62,-120.339C224.56,-111.072 205.777,-98.6923 191.509,-89.2888"/>
<polygon fill="midnightblue" stroke="midnightblue" points="193.157,-86.1827 182.881,-83.6018 189.304,-92.0274 193.157,-86.1827"/>
</g>
<!-- Node8 -->
<g id="node8" class="node"><title>Node8</title>
<g id="a_node8"><a xlink:href="xmm_attribute_8hpp.html" target="_top" xlink:title="../common/xmmAttribute.hpp">
<polygon fill="white" stroke="black" points="275.677,-65.5 275.677,-83.5 419.5,-83.5 419.5,-65.5 275.677,-65.5"/>
<text text-anchor="middle" x="347.588" y="-71.5" font-family="Helvetica,sans-Serif" font-size="10.00">../common/xmmAttribute.hpp</text>
</a>
</g>
</g>
<!-- Node3&#45;&gt;Node8 -->
<g id="edge7" class="edge"><title>Node3&#45;&gt;Node8</title>
<path fill="none" stroke="midnightblue" d="M278.784,-120.339C293.004,-111.072 312,-98.6923 326.43,-89.2888"/>
<polygon fill="midnightblue" stroke="midnightblue" points="328.689,-91.994 335.156,-83.6018 324.867,-86.1294 328.689,-91.994"/>
</g>
<!-- Node5 -->
<g id="node5" class="node"><title>Node5</title>
<polygon fill="white" stroke="#bfbfbf" points="0,-0.5 0,-28.5 117.177,-28.5 117.177,-0.5 0,-0.5"/>
<text text-anchor="start" x="8" y="-16.5" font-family="Helvetica,sans-Serif" font-size="10.00">../../../dependencies</text>
<text text-anchor="middle" x="58.5884" y="-6.5" font-family="Helvetica,sans-Serif" font-size="10.00">/jsoncpp/include/json.h</text>
</g>
<!-- Node4&#45;&gt;Node5 -->
<g id="edge4" class="edge"><title>Node4&#45;&gt;Node5</title>
<path fill="none" stroke="midnightblue" d="M155.015,-65.4353C139.065,-57.1756 113.747,-44.0642 93.0553,-33.3489"/>
<polygon fill="midnightblue" stroke="midnightblue" points="94.4137,-30.1109 83.9242,-28.6203 91.1946,-36.3269 94.4137,-30.1109"/>
</g>
<!-- Node6 -->
<g id="node6" class="node"><title>Node6</title>
<polygon fill="white" stroke="#bfbfbf" points="134.918,-5.5 134.918,-23.5 184.258,-23.5 184.258,-5.5 134.918,-5.5"/>
<text text-anchor="middle" x="159.588" y="-11.5" font-family="Helvetica,sans-Serif" font-size="10.00">fstream</text>
</g>
<!-- Node4&#45;&gt;Node6 -->
<g id="edge5" class="edge"><title>Node4&#45;&gt;Node6</title>
<path fill="none" stroke="midnightblue" d="M169.059,-65.4353C167.517,-57.3035 165.083,-44.4692 163.068,-33.8485"/>
<polygon fill="midnightblue" stroke="midnightblue" points="166.478,-33.0444 161.176,-23.8718 159.601,-34.3488 166.478,-33.0444"/>
</g>
<!-- Node7 -->
<g id="node7" class="node"><title>Node7</title>
<polygon fill="white" stroke="#bfbfbf" points="201.973,-5.5 201.973,-23.5 245.204,-23.5 245.204,-5.5 201.973,-5.5"/>
<text text-anchor="middle" x="223.588" y="-11.5" font-family="Helvetica,sans-Serif" font-size="10.00">vector</text>
</g>
<!-- Node4&#45;&gt;Node7 -->
<g id="edge6" class="edge"><title>Node4&#45;&gt;Node7</title>
<path fill="none" stroke="midnightblue" d="M177.958,-65.4353C185.936,-56.7043 198.868,-42.5523 208.932,-31.5395"/>
<polygon fill="midnightblue" stroke="midnightblue" points="211.776,-33.6149 215.938,-23.8718 206.609,-28.8929 211.776,-33.6149"/>
</g>
<!-- Node8&#45;&gt;Node7 -->
<g id="edge10" class="edge"><title>Node8&#45;&gt;Node7</title>
<path fill="none" stroke="midnightblue" d="M330.347,-65.4353C309.642,-55.7508 274.678,-39.3966 250.43,-28.055"/>
<polygon fill="midnightblue" stroke="midnightblue" points="251.624,-24.7497 241.083,-23.6831 248.659,-31.0904 251.624,-24.7497"/>
</g>
<!-- Node9 -->
<g id="node9" class="node"><title>Node9</title>
<polygon fill="white" stroke="#bfbfbf" points="263.187,-5.5 263.187,-23.5 321.99,-23.5 321.99,-5.5 263.187,-5.5"/>
<text text-anchor="middle" x="292.588" y="-11.5" font-family="Helvetica,sans-Serif" font-size="10.00">stdexcept</text>
</g>
<!-- Node8&#45;&gt;Node9 -->
<g id="edge8" class="edge"><title>Node8&#45;&gt;Node9</title>
<path fill="none" stroke="midnightblue" d="M339.941,-65.4353C331.58,-56.6187 317.978,-42.2743 307.492,-31.2165"/>
<polygon fill="midnightblue" stroke="midnightblue" points="309.948,-28.7197 300.527,-23.8718 304.868,-33.5364 309.948,-28.7197"/>
</g>
<!-- Node10 -->
<g id="node10" class="node"><title>Node10</title>
<polygon fill="white" stroke="#bfbfbf" points="340.202,-5.5 340.202,-23.5 378.975,-23.5 378.975,-5.5 340.202,-5.5"/>
<text text-anchor="middle" x="359.588" y="-11.5" font-family="Helvetica,sans-Serif" font-size="10.00">limits</text>
</g>
<!-- Node8&#45;&gt;Node10 -->
<g id="edge9" class="edge"><title>Node8&#45;&gt;Node10</title>
<path fill="none" stroke="midnightblue" d="M349.257,-65.4353C350.939,-57.3035 353.595,-44.4692 355.792,-33.8485"/>
<polygon fill="midnightblue" stroke="midnightblue" points="359.258,-34.3735 357.856,-23.8718 352.403,-32.9552 359.258,-34.3735"/>
</g>
<!-- Node11 -->
<g id="node11" class="node"><title>Node11</title>
<polygon fill="white" stroke="#bfbfbf" points="397.362,-5.5 397.362,-23.5 437.815,-23.5 437.815,-5.5 397.362,-5.5"/>
<text text-anchor="middle" x="417.588" y="-11.5" font-family="Helvetica,sans-Serif" font-size="10.00">string</text>
</g>
<!-- Node8&#45;&gt;Node11 -->
<g id="edge11" class="edge"><title>Node8&#45;&gt;Node11</title>
<path fill="none" stroke="midnightblue" d="M357.322,-65.4353C368.272,-56.3619 386.289,-41.434 399.776,-30.2589"/>
<polygon fill="midnightblue" stroke="midnightblue" points="402.017,-32.9471 407.485,-23.8718 397.551,-27.5569 402.017,-32.9471"/>
</g>
<!-- Node12 -->
<g id="node12" class="node"><title>Node12</title>
<polygon fill="white" stroke="#bfbfbf" points="456.185,-5.5 456.185,-23.5 514.992,-23.5 514.992,-5.5 456.185,-5.5"/>
<text text-anchor="middle" x="485.588" y="-11.5" font-family="Helvetica,sans-Serif" font-size="10.00">functional</text>
</g>
<!-- Node8&#45;&gt;Node12 -->
<g id="edge12" class="edge"><title>Node8&#45;&gt;Node12</title>
<path fill="none" stroke="midnightblue" d="M366.777,-65.4353C390.126,-55.6217 429.771,-38.9593 456.789,-27.604"/>
<polygon fill="midnightblue" stroke="midnightblue" points="458.255,-30.7844 466.118,-23.6831 455.543,-24.3312 458.255,-30.7844"/>
</g>
</g>
</svg>
