<?xml version="1.0" encoding="UTF-8" standalone="no"?>
<!DOCTYPE svg PUBLIC "-//W3C//DTD SVG 1.1//EN"
 "http://www.w3.org/Graphics/SVG/1.1/DTD/svg11.dtd">
<!-- Generated by graphviz version 2.38.0 (20140413.2041)
 -->
<!-- Title: xmmModelSingleClass.hpp Pages: 1 -->
<svg width="934pt" height="322pt"
 viewBox="0.00 0.00 933.72 322.00" xmlns="http://www.w3.org/2000/svg" xmlns:xlink="http://www.w3.org/1999/xlink">
<g id="graph0" class="graph" transform="scale(1 1) rotate(0) translate(4 318)">
<title>xmmModelSingleClass.hpp</title>
<polygon fill="white" stroke="none" points="-4,4 -4,-318 929.722,-318 929.722,4 -4,4"/>
<!-- Node1 -->
<g id="node1" class="node"><title>Node1</title>
<polygon fill="#bfbfbf" stroke="black" points="647.007,-295.5 647.007,-313.5 784.169,-313.5 784.169,-295.5 647.007,-295.5"/>
<text text-anchor="middle" x="715.588" y="-301.5" font-family="Helvetica,sans-Serif" font-size="10.00">xmmModelSingleClass.hpp</text>
</g>
<!-- Node2 -->
<g id="node2" class="node"><title>Node2</title>
<g id="a_node2"><a xlink:href="xmm_circularbuffer_8hpp.html" target="_top" xlink:title="../common/xmmCircularbuffer.hpp">
<polygon fill="white" stroke="black" points="225.649,-65.5 225.649,-83.5 391.527,-83.5 391.527,-65.5 225.649,-65.5"/>
<text text-anchor="middle" x="308.588" y="-71.5" font-family="Helvetica,sans-Serif" font-size="10.00">../common/xmmCircularbuffer.hpp</text>
</a>
</g>
</g>
<!-- Node1&#45;&gt;Node2 -->
<g id="edge1" class="edge"><title>Node1&#45;&gt;Node2</title>
<path fill="none" stroke="midnightblue" d="M701.103,-295.385C640.525,-261.45 407.156,-130.717 332.032,-88.633"/>
<polygon fill="midnightblue" stroke="midnightblue" points="333.335,-85.3513 322.9,-83.5174 329.914,-91.4583 333.335,-85.3513"/>
</g>
<!-- Node6 -->
<g id="node6" class="node"><title>Node6</title>
<g id="a_node6"><a xlink:href="xmm_training_set_8hpp.html" target="_top" xlink:title="../trainingset/xmmTraining\lSet.hpp">
<polygon fill="white" stroke="black" points="577.252,-175.5 577.252,-203.5 707.925,-203.5 707.925,-175.5 577.252,-175.5"/>
<text text-anchor="start" x="585.252" y="-191.5" font-family="Helvetica,sans-Serif" font-size="10.00">../trainingset/xmmTraining</text>
<text text-anchor="middle" x="642.588" y="-181.5" font-family="Helvetica,sans-Serif" font-size="10.00">Set.hpp</text>
</a>
</g>
</g>
<!-- Node1&#45;&gt;Node6 -->
<g id="edge5" class="edge"><title>Node1&#45;&gt;Node6</title>
<path fill="none" stroke="midnightblue" d="M710.338,-295.373C699.216,-278.156 672.96,-237.514 656.594,-212.18"/>
<polygon fill="midnightblue" stroke="midnightblue" points="659.425,-210.111 651.058,-203.611 653.545,-213.91 659.425,-210.111"/>
</g>
<!-- Node15 -->
<g id="node15" class="node"><title>Node15</title>
<g id="a_node15"><a xlink:href="xmm_events_8hpp.html" target="_top" xlink:title="../common/xmmEvents.hpp">
<polygon fill="white" stroke="black" points="672.012,-65.5 672.012,-83.5 809.165,-83.5 809.165,-65.5 672.012,-65.5"/>
<text text-anchor="middle" x="740.588" y="-71.5" font-family="Helvetica,sans-Serif" font-size="10.00">../common/xmmEvents.hpp</text>
</a>
</g>
</g>
<!-- Node1&#45;&gt;Node15 -->
<g id="edge22" class="edge"><title>Node1&#45;&gt;Node15</title>
<path fill="none" stroke="midnightblue" d="M716.478,-295.385C720.054,-262.769 733.435,-140.739 738.567,-93.9343"/>
<polygon fill="midnightblue" stroke="midnightblue" points="742.072,-94.0776 739.683,-83.7557 735.114,-93.3146 742.072,-94.0776"/>
</g>
<!-- Node19 -->
<g id="node19" class="node"><title>Node19</title>
<g id="a_node19"><a xlink:href="xmm_model_shared_parameters_8hpp.html" target="_top" xlink:title="xmmModelSharedParameters.hpp">
<polygon fill="white" stroke="black" points="743.443,-240.5 743.443,-258.5 911.733,-258.5 911.733,-240.5 743.443,-240.5"/>
<text text-anchor="middle" x="827.588" y="-246.5" font-family="Helvetica,sans-Serif" font-size="10.00">xmmModelSharedParameters.hpp</text>
</a>
</g>
</g>
<!-- Node1&#45;&gt;Node19 -->
<g id="edge23" class="edge"><title>Node1&#45;&gt;Node19</title>
<path fill="none" stroke="midnightblue" d="M732.599,-295.45C750.854,-286.812 780.083,-272.98 801.301,-262.94"/>
<polygon fill="midnightblue" stroke="midnightblue" points="802.876,-266.066 810.418,-258.625 799.882,-259.739 802.876,-266.066"/>
</g>
<!-- Node20 -->
<g id="node20" class="node"><title>Node20</title>
<polygon fill="white" stroke="#bfbfbf" points="866.973,-180.5 866.973,-198.5 910.204,-198.5 910.204,-180.5 866.973,-180.5"/>
<text text-anchor="middle" x="888.588" y="-186.5" font-family="Helvetica,sans-Serif" font-size="10.00">mutex</text>
</g>
<!-- Node1&#45;&gt;Node20 -->
<g id="edge27" class="edge"><title>Node1&#45;&gt;Node20</title>
<path fill="none" stroke="midnightblue" d="M784.431,-297.716C837.131,-291.693 903.588,-280.087 920.588,-259 933.518,-242.963 918.569,-220.845 905.063,-206.129"/>
<polygon fill="midnightblue" stroke="midnightblue" points="907.389,-203.502 897.895,-198.801 902.385,-208.397 907.389,-203.502"/>
</g>
<!-- Node3 -->
<g id="node3" class="node"><title>Node3</title>
<polygon fill="white" stroke="#bfbfbf" points="217.973,-5.5 217.973,-23.5 261.204,-23.5 261.204,-5.5 217.973,-5.5"/>
<text text-anchor="middle" x="239.588" y="-11.5" font-family="Helvetica,sans-Serif" font-size="10.00">vector</text>
</g>
<!-- Node2&#45;&gt;Node3 -->
<g id="edge2" class="edge"><title>Node2&#45;&gt;Node3</title>
<path fill="none" stroke="midnightblue" d="M298.994,-65.4353C288.302,-56.4475 270.775,-41.7151 257.524,-30.5762"/>
<polygon fill="midnightblue" stroke="midnightblue" points="259.455,-27.6271 249.548,-23.8718 254.951,-32.9855 259.455,-27.6271"/>
</g>
<!-- Node4 -->
<g id="node4" class="node"><title>Node4</title>
<polygon fill="white" stroke="#bfbfbf" points="279.185,-5.5 279.185,-23.5 337.992,-23.5 337.992,-5.5 279.185,-5.5"/>
<text text-anchor="middle" x="308.588" y="-11.5" font-family="Helvetica,sans-Serif" font-size="10.00">exception</text>
</g>
<!-- Node2&#45;&gt;Node4 -->
<g id="edge3" class="edge"><title>Node2&#45;&gt;Node4</title>
<path fill="none" stroke="midnightblue" d="M308.588,-65.4353C308.588,-57.3891 308.588,-44.7388 308.588,-34.1846"/>
<polygon fill="midnightblue" stroke="midnightblue" points="312.088,-33.8717 308.588,-23.8718 305.088,-33.8718 312.088,-33.8717"/>
</g>
<!-- Node5 -->
<g id="node5" class="node"><title>Node5</title>
<polygon fill="white" stroke="#bfbfbf" points="356.187,-5.5 356.187,-23.5 414.99,-23.5 414.99,-5.5 356.187,-5.5"/>
<text text-anchor="middle" x="385.588" y="-11.5" font-family="Helvetica,sans-Serif" font-size="10.00">stdexcept</text>
</g>
<!-- Node2&#45;&gt;Node5 -->
<g id="edge4" class="edge"><title>Node2&#45;&gt;Node5</title>
<path fill="none" stroke="midnightblue" d="M319.295,-65.4353C331.454,-56.2763 351.533,-41.1518 366.413,-29.9437"/>
<polygon fill="midnightblue" stroke="midnightblue" points="368.592,-32.684 374.474,-23.8718 364.381,-27.0927 368.592,-32.684"/>
</g>
<!-- Node7 -->
<g id="node7" class="node"><title>Node7</title>
<g id="a_node7"><a xlink:href="xmm_phrase_8hpp.html" target="_top" xlink:title="xmmPhrase.hpp">
<polygon fill="white" stroke="black" points="527.185,-120.5 527.185,-138.5 615.992,-138.5 615.992,-120.5 527.185,-120.5"/>
<text text-anchor="middle" x="571.588" y="-126.5" font-family="Helvetica,sans-Serif" font-size="10.00">xmmPhrase.hpp</text>
</a>
</g>
</g>
<!-- Node6&#45;&gt;Node7 -->
<g id="edge6" class="edge"><title>Node6&#45;&gt;Node7</title>
<path fill="none" stroke="midnightblue" d="M626.477,-175.339C615.523,-166.39 601.015,-154.538 589.666,-145.267"/>
<polygon fill="midnightblue" stroke="midnightblue" points="591.673,-142.387 581.714,-138.771 587.244,-147.808 591.673,-142.387"/>
</g>
<!-- Node16 -->
<g id="node16" class="node"><title>Node16</title>
<polygon fill="white" stroke="#bfbfbf" points="676.918,-5.5 676.918,-23.5 706.258,-23.5 706.258,-5.5 676.918,-5.5"/>
<text text-anchor="middle" x="691.588" y="-11.5" font-family="Helvetica,sans-Serif" font-size="10.00">set</text>
</g>
<!-- Node6&#45;&gt;Node16 -->
<g id="edge21" class="edge"><title>Node6&#45;&gt;Node16</title>
<path fill="none" stroke="midnightblue" d="M643.126,-175.488C644.415,-152.535 648.695,-103.629 662.588,-65 666.741,-53.4531 673.614,-41.5555 679.626,-32.3192"/>
<polygon fill="midnightblue" stroke="midnightblue" points="682.702,-34.021 685.43,-23.7836 676.913,-30.0847 682.702,-34.021"/>
</g>
<!-- Node18 -->
<g id="node18" class="node"><title>Node18</title>
<polygon fill="white" stroke="#bfbfbf" points="671.862,-120.5 671.862,-138.5 707.315,-138.5 707.315,-120.5 671.862,-120.5"/>
<text text-anchor="middle" x="689.588" y="-126.5" font-family="Helvetica,sans-Serif" font-size="10.00">map</text>
</g>
<!-- Node6&#45;&gt;Node18 -->
<g id="edge20" class="edge"><title>Node6&#45;&gt;Node18</title>
<path fill="none" stroke="midnightblue" d="M653.253,-175.339C660.15,-166.829 669.173,-155.693 676.502,-146.649"/>
<polygon fill="midnightblue" stroke="midnightblue" points="679.309,-148.744 682.886,-138.771 673.87,-144.337 679.309,-148.744"/>
</g>
<!-- Node8 -->
<g id="node8" class="node"><title>Node8</title>
<g id="a_node8"><a xlink:href="xmm_json_8hpp.html" target="_top" xlink:title="../common/xmmJson.hpp">
<polygon fill="white" stroke="black" points="79.7363,-65.5 79.7363,-83.5 207.44,-83.5 207.44,-65.5 79.7363,-65.5"/>
<text text-anchor="middle" x="143.588" y="-71.5" font-family="Helvetica,sans-Serif" font-size="10.00">../common/xmmJson.hpp</text>
</a>
</g>
</g>
<!-- Node7&#45;&gt;Node8 -->
<g id="edge7" class="edge"><title>Node7&#45;&gt;Node8</title>
<path fill="none" stroke="midnightblue" d="M526.996,-122.978C453.603,-113.89 306.625,-95.6891 217.491,-84.6515"/>
<polygon fill="midnightblue" stroke="midnightblue" points="217.805,-81.1638 207.451,-83.4082 216.945,-88.1107 217.805,-81.1638"/>
</g>
<!-- Node11 -->
<g id="node11" class="node"><title>Node11</title>
<g id="a_node11"><a xlink:href="xmm_attribute_8hpp.html" target="_top" xlink:title="../common/xmmAttribute.hpp">
<polygon fill="white" stroke="black" points="409.677,-65.5 409.677,-83.5 553.5,-83.5 553.5,-65.5 409.677,-65.5"/>
<text text-anchor="middle" x="481.588" y="-71.5" font-family="Helvetica,sans-Serif" font-size="10.00">../common/xmmAttribute.hpp</text>
</a>
</g>
</g>
<!-- Node7&#45;&gt;Node11 -->
<g id="edge11" class="edge"><title>Node7&#45;&gt;Node11</title>
<path fill="none" stroke="midnightblue" d="M557.919,-120.45C543.646,-112.045 521.026,-98.7241 504.108,-88.7618"/>
<polygon fill="midnightblue" stroke="midnightblue" points="505.779,-85.6838 495.386,-83.6253 502.227,-91.7157 505.779,-85.6838"/>
</g>
<!-- Node7&#45;&gt;Node15 -->
<g id="edge17" class="edge"><title>Node7&#45;&gt;Node15</title>
<path fill="none" stroke="midnightblue" d="M597.256,-120.45C626.002,-111.436 672.78,-96.7653 705.036,-86.6496"/>
<polygon fill="midnightblue" stroke="midnightblue" points="706.462,-89.8704 714.957,-83.5383 704.368,-83.1911 706.462,-89.8704"/>
</g>
<!-- Node17 -->
<g id="node17" class="node"><title>Node17</title>
<polygon fill="white" stroke="#bfbfbf" points="571.973,-65.5 571.973,-83.5 615.204,-83.5 615.204,-65.5 571.973,-65.5"/>
<text text-anchor="middle" x="593.588" y="-71.5" font-family="Helvetica,sans-Serif" font-size="10.00">cmath</text>
</g>
<!-- Node7&#45;&gt;Node17 -->
<g id="edge19" class="edge"><title>Node7&#45;&gt;Node17</title>
<path fill="none" stroke="midnightblue" d="M575.026,-120.219C578.046,-112.942 582.541,-102.113 586.351,-92.9345"/>
<polygon fill="midnightblue" stroke="midnightblue" points="589.646,-94.1273 590.247,-83.5496 583.181,-91.4436 589.646,-94.1273"/>
</g>
<!-- Node8&#45;&gt;Node3 -->
<g id="edge10" class="edge"><title>Node8&#45;&gt;Node3</title>
<path fill="none" stroke="midnightblue" d="M156.937,-65.4353C172.539,-56.0091 198.6,-40.2641 217.289,-28.9728"/>
<polygon fill="midnightblue" stroke="midnightblue" points="219.295,-31.85 226.044,-23.6831 215.675,-25.8586 219.295,-31.85"/>
</g>
<!-- Node9 -->
<g id="node9" class="node"><title>Node9</title>
<polygon fill="white" stroke="#bfbfbf" points="0,-0.5 0,-28.5 117.177,-28.5 117.177,-0.5 0,-0.5"/>
<text text-anchor="start" x="8" y="-16.5" font-family="Helvetica,sans-Serif" font-size="10.00">../../../dependencies</text>
<text text-anchor="middle" x="58.5884" y="-6.5" font-family="Helvetica,sans-Serif" font-size="10.00">/jsoncpp/include/json.h</text>
</g>
<!-- Node8&#45;&gt;Node9 -->
<g id="edge8" class="edge"><title>Node8&#45;&gt;Node9</title>
<path fill="none" stroke="midnightblue" d="M131.769,-65.4353C120.101,-57.4733 101.825,-45.0029 86.4572,-34.5163"/>
<polygon fill="midnightblue" stroke="midnightblue" points="88.0494,-31.3657 77.8164,-28.6203 84.1039,-37.1478 88.0494,-31.3657"/>
</g>
<!-- Node10 -->
<g id="node10" class="node"><title>Node10</title>
<polygon fill="white" stroke="#bfbfbf" points="134.918,-5.5 134.918,-23.5 184.258,-23.5 184.258,-5.5 134.918,-5.5"/>
<text text-anchor="middle" x="159.588" y="-11.5" font-family="Helvetica,sans-Serif" font-size="10.00">fstream</text>
</g>
<!-- Node8&#45;&gt;Node10 -->
<g id="edge9" class="edge"><title>Node8&#45;&gt;Node10</title>
<path fill="none" stroke="midnightblue" d="M145.813,-65.4353C148.08,-57.2179 151.672,-44.1985 154.619,-33.5138"/>
<polygon fill="midnightblue" stroke="midnightblue" points="157.994,-34.4425 157.279,-23.8718 151.246,-32.5809 157.994,-34.4425"/>
</g>
<!-- Node11&#45;&gt;Node3 -->
<g id="edge14" class="edge"><title>Node11&#45;&gt;Node3</title>
<path fill="none" stroke="midnightblue" d="M428.794,-65.4272C385.643,-58.103 323.367,-45.865 270.588,-29 268.974,-28.4841 267.329,-27.9128 265.682,-27.3052"/>
<polygon fill="midnightblue" stroke="midnightblue" points="266.988,-24.0583 256.405,-23.5608 264.368,-30.5494 266.988,-24.0583"/>
</g>
<!-- Node11&#45;&gt;Node5 -->
<g id="edge12" class="edge"><title>Node11&#45;&gt;Node5</title>
<path fill="none" stroke="midnightblue" d="M468.24,-65.4353C452.638,-56.0091 426.577,-40.2641 407.888,-28.9728"/>
<polygon fill="midnightblue" stroke="midnightblue" points="409.502,-25.8586 399.133,-23.6831 405.882,-31.85 409.502,-25.8586"/>
</g>
<!-- Node12 -->
<g id="node12" class="node"><title>Node12</title>
<polygon fill="white" stroke="#bfbfbf" points="433.202,-5.5 433.202,-23.5 471.975,-23.5 471.975,-5.5 433.202,-5.5"/>
<text text-anchor="middle" x="452.588" y="-11.5" font-family="Helvetica,sans-Serif" font-size="10.00">limits</text>
</g>
<!-- Node11&#45;&gt;Node12 -->
<g id="edge13" class="edge"><title>Node11&#45;&gt;Node12</title>
<path fill="none" stroke="midnightblue" d="M477.556,-65.4353C473.362,-57.0467 466.665,-43.6539 461.263,-32.8491"/>
<polygon fill="midnightblue" stroke="midnightblue" points="464.377,-31.2508 456.774,-23.8718 458.116,-34.3813 464.377,-31.2508"/>
</g>
<!-- Node13 -->
<g id="node13" class="node"><title>Node13</title>
<polygon fill="white" stroke="#bfbfbf" points="490.362,-5.5 490.362,-23.5 530.815,-23.5 530.815,-5.5 490.362,-5.5"/>
<text text-anchor="middle" x="510.588" y="-11.5" font-family="Helvetica,sans-Serif" font-size="10.00">string</text>
</g>
<!-- Node11&#45;&gt;Node13 -->
<g id="edge15" class="edge"><title>Node11&#45;&gt;Node13</title>
<path fill="none" stroke="midnightblue" d="M485.621,-65.4353C489.815,-57.0467 496.511,-43.6539 501.914,-32.8491"/>
<polygon fill="midnightblue" stroke="midnightblue" points="505.061,-34.3813 506.403,-23.8718 498.8,-31.2508 505.061,-34.3813"/>
</g>
<!-- Node14 -->
<g id="node14" class="node"><title>Node14</title>
<polygon fill="white" stroke="#bfbfbf" points="549.185,-5.5 549.185,-23.5 607.992,-23.5 607.992,-5.5 549.185,-5.5"/>
<text text-anchor="middle" x="578.588" y="-11.5" font-family="Helvetica,sans-Serif" font-size="10.00">functional</text>
</g>
<!-- Node11&#45;&gt;Node14 -->
<g id="edge16" class="edge"><title>Node11&#45;&gt;Node14</title>
<path fill="none" stroke="midnightblue" d="M495.076,-65.4353C510.912,-55.9661 537.413,-40.1201 556.315,-28.8184"/>
<polygon fill="midnightblue" stroke="midnightblue" points="558.116,-31.8191 564.903,-23.6831 554.524,-25.8112 558.116,-31.8191"/>
</g>
<!-- Node15&#45;&gt;Node16 -->
<g id="edge18" class="edge"><title>Node15&#45;&gt;Node16</title>
<path fill="none" stroke="midnightblue" d="M733.775,-65.4353C726.399,-56.7043 714.443,-42.5523 705.139,-31.5395"/>
<polygon fill="midnightblue" stroke="midnightblue" points="707.788,-29.2519 698.661,-23.8718 702.441,-33.7694 707.788,-29.2519"/>
</g>
<!-- Node19&#45;&gt;Node6 -->
<g id="edge24" class="edge"><title>Node19&#45;&gt;Node6</title>
<path fill="none" stroke="midnightblue" d="M801.865,-240.435C774.004,-231.701 728.838,-217.54 693.705,-206.526"/>
<polygon fill="midnightblue" stroke="midnightblue" points="694.674,-203.161 684.084,-203.51 692.579,-209.841 694.674,-203.161"/>
</g>
<!-- Node19&#45;&gt;Node15 -->
<g id="edge25" class="edge"><title>Node19&#45;&gt;Node15</title>
<path fill="none" stroke="midnightblue" d="M823.392,-240.156C809.927,-213.38 767.618,-129.249 749.246,-92.7153"/>
<polygon fill="midnightblue" stroke="midnightblue" points="752.362,-91.1219 744.742,-83.7604 746.108,-94.2668 752.362,-91.1219"/>
</g>
<!-- Node19&#45;&gt;Node20 -->
<g id="edge26" class="edge"><title>Node19&#45;&gt;Node20</title>
<path fill="none" stroke="midnightblue" d="M836.07,-240.435C845.433,-231.533 860.723,-216.995 872.397,-205.895"/>
<polygon fill="midnightblue" stroke="midnightblue" points="874.948,-208.299 879.784,-198.872 870.125,-203.226 874.948,-208.299"/>
</g>
</g>
</svg>
