<?xml version="1.0" encoding="UTF-8" standalone="no"?>
<!DOCTYPE svg PUBLIC "-//W3C//DTD SVG 1.1//EN"
 "http://www.w3.org/Graphics/SVG/1.1/DTD/svg11.dtd">
<!-- Generated by graphviz version 2.38.0 (20140413.2041)
 -->
<!-- Title: xmmGaussianDistribution.cpp Pages: 1 -->
<svg width="734pt" height="202pt"
 viewBox="0.00 0.00 734.29 202.00" xmlns="http://www.w3.org/2000/svg" xmlns:xlink="http://www.w3.org/1999/xlink">
<g id="graph0" class="graph" transform="scale(1 1) rotate(0) translate(4 198)">
<title>xmmGaussianDistribution.cpp</title>
<polygon fill="white" stroke="none" points="-4,4 -4,-198 730.286,-198 730.286,4 -4,4"/>
<!-- Node1 -->
<g id="node1" class="node"><title>Node1</title>
<polygon fill="#bfbfbf" stroke="black" points="400.256,-175.5 400.256,-193.5 549.083,-193.5 549.083,-175.5 400.256,-175.5"/>
<text text-anchor="middle" x="474.67" y="-181.5" font-family="Helvetica,sans-Serif" font-size="10.00">xmmGaussianDistribution.cpp</text>
</g>
<!-- Node2 -->
<g id="node2" class="node"><title>Node2</title>
<g id="a_node2"><a xlink:href="xmm_gaussian_distribution_8hpp.html" target="_top" xlink:title="xmmGaussianDistribution.hpp">
<polygon fill="white" stroke="black" points="282.976,-120.5 282.976,-138.5 432.364,-138.5 432.364,-120.5 282.976,-120.5"/>
<text text-anchor="middle" x="357.67" y="-126.5" font-family="Helvetica,sans-Serif" font-size="10.00">xmmGaussianDistribution.hpp</text>
</a>
</g>
</g>
<!-- Node1&#45;&gt;Node2 -->
<g id="edge1" class="edge"><title>Node1&#45;&gt;Node2</title>
<path fill="none" stroke="midnightblue" d="M456.9,-175.45C437.744,-166.773 407.021,-152.856 384.832,-142.804"/>
<polygon fill="midnightblue" stroke="midnightblue" points="386.16,-139.564 375.607,-138.625 383.272,-145.94 386.16,-139.564"/>
</g>
<!-- Node12 -->
<g id="node12" class="node"><title>Node12</title>
<g id="a_node12"><a xlink:href="xmm_matrix_8hpp.html" target="_top" xlink:title="xmmMatrix.hpp">
<polygon fill="white" stroke="black" points="482.498,-65.5 482.498,-83.5 566.842,-83.5 566.842,-65.5 482.498,-65.5"/>
<text text-anchor="middle" x="524.67" y="-71.5" font-family="Helvetica,sans-Serif" font-size="10.00">xmmMatrix.hpp</text>
</a>
</g>
</g>
<!-- Node1&#45;&gt;Node12 -->
<g id="edge12" class="edge"><title>Node1&#45;&gt;Node12</title>
<path fill="none" stroke="midnightblue" d="M476.233,-175.378C478.805,-162.999 484.568,-138.862 493.67,-120 498.538,-109.912 505.577,-99.5894 511.717,-91.4293"/>
<polygon fill="midnightblue" stroke="midnightblue" points="514.484,-93.5721 517.882,-83.5368 508.968,-89.263 514.484,-93.5721"/>
</g>
<!-- Node16 -->
<g id="node16" class="node"><title>Node16</title>
<polygon fill="white" stroke="#bfbfbf" points="503.106,-120.5 503.106,-138.5 560.234,-138.5 560.234,-120.5 503.106,-120.5"/>
<text text-anchor="middle" x="531.67" y="-126.5" font-family="Helvetica,sans-Serif" font-size="10.00">algorithm</text>
</g>
<!-- Node1&#45;&gt;Node16 -->
<g id="edge18" class="edge"><title>Node1&#45;&gt;Node16</title>
<path fill="none" stroke="midnightblue" d="M483.576,-175.219C492.075,-167.316 505.08,-155.224 515.424,-145.606"/>
<polygon fill="midnightblue" stroke="midnightblue" points="518.073,-147.922 523.013,-138.55 513.306,-142.796 518.073,-147.922"/>
</g>
<!-- Node3 -->
<g id="node3" class="node"><title>Node3</title>
<g id="a_node3"><a xlink:href="xmm_json_8hpp.html" target="_top" xlink:title="../common/xmmJson.hpp">
<polygon fill="white" stroke="black" points="100.818,-65.5 100.818,-83.5 228.522,-83.5 228.522,-65.5 100.818,-65.5"/>
<text text-anchor="middle" x="164.67" y="-71.5" font-family="Helvetica,sans-Serif" font-size="10.00">../common/xmmJson.hpp</text>
</a>
</g>
</g>
<!-- Node2&#45;&gt;Node3 -->
<g id="edge2" class="edge"><title>Node2&#45;&gt;Node3</title>
<path fill="none" stroke="midnightblue" d="M328.357,-120.45C295.103,-111.318 240.717,-96.3833 203.845,-86.2578"/>
<polygon fill="midnightblue" stroke="midnightblue" points="204.511,-82.8114 193.941,-83.5383 202.658,-89.5615 204.511,-82.8114"/>
</g>
<!-- Node7 -->
<g id="node7" class="node"><title>Node7</title>
<g id="a_node7"><a xlink:href="xmm_attribute_8hpp.html" target="_top" xlink:title="../common/xmmAttribute.hpp">
<polygon fill="white" stroke="black" points="285.759,-65.5 285.759,-83.5 429.581,-83.5 429.581,-65.5 285.759,-65.5"/>
<text text-anchor="middle" x="357.67" y="-71.5" font-family="Helvetica,sans-Serif" font-size="10.00">../common/xmmAttribute.hpp</text>
</a>
</g>
</g>
<!-- Node2&#45;&gt;Node7 -->
<g id="edge6" class="edge"><title>Node2&#45;&gt;Node7</title>
<path fill="none" stroke="midnightblue" d="M357.67,-120.219C357.67,-113.177 357.67,-102.808 357.67,-93.8277"/>
<polygon fill="midnightblue" stroke="midnightblue" points="361.17,-93.5495 357.67,-83.5496 354.17,-93.5496 361.17,-93.5495"/>
</g>
<!-- Node4 -->
<g id="node4" class="node"><title>Node4</title>
<polygon fill="white" stroke="#bfbfbf" points="67.0815,-0.5 67.0815,-28.5 184.258,-28.5 184.258,-0.5 67.0815,-0.5"/>
<text text-anchor="start" x="75.0815" y="-16.5" font-family="Helvetica,sans-Serif" font-size="10.00">../../../dependencies</text>
<text text-anchor="middle" x="125.67" y="-6.5" font-family="Helvetica,sans-Serif" font-size="10.00">/jsoncpp/include/json.h</text>
</g>
<!-- Node3&#45;&gt;Node4 -->
<g id="edge3" class="edge"><title>Node3&#45;&gt;Node4</title>
<path fill="none" stroke="midnightblue" d="M159.247,-65.4353C154.376,-58.1906 146.994,-47.2134 140.392,-37.3944"/>
<polygon fill="midnightblue" stroke="midnightblue" points="143.126,-35.1882 134.642,-28.8428 137.317,-39.0942 143.126,-35.1882"/>
</g>
<!-- Node5 -->
<g id="node5" class="node"><title>Node5</title>
<polygon fill="white" stroke="#bfbfbf" points="0,-5.5 0,-23.5 49.3398,-23.5 49.3398,-5.5 0,-5.5"/>
<text text-anchor="middle" x="24.6699" y="-11.5" font-family="Helvetica,sans-Serif" font-size="10.00">fstream</text>
</g>
<!-- Node3&#45;&gt;Node5 -->
<g id="edge4" class="edge"><title>Node3&#45;&gt;Node5</title>
<path fill="none" stroke="midnightblue" d="M145.204,-65.4353C121.515,-55.6217 81.2958,-38.9593 53.8865,-27.604"/>
<polygon fill="midnightblue" stroke="midnightblue" points="55.0005,-24.2771 44.4223,-23.6831 52.3213,-30.7441 55.0005,-24.2771"/>
</g>
<!-- Node6 -->
<g id="node6" class="node"><title>Node6</title>
<polygon fill="white" stroke="#bfbfbf" points="395.054,-5.5 395.054,-23.5 438.286,-23.5 438.286,-5.5 395.054,-5.5"/>
<text text-anchor="middle" x="416.67" y="-11.5" font-family="Helvetica,sans-Serif" font-size="10.00">vector</text>
</g>
<!-- Node3&#45;&gt;Node6 -->
<g id="edge5" class="edge"><title>Node3&#45;&gt;Node6</title>
<path fill="none" stroke="midnightblue" d="M221.36,-65.4819C266.504,-58.2891 330.974,-46.2021 385.67,-29 387.287,-28.4915 388.933,-27.9259 390.582,-27.3227"/>
<polygon fill="midnightblue" stroke="midnightblue" points="391.891,-30.5689 399.863,-23.59 389.279,-24.0745 391.891,-30.5689"/>
</g>
<!-- Node7&#45;&gt;Node6 -->
<g id="edge9" class="edge"><title>Node7&#45;&gt;Node6</title>
<path fill="none" stroke="midnightblue" d="M365.874,-65.4353C374.929,-56.5331 389.718,-41.9952 401.009,-30.8954"/>
<polygon fill="midnightblue" stroke="midnightblue" points="403.476,-33.3781 408.154,-23.8718 398.569,-28.3862 403.476,-33.3781"/>
</g>
<!-- Node8 -->
<g id="node8" class="node"><title>Node8</title>
<polygon fill="white" stroke="#bfbfbf" points="456.269,-5.5 456.269,-23.5 515.071,-23.5 515.071,-5.5 456.269,-5.5"/>
<text text-anchor="middle" x="485.67" y="-11.5" font-family="Helvetica,sans-Serif" font-size="10.00">stdexcept</text>
</g>
<!-- Node7&#45;&gt;Node8 -->
<g id="edge7" class="edge"><title>Node7&#45;&gt;Node8</title>
<path fill="none" stroke="midnightblue" d="M375.468,-65.4353C396.935,-55.7078 433.254,-39.2511 458.295,-27.9041"/>
<polygon fill="midnightblue" stroke="midnightblue" points="459.947,-30.9985 467.611,-23.6831 457.057,-24.6225 459.947,-30.9985"/>
</g>
<!-- Node9 -->
<g id="node9" class="node"><title>Node9</title>
<polygon fill="white" stroke="#bfbfbf" points="338.283,-5.5 338.283,-23.5 377.057,-23.5 377.057,-5.5 338.283,-5.5"/>
<text text-anchor="middle" x="357.67" y="-11.5" font-family="Helvetica,sans-Serif" font-size="10.00">limits</text>
</g>
<!-- Node7&#45;&gt;Node9 -->
<g id="edge8" class="edge"><title>Node7&#45;&gt;Node9</title>
<path fill="none" stroke="midnightblue" d="M357.67,-65.4353C357.67,-57.3891 357.67,-44.7388 357.67,-34.1846"/>
<polygon fill="midnightblue" stroke="midnightblue" points="361.17,-33.8717 357.67,-23.8718 354.17,-33.8718 361.17,-33.8717"/>
</g>
<!-- Node10 -->
<g id="node10" class="node"><title>Node10</title>
<polygon fill="white" stroke="#bfbfbf" points="202.443,-5.5 202.443,-23.5 242.896,-23.5 242.896,-5.5 202.443,-5.5"/>
<text text-anchor="middle" x="222.67" y="-11.5" font-family="Helvetica,sans-Serif" font-size="10.00">string</text>
</g>
<!-- Node7&#45;&gt;Node10 -->
<g id="edge10" class="edge"><title>Node7&#45;&gt;Node10</title>
<path fill="none" stroke="midnightblue" d="M338.263,-65.4253C317.148,-56.6052 282.425,-41.9981 252.67,-29 251.676,-28.5656 250.663,-28.1213 249.642,-27.671"/>
<polygon fill="midnightblue" stroke="midnightblue" points="250.967,-24.4299 240.408,-23.5598 248.12,-30.8247 250.967,-24.4299"/>
</g>
<!-- Node11 -->
<g id="node11" class="node"><title>Node11</title>
<polygon fill="white" stroke="#bfbfbf" points="261.266,-5.5 261.266,-23.5 320.074,-23.5 320.074,-5.5 261.266,-5.5"/>
<text text-anchor="middle" x="290.67" y="-11.5" font-family="Helvetica,sans-Serif" font-size="10.00">functional</text>
</g>
<!-- Node7&#45;&gt;Node11 -->
<g id="edge11" class="edge"><title>Node7&#45;&gt;Node11</title>
<path fill="none" stroke="midnightblue" d="M348.354,-65.4353C337.971,-56.4475 320.953,-41.7151 308.086,-30.5762"/>
<polygon fill="midnightblue" stroke="midnightblue" points="310.192,-27.7706 300.341,-23.8718 305.611,-33.063 310.192,-27.7706"/>
</g>
<!-- Node12&#45;&gt;Node6 -->
<g id="edge14" class="edge"><title>Node12&#45;&gt;Node6</title>
<path fill="none" stroke="midnightblue" d="M509.653,-65.4353C491.86,-55.88 461.977,-39.8315 440.898,-28.5113"/>
<polygon fill="midnightblue" stroke="midnightblue" points="442.373,-25.331 431.907,-23.6831 439.061,-31.4979 442.373,-25.331"/>
</g>
<!-- Node12&#45;&gt;Node8 -->
<g id="edge16" class="edge"><title>Node12&#45;&gt;Node8</title>
<path fill="none" stroke="midnightblue" d="M519.247,-65.4353C513.491,-56.8755 504.232,-43.1052 496.893,-32.1909"/>
<polygon fill="midnightblue" stroke="midnightblue" points="499.784,-30.2172 491.299,-23.8718 493.975,-34.1232 499.784,-30.2172"/>
</g>
<!-- Node13 -->
<g id="node13" class="node"><title>Node13</title>
<polygon fill="white" stroke="#bfbfbf" points="533.498,-5.5 533.498,-23.5 587.842,-23.5 587.842,-5.5 533.498,-5.5"/>
<text text-anchor="middle" x="560.67" y="-11.5" font-family="Helvetica,sans-Serif" font-size="10.00">iostream</text>
</g>
<!-- Node12&#45;&gt;Node13 -->
<g id="edge13" class="edge"><title>Node12&#45;&gt;Node13</title>
<path fill="none" stroke="midnightblue" d="M529.676,-65.4353C534.935,-56.9611 543.365,-43.38 550.106,-32.5192"/>
<polygon fill="midnightblue" stroke="midnightblue" points="553.174,-34.214 555.474,-23.8718 547.226,-30.5224 553.174,-34.214"/>
</g>
<!-- Node14 -->
<g id="node14" class="node"><title>Node14</title>
<polygon fill="white" stroke="#bfbfbf" points="606.266,-5.5 606.266,-23.5 665.074,-23.5 665.074,-5.5 606.266,-5.5"/>
<text text-anchor="middle" x="635.67" y="-11.5" font-family="Helvetica,sans-Serif" font-size="10.00">exception</text>
</g>
<!-- Node12&#45;&gt;Node14 -->
<g id="edge15" class="edge"><title>Node12&#45;&gt;Node14</title>
<path fill="none" stroke="midnightblue" d="M540.104,-65.4353C558.473,-55.8369 589.381,-39.6868 611.061,-28.3586"/>
<polygon fill="midnightblue" stroke="midnightblue" points="612.767,-31.4164 620.009,-23.6831 609.525,-25.2123 612.767,-31.4164"/>
</g>
<!-- Node15 -->
<g id="node15" class="node"><title>Node15</title>
<polygon fill="white" stroke="#bfbfbf" points="683.054,-5.5 683.054,-23.5 726.286,-23.5 726.286,-5.5 683.054,-5.5"/>
<text text-anchor="middle" x="704.67" y="-11.5" font-family="Helvetica,sans-Serif" font-size="10.00">cmath</text>
</g>
<!-- Node12&#45;&gt;Node15 -->
<g id="edge17" class="edge"><title>Node12&#45;&gt;Node15</title>
<path fill="none" stroke="midnightblue" d="M555.557,-65.4454C585.94,-57.2493 633.481,-43.6917 673.67,-29 675.048,-28.4961 676.453,-27.9619 677.866,-27.4081"/>
<polygon fill="midnightblue" stroke="midnightblue" points="679.211,-30.6393 687.114,-23.5826 676.536,-24.1709 679.211,-30.6393"/>
</g>
</g>
</svg>
