<?xml version="1.0" encoding="UTF-8" standalone="no"?>
<!DOCTYPE svg PUBLIC "-//W3C//DTD SVG 1.1//EN"
 "http://www.w3.org/Graphics/SVG/1.1/DTD/svg11.dtd">
<!-- Generated by graphviz version 2.38.0 (20140413.2041)
 -->
<!-- Title: xmmGmmSingleClass.hpp Pages: 1 -->
<svg width="809pt" height="397pt"
 viewBox="0.00 0.00 809.49 397.00" xmlns="http://www.w3.org/2000/svg" xmlns:xlink="http://www.w3.org/1999/xlink">
<g id="graph0" class="graph" transform="scale(1 1) rotate(0) translate(4 393)">
<title>xmmGmmSingleClass.hpp</title>
<polygon fill="white" stroke="none" points="-4,4 -4,-393 805.49,-393 805.49,4 -4,4"/>
<!-- Node1 -->
<g id="node1" class="node"><title>Node1</title>
<polygon fill="#bfbfbf" stroke="black" points="256.904,-370.5 256.904,-388.5 391.268,-388.5 391.268,-370.5 256.904,-370.5"/>
<text text-anchor="middle" x="324.086" y="-376.5" font-family="Helvetica,sans-Serif" font-size="10.00">xmmGmmSingleClass.hpp</text>
</g>
<!-- Node2 -->
<g id="node2" class="node"><title>Node2</title>
<g id="a_node2"><a xlink:href="xmm_model_single_class_8hpp.html" target="_top" xlink:title="../../core/model/xmmModel\lSingleClass.hpp">
<polygon fill="white" stroke="black" points="105.18,-305.5 105.18,-333.5 238.992,-333.5 238.992,-305.5 105.18,-305.5"/>
<text text-anchor="start" x="113.18" y="-321.5" font-family="Helvetica,sans-Serif" font-size="10.00">../../core/model/xmmModel</text>
<text text-anchor="middle" x="172.086" y="-311.5" font-family="Helvetica,sans-Serif" font-size="10.00">SingleClass.hpp</text>
</a>
</g>
</g>
<!-- Node1&#45;&gt;Node2 -->
<g id="edge1" class="edge"><title>Node1&#45;&gt;Node2</title>
<path fill="none" stroke="midnightblue" d="M302.951,-370.435C280.452,-361.85 244.215,-348.023 215.572,-337.093"/>
<polygon fill="midnightblue" stroke="midnightblue" points="216.771,-333.805 206.18,-333.51 214.275,-340.345 216.771,-333.805"/>
</g>
<!-- Node22 -->
<g id="node22" class="node"><title>Node22</title>
<g id="a_node22"><a xlink:href="xmm_model_results_8hpp.html" target="_top" xlink:title="../../core/model/xmmModel\lResults.hpp">
<polygon fill="white" stroke="black" points="257.18,-305.5 257.18,-333.5 390.992,-333.5 390.992,-305.5 257.18,-305.5"/>
<text text-anchor="start" x="265.18" y="-321.5" font-family="Helvetica,sans-Serif" font-size="10.00">../../core/model/xmmModel</text>
<text text-anchor="middle" x="324.086" y="-311.5" font-family="Helvetica,sans-Serif" font-size="10.00">Results.hpp</text>
</a>
</g>
</g>
<!-- Node1&#45;&gt;Node22 -->
<g id="edge29" class="edge"><title>Node1&#45;&gt;Node22</title>
<path fill="none" stroke="midnightblue" d="M324.086,-370.435C324.086,-363.56 324.086,-353.324 324.086,-343.906"/>
<polygon fill="midnightblue" stroke="midnightblue" points="327.586,-343.843 324.086,-333.843 320.586,-343.843 327.586,-343.843"/>
</g>
<!-- Node23 -->
<g id="node23" class="node"><title>Node23</title>
<g id="a_node23"><a xlink:href="xmm_gmm_parameters_8hpp.html" target="_top" xlink:title="xmmGmmParameters.hpp">
<polygon fill="white" stroke="black" points="352.463,-190.5 352.463,-208.5 485.709,-208.5 485.709,-190.5 352.463,-190.5"/>
<text text-anchor="middle" x="419.086" y="-196.5" font-family="Helvetica,sans-Serif" font-size="10.00">xmmGmmParameters.hpp</text>
</a>
</g>
</g>
<!-- Node1&#45;&gt;Node23 -->
<g id="edge30" class="edge"><title>Node1&#45;&gt;Node23</title>
<path fill="none" stroke="midnightblue" d="M349.042,-370.464C366.235,-363.581 388.07,-351.899 400.086,-334 423.835,-298.625 423.419,-246.074 421.194,-218.648"/>
<polygon fill="midnightblue" stroke="midnightblue" points="424.663,-218.163 420.195,-208.556 417.697,-218.852 424.663,-218.163"/>
</g>
<!-- Node3 -->
<g id="node3" class="node"><title>Node3</title>
<g id="a_node3"><a xlink:href="xmm_circularbuffer_8hpp.html" target="_top" xlink:title="../common/xmmCircularbuffer.hpp">
<polygon fill="white" stroke="black" points="419.147,-65.5 419.147,-83.5 585.025,-83.5 585.025,-65.5 419.147,-65.5"/>
<text text-anchor="middle" x="502.086" y="-71.5" font-family="Helvetica,sans-Serif" font-size="10.00">../common/xmmCircularbuffer.hpp</text>
</a>
</g>
</g>
<!-- Node2&#45;&gt;Node3 -->
<g id="edge2" class="edge"><title>Node2&#45;&gt;Node3</title>
<path fill="none" stroke="midnightblue" d="M221.085,-305.495C242.131,-297.812 265.619,-286.14 282.086,-269 331.546,-217.52 288.87,-167.588 342.086,-120 361.06,-103.033 385.975,-92.4762 410.477,-85.9262"/>
<polygon fill="midnightblue" stroke="midnightblue" points="411.329,-89.3208 420.197,-83.5239 409.65,-82.5253 411.329,-89.3208"/>
</g>
<!-- Node7 -->
<g id="node7" class="node"><title>Node7</title>
<g id="a_node7"><a xlink:href="xmm_training_set_8hpp.html" target="_top" xlink:title="../trainingset/xmmTraining\lSet.hpp">
<polygon fill="white" stroke="black" points="13.7497,-185.5 13.7497,-213.5 144.423,-213.5 144.423,-185.5 13.7497,-185.5"/>
<text text-anchor="start" x="21.7497" y="-201.5" font-family="Helvetica,sans-Serif" font-size="10.00">../trainingset/xmmTraining</text>
<text text-anchor="middle" x="79.0861" y="-191.5" font-family="Helvetica,sans-Serif" font-size="10.00">Set.hpp</text>
</a>
</g>
</g>
<!-- Node2&#45;&gt;Node7 -->
<g id="edge6" class="edge"><title>Node2&#45;&gt;Node7</title>
<path fill="none" stroke="midnightblue" d="M125.95,-305.394C108.072,-297.813 89.4448,-286.248 79.0861,-269 70.9868,-255.514 71.2577,-237.675 73.4112,-223.583"/>
<polygon fill="midnightblue" stroke="midnightblue" points="76.8658,-224.152 75.3175,-213.671 69.9918,-222.83 76.8658,-224.152"/>
</g>
<!-- Node16 -->
<g id="node16" class="node"><title>Node16</title>
<g id="a_node16"><a xlink:href="xmm_events_8hpp.html" target="_top" xlink:title="../common/xmmEvents.hpp">
<polygon fill="white" stroke="black" points="57.51,-65.5 57.51,-83.5 194.662,-83.5 194.662,-65.5 57.51,-65.5"/>
<text text-anchor="middle" x="126.086" y="-71.5" font-family="Helvetica,sans-Serif" font-size="10.00">../common/xmmEvents.hpp</text>
</a>
</g>
</g>
<!-- Node2&#45;&gt;Node16 -->
<g id="edge23" class="edge"><title>Node2&#45;&gt;Node16</title>
<path fill="none" stroke="midnightblue" d="M126.135,-305.457C84.8594,-290.866 27.4208,-262.643 5.08614,-214 -19.9342,-159.508 56.8695,-110.432 99.5693,-88.1503"/>
<polygon fill="midnightblue" stroke="midnightblue" points="101.278,-91.2083 108.613,-83.5638 98.1117,-84.9652 101.278,-91.2083"/>
</g>
<!-- Node20 -->
<g id="node20" class="node"><title>Node20</title>
<g id="a_node20"><a xlink:href="xmm_model_shared_parameters_8hpp.html" target="_top" xlink:title="xmmModelSharedParameters.hpp">
<polygon fill="white" stroke="black" points="87.9411,-250.5 87.9411,-268.5 256.231,-268.5 256.231,-250.5 87.9411,-250.5"/>
<text text-anchor="middle" x="172.086" y="-256.5" font-family="Helvetica,sans-Serif" font-size="10.00">xmmModelSharedParameters.hpp</text>
</a>
</g>
</g>
<!-- Node2&#45;&gt;Node20 -->
<g id="edge24" class="edge"><title>Node2&#45;&gt;Node20</title>
<path fill="none" stroke="midnightblue" d="M172.086,-305.339C172.086,-297.531 172.086,-287.512 172.086,-278.927"/>
<polygon fill="midnightblue" stroke="midnightblue" points="175.586,-278.771 172.086,-268.771 168.586,-278.772 175.586,-278.771"/>
</g>
<!-- Node21 -->
<g id="node21" class="node"><title>Node21</title>
<polygon fill="white" stroke="#bfbfbf" points="226.47,-190.5 226.47,-208.5 269.702,-208.5 269.702,-190.5 226.47,-190.5"/>
<text text-anchor="middle" x="248.086" y="-196.5" font-family="Helvetica,sans-Serif" font-size="10.00">mutex</text>
</g>
<!-- Node2&#45;&gt;Node21 -->
<g id="edge28" class="edge"><title>Node2&#45;&gt;Node21</title>
<path fill="none" stroke="midnightblue" d="M218.222,-305.394C236.1,-297.813 254.728,-286.248 265.086,-269 274.62,-253.125 266.973,-232.122 259.108,-217.577"/>
<polygon fill="midnightblue" stroke="midnightblue" points="261.946,-215.5 253.836,-208.681 255.924,-219.069 261.946,-215.5"/>
</g>
<!-- Node4 -->
<g id="node4" class="node"><title>Node4</title>
<polygon fill="white" stroke="#bfbfbf" points="411.47,-5.5 411.47,-23.5 454.702,-23.5 454.702,-5.5 411.47,-5.5"/>
<text text-anchor="middle" x="433.086" y="-11.5" font-family="Helvetica,sans-Serif" font-size="10.00">vector</text>
</g>
<!-- Node3&#45;&gt;Node4 -->
<g id="edge3" class="edge"><title>Node3&#45;&gt;Node4</title>
<path fill="none" stroke="midnightblue" d="M492.492,-65.4353C481.8,-56.4475 464.273,-41.7151 451.022,-30.5762"/>
<polygon fill="midnightblue" stroke="midnightblue" points="452.953,-27.6271 443.046,-23.8718 448.448,-32.9855 452.953,-27.6271"/>
</g>
<!-- Node5 -->
<g id="node5" class="node"><title>Node5</title>
<polygon fill="white" stroke="#bfbfbf" points="472.682,-5.5 472.682,-23.5 531.49,-23.5 531.49,-5.5 472.682,-5.5"/>
<text text-anchor="middle" x="502.086" y="-11.5" font-family="Helvetica,sans-Serif" font-size="10.00">exception</text>
</g>
<!-- Node3&#45;&gt;Node5 -->
<g id="edge4" class="edge"><title>Node3&#45;&gt;Node5</title>
<path fill="none" stroke="midnightblue" d="M502.086,-65.4353C502.086,-57.3891 502.086,-44.7388 502.086,-34.1846"/>
<polygon fill="midnightblue" stroke="midnightblue" points="505.586,-33.8717 502.086,-23.8718 498.586,-33.8718 505.586,-33.8717"/>
</g>
<!-- Node6 -->
<g id="node6" class="node"><title>Node6</title>
<polygon fill="white" stroke="#bfbfbf" points="549.685,-5.5 549.685,-23.5 608.488,-23.5 608.488,-5.5 549.685,-5.5"/>
<text text-anchor="middle" x="579.086" y="-11.5" font-family="Helvetica,sans-Serif" font-size="10.00">stdexcept</text>
</g>
<!-- Node3&#45;&gt;Node6 -->
<g id="edge5" class="edge"><title>Node3&#45;&gt;Node6</title>
<path fill="none" stroke="midnightblue" d="M512.793,-65.4353C524.952,-56.2763 545.031,-41.1518 559.911,-29.9437"/>
<polygon fill="midnightblue" stroke="midnightblue" points="562.09,-32.684 567.972,-23.8718 557.879,-27.0927 562.09,-32.684"/>
</g>
<!-- Node8 -->
<g id="node8" class="node"><title>Node8</title>
<g id="a_node8"><a xlink:href="xmm_phrase_8hpp.html" target="_top" xlink:title="xmmPhrase.hpp">
<polygon fill="white" stroke="black" points="199.682,-125.5 199.682,-143.5 288.49,-143.5 288.49,-125.5 199.682,-125.5"/>
<text text-anchor="middle" x="244.086" y="-131.5" font-family="Helvetica,sans-Serif" font-size="10.00">xmmPhrase.hpp</text>
</a>
</g>
</g>
<!-- Node7&#45;&gt;Node8 -->
<g id="edge7" class="edge"><title>Node7&#45;&gt;Node8</title>
<path fill="none" stroke="midnightblue" d="M113.274,-185.446C142.828,-174.162 185.152,-158.002 213.577,-147.149"/>
<polygon fill="midnightblue" stroke="midnightblue" points="214.914,-150.385 223.008,-143.548 212.417,-143.845 214.914,-150.385"/>
</g>
<!-- Node17 -->
<g id="node17" class="node"><title>Node17</title>
<polygon fill="white" stroke="#bfbfbf" points="63.4162,-5.5 63.4162,-23.5 92.7561,-23.5 92.7561,-5.5 63.4162,-5.5"/>
<text text-anchor="middle" x="78.0861" y="-11.5" font-family="Helvetica,sans-Serif" font-size="10.00">set</text>
</g>
<!-- Node7&#45;&gt;Node17 -->
<g id="edge22" class="edge"><title>Node7&#45;&gt;Node17</title>
<path fill="none" stroke="midnightblue" d="M69.8152,-185.332C63.5982,-175.739 55.8788,-162.169 52.0861,-149 41.7427,-113.084 38.0293,-100.997 48.0861,-65 51.4525,-52.9506 58.64,-40.9136 65.1358,-31.7269"/>
<polygon fill="midnightblue" stroke="midnightblue" points="68.0343,-33.6955 71.2339,-23.5953 62.4341,-29.4957 68.0343,-33.6955"/>
</g>
<!-- Node19 -->
<g id="node19" class="node"><title>Node19</title>
<polygon fill="white" stroke="#bfbfbf" points="61.3596,-125.5 61.3596,-143.5 96.8127,-143.5 96.8127,-125.5 61.3596,-125.5"/>
<text text-anchor="middle" x="79.0861" y="-131.5" font-family="Helvetica,sans-Serif" font-size="10.00">map</text>
</g>
<!-- Node7&#45;&gt;Node19 -->
<g id="edge21" class="edge"><title>Node7&#45;&gt;Node19</title>
<path fill="none" stroke="midnightblue" d="M79.0861,-185.446C79.0861,-176.334 79.0861,-164.041 79.0861,-153.931"/>
<polygon fill="midnightblue" stroke="midnightblue" points="82.5862,-153.73 79.0861,-143.73 75.5862,-153.73 82.5862,-153.73"/>
</g>
<!-- Node9 -->
<g id="node9" class="node"><title>Node9</title>
<g id="a_node9"><a xlink:href="xmm_json_8hpp.html" target="_top" xlink:title="../common/xmmJson.hpp">
<polygon fill="white" stroke="black" points="273.234,-65.5 273.234,-83.5 400.938,-83.5 400.938,-65.5 273.234,-65.5"/>
<text text-anchor="middle" x="337.086" y="-71.5" font-family="Helvetica,sans-Serif" font-size="10.00">../common/xmmJson.hpp</text>
</a>
</g>
</g>
<!-- Node8&#45;&gt;Node9 -->
<g id="edge8" class="edge"><title>Node8&#45;&gt;Node9</title>
<path fill="none" stroke="midnightblue" d="M257.017,-125.435C272.063,-116.052 297.148,-100.408 315.235,-89.1277"/>
<polygon fill="midnightblue" stroke="midnightblue" points="317.332,-91.9448 323.965,-83.6831 313.628,-86.0052 317.332,-91.9448"/>
</g>
<!-- Node12 -->
<g id="node12" class="node"><title>Node12</title>
<g id="a_node12"><a xlink:href="xmm_attribute_8hpp.html" target="_top" xlink:title="../common/xmmAttribute.hpp">
<polygon fill="white" stroke="black" points="603.175,-65.5 603.175,-83.5 746.997,-83.5 746.997,-65.5 603.175,-65.5"/>
<text text-anchor="middle" x="675.086" y="-71.5" font-family="Helvetica,sans-Serif" font-size="10.00">../common/xmmAttribute.hpp</text>
</a>
</g>
</g>
<!-- Node8&#45;&gt;Node12 -->
<g id="edge12" class="edge"><title>Node8&#45;&gt;Node12</title>
<path fill="none" stroke="midnightblue" d="M288.965,-127.279C305.643,-124.977 324.727,-122.356 342.086,-120 432.657,-107.71 537.122,-93.7919 604.534,-84.844"/>
<polygon fill="midnightblue" stroke="midnightblue" points="605.163,-88.2912 614.616,-83.5061 604.242,-81.3521 605.163,-88.2912"/>
</g>
<!-- Node8&#45;&gt;Node16 -->
<g id="edge18" class="edge"><title>Node8&#45;&gt;Node16</title>
<path fill="none" stroke="midnightblue" d="M227.679,-125.435C208.063,-115.794 174.999,-99.5418 151.937,-88.2065"/>
<polygon fill="midnightblue" stroke="midnightblue" points="153.253,-84.9533 142.735,-83.6831 150.165,-91.2355 153.253,-84.9533"/>
</g>
<!-- Node18 -->
<g id="node18" class="node"><title>Node18</title>
<polygon fill="white" stroke="#bfbfbf" points="212.47,-65.5 212.47,-83.5 255.702,-83.5 255.702,-65.5 212.47,-65.5"/>
<text text-anchor="middle" x="234.086" y="-71.5" font-family="Helvetica,sans-Serif" font-size="10.00">cmath</text>
</g>
<!-- Node8&#45;&gt;Node18 -->
<g id="edge20" class="edge"><title>Node8&#45;&gt;Node18</title>
<path fill="none" stroke="midnightblue" d="M242.696,-125.435C241.294,-117.304 239.081,-104.469 237.25,-93.8485"/>
<polygon fill="midnightblue" stroke="midnightblue" points="240.678,-93.1317 235.53,-83.8718 233.78,-94.3211 240.678,-93.1317"/>
</g>
<!-- Node9&#45;&gt;Node4 -->
<g id="edge11" class="edge"><title>Node9&#45;&gt;Node4</title>
<path fill="none" stroke="midnightblue" d="M350.435,-65.4353C366.037,-56.0091 392.097,-40.2641 410.786,-28.9728"/>
<polygon fill="midnightblue" stroke="midnightblue" points="412.792,-31.85 419.542,-23.6831 409.173,-25.8586 412.792,-31.85"/>
</g>
<!-- Node10 -->
<g id="node10" class="node"><title>Node10</title>
<polygon fill="white" stroke="#bfbfbf" points="193.498,-0.5 193.498,-28.5 310.675,-28.5 310.675,-0.5 193.498,-0.5"/>
<text text-anchor="start" x="201.498" y="-16.5" font-family="Helvetica,sans-Serif" font-size="10.00">../../../dependencies</text>
<text text-anchor="middle" x="252.086" y="-6.5" font-family="Helvetica,sans-Serif" font-size="10.00">/jsoncpp/include/json.h</text>
</g>
<!-- Node9&#45;&gt;Node10 -->
<g id="edge9" class="edge"><title>Node9&#45;&gt;Node10</title>
<path fill="none" stroke="midnightblue" d="M325.267,-65.4353C313.599,-57.4733 295.323,-45.0029 279.955,-34.5163"/>
<polygon fill="midnightblue" stroke="midnightblue" points="281.547,-31.3657 271.314,-28.6203 277.602,-37.1478 281.547,-31.3657"/>
</g>
<!-- Node11 -->
<g id="node11" class="node"><title>Node11</title>
<polygon fill="white" stroke="#bfbfbf" points="328.416,-5.5 328.416,-23.5 377.756,-23.5 377.756,-5.5 328.416,-5.5"/>
<text text-anchor="middle" x="353.086" y="-11.5" font-family="Helvetica,sans-Serif" font-size="10.00">fstream</text>
</g>
<!-- Node9&#45;&gt;Node11 -->
<g id="edge10" class="edge"><title>Node9&#45;&gt;Node11</title>
<path fill="none" stroke="midnightblue" d="M339.311,-65.4353C341.578,-57.2179 345.169,-44.1985 348.117,-33.5138"/>
<polygon fill="midnightblue" stroke="midnightblue" points="351.491,-34.4425 350.777,-23.8718 344.743,-32.5809 351.491,-34.4425"/>
</g>
<!-- Node12&#45;&gt;Node4 -->
<g id="edge15" class="edge"><title>Node12&#45;&gt;Node4</title>
<path fill="none" stroke="midnightblue" d="M622.292,-65.4272C579.141,-58.103 516.865,-45.865 464.086,-29 462.472,-28.4841 460.827,-27.9128 459.179,-27.3052"/>
<polygon fill="midnightblue" stroke="midnightblue" points="460.486,-24.0583 449.903,-23.5608 457.866,-30.5494 460.486,-24.0583"/>
</g>
<!-- Node12&#45;&gt;Node6 -->
<g id="edge13" class="edge"><title>Node12&#45;&gt;Node6</title>
<path fill="none" stroke="midnightblue" d="M661.738,-65.4353C646.136,-56.0091 620.075,-40.2641 601.386,-28.9728"/>
<polygon fill="midnightblue" stroke="midnightblue" points="603,-25.8586 592.631,-23.6831 599.38,-31.85 603,-25.8586"/>
</g>
<!-- Node13 -->
<g id="node13" class="node"><title>Node13</title>
<polygon fill="white" stroke="#bfbfbf" points="626.699,-5.5 626.699,-23.5 665.473,-23.5 665.473,-5.5 626.699,-5.5"/>
<text text-anchor="middle" x="646.086" y="-11.5" font-family="Helvetica,sans-Serif" font-size="10.00">limits</text>
</g>
<!-- Node12&#45;&gt;Node13 -->
<g id="edge14" class="edge"><title>Node12&#45;&gt;Node13</title>
<path fill="none" stroke="midnightblue" d="M671.054,-65.4353C666.86,-57.0467 660.163,-43.6539 654.761,-32.8491"/>
<polygon fill="midnightblue" stroke="midnightblue" points="657.875,-31.2508 650.272,-23.8718 651.614,-34.3813 657.875,-31.2508"/>
</g>
<!-- Node14 -->
<g id="node14" class="node"><title>Node14</title>
<polygon fill="white" stroke="#bfbfbf" points="683.86,-5.5 683.86,-23.5 724.313,-23.5 724.313,-5.5 683.86,-5.5"/>
<text text-anchor="middle" x="704.086" y="-11.5" font-family="Helvetica,sans-Serif" font-size="10.00">string</text>
</g>
<!-- Node12&#45;&gt;Node14 -->
<g id="edge16" class="edge"><title>Node12&#45;&gt;Node14</title>
<path fill="none" stroke="midnightblue" d="M679.118,-65.4353C683.313,-57.0467 690.009,-43.6539 695.412,-32.8491"/>
<polygon fill="midnightblue" stroke="midnightblue" points="698.559,-34.3813 699.9,-23.8718 692.298,-31.2508 698.559,-34.3813"/>
</g>
<!-- Node15 -->
<g id="node15" class="node"><title>Node15</title>
<polygon fill="white" stroke="#bfbfbf" points="742.682,-5.5 742.682,-23.5 801.49,-23.5 801.49,-5.5 742.682,-5.5"/>
<text text-anchor="middle" x="772.086" y="-11.5" font-family="Helvetica,sans-Serif" font-size="10.00">functional</text>
</g>
<!-- Node12&#45;&gt;Node15 -->
<g id="edge17" class="edge"><title>Node12&#45;&gt;Node15</title>
<path fill="none" stroke="midnightblue" d="M688.574,-65.4353C704.41,-55.9661 730.911,-40.1201 749.812,-28.8184"/>
<polygon fill="midnightblue" stroke="midnightblue" points="751.614,-31.8191 758.401,-23.6831 748.022,-25.8112 751.614,-31.8191"/>
</g>
<!-- Node16&#45;&gt;Node17 -->
<g id="edge19" class="edge"><title>Node16&#45;&gt;Node17</title>
<path fill="none" stroke="midnightblue" d="M119.412,-65.4353C112.257,-56.7899 100.703,-42.8292 91.629,-31.8643"/>
<polygon fill="midnightblue" stroke="midnightblue" points="94.0866,-29.3442 85.0145,-23.8718 88.6938,-33.8072 94.0866,-29.3442"/>
</g>
<!-- Node20&#45;&gt;Node7 -->
<g id="edge25" class="edge"><title>Node20&#45;&gt;Node7</title>
<path fill="none" stroke="midnightblue" d="M159.155,-250.435C146.149,-242.324 125.643,-229.535 108.638,-218.93"/>
<polygon fill="midnightblue" stroke="midnightblue" points="110.461,-215.942 100.124,-213.62 106.757,-221.882 110.461,-215.942"/>
</g>
<!-- Node20&#45;&gt;Node16 -->
<g id="edge26" class="edge"><title>Node20&#45;&gt;Node16</title>
<path fill="none" stroke="midnightblue" d="M169.99,-250.161C163.015,-222.414 140.479,-132.757 130.693,-93.8256"/>
<polygon fill="midnightblue" stroke="midnightblue" points="134.027,-92.7327 128.195,-83.8876 127.238,-94.4392 134.027,-92.7327"/>
</g>
<!-- Node20&#45;&gt;Node21 -->
<g id="edge27" class="edge"><title>Node20&#45;&gt;Node21</title>
<path fill="none" stroke="midnightblue" d="M182.654,-250.435C194.655,-241.276 214.473,-226.152 229.16,-214.944"/>
<polygon fill="midnightblue" stroke="midnightblue" points="231.29,-217.721 237.116,-208.872 227.043,-212.156 231.29,-217.721"/>
</g>
<!-- Node24 -->
<g id="node24" class="node"><title>Node24</title>
<g id="a_node24"><a xlink:href="xmm_model_parameters_8hpp.html" target="_top" xlink:title="../../core/model/xmmModel\lParameters.hpp">
<polygon fill="white" stroke="black" points="351.18,-120.5 351.18,-148.5 484.992,-148.5 484.992,-120.5 351.18,-120.5"/>
<text text-anchor="start" x="359.18" y="-136.5" font-family="Helvetica,sans-Serif" font-size="10.00">../../core/model/xmmModel</text>
<text text-anchor="middle" x="418.086" y="-126.5" font-family="Helvetica,sans-Serif" font-size="10.00">Parameters.hpp</text>
</a>
</g>
</g>
<!-- Node23&#45;&gt;Node24 -->
<g id="edge31" class="edge"><title>Node23&#45;&gt;Node24</title>
<path fill="none" stroke="midnightblue" d="M418.955,-190.264C418.83,-182.359 418.634,-170.038 418.46,-159.083"/>
<polygon fill="midnightblue" stroke="midnightblue" points="421.956,-158.741 418.297,-148.798 414.956,-158.852 421.956,-158.741"/>
</g>
<!-- Node25 -->
<g id="node25" class="node"><title>Node25</title>
<g id="a_node25"><a xlink:href="xmm_gaussian_distribution_8hpp.html" target="_top" xlink:title="../../core/distributions\l/xmmGaussianDistribution.hpp">
<polygon fill="white" stroke="black" points="503.003,-120.5 503.003,-148.5 655.17,-148.5 655.17,-120.5 503.003,-120.5"/>
<text text-anchor="start" x="511.003" y="-136.5" font-family="Helvetica,sans-Serif" font-size="10.00">../../core/distributions</text>
<text text-anchor="middle" x="579.086" y="-126.5" font-family="Helvetica,sans-Serif" font-size="10.00">/xmmGaussianDistribution.hpp</text>
</a>
</g>
</g>
<!-- Node23&#45;&gt;Node25 -->
<g id="edge34" class="edge"><title>Node23&#45;&gt;Node25</title>
<path fill="none" stroke="midnightblue" d="M439.676,-190.393C464.076,-180.785 505.367,-164.527 536.696,-152.191"/>
<polygon fill="midnightblue" stroke="midnightblue" points="538.047,-155.421 546.07,-148.5 535.483,-148.907 538.047,-155.421"/>
</g>
<!-- Node24&#45;&gt;Node9 -->
<g id="edge32" class="edge"><title>Node24&#45;&gt;Node9</title>
<path fill="none" stroke="midnightblue" d="M399.706,-120.339C386.963,-111.215 370.006,-99.0725 356.952,-89.7249"/>
<polygon fill="midnightblue" stroke="midnightblue" points="358.806,-86.7477 348.638,-83.7715 354.731,-92.4391 358.806,-86.7477"/>
</g>
<!-- Node24&#45;&gt;Node12 -->
<g id="edge33" class="edge"><title>Node24&#45;&gt;Node12</title>
<path fill="none" stroke="midnightblue" d="M475.762,-120.484C522.208,-110.002 586.606,-95.4682 629.497,-85.7885"/>
<polygon fill="midnightblue" stroke="midnightblue" points="630.394,-89.1744 639.378,-83.5587 628.853,-82.3461 630.394,-89.1744"/>
</g>
<!-- Node25&#45;&gt;Node9 -->
<g id="edge35" class="edge"><title>Node25&#45;&gt;Node9</title>
<path fill="none" stroke="midnightblue" d="M524.777,-120.484C481.226,-110.046 420.913,-95.5908 380.527,-85.9113"/>
<polygon fill="midnightblue" stroke="midnightblue" points="381.251,-82.4859 370.71,-83.5587 379.619,-89.2931 381.251,-82.4859"/>
</g>
<!-- Node25&#45;&gt;Node12 -->
<g id="edge36" class="edge"><title>Node25&#45;&gt;Node12</title>
<path fill="none" stroke="midnightblue" d="M600.87,-120.339C616.355,-110.984 637.09,-98.4562 652.707,-89.021"/>
<polygon fill="midnightblue" stroke="midnightblue" points="654.927,-91.7688 661.676,-83.6018 651.307,-85.7773 654.927,-91.7688"/>
</g>
</g>
</svg>
