<?xml version="1.0" encoding="UTF-8" standalone="no"?>
<!DOCTYPE svg PUBLIC "-//W3C//DTD SVG 1.1//EN"
 "http://www.w3.org/Graphics/SVG/1.1/DTD/svg11.dtd">
<!-- Generated by graphviz version 2.38.0 (20140413.2041)
 -->
<!-- Title: xmmModelParameters.hpp Pages: 1 -->
<svg width="523pt" height="147pt"
 viewBox="0.00 0.00 522.99 147.00" xmlns="http://www.w3.org/2000/svg" xmlns:xlink="http://www.w3.org/1999/xlink">
<g id="graph0" class="graph" transform="scale(1 1) rotate(0) translate(4 143)">
<title>xmmModelParameters.hpp</title>
<polygon fill="white" stroke="none" points="-4,4 -4,-143 518.992,-143 518.992,4 -4,4"/>
<!-- Node1 -->
<g id="node1" class="node"><title>Node1</title>
<polygon fill="#bfbfbf" stroke="black" points="190.566,-120.5 190.566,-138.5 326.61,-138.5 326.61,-120.5 190.566,-120.5"/>
<text text-anchor="middle" x="258.588" y="-126.5" font-family="Helvetica,sans-Serif" font-size="10.00">xmmModelParameters.hpp</text>
</g>
<!-- Node2 -->
<g id="node2" class="node"><title>Node2</title>
<g id="a_node2"><a xlink:href="xmm_json_8hpp.html" target="_top" xlink:title="../common/xmmJson.hpp">
<polygon fill="white" stroke="black" points="106.736,-65.5 106.736,-83.5 234.44,-83.5 234.44,-65.5 106.736,-65.5"/>
<text text-anchor="middle" x="170.588" y="-71.5" font-family="Helvetica,sans-Serif" font-size="10.00">../common/xmmJson.hpp</text>
</a>
</g>
</g>
<!-- Node1&#45;&gt;Node2 -->
<g id="edge1" class="edge"><title>Node1&#45;&gt;Node2</title>
<path fill="none" stroke="midnightblue" d="M245.223,-120.45C231.397,-112.123 209.558,-98.9704 193.069,-89.0394"/>
<polygon fill="midnightblue" stroke="midnightblue" points="194.452,-85.7864 184.079,-83.6253 190.84,-91.7828 194.452,-85.7864"/>
</g>
<!-- Node6 -->
<g id="node6" class="node"><title>Node6</title>
<g id="a_node6"><a xlink:href="xmm_attribute_8hpp.html" target="_top" xlink:title="../common/xmmAttribute.hpp">
<polygon fill="white" stroke="black" points="275.677,-65.5 275.677,-83.5 419.5,-83.5 419.5,-65.5 275.677,-65.5"/>
<text text-anchor="middle" x="347.588" y="-71.5" font-family="Helvetica,sans-Serif" font-size="10.00">../common/xmmAttribute.hpp</text>
</a>
</g>
</g>
<!-- Node1&#45;&gt;Node6 -->
<g id="edge5" class="edge"><title>Node1&#45;&gt;Node6</title>
<path fill="none" stroke="midnightblue" d="M272.106,-120.45C286.22,-112.045 308.589,-98.7241 325.319,-88.7618"/>
<polygon fill="midnightblue" stroke="midnightblue" points="327.143,-91.7491 333.944,-83.6253 323.561,-85.7347 327.143,-91.7491"/>
</g>
<!-- Node3 -->
<g id="node3" class="node"><title>Node3</title>
<polygon fill="white" stroke="#bfbfbf" points="0,-0.5 0,-28.5 117.177,-28.5 117.177,-0.5 0,-0.5"/>
<text text-anchor="start" x="8" y="-16.5" font-family="Helvetica,sans-Serif" font-size="10.00">../../../dependencies</text>
<text text-anchor="middle" x="58.5884" y="-6.5" font-family="Helvetica,sans-Serif" font-size="10.00">/jsoncpp/include/json.h</text>
</g>
<!-- Node2&#45;&gt;Node3 -->
<g id="edge2" class="edge"><title>Node2&#45;&gt;Node3</title>
<path fill="none" stroke="midnightblue" d="M155.015,-65.4353C139.065,-57.1756 113.747,-44.0642 93.0553,-33.3489"/>
<polygon fill="midnightblue" stroke="midnightblue" points="94.4137,-30.1109 83.9242,-28.6203 91.1946,-36.3269 94.4137,-30.1109"/>
</g>
<!-- Node4 -->
<g id="node4" class="node"><title>Node4</title>
<polygon fill="white" stroke="#bfbfbf" points="134.918,-5.5 134.918,-23.5 184.258,-23.5 184.258,-5.5 134.918,-5.5"/>
<text text-anchor="middle" x="159.588" y="-11.5" font-family="Helvetica,sans-Serif" font-size="10.00">fstream</text>
</g>
<!-- Node2&#45;&gt;Node4 -->
<g id="edge3" class="edge"><title>Node2&#45;&gt;Node4</title>
<path fill="none" stroke="midnightblue" d="M169.059,-65.4353C167.517,-57.3035 165.083,-44.4692 163.068,-33.8485"/>
<polygon fill="midnightblue" stroke="midnightblue" points="166.478,-33.0444 161.176,-23.8718 159.601,-34.3488 166.478,-33.0444"/>
</g>
<!-- Node5 -->
<g id="node5" class="node"><title>Node5</title>
<polygon fill="white" stroke="#bfbfbf" points="201.973,-5.5 201.973,-23.5 245.204,-23.5 245.204,-5.5 201.973,-5.5"/>
<text text-anchor="middle" x="223.588" y="-11.5" font-family="Helvetica,sans-Serif" font-size="10.00">vector</text>
</g>
<!-- Node2&#45;&gt;Node5 -->
<g id="edge4" class="edge"><title>Node2&#45;&gt;Node5</title>
<path fill="none" stroke="midnightblue" d="M177.958,-65.4353C185.936,-56.7043 198.868,-42.5523 208.932,-31.5395"/>
<polygon fill="midnightblue" stroke="midnightblue" points="211.776,-33.6149 215.938,-23.8718 206.609,-28.8929 211.776,-33.6149"/>
</g>
<!-- Node6&#45;&gt;Node5 -->
<g id="edge8" class="edge"><title>Node6&#45;&gt;Node5</title>
<path fill="none" stroke="midnightblue" d="M330.347,-65.4353C309.642,-55.7508 274.678,-39.3966 250.43,-28.055"/>
<polygon fill="midnightblue" stroke="midnightblue" points="251.624,-24.7497 241.083,-23.6831 248.659,-31.0904 251.624,-24.7497"/>
</g>
<!-- Node7 -->
<g id="node7" class="node"><title>Node7</title>
<polygon fill="white" stroke="#bfbfbf" points="263.187,-5.5 263.187,-23.5 321.99,-23.5 321.99,-5.5 263.187,-5.5"/>
<text text-anchor="middle" x="292.588" y="-11.5" font-family="Helvetica,sans-Serif" font-size="10.00">stdexcept</text>
</g>
<!-- Node6&#45;&gt;Node7 -->
<g id="edge6" class="edge"><title>Node6&#45;&gt;Node7</title>
<path fill="none" stroke="midnightblue" d="M339.941,-65.4353C331.58,-56.6187 317.978,-42.2743 307.492,-31.2165"/>
<polygon fill="midnightblue" stroke="midnightblue" points="309.948,-28.7197 300.527,-23.8718 304.868,-33.5364 309.948,-28.7197"/>
</g>
<!-- Node8 -->
<g id="node8" class="node"><title>Node8</title>
<polygon fill="white" stroke="#bfbfbf" points="340.202,-5.5 340.202,-23.5 378.975,-23.5 378.975,-5.5 340.202,-5.5"/>
<text text-anchor="middle" x="359.588" y="-11.5" font-family="Helvetica,sans-Serif" font-size="10.00">limits</text>
</g>
<!-- Node6&#45;&gt;Node8 -->
<g id="edge7" class="edge"><title>Node6&#45;&gt;Node8</title>
<path fill="none" stroke="midnightblue" d="M349.257,-65.4353C350.939,-57.3035 353.595,-44.4692 355.792,-33.8485"/>
<polygon fill="midnightblue" stroke="midnightblue" points="359.258,-34.3735 357.856,-23.8718 352.403,-32.9552 359.258,-34.3735"/>
</g>
<!-- Node9 -->
<g id="node9" class="node"><title>Node9</title>
<polygon fill="white" stroke="#bfbfbf" points="397.362,-5.5 397.362,-23.5 437.815,-23.5 437.815,-5.5 397.362,-5.5"/>
<text text-anchor="middle" x="417.588" y="-11.5" font-family="Helvetica,sans-Serif" font-size="10.00">string</text>
</g>
<!-- Node6&#45;&gt;Node9 -->
<g id="edge9" class="edge"><title>Node6&#45;&gt;Node9</title>
<path fill="none" stroke="midnightblue" d="M357.322,-65.4353C368.272,-56.3619 386.289,-41.434 399.776,-30.2589"/>
<polygon fill="midnightblue" stroke="midnightblue" points="402.017,-32.9471 407.485,-23.8718 397.551,-27.5569 402.017,-32.9471"/>
</g>
<!-- Node10 -->
<g id="node10" class="node"><title>Node10</title>
<polygon fill="white" stroke="#bfbfbf" points="456.185,-5.5 456.185,-23.5 514.992,-23.5 514.992,-5.5 456.185,-5.5"/>
<text text-anchor="middle" x="485.588" y="-11.5" font-family="Helvetica,sans-Serif" font-size="10.00">functional</text>
</g>
<!-- Node6&#45;&gt;Node10 -->
<g id="edge10" class="edge"><title>Node6&#45;&gt;Node10</title>
<path fill="none" stroke="midnightblue" d="M366.777,-65.4353C390.126,-55.6217 429.771,-38.9593 456.789,-27.604"/>
<polygon fill="midnightblue" stroke="midnightblue" points="458.255,-30.7844 466.118,-23.6831 455.543,-24.3312 458.255,-30.7844"/>
</g>
</g>
</svg>
