<?xml version="1.0" encoding="UTF-8" standalone="no"?>
<!DOCTYPE svg PUBLIC "-//W3C//DTD SVG 1.1//EN"
 "http://www.w3.org/Graphics/SVG/1.1/DTD/svg11.dtd">
<!-- Generated by graphviz version 2.38.0 (20140413.2041)
 -->
<!-- Title: xmmModel.hpp Pages: 1 -->
<svg width="936pt" height="377pt"
 viewBox="0.00 0.00 935.77 377.00" xmlns="http://www.w3.org/2000/svg" xmlns:xlink="http://www.w3.org/1999/xlink">
<g id="graph0" class="graph" transform="scale(1 1) rotate(0) translate(4 373)">
<title>xmmModel.hpp</title>
<polygon fill="white" stroke="none" points="-4,4 -4,-373 931.766,-373 931.766,4 -4,4"/>
<!-- Node1 -->
<g id="node1" class="node"><title>Node1</title>
<polygon fill="#bfbfbf" stroke="black" points="691.409,-350.5 691.409,-368.5 775.768,-368.5 775.768,-350.5 691.409,-350.5"/>
<text text-anchor="middle" x="733.588" y="-356.5" font-family="Helvetica,sans-Serif" font-size="10.00">xmmModel.hpp</text>
</g>
<!-- Node2 -->
<g id="node2" class="node"><title>Node2</title>
<g id="a_node2"><a xlink:href="xmm_model_configuration_8hpp.html" target="_top" xlink:title="xmmModelConfiguration.hpp">
<polygon fill="white" stroke="black" points="327.667,-240.5 327.667,-258.5 471.509,-258.5 471.509,-240.5 327.667,-240.5"/>
<text text-anchor="middle" x="399.588" y="-246.5" font-family="Helvetica,sans-Serif" font-size="10.00">xmmModelConfiguration.hpp</text>
</a>
</g>
</g>
<!-- Node1&#45;&gt;Node2 -->
<g id="edge1" class="edge"><title>Node1&#45;&gt;Node2</title>
<path fill="none" stroke="midnightblue" d="M704.997,-350.422C674.73,-341.777 625.62,-327.48 583.588,-314 529.909,-296.784 468.058,-275.042 431.478,-261.982"/>
<polygon fill="midnightblue" stroke="midnightblue" points="432.453,-258.614 421.859,-258.54 430.095,-265.204 432.453,-258.614"/>
</g>
<!-- Node13 -->
<g id="node13" class="node"><title>Node13</title>
<g id="a_node13"><a xlink:href="xmm_model_single_class_8hpp.html" target="_top" xlink:title="xmmModelSingleClass.hpp">
<polygon fill="white" stroke="black" points="593.007,-295.5 593.007,-313.5 730.169,-313.5 730.169,-295.5 593.007,-295.5"/>
<text text-anchor="middle" x="661.588" y="-301.5" font-family="Helvetica,sans-Serif" font-size="10.00">xmmModelSingleClass.hpp</text>
</a>
</g>
</g>
<!-- Node1&#45;&gt;Node13 -->
<g id="edge13" class="edge"><title>Node1&#45;&gt;Node13</title>
<path fill="none" stroke="midnightblue" d="M722.653,-350.45C711.552,-342.279 694.138,-329.46 680.743,-319.6"/>
<polygon fill="midnightblue" stroke="midnightblue" points="682.755,-316.735 672.627,-313.625 678.605,-322.372 682.755,-316.735"/>
</g>
<!-- Node24 -->
<g id="node24" class="node"><title>Node24</title>
<g id="a_node24"><a xlink:href="xmm_model_results_8hpp.html" target="_top" xlink:title="xmmModelResults.hpp">
<polygon fill="white" stroke="black" points="747.736,-295.5 747.736,-313.5 865.44,-313.5 865.44,-295.5 747.736,-295.5"/>
<text text-anchor="middle" x="806.588" y="-301.5" font-family="Helvetica,sans-Serif" font-size="10.00">xmmModelResults.hpp</text>
</a>
</g>
</g>
<!-- Node1&#45;&gt;Node24 -->
<g id="edge33" class="edge"><title>Node1&#45;&gt;Node24</title>
<path fill="none" stroke="midnightblue" d="M744.676,-350.45C755.931,-342.279 773.586,-329.46 787.168,-319.6"/>
<polygon fill="midnightblue" stroke="midnightblue" points="789.361,-322.333 795.397,-313.625 785.248,-316.668 789.361,-322.333"/>
</g>
<!-- Node25 -->
<g id="node25" class="node"><title>Node25</title>
<polygon fill="white" stroke="#bfbfbf" points="883.411,-295.5 883.411,-313.5 927.766,-313.5 927.766,-295.5 883.411,-295.5"/>
<text text-anchor="middle" x="905.588" y="-301.5" font-family="Helvetica,sans-Serif" font-size="10.00">thread</text>
</g>
<!-- Node1&#45;&gt;Node25 -->
<g id="edge34" class="edge"><title>Node1&#45;&gt;Node25</title>
<path fill="none" stroke="midnightblue" d="M759.711,-350.45C790.286,-341.029 840.907,-325.431 873.752,-315.31"/>
<polygon fill="midnightblue" stroke="midnightblue" points="874.806,-318.648 883.332,-312.358 872.745,-311.958 874.806,-318.648"/>
</g>
<!-- Node3 -->
<g id="node3" class="node"><title>Node3</title>
<g id="a_node3"><a xlink:href="xmm_model_parameters_8hpp.html" target="_top" xlink:title="xmmModelParameters.hpp">
<polygon fill="white" stroke="black" points="331.566,-120.5 331.566,-138.5 467.61,-138.5 467.61,-120.5 331.566,-120.5"/>
<text text-anchor="middle" x="399.588" y="-126.5" font-family="Helvetica,sans-Serif" font-size="10.00">xmmModelParameters.hpp</text>
</a>
</g>
</g>
<!-- Node2&#45;&gt;Node3 -->
<g id="edge2" class="edge"><title>Node2&#45;&gt;Node3</title>
<path fill="none" stroke="midnightblue" d="M399.588,-240.389C399.588,-221.611 399.588,-174.768 399.588,-148.711"/>
<polygon fill="midnightblue" stroke="midnightblue" points="403.088,-148.667 399.588,-138.667 396.088,-148.667 403.088,-148.667"/>
</g>
<!-- Node4 -->
<g id="node4" class="node"><title>Node4</title>
<g id="a_node4"><a xlink:href="xmm_json_8hpp.html" target="_top" xlink:title="../common/xmmJson.hpp">
<polygon fill="white" stroke="black" points="79.7363,-65.5 79.7363,-83.5 207.44,-83.5 207.44,-65.5 79.7363,-65.5"/>
<text text-anchor="middle" x="143.588" y="-71.5" font-family="Helvetica,sans-Serif" font-size="10.00">../common/xmmJson.hpp</text>
</a>
</g>
</g>
<!-- Node3&#45;&gt;Node4 -->
<g id="edge3" class="edge"><title>Node3&#45;&gt;Node4</title>
<path fill="none" stroke="midnightblue" d="M360.707,-120.45C315.656,-111.123 241.363,-95.7424 192.448,-85.6155"/>
<polygon fill="midnightblue" stroke="midnightblue" points="192.917,-82.1384 182.415,-83.5383 191.498,-88.993 192.917,-82.1384"/>
</g>
<!-- Node8 -->
<g id="node8" class="node"><title>Node8</title>
<g id="a_node8"><a xlink:href="xmm_attribute_8hpp.html" target="_top" xlink:title="../common/xmmAttribute.hpp">
<polygon fill="white" stroke="black" points="409.677,-65.5 409.677,-83.5 553.5,-83.5 553.5,-65.5 409.677,-65.5"/>
<text text-anchor="middle" x="481.588" y="-71.5" font-family="Helvetica,sans-Serif" font-size="10.00">../common/xmmAttribute.hpp</text>
</a>
</g>
</g>
<!-- Node3&#45;&gt;Node8 -->
<g id="edge7" class="edge"><title>Node3&#45;&gt;Node8</title>
<path fill="none" stroke="midnightblue" d="M412.042,-120.45C424.806,-112.201 444.896,-99.2158 460.209,-89.3187"/>
<polygon fill="midnightblue" stroke="midnightblue" points="462.519,-91.9931 469.017,-83.6253 458.719,-86.1142 462.519,-91.9931"/>
</g>
<!-- Node5 -->
<g id="node5" class="node"><title>Node5</title>
<polygon fill="white" stroke="#bfbfbf" points="0,-0.5 0,-28.5 117.177,-28.5 117.177,-0.5 0,-0.5"/>
<text text-anchor="start" x="8" y="-16.5" font-family="Helvetica,sans-Serif" font-size="10.00">../../../dependencies</text>
<text text-anchor="middle" x="58.5884" y="-6.5" font-family="Helvetica,sans-Serif" font-size="10.00">/jsoncpp/include/json.h</text>
</g>
<!-- Node4&#45;&gt;Node5 -->
<g id="edge4" class="edge"><title>Node4&#45;&gt;Node5</title>
<path fill="none" stroke="midnightblue" d="M131.769,-65.4353C120.101,-57.4733 101.825,-45.0029 86.4572,-34.5163"/>
<polygon fill="midnightblue" stroke="midnightblue" points="88.0494,-31.3657 77.8164,-28.6203 84.1039,-37.1478 88.0494,-31.3657"/>
</g>
<!-- Node6 -->
<g id="node6" class="node"><title>Node6</title>
<polygon fill="white" stroke="#bfbfbf" points="134.918,-5.5 134.918,-23.5 184.258,-23.5 184.258,-5.5 134.918,-5.5"/>
<text text-anchor="middle" x="159.588" y="-11.5" font-family="Helvetica,sans-Serif" font-size="10.00">fstream</text>
</g>
<!-- Node4&#45;&gt;Node6 -->
<g id="edge5" class="edge"><title>Node4&#45;&gt;Node6</title>
<path fill="none" stroke="midnightblue" d="M145.813,-65.4353C148.08,-57.2179 151.672,-44.1985 154.619,-33.5138"/>
<polygon fill="midnightblue" stroke="midnightblue" points="157.994,-34.4425 157.279,-23.8718 151.246,-32.5809 157.994,-34.4425"/>
</g>
<!-- Node7 -->
<g id="node7" class="node"><title>Node7</title>
<polygon fill="white" stroke="#bfbfbf" points="217.973,-5.5 217.973,-23.5 261.204,-23.5 261.204,-5.5 217.973,-5.5"/>
<text text-anchor="middle" x="239.588" y="-11.5" font-family="Helvetica,sans-Serif" font-size="10.00">vector</text>
</g>
<!-- Node4&#45;&gt;Node7 -->
<g id="edge6" class="edge"><title>Node4&#45;&gt;Node7</title>
<path fill="none" stroke="midnightblue" d="M156.937,-65.4353C172.539,-56.0091 198.6,-40.2641 217.289,-28.9728"/>
<polygon fill="midnightblue" stroke="midnightblue" points="219.295,-31.85 226.044,-23.6831 215.675,-25.8586 219.295,-31.85"/>
</g>
<!-- Node8&#45;&gt;Node7 -->
<g id="edge10" class="edge"><title>Node8&#45;&gt;Node7</title>
<path fill="none" stroke="midnightblue" d="M428.794,-65.4272C385.643,-58.103 323.367,-45.865 270.588,-29 268.974,-28.4841 267.329,-27.9128 265.682,-27.3052"/>
<polygon fill="midnightblue" stroke="midnightblue" points="266.988,-24.0583 256.405,-23.5608 264.368,-30.5494 266.988,-24.0583"/>
</g>
<!-- Node9 -->
<g id="node9" class="node"><title>Node9</title>
<polygon fill="white" stroke="#bfbfbf" points="356.187,-5.5 356.187,-23.5 414.99,-23.5 414.99,-5.5 356.187,-5.5"/>
<text text-anchor="middle" x="385.588" y="-11.5" font-family="Helvetica,sans-Serif" font-size="10.00">stdexcept</text>
</g>
<!-- Node8&#45;&gt;Node9 -->
<g id="edge8" class="edge"><title>Node8&#45;&gt;Node9</title>
<path fill="none" stroke="midnightblue" d="M468.24,-65.4353C452.638,-56.0091 426.577,-40.2641 407.888,-28.9728"/>
<polygon fill="midnightblue" stroke="midnightblue" points="409.502,-25.8586 399.133,-23.6831 405.882,-31.85 409.502,-25.8586"/>
</g>
<!-- Node10 -->
<g id="node10" class="node"><title>Node10</title>
<polygon fill="white" stroke="#bfbfbf" points="433.202,-5.5 433.202,-23.5 471.975,-23.5 471.975,-5.5 433.202,-5.5"/>
<text text-anchor="middle" x="452.588" y="-11.5" font-family="Helvetica,sans-Serif" font-size="10.00">limits</text>
</g>
<!-- Node8&#45;&gt;Node10 -->
<g id="edge9" class="edge"><title>Node8&#45;&gt;Node10</title>
<path fill="none" stroke="midnightblue" d="M477.556,-65.4353C473.362,-57.0467 466.665,-43.6539 461.263,-32.8491"/>
<polygon fill="midnightblue" stroke="midnightblue" points="464.377,-31.2508 456.774,-23.8718 458.116,-34.3813 464.377,-31.2508"/>
</g>
<!-- Node11 -->
<g id="node11" class="node"><title>Node11</title>
<polygon fill="white" stroke="#bfbfbf" points="490.362,-5.5 490.362,-23.5 530.815,-23.5 530.815,-5.5 490.362,-5.5"/>
<text text-anchor="middle" x="510.588" y="-11.5" font-family="Helvetica,sans-Serif" font-size="10.00">string</text>
</g>
<!-- Node8&#45;&gt;Node11 -->
<g id="edge11" class="edge"><title>Node8&#45;&gt;Node11</title>
<path fill="none" stroke="midnightblue" d="M485.621,-65.4353C489.815,-57.0467 496.511,-43.6539 501.914,-32.8491"/>
<polygon fill="midnightblue" stroke="midnightblue" points="505.061,-34.3813 506.403,-23.8718 498.8,-31.2508 505.061,-34.3813"/>
</g>
<!-- Node12 -->
<g id="node12" class="node"><title>Node12</title>
<polygon fill="white" stroke="#bfbfbf" points="549.185,-5.5 549.185,-23.5 607.992,-23.5 607.992,-5.5 549.185,-5.5"/>
<text text-anchor="middle" x="578.588" y="-11.5" font-family="Helvetica,sans-Serif" font-size="10.00">functional</text>
</g>
<!-- Node8&#45;&gt;Node12 -->
<g id="edge12" class="edge"><title>Node8&#45;&gt;Node12</title>
<path fill="none" stroke="midnightblue" d="M495.076,-65.4353C510.912,-55.9661 537.413,-40.1201 556.315,-28.8184"/>
<polygon fill="midnightblue" stroke="midnightblue" points="558.116,-31.8191 564.903,-23.6831 554.524,-25.8112 558.116,-31.8191"/>
</g>
<!-- Node14 -->
<g id="node14" class="node"><title>Node14</title>
<g id="a_node14"><a xlink:href="xmm_circularbuffer_8hpp.html" target="_top" xlink:title="../common/xmmCircularbuffer.hpp">
<polygon fill="white" stroke="black" points="225.649,-65.5 225.649,-83.5 391.527,-83.5 391.527,-65.5 225.649,-65.5"/>
<text text-anchor="middle" x="308.588" y="-71.5" font-family="Helvetica,sans-Serif" font-size="10.00">../common/xmmCircularbuffer.hpp</text>
</a>
</g>
</g>
<!-- Node13&#45;&gt;Node14 -->
<g id="edge14" class="edge"><title>Node13&#45;&gt;Node14</title>
<path fill="none" stroke="midnightblue" d="M653.818,-295.31C621.498,-261.309 498.375,-132.478 476.588,-120 446.584,-102.815 409.777,-92.0989 378.271,-85.5031"/>
<polygon fill="midnightblue" stroke="midnightblue" points="378.734,-82.0267 368.243,-83.5034 377.365,-88.8915 378.734,-82.0267"/>
</g>
<!-- Node16 -->
<g id="node16" class="node"><title>Node16</title>
<g id="a_node16"><a xlink:href="xmm_training_set_8hpp.html" target="_top" xlink:title="../trainingset/xmmTraining\lSet.hpp">
<polygon fill="white" stroke="black" points="577.252,-175.5 577.252,-203.5 707.925,-203.5 707.925,-175.5 577.252,-175.5"/>
<text text-anchor="start" x="585.252" y="-191.5" font-family="Helvetica,sans-Serif" font-size="10.00">../trainingset/xmmTraining</text>
<text text-anchor="middle" x="642.588" y="-181.5" font-family="Helvetica,sans-Serif" font-size="10.00">Set.hpp</text>
</a>
</g>
</g>
<!-- Node13&#45;&gt;Node16 -->
<g id="edge18" class="edge"><title>Node13&#45;&gt;Node16</title>
<path fill="none" stroke="midnightblue" d="M660.222,-295.373C657.378,-278.459 650.732,-238.933 646.46,-213.527"/>
<polygon fill="midnightblue" stroke="midnightblue" points="649.903,-212.892 644.793,-203.611 643,-214.053 649.903,-212.892"/>
</g>
<!-- Node18 -->
<g id="node18" class="node"><title>Node18</title>
<g id="a_node18"><a xlink:href="xmm_events_8hpp.html" target="_top" xlink:title="../common/xmmEvents.hpp">
<polygon fill="white" stroke="black" points="672.012,-65.5 672.012,-83.5 809.165,-83.5 809.165,-65.5 672.012,-65.5"/>
<text text-anchor="middle" x="740.588" y="-71.5" font-family="Helvetica,sans-Serif" font-size="10.00">../common/xmmEvents.hpp</text>
</a>
</g>
</g>
<!-- Node13&#45;&gt;Node18 -->
<g id="edge27" class="edge"><title>Node13&#45;&gt;Node18</title>
<path fill="none" stroke="midnightblue" d="M666.453,-295.494C678.595,-275.391 709.75,-223.04 716.588,-204 730.226,-166.029 736.496,-118.828 739.055,-93.5265"/>
<polygon fill="midnightblue" stroke="midnightblue" points="742.541,-93.8356 739.983,-83.5544 735.571,-93.1872 742.541,-93.8356"/>
</g>
<!-- Node22 -->
<g id="node22" class="node"><title>Node22</title>
<g id="a_node22"><a xlink:href="xmm_model_shared_parameters_8hpp.html" target="_top" xlink:title="xmmModelSharedParameters.hpp">
<polygon fill="white" stroke="black" points="708.443,-240.5 708.443,-258.5 876.733,-258.5 876.733,-240.5 708.443,-240.5"/>
<text text-anchor="middle" x="792.588" y="-246.5" font-family="Helvetica,sans-Serif" font-size="10.00">xmmModelSharedParameters.hpp</text>
</a>
</g>
</g>
<!-- Node13&#45;&gt;Node22 -->
<g id="edge28" class="edge"><title>Node13&#45;&gt;Node22</title>
<path fill="none" stroke="midnightblue" d="M681.484,-295.45C703.221,-286.656 738.26,-272.48 763.174,-262.401"/>
<polygon fill="midnightblue" stroke="midnightblue" points="764.548,-265.62 772.505,-258.625 761.922,-259.131 764.548,-265.62"/>
</g>
<!-- Node23 -->
<g id="node23" class="node"><title>Node23</title>
<polygon fill="white" stroke="#bfbfbf" points="842.973,-180.5 842.973,-198.5 886.204,-198.5 886.204,-180.5 842.973,-180.5"/>
<text text-anchor="middle" x="864.588" y="-186.5" font-family="Helvetica,sans-Serif" font-size="10.00">mutex</text>
</g>
<!-- Node13&#45;&gt;Node23 -->
<g id="edge32" class="edge"><title>Node13&#45;&gt;Node23</title>
<path fill="none" stroke="midnightblue" d="M722.16,-295.461C784.884,-286.518 875.196,-271.661 885.588,-259 897.875,-244.032 887.451,-221.935 877.394,-206.916"/>
<polygon fill="midnightblue" stroke="midnightblue" points="880.082,-204.659 871.387,-198.606 874.409,-208.76 880.082,-204.659"/>
</g>
<!-- Node14&#45;&gt;Node7 -->
<g id="edge15" class="edge"><title>Node14&#45;&gt;Node7</title>
<path fill="none" stroke="midnightblue" d="M298.994,-65.4353C288.302,-56.4475 270.775,-41.7151 257.524,-30.5762"/>
<polygon fill="midnightblue" stroke="midnightblue" points="259.455,-27.6271 249.548,-23.8718 254.951,-32.9855 259.455,-27.6271"/>
</g>
<!-- Node14&#45;&gt;Node9 -->
<g id="edge17" class="edge"><title>Node14&#45;&gt;Node9</title>
<path fill="none" stroke="midnightblue" d="M319.295,-65.4353C331.454,-56.2763 351.533,-41.1518 366.413,-29.9437"/>
<polygon fill="midnightblue" stroke="midnightblue" points="368.592,-32.684 374.474,-23.8718 364.381,-27.0927 368.592,-32.684"/>
</g>
<!-- Node15 -->
<g id="node15" class="node"><title>Node15</title>
<polygon fill="white" stroke="#bfbfbf" points="279.185,-5.5 279.185,-23.5 337.992,-23.5 337.992,-5.5 279.185,-5.5"/>
<text text-anchor="middle" x="308.588" y="-11.5" font-family="Helvetica,sans-Serif" font-size="10.00">exception</text>
</g>
<!-- Node14&#45;&gt;Node15 -->
<g id="edge16" class="edge"><title>Node14&#45;&gt;Node15</title>
<path fill="none" stroke="midnightblue" d="M308.588,-65.4353C308.588,-57.3891 308.588,-44.7388 308.588,-34.1846"/>
<polygon fill="midnightblue" stroke="midnightblue" points="312.088,-33.8717 308.588,-23.8718 305.088,-33.8718 312.088,-33.8717"/>
</g>
<!-- Node17 -->
<g id="node17" class="node"><title>Node17</title>
<g id="a_node17"><a xlink:href="xmm_phrase_8hpp.html" target="_top" xlink:title="xmmPhrase.hpp">
<polygon fill="white" stroke="black" points="527.185,-120.5 527.185,-138.5 615.992,-138.5 615.992,-120.5 527.185,-120.5"/>
<text text-anchor="middle" x="571.588" y="-126.5" font-family="Helvetica,sans-Serif" font-size="10.00">xmmPhrase.hpp</text>
</a>
</g>
</g>
<!-- Node16&#45;&gt;Node17 -->
<g id="edge19" class="edge"><title>Node16&#45;&gt;Node17</title>
<path fill="none" stroke="midnightblue" d="M626.477,-175.339C615.523,-166.39 601.015,-154.538 589.666,-145.267"/>
<polygon fill="midnightblue" stroke="midnightblue" points="591.673,-142.387 581.714,-138.771 587.244,-147.808 591.673,-142.387"/>
</g>
<!-- Node19 -->
<g id="node19" class="node"><title>Node19</title>
<polygon fill="white" stroke="#bfbfbf" points="676.918,-5.5 676.918,-23.5 706.258,-23.5 706.258,-5.5 676.918,-5.5"/>
<text text-anchor="middle" x="691.588" y="-11.5" font-family="Helvetica,sans-Serif" font-size="10.00">set</text>
</g>
<!-- Node16&#45;&gt;Node19 -->
<g id="edge26" class="edge"><title>Node16&#45;&gt;Node19</title>
<path fill="none" stroke="midnightblue" d="M643.126,-175.488C644.415,-152.535 648.695,-103.629 662.588,-65 666.741,-53.4531 673.614,-41.5555 679.626,-32.3192"/>
<polygon fill="midnightblue" stroke="midnightblue" points="682.702,-34.021 685.43,-23.7836 676.913,-30.0847 682.702,-34.021"/>
</g>
<!-- Node21 -->
<g id="node21" class="node"><title>Node21</title>
<polygon fill="white" stroke="#bfbfbf" points="671.862,-120.5 671.862,-138.5 707.315,-138.5 707.315,-120.5 671.862,-120.5"/>
<text text-anchor="middle" x="689.588" y="-126.5" font-family="Helvetica,sans-Serif" font-size="10.00">map</text>
</g>
<!-- Node16&#45;&gt;Node21 -->
<g id="edge25" class="edge"><title>Node16&#45;&gt;Node21</title>
<path fill="none" stroke="midnightblue" d="M653.253,-175.339C660.15,-166.829 669.173,-155.693 676.502,-146.649"/>
<polygon fill="midnightblue" stroke="midnightblue" points="679.309,-148.744 682.886,-138.771 673.87,-144.337 679.309,-148.744"/>
</g>
<!-- Node17&#45;&gt;Node4 -->
<g id="edge20" class="edge"><title>Node17&#45;&gt;Node4</title>
<path fill="none" stroke="midnightblue" d="M526.996,-122.978C453.603,-113.89 306.625,-95.6891 217.491,-84.6515"/>
<polygon fill="midnightblue" stroke="midnightblue" points="217.805,-81.1638 207.451,-83.4082 216.945,-88.1107 217.805,-81.1638"/>
</g>
<!-- Node17&#45;&gt;Node8 -->
<g id="edge21" class="edge"><title>Node17&#45;&gt;Node8</title>
<path fill="none" stroke="midnightblue" d="M557.919,-120.45C543.646,-112.045 521.026,-98.7241 504.108,-88.7618"/>
<polygon fill="midnightblue" stroke="midnightblue" points="505.779,-85.6838 495.386,-83.6253 502.227,-91.7157 505.779,-85.6838"/>
</g>
<!-- Node17&#45;&gt;Node18 -->
<g id="edge22" class="edge"><title>Node17&#45;&gt;Node18</title>
<path fill="none" stroke="midnightblue" d="M597.256,-120.45C626.002,-111.436 672.78,-96.7653 705.036,-86.6496"/>
<polygon fill="midnightblue" stroke="midnightblue" points="706.462,-89.8704 714.957,-83.5383 704.368,-83.1911 706.462,-89.8704"/>
</g>
<!-- Node20 -->
<g id="node20" class="node"><title>Node20</title>
<polygon fill="white" stroke="#bfbfbf" points="571.973,-65.5 571.973,-83.5 615.204,-83.5 615.204,-65.5 571.973,-65.5"/>
<text text-anchor="middle" x="593.588" y="-71.5" font-family="Helvetica,sans-Serif" font-size="10.00">cmath</text>
</g>
<!-- Node17&#45;&gt;Node20 -->
<g id="edge24" class="edge"><title>Node17&#45;&gt;Node20</title>
<path fill="none" stroke="midnightblue" d="M575.026,-120.219C578.046,-112.942 582.541,-102.113 586.351,-92.9345"/>
<polygon fill="midnightblue" stroke="midnightblue" points="589.646,-94.1273 590.247,-83.5496 583.181,-91.4436 589.646,-94.1273"/>
</g>
<!-- Node18&#45;&gt;Node19 -->
<g id="edge23" class="edge"><title>Node18&#45;&gt;Node19</title>
<path fill="none" stroke="midnightblue" d="M733.775,-65.4353C726.399,-56.7043 714.443,-42.5523 705.139,-31.5395"/>
<polygon fill="midnightblue" stroke="midnightblue" points="707.788,-29.2519 698.661,-23.8718 702.441,-33.7694 707.788,-29.2519"/>
</g>
<!-- Node22&#45;&gt;Node16 -->
<g id="edge29" class="edge"><title>Node22&#45;&gt;Node16</title>
<path fill="none" stroke="midnightblue" d="M771.732,-240.435C749.625,-231.887 714.079,-218.143 685.871,-207.236"/>
<polygon fill="midnightblue" stroke="midnightblue" points="686.823,-203.852 676.234,-203.51 684.299,-210.381 686.823,-203.852"/>
</g>
<!-- Node22&#45;&gt;Node18 -->
<g id="edge30" class="edge"><title>Node22&#45;&gt;Node18</title>
<path fill="none" stroke="midnightblue" d="M790.08,-240.156C782.101,-213.609 757.175,-130.683 746.048,-93.6624"/>
<polygon fill="midnightblue" stroke="midnightblue" points="749.302,-92.3296 743.071,-83.7604 742.598,-94.3447 749.302,-92.3296"/>
</g>
<!-- Node22&#45;&gt;Node23 -->
<g id="edge31" class="edge"><title>Node22&#45;&gt;Node23</title>
<path fill="none" stroke="midnightblue" d="M802.6,-240.435C813.863,-231.362 832.394,-216.434 846.267,-205.259"/>
<polygon fill="midnightblue" stroke="midnightblue" points="848.604,-207.871 854.196,-198.872 844.213,-202.419 848.604,-207.871"/>
</g>
</g>
</svg>
