<?xml version="1.0" encoding="UTF-8" standalone="no"?>
<!DOCTYPE svg PUBLIC "-//W3C//DTD SVG 1.1//EN"
 "http://www.w3.org/Graphics/SVG/1.1/DTD/svg11.dtd">
<!-- Generated by graphviz version 2.38.0 (20140413.2041)
 -->
<!-- Title: xmmModelSharedParameters.hpp Pages: 1 -->
<svg width="635pt" height="267pt"
 viewBox="0.00 0.00 634.98 267.00" xmlns="http://www.w3.org/2000/svg" xmlns:xlink="http://www.w3.org/1999/xlink">
<g id="graph0" class="graph" transform="scale(1 1) rotate(0) translate(4 263)">
<title>xmmModelSharedParameters.hpp</title>
<polygon fill="white" stroke="none" points="-4,4 -4,-263 630.98,-263 630.98,4 -4,4"/>
<!-- Node1 -->
<g id="node1" class="node"><title>Node1</title>
<polygon fill="#bfbfbf" stroke="black" points="104.431,-240.5 104.431,-258.5 272.721,-258.5 272.721,-240.5 104.431,-240.5"/>
<text text-anchor="middle" x="188.576" y="-246.5" font-family="Helvetica,sans-Serif" font-size="10.00">xmmModelSharedParameters.hpp</text>
</g>
<!-- Node2 -->
<g id="node2" class="node"><title>Node2</title>
<g id="a_node2"><a xlink:href="xmm_training_set_8hpp.html" target="_top" xlink:title="../trainingset/xmmTraining\lSet.hpp">
<polygon fill="white" stroke="black" points="123.24,-175.5 123.24,-203.5 253.913,-203.5 253.913,-175.5 123.24,-175.5"/>
<text text-anchor="start" x="131.24" y="-191.5" font-family="Helvetica,sans-Serif" font-size="10.00">../trainingset/xmmTraining</text>
<text text-anchor="middle" x="188.576" y="-181.5" font-family="Helvetica,sans-Serif" font-size="10.00">Set.hpp</text>
</a>
</g>
</g>
<!-- Node1&#45;&gt;Node2 -->
<g id="edge1" class="edge"><title>Node1&#45;&gt;Node2</title>
<path fill="none" stroke="midnightblue" d="M188.576,-240.435C188.576,-233.56 188.576,-223.324 188.576,-213.906"/>
<polygon fill="midnightblue" stroke="midnightblue" points="192.076,-213.843 188.576,-203.843 185.076,-213.843 192.076,-213.843"/>
</g>
<!-- Node13 -->
<g id="node13" class="node"><title>Node13</title>
<g id="a_node13"><a xlink:href="xmm_events_8hpp.html" target="_top" xlink:title="../common/xmmEvents.hpp">
<polygon fill="white" stroke="black" points="0,-65.5 0,-83.5 137.152,-83.5 137.152,-65.5 0,-65.5"/>
<text text-anchor="middle" x="68.5762" y="-71.5" font-family="Helvetica,sans-Serif" font-size="10.00">../common/xmmEvents.hpp</text>
</a>
</g>
</g>
<!-- Node1&#45;&gt;Node13 -->
<g id="edge18" class="edge"><title>Node1&#45;&gt;Node13</title>
<path fill="none" stroke="midnightblue" d="M167.351,-240.437C150.872,-233.187 128.545,-221.044 114.576,-204 87.4921,-170.954 75.7403,-120.709 71.1588,-93.888"/>
<polygon fill="midnightblue" stroke="midnightblue" points="74.5624,-92.9962 69.5696,-83.6516 67.6453,-94.0702 74.5624,-92.9962"/>
</g>
<!-- Node17 -->
<g id="node17" class="node"><title>Node17</title>
<polygon fill="white" stroke="#bfbfbf" points="271.96,-180.5 271.96,-198.5 315.192,-198.5 315.192,-180.5 271.96,-180.5"/>
<text text-anchor="middle" x="293.576" y="-186.5" font-family="Helvetica,sans-Serif" font-size="10.00">mutex</text>
</g>
<!-- Node1&#45;&gt;Node17 -->
<g id="edge19" class="edge"><title>Node1&#45;&gt;Node17</title>
<path fill="none" stroke="midnightblue" d="M203.176,-240.435C220.397,-230.923 249.266,-214.976 269.744,-203.665"/>
<polygon fill="midnightblue" stroke="midnightblue" points="271.701,-206.582 278.762,-198.683 268.316,-200.455 271.701,-206.582"/>
</g>
<!-- Node3 -->
<g id="node3" class="node"><title>Node3</title>
<g id="a_node3"><a xlink:href="xmm_phrase_8hpp.html" target="_top" xlink:title="xmmPhrase.hpp">
<polygon fill="white" stroke="black" points="247.172,-120.5 247.172,-138.5 335.98,-138.5 335.98,-120.5 247.172,-120.5"/>
<text text-anchor="middle" x="291.576" y="-126.5" font-family="Helvetica,sans-Serif" font-size="10.00">xmmPhrase.hpp</text>
</a>
</g>
</g>
<!-- Node2&#45;&gt;Node3 -->
<g id="edge2" class="edge"><title>Node2&#45;&gt;Node3</title>
<path fill="none" stroke="midnightblue" d="M211.691,-175.484C228.606,-165.959 251.463,-153.088 268.394,-143.554"/>
<polygon fill="midnightblue" stroke="midnightblue" points="270.118,-146.6 277.115,-138.643 266.684,-140.5 270.118,-146.6"/>
</g>
<!-- Node14 -->
<g id="node14" class="node"><title>Node14</title>
<polygon fill="white" stroke="#bfbfbf" points="59.9062,-5.5 59.9062,-23.5 89.2461,-23.5 89.2461,-5.5 59.9062,-5.5"/>
<text text-anchor="middle" x="74.5762" y="-11.5" font-family="Helvetica,sans-Serif" font-size="10.00">set</text>
</g>
<!-- Node2&#45;&gt;Node14 -->
<g id="edge17" class="edge"><title>Node2&#45;&gt;Node14</title>
<path fill="none" stroke="midnightblue" d="M186.879,-175.327C183.217,-151.258 172.69,-99.4832 146.576,-65 139.643,-55.8447 115.722,-40.2024 97.3356,-28.9498"/>
<polygon fill="midnightblue" stroke="midnightblue" points="98.9684,-25.8472 88.5986,-23.6748 95.3503,-31.8397 98.9684,-25.8472"/>
</g>
<!-- Node16 -->
<g id="node16" class="node"><title>Node16</title>
<polygon fill="white" stroke="#bfbfbf" points="193.85,-120.5 193.85,-138.5 229.303,-138.5 229.303,-120.5 193.85,-120.5"/>
<text text-anchor="middle" x="211.576" y="-126.5" font-family="Helvetica,sans-Serif" font-size="10.00">map</text>
</g>
<!-- Node2&#45;&gt;Node16 -->
<g id="edge16" class="edge"><title>Node2&#45;&gt;Node16</title>
<path fill="none" stroke="midnightblue" d="M193.795,-175.339C196.961,-167.355 201.043,-157.061 204.498,-148.35"/>
<polygon fill="midnightblue" stroke="midnightblue" points="207.863,-149.357 208.296,-138.771 201.356,-146.777 207.863,-149.357"/>
</g>
<!-- Node4 -->
<g id="node4" class="node"><title>Node4</title>
<g id="a_node4"><a xlink:href="xmm_json_8hpp.html" target="_top" xlink:title="../common/xmmJson.hpp">
<polygon fill="white" stroke="black" points="193.724,-65.5 193.724,-83.5 321.428,-83.5 321.428,-65.5 193.724,-65.5"/>
<text text-anchor="middle" x="257.576" y="-71.5" font-family="Helvetica,sans-Serif" font-size="10.00">../common/xmmJson.hpp</text>
</a>
</g>
</g>
<!-- Node3&#45;&gt;Node4 -->
<g id="edge3" class="edge"><title>Node3&#45;&gt;Node4</title>
<path fill="none" stroke="midnightblue" d="M286.264,-120.219C281.445,-112.707 274.198,-101.411 268.194,-92.0515"/>
<polygon fill="midnightblue" stroke="midnightblue" points="271.086,-90.0767 262.74,-83.5496 265.194,-93.8564 271.086,-90.0767"/>
</g>
<!-- Node8 -->
<g id="node8" class="node"><title>Node8</title>
<g id="a_node8"><a xlink:href="xmm_attribute_8hpp.html" target="_top" xlink:title="../common/xmmAttribute.hpp">
<polygon fill="white" stroke="black" points="400.665,-65.5 400.665,-83.5 544.487,-83.5 544.487,-65.5 400.665,-65.5"/>
<text text-anchor="middle" x="472.576" y="-71.5" font-family="Helvetica,sans-Serif" font-size="10.00">../common/xmmAttribute.hpp</text>
</a>
</g>
</g>
<!-- Node3&#45;&gt;Node8 -->
<g id="edge7" class="edge"><title>Node3&#45;&gt;Node8</title>
<path fill="none" stroke="midnightblue" d="M319.066,-120.45C350.12,-111.357 400.822,-96.5108 435.393,-86.3879"/>
<polygon fill="midnightblue" stroke="midnightblue" points="436.511,-89.7075 445.125,-83.5383 434.544,-82.9896 436.511,-89.7075"/>
</g>
<!-- Node3&#45;&gt;Node13 -->
<g id="edge13" class="edge"><title>Node3&#45;&gt;Node13</title>
<path fill="none" stroke="midnightblue" d="M257.707,-120.45C218.791,-111.201 154.828,-95.9994 112.212,-85.8708"/>
<polygon fill="midnightblue" stroke="midnightblue" points="112.936,-82.4455 102.398,-83.5383 111.317,-89.2558 112.936,-82.4455"/>
</g>
<!-- Node15 -->
<g id="node15" class="node"><title>Node15</title>
<polygon fill="white" stroke="#bfbfbf" points="338.96,-65.5 338.96,-83.5 382.192,-83.5 382.192,-65.5 338.96,-65.5"/>
<text text-anchor="middle" x="360.576" y="-71.5" font-family="Helvetica,sans-Serif" font-size="10.00">cmath</text>
</g>
<!-- Node3&#45;&gt;Node15 -->
<g id="edge15" class="edge"><title>Node3&#45;&gt;Node15</title>
<path fill="none" stroke="midnightblue" d="M302.056,-120.45C312.593,-112.357 329.065,-99.7042 341.852,-89.8822"/>
<polygon fill="midnightblue" stroke="midnightblue" points="344.199,-92.4926 349.998,-83.6253 339.935,-86.9412 344.199,-92.4926"/>
</g>
<!-- Node5 -->
<g id="node5" class="node"><title>Node5</title>
<polygon fill="white" stroke="#bfbfbf" points="109.988,-0.5 109.988,-28.5 227.165,-28.5 227.165,-0.5 109.988,-0.5"/>
<text text-anchor="start" x="117.988" y="-16.5" font-family="Helvetica,sans-Serif" font-size="10.00">../../../dependencies</text>
<text text-anchor="middle" x="168.576" y="-6.5" font-family="Helvetica,sans-Serif" font-size="10.00">/jsoncpp/include/json.h</text>
</g>
<!-- Node4&#45;&gt;Node5 -->
<g id="edge4" class="edge"><title>Node4&#45;&gt;Node5</title>
<path fill="none" stroke="midnightblue" d="M245.201,-65.4353C232.869,-57.3989 213.49,-44.7694 197.306,-34.2229"/>
<polygon fill="midnightblue" stroke="midnightblue" points="198.998,-31.1479 188.709,-28.6203 195.176,-37.0125 198.998,-31.1479"/>
</g>
<!-- Node6 -->
<g id="node6" class="node"><title>Node6</title>
<polygon fill="white" stroke="#bfbfbf" points="244.906,-5.5 244.906,-23.5 294.246,-23.5 294.246,-5.5 244.906,-5.5"/>
<text text-anchor="middle" x="269.576" y="-11.5" font-family="Helvetica,sans-Serif" font-size="10.00">fstream</text>
</g>
<!-- Node4&#45;&gt;Node6 -->
<g id="edge5" class="edge"><title>Node4&#45;&gt;Node6</title>
<path fill="none" stroke="midnightblue" d="M259.245,-65.4353C260.927,-57.3035 263.583,-44.4692 265.78,-33.8485"/>
<polygon fill="midnightblue" stroke="midnightblue" points="269.245,-34.3735 267.844,-23.8718 262.391,-32.9552 269.245,-34.3735"/>
</g>
<!-- Node7 -->
<g id="node7" class="node"><title>Node7</title>
<polygon fill="white" stroke="#bfbfbf" points="312.96,-5.5 312.96,-23.5 356.192,-23.5 356.192,-5.5 312.96,-5.5"/>
<text text-anchor="middle" x="334.576" y="-11.5" font-family="Helvetica,sans-Serif" font-size="10.00">vector</text>
</g>
<!-- Node4&#45;&gt;Node7 -->
<g id="edge6" class="edge"><title>Node4&#45;&gt;Node7</title>
<path fill="none" stroke="midnightblue" d="M268.283,-65.4353C280.442,-56.2763 300.521,-41.1518 315.401,-29.9437"/>
<polygon fill="midnightblue" stroke="midnightblue" points="317.58,-32.684 323.462,-23.8718 313.369,-27.0927 317.58,-32.684"/>
</g>
<!-- Node8&#45;&gt;Node7 -->
<g id="edge10" class="edge"><title>Node8&#45;&gt;Node7</title>
<path fill="none" stroke="midnightblue" d="M453.423,-65.4711C432.19,-56.5677 396.93,-41.774 366.576,-29 365.388,-28.5001 364.176,-27.9895 362.951,-27.4736"/>
<polygon fill="midnightblue" stroke="midnightblue" points="364.1,-24.1597 353.525,-23.5006 361.381,-30.6101 364.1,-24.1597"/>
</g>
<!-- Node9 -->
<g id="node9" class="node"><title>Node9</title>
<polygon fill="white" stroke="#bfbfbf" points="375.175,-5.5 375.175,-23.5 433.978,-23.5 433.978,-5.5 375.175,-5.5"/>
<text text-anchor="middle" x="404.576" y="-11.5" font-family="Helvetica,sans-Serif" font-size="10.00">stdexcept</text>
</g>
<!-- Node8&#45;&gt;Node9 -->
<g id="edge8" class="edge"><title>Node8&#45;&gt;Node9</title>
<path fill="none" stroke="midnightblue" d="M463.121,-65.4353C452.584,-56.4475 435.311,-41.7151 422.252,-30.5762"/>
<polygon fill="midnightblue" stroke="midnightblue" points="424.271,-27.6983 414.391,-23.8718 419.728,-33.0242 424.271,-27.6983"/>
</g>
<!-- Node10 -->
<g id="node10" class="node"><title>Node10</title>
<polygon fill="white" stroke="#bfbfbf" points="452.189,-5.5 452.189,-23.5 490.963,-23.5 490.963,-5.5 452.189,-5.5"/>
<text text-anchor="middle" x="471.576" y="-11.5" font-family="Helvetica,sans-Serif" font-size="10.00">limits</text>
</g>
<!-- Node8&#45;&gt;Node10 -->
<g id="edge9" class="edge"><title>Node8&#45;&gt;Node10</title>
<path fill="none" stroke="midnightblue" d="M472.437,-65.4353C472.298,-57.3891 472.08,-44.7388 471.898,-34.1846"/>
<polygon fill="midnightblue" stroke="midnightblue" points="475.392,-33.8099 471.721,-23.8718 468.394,-33.9306 475.392,-33.8099"/>
</g>
<!-- Node11 -->
<g id="node11" class="node"><title>Node11</title>
<polygon fill="white" stroke="#bfbfbf" points="509.35,-5.5 509.35,-23.5 549.803,-23.5 549.803,-5.5 509.35,-5.5"/>
<text text-anchor="middle" x="529.576" y="-11.5" font-family="Helvetica,sans-Serif" font-size="10.00">string</text>
</g>
<!-- Node8&#45;&gt;Node11 -->
<g id="edge11" class="edge"><title>Node8&#45;&gt;Node11</title>
<path fill="none" stroke="midnightblue" d="M480.502,-65.4353C489.166,-56.6187 503.264,-42.2743 514.131,-31.2165"/>
<polygon fill="midnightblue" stroke="midnightblue" points="516.836,-33.4573 521.349,-23.8718 511.843,-28.5508 516.836,-33.4573"/>
</g>
<!-- Node12 -->
<g id="node12" class="node"><title>Node12</title>
<polygon fill="white" stroke="#bfbfbf" points="568.172,-5.5 568.172,-23.5 626.98,-23.5 626.98,-5.5 568.172,-5.5"/>
<text text-anchor="middle" x="597.576" y="-11.5" font-family="Helvetica,sans-Serif" font-size="10.00">functional</text>
</g>
<!-- Node8&#45;&gt;Node12 -->
<g id="edge12" class="edge"><title>Node8&#45;&gt;Node12</title>
<path fill="none" stroke="midnightblue" d="M489.957,-65.4353C510.921,-55.7078 546.389,-39.2511 570.843,-27.9041"/>
<polygon fill="midnightblue" stroke="midnightblue" points="572.342,-31.0671 579.94,-23.6831 569.396,-24.7173 572.342,-31.0671"/>
</g>
<!-- Node13&#45;&gt;Node14 -->
<g id="edge14" class="edge"><title>Node13&#45;&gt;Node14</title>
<path fill="none" stroke="midnightblue" d="M69.4104,-65.4353C70.2517,-57.3035 71.5794,-44.4692 72.6781,-33.8485"/>
<polygon fill="midnightblue" stroke="midnightblue" points="76.1625,-34.1789 73.7101,-23.8718 69.1996,-33.4585 76.1625,-34.1789"/>
</g>
</g>
</svg>
